<svg xmlns="http://www.w3.org/2000/svg" xmlns:xlink="http://www.w3.org/1999/xlink" viewBox="0 0 1026.69 865.1"><defs><style>.cls-1{fill:#d1d3d4;}.cls-2{fill:#a7a9ac;}.cls-3,.cls-36,.cls-51{fill:#1b75bc;}.cls-3,.cls-81{opacity:0.6;}.cls-4{fill:#939598;}.cls-29,.cls-5{fill:#6d6e71;}.cls-16,.cls-22,.cls-31,.cls-6{fill:#231f20;}.cls-6{opacity:0.63;}.cls-7{fill:url(#radial-gradient);}.cls-24,.cls-37,.cls-8{fill:#414042;}.cls-9{fill:url(#linear-gradient);}.cls-10{fill:url(#linear-gradient-2);}.cls-11{fill:url(#linear-gradient-3);}.cls-12{fill:url(#radial-gradient-2);}.cls-13{fill:url(#linear-gradient-4);}.cls-14{fill:url(#linear-gradient-5);}.cls-15{fill:url(#linear-gradient-6);}.cls-16{opacity:0.88;}.cls-17{fill:url(#radial-gradient-3);}.cls-18{fill:url(#radial-gradient-4);}.cls-19{fill:url(#radial-gradient-5);}.cls-20{fill:url(#radial-gradient-6);}.cls-21{fill:url(#radial-gradient-7);}.cls-23{opacity:0.41;fill:url(#radial-gradient-8);}.cls-24{opacity:0.5;}.cls-25{fill:#eef4d0;}.cls-26{fill:#00aeef;}.cls-27,.cls-36,.cls-37,.cls-38,.cls-39,.cls-40,.cls-41,.cls-42{opacity:0.8;}.cls-27{fill:url(#radial-gradient-9);}.cls-28{fill:#fff200;}.cls-29{opacity:0.45;}.cls-30{fill:#fff;}.cls-31{opacity:0.39;}.cls-32{fill:#662d91;}.cls-33{fill:#58595b;}.cls-34,.cls-38{fill:#2b3990;}.cls-35{fill:url(#radial-gradient-10);}.cls-39{fill:#3167b1;}.cls-40{fill:#262262;}.cls-41{fill:#4857a6;}.cls-42{fill:#65b2e3;}.cls-43{fill:url(#linear-gradient-7);}.cls-44{fill:url(#linear-gradient-8);}.cls-45{fill:url(#linear-gradient-9);}.cls-46{fill:url(#radial-gradient-11);}.cls-47{fill:url(#linear-gradient-10);}.cls-48{fill:url(#linear-gradient-11);}.cls-49{fill:url(#linear-gradient-12);}.cls-50{fill:url(#linear-gradient-13);}.cls-51{opacity:0.52;}.cls-52{fill:url(#linear-gradient-14);}.cls-53{fill:url(#linear-gradient-15);}.cls-54{fill:url(#linear-gradient-16);}.cls-55{fill:url(#linear-gradient-17);}.cls-56{fill:url(#linear-gradient-18);}.cls-57{fill:url(#linear-gradient-19);}.cls-58{fill:url(#radial-gradient-12);}.cls-59{fill:url(#radial-gradient-13);}.cls-60{opacity:0.77;}.cls-61{fill:url(#linear-gradient-20);}.cls-62{fill:url(#radial-gradient-14);}.cls-63{fill:url(#linear-gradient-21);}.cls-64{fill:url(#linear-gradient-22);}.cls-65{fill:url(#linear-gradient-23);}.cls-66{fill:url(#linear-gradient-24);}.cls-67{fill:url(#linear-gradient-25);}.cls-68{fill:url(#linear-gradient-26);}.cls-69{fill:url(#linear-gradient-27);}.cls-70{fill:url(#radial-gradient-15);}.cls-71{fill:url(#linear-gradient-28);}.cls-72{fill:url(#linear-gradient-29);}.cls-73{fill:url(#linear-gradient-30);}.cls-74{fill:url(#linear-gradient-31);}.cls-75{fill:url(#linear-gradient-32);}.cls-76{fill:url(#radial-gradient-16);}.cls-77{fill:url(#radial-gradient-17);}.cls-78{fill:url(#linear-gradient-33);}.cls-79{fill:url(#radial-gradient-18);}.cls-80{fill:url(#linear-gradient-34);}.cls-81{fill:url(#radial-gradient-19);}.cls-82{fill:url(#radial-gradient-20);}.cls-83{fill:url(#radial-gradient-21);}</style><radialGradient id="radial-gradient" cx="-776.12" cy="-489.53" r="278.01" gradientTransform="translate(771.45 -768.82) rotate(-90)" gradientUnits="userSpaceOnUse"><stop offset="0" stop-color="#2484c6"/><stop offset="0.06" stop-color="#2472a8"/><stop offset="0.14" stop-color="#245c84"/><stop offset="0.23" stop-color="#234965"/><stop offset="0.33" stop-color="#23394b"/><stop offset="0.43" stop-color="#232e38"/><stop offset="0.56" stop-color="#23252a"/><stop offset="0.71" stop-color="#232022"/><stop offset="1" stop-color="#231f20"/></radialGradient><linearGradient id="linear-gradient" x1="1636.5" y1="220.42" x2="1679.59" y2="-184.1" gradientTransform="matrix(-0.57, -0.82, 0.82, -0.57, 1084.36, 1518.93)" xlink:href="#radial-gradient"/><linearGradient id="linear-gradient-2" x1="254.13" y1="-744.23" x2="278.5" y2="-1036.69" gradientTransform="matrix(-0.39, -0.92, 0.92, -0.39, 1098.39, 180.85)" xlink:href="#radial-gradient"/><linearGradient id="linear-gradient-3" x1="681.39" y1="-737.55" x2="722.68" y2="-1125.22" gradientTransform="translate(1197.29 751.03) rotate(-100.59)" xlink:href="#radial-gradient"/><radialGradient id="radial-gradient-2" cx="-2146.87" cy="1576.96" r="179.94" gradientTransform="translate(-1924.55 -1279.12) rotate(-111.07)" xlink:href="#radial-gradient"/><linearGradient id="linear-gradient-4" x1="-373.33" y1="-485.15" x2="-353.39" y2="-724.34" gradientTransform="translate(383.8 -479.56) rotate(-133.27)" xlink:href="#radial-gradient"/><linearGradient id="linear-gradient-5" x1="1513.13" y1="633.68" x2="1523.73" y2="435.46" gradientTransform="matrix(-0.34, -0.94, 0.94, -0.34, 230, 1759.43)" xlink:href="#radial-gradient"/><linearGradient id="linear-gradient-6" x1="306.36" y1="-1259.21" x2="320.7" y2="-1527.3" gradientTransform="translate(1633.59 123.89) rotate(-103.71)" xlink:href="#radial-gradient"/><radialGradient id="radial-gradient-3" cx="227.16" cy="396.21" fx="197.45095695069725" fy="429.1233029174981" r="131.47" gradientTransform="translate(-119.48 -38.03) rotate(-14.47) scale(1 1.28)" gradientUnits="userSpaceOnUse"><stop offset="0.32" stop-color="#2484c6"/><stop offset="0.34" stop-color="#247dba"/><stop offset="0.47" stop-color="#245c84"/><stop offset="0.58" stop-color="#234159"/><stop offset="0.69" stop-color="#232f3a"/><stop offset="0.78" stop-color="#232327"/><stop offset="0.84" stop-color="#231f20"/></radialGradient><radialGradient id="radial-gradient-4" cx="430.37" cy="600.51" r="120.95" gradientUnits="userSpaceOnUse"><stop offset="0" stop-color="#2484c6"/><stop offset="0.13" stop-color="#247cb9"/><stop offset="0.36" stop-color="#246796"/><stop offset="0.68" stop-color="#23455e"/><stop offset="1" stop-color="#231f20"/></radialGradient><radialGradient id="radial-gradient-5" cx="456.17" cy="665.78" fx="474.24646158971893" r="18.08" gradientTransform="translate(0 -1966.56) scale(1 3.95)" gradientUnits="userSpaceOnUse"><stop offset="0.08" stop-color="#2484c6"/><stop offset="0.2" stop-color="#247cb9"/><stop offset="0.42" stop-color="#246796"/><stop offset="0.71" stop-color="#23455e"/><stop offset="1" stop-color="#231f20"/></radialGradient><radialGradient id="radial-gradient-6" cx="381.18" cy="701.31" fx="444.8354086969665" fy="701.3075900275962" r="64.3" gradientTransform="matrix(1, 0, 0, 1, 0, 0)" xlink:href="#radial-gradient-5"/><radialGradient id="radial-gradient-7" cx="432.3" cy="692.72" fx="454.2180048350231" r="21.92" gradientTransform="translate(0 -2046.13) scale(1 3.95)" xlink:href="#radial-gradient-5"/><radialGradient id="radial-gradient-8" cx="438.08" cy="618.86" fx="483.858855554201" fy="442.2472328283768" r="242.5" gradientTransform="matrix(0.19, -0.98, 0.58, 0.11, -1.57, 980.47)" gradientUnits="userSpaceOnUse"><stop offset="0.07" stop-color="#2484c6"/><stop offset="0.13" stop-color="#246ea2"/><stop offset="0.2" stop-color="#24597f"/><stop offset="0.27" stop-color="#234762"/><stop offset="0.36" stop-color="#233849"/><stop offset="0.45" stop-color="#232d37"/><stop offset="0.56" stop-color="#23252a"/><stop offset="0.71" stop-color="#232022"/><stop offset="1" stop-color="#231f20"/></radialGradient><radialGradient id="radial-gradient-9" cx="185.24" cy="309.49" r="70.38" gradientUnits="userSpaceOnUse"><stop offset="0.16" stop-color="#2484c6" stop-opacity="0"/><stop offset="0.23" stop-color="#245a81" stop-opacity="0.42"/><stop offset="0.32" stop-color="#233849" stop-opacity="0.75"/><stop offset="0.44" stop-color="#232429" stop-opacity="0.95"/><stop offset="0.8" stop-color="#231f20"/></radialGradient><radialGradient id="radial-gradient-10" cx="207.33" cy="266.37" r="6.71" gradientUnits="userSpaceOnUse"><stop offset="0" stop-color="#2484c6"/><stop offset="0.01" stop-color="#247dbb"/><stop offset="0.06" stop-color="#246797"/><stop offset="0.12" stop-color="#245477"/><stop offset="0.19" stop-color="#23435b"/><stop offset="0.26" stop-color="#233645"/><stop offset="0.34" stop-color="#232b34"/><stop offset="0.45" stop-color="#232429"/><stop offset="0.59" stop-color="#232022"/><stop offset="1" stop-color="#231f20"/></radialGradient><linearGradient id="linear-gradient-7" x1="-1704.96" y1="767.51" x2="-1681.86" y2="550.61" gradientTransform="translate(-12.43 -1221.09) rotate(-90)" xlink:href="#radial-gradient"/><linearGradient id="linear-gradient-8" x1="573.53" y1="1533.73" x2="581.57" y2="1383.4" gradientTransform="translate(-577.92 1227.03) rotate(-98.42)" xlink:href="#radial-gradient"/><linearGradient id="linear-gradient-9" x1="-603.6" y1="2344.56" x2="-566.86" y2="1999.56" gradientTransform="matrix(-0.15, -0.85, 0.87, -0.15, -1269.62, 262.99)" xlink:href="#radial-gradient"/><radialGradient id="radial-gradient-11" cx="-297.44" cy="2043.92" r="163.39" gradientTransform="matrix(0.07, -1, 0.71, 0.05, -653.1, 27.96)" xlink:href="#radial-gradient"/><linearGradient id="linear-gradient-10" x1="-1680.48" y1="711.48" x2="-1657.37" y2="494.58" gradientTransform="matrix(-0.22, -0.98, 0.98, -0.22, -366.41, -1041.63)" xlink:href="#radial-gradient"/><linearGradient id="linear-gradient-11" x1="-2307.87" y1="1884.79" x2="-2296.96" y2="1753.88" gradientTransform="translate(-1090.32 -1839.33) rotate(-90)" xlink:href="#radial-gradient"/><linearGradient id="linear-gradient-12" x1="-397.7" y1="2591.81" x2="-408.79" y2="2359.09" gradientTransform="matrix(0.16, -0.75, 0.75, 0.16, -1176.73, -213.24)" xlink:href="#radial-gradient"/><linearGradient id="linear-gradient-13" x1="-650.28" y1="1927.55" x2="-617.67" y2="1621.31" gradientTransform="translate(-1167.43 -183.74) rotate(-90)" xlink:href="#radial-gradient"/><linearGradient id="linear-gradient-14" x1="-2109.93" y1="1628.78" x2="-2119.58" y2="1426.16" gradientTransform="translate(-628.31 -1679.72) rotate(-90)" xlink:href="#radial-gradient"/><linearGradient id="linear-gradient-15" x1="-1599.4" y1="1237.21" x2="-1628.67" y2="1062.84" gradientTransform="translate(-266.38 -1213.69) rotate(-90)" xlink:href="#radial-gradient"/><linearGradient id="linear-gradient-16" x1="-933.51" y1="3105.35" x2="-904.29" y2="2831" gradientTransform="matrix(-0.06, -1, 1, -0.06, -2151.83, -344.61)" xlink:href="#radial-gradient"/><linearGradient id="linear-gradient-17" x1="877" y1="1631.04" x2="889.2" y2="1403.02" gradientTransform="translate(-653.55 1299.6) rotate(-90)" xlink:href="#radial-gradient"/><linearGradient id="linear-gradient-18" x1="-937.17" y1="-76.07" x2="-920.22" y2="-279.51" gradientTransform="translate(606.12 -471.08) rotate(-116.16)" xlink:href="#radial-gradient"/><linearGradient id="linear-gradient-19" x1="1153.37" y1="1008.18" x2="1163.58" y2="817.26" gradientTransform="translate(245.82 1732.83) rotate(-103.43)" xlink:href="#radial-gradient"/><radialGradient id="radial-gradient-12" cx="-268.52" cy="2132.45" r="163.39" gradientTransform="matrix(0.07, -1, 0.71, 0.05, -653.1, 27.96)" xlink:href="#radial-gradient"/><radialGradient id="radial-gradient-13" cx="611.05" cy="98.22" r="433.29" gradientTransform="matrix(1, 0, 0, 1, 0, 0)" xlink:href="#radial-gradient"/><linearGradient id="linear-gradient-20" x1="-326.15" y1="2361.12" x2="-339.05" y2="2090.16" gradientTransform="matrix(0.16, -0.75, 0.75, 0.16, -1176.73, -213.24)" xlink:href="#radial-gradient"/><radialGradient id="radial-gradient-14" cx="-186.57" cy="1743.61" r="230.05" gradientTransform="matrix(0.07, -1, 0.71, 0.05, -653.1, 27.96)" xlink:href="#radial-gradient"/><linearGradient id="linear-gradient-21" x1="681.77" y1="1269.65" x2="691.13" y2="1094.63" gradientTransform="translate(-678.24 1021.57) rotate(-90)" xlink:href="#radial-gradient"/><linearGradient id="linear-gradient-22" x1="1379.35" y1="749.8" x2="1391.24" y2="527.51" gradientTransform="matrix(-0.36, -0.93, 0.93, -0.36, 428.89, 1790.37)" xlink:href="#radial-gradient"/><linearGradient id="linear-gradient-23" x1="-509.72" y1="1793.98" x2="-467.1" y2="1393.76" gradientTransform="translate(-1167.43 -183.74) rotate(-90)" xlink:href="#radial-gradient"/><linearGradient id="linear-gradient-24" x1="-525.37" y1="2077.77" x2="-482.59" y2="1676.08" gradientTransform="matrix(-0.07, -0.86, 0.88, -0.07, -1245.14, 69.94)" xlink:href="#radial-gradient"/><linearGradient id="linear-gradient-25" x1="230.8" y1="2453.88" x2="282.41" y2="1969.3" gradientTransform="matrix(-0.1, -0.71, 0.8, -0.11, -1285.79, 729.46)" xlink:href="#radial-gradient"/><linearGradient id="linear-gradient-26" x1="214.31" y1="-454.63" x2="238.68" y2="-747.09" gradientTransform="translate(1084.41 346.28) rotate(-102.33)" xlink:href="#radial-gradient"/><linearGradient id="linear-gradient-27" x1="704.31" y1="-446.12" x2="745.6" y2="-833.8" gradientTransform="translate(1076.8 924.93) rotate(-90)" xlink:href="#radial-gradient"/><radialGradient id="radial-gradient-15" cx="-2177.32" cy="1867.69" r="179.94" gradientTransform="translate(-1618.57 -1644.58) rotate(-100.48)" xlink:href="#radial-gradient"/><linearGradient id="linear-gradient-28" x1="-511.36" y1="-227.47" x2="-491.43" y2="-466.65" gradientTransform="translate(503.42 -434.25) rotate(-122.67)" xlink:href="#radial-gradient"/><linearGradient id="linear-gradient-29" x1="1488.82" y1="924.99" x2="1499.42" y2="726.77" gradientTransform="translate(-59.4 1738.3) rotate(-99.27)" xlink:href="#radial-gradient"/><linearGradient id="linear-gradient-30" x1="313.39" y1="-966.97" x2="327.73" y2="-1235.06" gradientTransform="translate(1620.96 388.69) rotate(-93.12)" xlink:href="#radial-gradient"/><linearGradient id="linear-gradient-31" x1="-1099.15" y1="216.99" x2="-1064.27" y2="-110.46" gradientTransform="matrix(-0.16, -0.99, 0.99, -0.16, 237.43, -938.42)" xlink:href="#radial-gradient"/><linearGradient id="linear-gradient-32" x1="-861.68" y1="1534.4" x2="-850.25" y2="1397.31" gradientTransform="translate(-1288.83 16.61) rotate(-114.04)" xlink:href="#radial-gradient"/><radialGradient id="radial-gradient-16" cx="-960.9" cy="2764.46" r="281.01" gradientTransform="matrix(0.36, -0.57, 0.37, 0.23, -184.01, -1051.48)" xlink:href="#radial-gradient"/><radialGradient id="radial-gradient-17" cx="11.07" cy="-2108.16" r="212.34" gradientTransform="matrix(-0.02, 0.93, -0.65, -0.04, -864.85, 115.66)" xlink:href="#radial-gradient"/><linearGradient id="linear-gradient-33" x1="-1475.86" y1="2222.24" x2="-1492.84" y2="2121.1" gradientTransform="matrix(-0.31, -0.95, 0.95, -0.31, -2144.11, -521.96)" xlink:href="#radial-gradient"/><radialGradient id="radial-gradient-18" cx="-356.61" cy="-722.18" r="99.29" gradientTransform="matrix(-0.38, -0.93, -0.6, 0.25, -212.12, -6.33)" xlink:href="#radial-gradient"/><linearGradient id="linear-gradient-34" x1="-2288.7" y1="1943.4" x2="-2277.79" y2="1812.49" gradientTransform="translate(-350.46 -2281.34) rotate(-73.32)" xlink:href="#radial-gradient"/><radialGradient id="radial-gradient-19" cx="337.66" cy="169.96" r="332.01" gradientTransform="matrix(1, 0, 0, 1, 0, 0)" xlink:href="#radial-gradient"/><radialGradient id="radial-gradient-20" cx="294.9" cy="265.87" r="245.74" gradientTransform="matrix(1, 0, 0, 1, 0, 0)" xlink:href="#radial-gradient"/><radialGradient id="radial-gradient-21" cx="336.56" cy="370.89" r="133.59" gradientUnits="userSpaceOnUse"><stop offset="0.24" stop-color="#231f20"/><stop offset="0.55" stop-color="#232022"/><stop offset="0.66" stop-color="#232429"/><stop offset="0.74" stop-color="#232b34"/><stop offset="0.8" stop-color="#233645"/><stop offset="0.86" stop-color="#23435b"/><stop offset="0.91" stop-color="#245477"/><stop offset="0.95" stop-color="#246797"/><stop offset="0.99" stop-color="#247dbb"/><stop offset="1" stop-color="#2484c6"/></radialGradient></defs><title>Archaeopteryx_Ritterbush_2020</title><g id="Layer_2" data-name="Layer 2"><g id="Layer_11" data-name="Layer 11"><path class="cls-1" d="M516.82,618c6,2.94,1.33,9.55-3,11.73-4,2-9.52,1-14.05,2.13-10.29,2.56-18.16,10-27.51,13.59a53.72,53.72,0,0,0-10.86,5.62c-2.56,1.75-4.54,5.19-7.22,6.09-.16-2.1.54-4.06-.46-6.16-1.13-2.37-4.47-3.1-2-5.92,1.32-1.53,5.41-1.11,7.27-1.64,3.38-1,6.68-2.45,10-3.54,8.51-2.78,14.39-7.18,21.67-12.13,4.41-3,9.6-4.87,13.92-7.87,2.12-1.48,3-2.73,5.26-3,2.52-.28,6.8.57,9.2,1.25"/><path class="cls-1" d="M454.82,660.47c-.8,3.63-2.29,7-2,10.77.21,2.78,2.26,6.24,1.81,8.94-.23,1.37-1.64,2.12-1.88,3.22-.3,1.35.29,2.12.23,3.4-.14,2.58-1.47,5.39-1.21,8.14.28.27.6.33.88.6-3,3.56-5.14.45-4.9-3s2.05-5.11,2.1-8.59c.08-6.91-1.42-17.72,2.89-23.56,1.09.46,1.85-.08,2.6-.06"/><path class="cls-1" d="M445,648.06c-.64,7.35-9.62,12.23-13.6,17.53-2.46,3.28-6,13.87-9.67,15,.16,3.12,1.8,5.17-.11,8-1.64,2.46-4.28,2.36-6.69,4.71-6,5.85-7.18,11.39-3.42,18.86,1-4.18.44-11.25,4-14.33,3.82-3.3,6.56.9,9.4-4.89,5.48-11.16,10.47-23.5,17.56-33.93,1.73-2.56,9.44-9.59,2.84-10.57"/><path class="cls-1" d="M448.21,655.69c2.9,2.42-.22,6.43-1.67,8.87-2.26,3.81-3.93,5.39-4.8,9.76-.49,2.46-1.24,6.81-2.56,8.94-.62,1-2.2,1.22-2.77,2.32-.75,1.43-.17,3-.7,4.68-.28.88-1.56,1.7-1.81,2.46-.42,1.31-.08,2.76-.38,3.91-.72,2.73-1.44,5.18-2,8-.46,2.19-1.51,6-3.05,7.57-1.18,1.23-2.7,1-3.69,2.48-.55.83-.69,3.24-1,4.2-1.81,5-3.55,14,5.86,11-3.4,4.74-9.52-.8-11.15-4.35-3.22-7,2.52-9.93,6.73-14,4.73-4.61,6.41-14,8.09-20.14.89-3.24.58-6.5,1.89-9.55s2.56-5.86,3.75-9.18c1.71-4.74,5.48-17.43,10.69-17.92"/><path class="cls-1" d="M444.66,655.54c-2.86,4.84-4.41,11.24-6.54,16.51-1.71,4.23-4.69,7.1-5.82,11.35-.85,3.22-1.42,6.28-2.48,9.53-1.34,4.07-3.5,4.13-5.92,6.77a54.36,54.36,0,0,0-4,6,35,35,0,0,0-3.33,7.31c-.95,3.07-.31,4.33-3.32,6.13-2.43,1.46-4.72,2.13-6.51,4.25-4.45,5.24-6.26,9.81-4,16.78-5.5-4.79-5-11-1.3-16.83,1.77-2.77,4.61-4.31,7.09-6.42,3.37-2.87,3.38-5.49,5.24-9.12,2.88-5.66,6.55-10.65,9.74-15.9,3.4-5.59,5.92-12.48,8.81-18.5s5.93-16.11,12.42-18.66"/><path class="cls-2" d="M493.77,740.76c.23,5-2.2,22.56,4.53,25.76,3.4,1.62,10.72-3.65,11.91-6.64,4.64-11.63-5.52-21.25-10-30.11-1.88,3.41-3.65,10.79-7.64,12.37"/><path class="cls-3" d="M493.77,740.76c.23,5-2.2,22.56,4.53,25.76,3.4,1.62,10.72-3.65,11.91-6.64,4.64-11.63-5.52-21.25-10-30.11-1.88,3.41-3.65,10.79-7.64,12.37"/><path class="cls-1" d="M499.61,766.07c-.19,6.41.16,14,8.28,13.47-5.24-2.87-4.28-11.5-2.06-17-2.17.93-4.14,2.71-6.81,2.38"/><path class="cls-2" d="M475.19,751.74c.29,7.61-2.92,14.26-6.58,20.44-4.83,8.15-7.22,17.47-10,26.55a221.51,221.51,0,0,0-5.08,22.13c-1.18,6.07,1.67,9.87,5.09,15.34,9.15,14.59,15.83-8.78,15.4-17.15-.65-12.91,1.9-25.65,6.43-38.1,2.51-6.9,6.8-12.35,12-17.75,9.3-9.63,12.49-17.37,16.61-30.14-7.76,1.74-15.75,7.1-22.81,10.92-3.78,2-10.39,8.16-13.44,8.34"/><path class="cls-4" d="M471.58,779.76a39.32,39.32,0,0,0-.72,4.16c-.32,2.82.56,3.12.83,5.25.4,3.15-1.14,6.81-2,10.65-1.37,6.06-.51,26,6.67,28.64,4.29,1.59,13.35-1.26,13.82-6.18.18-1.83-6.13-11.95-6.44-11.57,4.87-6,5.67-11.11,6-18.86.15-3.59,2.44-6.89,2.89-11.31,1-10.44,7.85-17.36,12.59-26.2,5-9.25,10.7-19.5,12.34-29.76-5,1.29-8.6,4.57-13,6.73-3.75,1.84-7.88,1.46-11.6,3.53a31.57,31.57,0,0,0-8.84,6.9c-3.11,3.73-3.42,10-4.65,14.69C477.4,764.25,473.39,771.84,471.58,779.76Z"/><path class="cls-1" d="M458.21,832c-9.73,10.47-11.84,22.68-1.11,33.14-2.33-4.46-3.79-12.8-1.23-17.63s9.68-5.77,8.69-11.91c-3.22.52-5.32-1.84-6.93-4.19"/><path class="cls-1" d="M477,827.86c-.3,8.7,11.76,16.93,20,15.81-7.19-4.12-9.45-11.09-8.38-19.81-4.92-3.17-8.27,3.77-12.78,3.41"/><path class="cls-3" d="M475.19,751.74c.29,7.61-2.92,14.26-6.58,20.44-4.83,8.15-7.22,17.47-10,26.55a221.51,221.51,0,0,0-5.08,22.13c-1.18,6.07,1.67,9.87,5.09,15.34,9.15,14.59,15.83-8.78,15.4-17.15-.65-12.91,1.9-25.65,6.43-38.1,2.51-6.9,6.8-12.35,12-17.75,9.3-9.63,12.49-17.37,16.61-30.14-7.76,1.74-15.75,7.1-22.81,10.92-3.78,2-10.39,8.16-13.44,8.34"/><path class="cls-3" d="M471.58,779.76a39.32,39.32,0,0,0-.72,4.16c-.32,2.82.56,3.12.83,5.25.4,3.15-1.14,6.81-2,10.65-1.37,6.06-.51,26,6.67,28.64,4.29,1.59,13.35-1.26,13.82-6.18.18-1.83-6.13-11.95-6.44-11.57,4.87-6,5.67-11.11,6-18.86.15-3.59,2.44-6.89,2.89-11.31,1-10.44,7.85-17.36,12.59-26.2,5-9.25,10.7-19.5,12.34-29.76-5,1.29-8.6,4.57-13,6.73-3.75,1.84-7.88,1.46-11.6,3.53a31.57,31.57,0,0,0-8.84,6.9c-3.11,3.73-3.42,10-4.65,14.69C477.4,764.25,473.39,771.84,471.58,779.76Z"/><path class="cls-1" d="M27.79,225.11C27.73,209.4,18,196.54,0,201.77c14.66,6.38,14.06,10.68,14.86,26,4.09.18,8.28.55,12-.79"/><path class="cls-5" d="M15,227.78c4.59-1.59,6.07-4,5.26-8.89-.67-4-3.64-7.47-6.68-10-3.69-3-8.43-7.38-13.55-7,4.86,3.09,9.59,4.32,12.07,10.17C12.72,213.56,15.73,227.53,15,227.78Z"/><path class="cls-6" d="M51.08,298.14c-10.86-15.28-24.18-27.89-31.53-45-2.78-6.47-8.34-14.92-7.47-22.4,1.32-11.33,9.77-6.62,18.23-11.79,8.41,10.76,11.85,27.86,15.4,40.73,2.72,9.88,9.58,28.1,6.3,37.54"/><path class="cls-7" d="M95.46,210c4.43-6,11.06-6.84,17.79-8.68,15.76-4.34,28.07-17.36,38.57-29.6Q184.54,133.58,219,96.87c18.75-20,36.5-41.13,46.92-66.75C269.78,20.58,274,3.58,260.28,0c-5.54,5.64-7.85,13.64-13.39,19.35-6.73,7-12.59,15.43-18.85,23-19.21,23.19-40.56,44.87-58.92,68.77-18.65,24.27-38.23,48.12-60.64,69-8.24,7.68-16.84,17.79-20.37,28.51,3.19.11,3.22,1.21,3.87,2.75"/><path class="cls-8" d="M84.33,218.33c1.62-10.58,15.25-20.66,22.25-28.17,20.07-21.51,42.32-40.94,62.84-62.07,21.42-22.06,42.77-45.32,59.92-70.91,7.6-11.34,14.39-23.16,22-34.44,4.06-6,9.22-11.84,12-18.65,1.31,3.87-5.61,11.85-7.87,15.51-4.63,7.48-8.1,15.07-13.52,22.13C227.6,60.36,215.55,81,200,98.68c-14.21,16.13-27.09,32.84-42.47,47.85-16,15.65-33.62,30.25-48.78,46.79C103,199.61,97,205.8,92.25,212.74c-2.21,3.26-4.36,11.51-8.51,11-.12-1.57-.51-3.9-.11-5.46"/><path class="cls-9" d="M117.93,208.35c7.8-3.34,16.64-4.79,24.63-8.22,14.67-6.29,28.78-17.77,40.87-28a516.39,516.39,0,0,0,60.45-60.24c12.39-14.63,25.5-32.41,32.1-50.62,2.63-7.25,3.78-14.44,5.36-21.85.71-3.3,3.27-8.07,1.45-11-7.13,1.68-13.53,10.55-19,15.16-13,10.9-25.29,22.95-37.23,35.17C208.9,96.86,190,113.38,172.66,131.9c-9.13,9.79-17.84,20.1-27.61,29.22-8,7.46-16.88,14.57-23.82,23-2.67,3.25-7.1,8.9-7.3,13.36-.16,3.51,2,8.1,2.58,11.74,1.23-.21.24-.63.61-1.06"/><path class="cls-8" d="M134.34,182.55a168.85,168.85,0,0,0-18,18.86c-3.9,4.83-10.85,10.32-13.44,15.76,8.72,1,20.71-18.95,26.19-24.4,16.56-16.45,34.42-31.41,51.91-46.86,36.39-32.16,69.28-68,97-108-4.3,6.31-12,12.92-17.18,19.06-11.19,13.33-23.74,25.62-35,38.94-13.8,16.31-30.68,28.76-46.16,43.27C164.42,153.51,149.83,168.49,134.34,182.55Z"/><path class="cls-10" d="M118,292.77c5.33,14,4,22.19,20.21,21.91a202.62,202.62,0,0,0,46.92-6.59c41.8-11.14,81.94-41.09,115-68,21.73-17.7-15-24.81-29.31-18.71-22.18,9.46-44,23-66.71,33.94-13.4,6.46-86.57,28.41-85.95,44.17"/><path class="cls-8" d="M99.47,315.32c21.63-2.22,48.08-18.29,68.45-27.8,22.74-10.62,45.81-20.73,68.61-31.3,17.65-8.2,39.5-24.52,55.29-29.93a1.39,1.39,0,0,0-.78-2.66c-14.33,3.59-37.64,20.48-56.54,27.89-36.42,14.28-85,42.49-116.33,52.54-7.77,2.5-31.85,1.11-22,13.61a6.62,6.62,0,0,0,5.61-2.2"/><path class="cls-11" d="M130.38,256.68c8.75-3.43,12.86,8.65,19.16,11.61,12.34,5.8,34.39-8.76,45.64-12.28,24.94-7.82,50.67-13,75.54-21,16.09-5.22,45.28-15.42,51.71-33.49.93-2.62,4.1-16.62,2.47-18.86-3.73-5.11-20.33,4.46-24.57,6.38-32.76,14.89-68,22.77-102.12,33.89-16.08,5.24-32.06,10.27-48,16-4.34,1.56-19.23,4.42-21.57,8.9-1.1,2.12.68,6.95.07,9.21"/><path class="cls-8" d="M109.25,261.76c3.72,5.25,8.42.24,12.54-1.92,15.44-8.1,32-13.27,48.58-18.58,27.31-8.74,54.93-16.55,82.1-25.75,23.3-7.89,51.87-15.82,71.68-30.64C299.32,197.34,257.57,211.31,232,219c-33.94,10.2-51.05,14.64-84.49,25.85-9.09,3-17.51,7.83-26.27,11.71-3.9,1.73-9.89,3.39-12.36,6.42"/><path class="cls-12" d="M113.16,256.75c10.37-2.52,22.78,4.44,34.18,4.19,26.62-.57,49.21-17.45,71.47-29.63,21.53-11.79,45-19.8,66.25-32.09,10.22-5.91,27.05-14,32.87-24.63,2.69-4.88,8.83-20.68,4.52-23.84-5.16-3.78-23.17,4.1-28.68,5.89-36.36,11.83-72.58,28.88-106.9,46-21.61,10.78-46.93,17.43-67.25,30.43-4.63,3-10.18,6.36-11.27,11.23s3.17,8.33-.45,13.72a54.33,54.33,0,0,0,7-2"/><path class="cls-8" d="M89.81,259.63c-.14,10.56,12.93,1.38,17.32-.61,15.58-7.07,30.48-15.28,46-22.9,33.44-16.4,68.79-28.6,102.33-44.86,22.83-11.06,44.19-27.95,67.6-37-11.69-1.85-26.88,10.47-36.61,15.35-15.34,7.69-32.05,14.63-48,22.55-31.41,15.65-65.6,26.19-97.36,41.59-17.1,8.29-36.21,16.38-51,26.79"/><path class="cls-13" d="M109.57,225.84c12.41,2,24.73,1.6,37.06-2.46,26-8.56,51.09-20.31,75.86-31.74,31.32-14.46,67.82-24.1,94.85-46.38,5.8-4.79,12.08-12.47,13.15-20,1.53-10.81-10.9-5.27-17.6-3.38-35.75,10.08-69.07,29-102.3,45.27-19.49,9.54-38.44,19.16-58.23,28.1q-8.48,3.83-17.23,6.94c-7,2.5-7.14,3.19-10.58,8.9-3.17,5.25-10.26,16-17.33,16.1"/><path class="cls-8" d="M85.82,231.14c43.79-8.65,87.06-33.58,127.82-52,23.21-10.47,45.57-22.72,68.62-33.51,16-7.49,32.79-14.73,48.15-23.45-7.7,6.22-21.56,7.54-30.71,11.31-15.11,6.24-37.79,20.21-52.61,26.66C208.45,177,176.9,194.48,138.22,211.45c-13,5.7-23.19,7.11-37.22,10.09-4.26.9-12.25,1.51-15.63,4.37-2.51,2.12-4.65,4.76.45,5.23"/><path class="cls-14" d="M124.38,200.11c11.69-4.55,23.85-1.42,36-2.6,28.72-2.8,56.4-17.25,81.13-31.49,19.9-11.45,38.07-27.42,55.35-42.43A68.38,68.38,0,0,0,311,107.13c2.1-3.42,6.54-8.29,7.61-12,2.19-7.44-5.74-8.88-10.41-5.65-7.82,5.41-16.36,10-24.55,15.32-16.51,10.83-34.5,19.12-52,28.36-18.53,9.78-38.27,16.65-56.44,27.07-15.44,8.86-32.8,16.41-47.2,26.91-1.83,1.33-5,3.17-5.78,5.49s1.25,4.71-.44,7.31a23.71,23.71,0,0,0,3.21-1.19"/><path class="cls-8" d="M107.32,207.36c2.41-2.17,6-3.12,9-4.41a218.66,218.66,0,0,0,21.61-11c19.08-10.58,39.13-20,59.08-28.82a589.58,589.58,0,0,0,70-36.89c10.54-6.44,20.94-13.11,30.88-20.46,5.76-4.26,13.47-8.14,18.14-13.6-10.18,5.7-20.67,11.52-30.48,18.57-14.32,10.29-30.9,19.12-46.24,27.65C202.9,158.62,168,168.7,134.8,190.47c-6.23,4.09-11.89,7.43-19,10-3.39,1.23-12.87,3.21-11.4,7.87,1.81-.1,4-1,4.32-1.48"/><path class="cls-15" d="M98.66,226.52c13.87-8.13,27.21-3.36,42.44-3.61,20-.33,37-16.19,51.27-28.6,18.73-16.31,34-35.76,51.37-53.52,13.7-14,32.85-25.07,42.8-42.24,3.87-6.68,14.92-24.22,1.64-25.71-8.87-1-18.87,7.59-25.2,13-34.76,29.54-69.54,60.17-107.54,85.68-14.81,9.93-32.27,19.89-44,33.32-3.62,4.14-9.44,8.33-12.23,12.84-1.54,2.49-1.53,1.78-2,4.23-.43,2.16,2,3.16.31,5.65"/><path class="cls-8" d="M87.32,232.87c28.42-19.61,60.33-36.1,87.91-57.47,24.27-18.81,47.1-38.94,70.67-58.59,15.86-13.22,30.43-28.24,46.28-41.2-6.63,2.37-11.37,4.54-16.92,9-9.18,7.42-19.87,17.39-29,25-15.59,13-52.66,46-75.09,62-11.92,8.52-63.65,44.2-76.22,51.56-2.22,1.3-4.93,2-6.3,4.32-1.74,3,1.15,5.9-2.7,8.59"/><path class="cls-16" d="M268.67,489.27c-2.65-24.51-33.73-35.47-49.78-49.85-12.4-11.11-16.89-31.89-30.2-41.59-12.85-9.36-34.47-18-49.73-25.64a400.15,400.15,0,0,0-41.11-17.7c-10.58-3.93-26.45-7.07-34.25-13.25-8.58-6.79-22.72-27.19-24.44-37.53-.82-4.94,3-12.61,2.49-18.66-.85-10.8-7.56-18.43-9.46-27.66-2.46-11.95,10.3-30.5,16.08-40.15,9.2-15.36,17.52-31.41,27-46.61C88,150.12,106.61,136.29,125.51,121,151.4,100,174.38,75.62,199,53.2,210.13,43,221.85,33.38,234,24.35c9.26-6.91,32-32.74,35.52-10.46,2.13,13.57-10.59,36.79-19.5,46.48,8.74-6.78,17.18-15.19,25.15-22.18,5.76,13.51-8.36,34.14-12.76,47.44,5-6.63,12.23-13.36,20.11-16.83,5.1,14.88,1.07,35.58-8.79,48.26,4.84-3.89,9.56-9.15,13.83-12,2.94,20.09-18.27,47.94-32.18,60,12.11-13.5,30.08-21.42,40.92-34.74,10.1,35.37-37.33,57.24-62.44,71.93,11.3-5.52,22.73-9.34,34.55-13.6,11.12-4,23.2-13.66,34.31-15.42,1.05,11.37-9.47,12.89-13.6,21.11,9.71-.79,19.16-9.4,28.73-8.47-1.38,8.49-4.86,17.3-11,23.64-6.74,6.94-15.37,9.06-23.26,14-6.87,4.28-12,12.68-19.63,15,8.66-9.34,25.41-11,37.59-14.47-6.14,9.51-15.74,20.06-20.44,29.63-.45.46-.47.42-.07-.1,16.2-7.89,28.64-27.74,45.59-36.11,18.51,22.35,20.24,59,4,83.3-6.76,10.11-20,19.63-22,32.17-1.79,11.15,3.92,11.7,8.19,18.6,3.62,5.84,5.93,6,2.48,13.61-3.07,6.76-16.38,10.17-16.78,17.92-.39,7.59,8.78,8.18,13.41,12.29a27.36,27.36,0,0,1,9.61,19.54c.77,19.23-12.16,42.82-14.74,62.92-1.47,11.4,1.9,23.34,3.52,34.27-11.74.84-28-2.09-38.86-7s-12-11.28-11.46-25.32"/><path class="cls-6" d="M47.58,294.57c.93,9.55-.13,8.76,6.08,19.32C62.23,328.42,67,342.1,81.21,351.4c34.72,22.63,75.63,31.41,114,45.58.15,17,17,36.15,30,45.47,6.43,4.62,13.62,11.19,20.63,10.48,6.15-.62,14.65-6.64,20.93-8.56,6.56-2,22-1.89,19.34-10.35-2.22-7.06-19-8.56-21-17.41-5-22.06,38.52-28.25,24.41-48.67-6.1-8.82-16.11-12.55-19.6-24-4.07-13.34,1.86-29,8.27-40.54-10.93-9.25-26.45-15.27-38.49-24.28-24.76-18.53-18.51-33.65-18-60-12.3,2.49-28.84,7.24-37.59-6.25-14.59-22.48,4.06-52.19,6.63-75.15-12.26,2.93-42.52,43.55-54.27,34.35-6.57-5.15,2.72-15.63,5.49-20.55.78-1.4,9.48-21.9,8-21.4-12.74,4.29-23.38,15-32.41,24.7-2.23,2.41-28.76,30.82-28.83,29.17-.25-5.88,2.38-32.85,12.6-32.36-18.34-.88-42.08,26.93-49.68,42.38-3,6.07-3.31,13.83-7.67,19.21C38.4,220,31.07,220.12,23.81,224c-2.34,9.54,10.19,29.09,13.73,38.7C41.15,272.53,46.55,284,47.58,294.57Z"/><path class="cls-17" d="M215,432.49a108.85,108.85,0,0,0-2.09,22.63c-.18-6.88,12.54-20.85,18.25-21.76,3.19,14.38,2.36,31.64-1.18,46,15.48-4.24,13.68-2.65,18.7-17.1-4.19,12.08-9.76,24.9-8.3,38,.49,4.34.31,10.2,3.14,13.85,1,1.35,15.57,10.92,15.15,7.17,1.2,10.59,6.15,22.19,2.75,32.68,6.31-3.52,12-10.37,19.09-12.28,11.06-3,23.63,3.67,34.76,3.6-10.17-3.12-17-13-23.37-20.37,3.91,4.55,20.76-4,23.65-6.82-6.67-12-2.37-27.64-10.24-39.28,6.88,5.66,23.32-1.25,25.36,1.06-16.32-18.49-22.78-18.08-3.43-34.92-14.13-6.36-29.35-16.07-33.64-31.87,5.44-.32,11.29-.29,16.6,1.45-11.56-4.89-27.31-15-26.83-29.07,6.72,2.33,13.81,1.72,16.8-5.16-5,11.48-20.15-14.32-19.84-20.12a24.65,24.65,0,0,1,9.91.93c-8.42-6.65-14.83-17.19-14.38-28.11,8.5,3.45,19.5,8.06,29.1,3.94-15.15-.35-57.32-32.9-31.07-42.91-3.71,1.42-21.84-11-24.88-13.6,4-3.84,9.17-4.93,14.65-3.53-3.93-2.6-58.48-7.72-30.61-20.07-20.91,9.26-52,.61-69.24,14.56C184.6,259,218,281.72,220.89,304c-5,5.55-10.92,10.22-18.54,11,2.91.8,7.53,4,11.68,5.13,2,.54-32.16,20.2-34.71,21.69,11.07-3.4,29.62-9.82,38.22,1.37,8,10.4.92,22.67-2.47,31.73,3.91-2.25,8.84-6.29,11.23-10.65C227.93,387.12,219.15,409.93,215,432.49Z"/><path class="cls-18" d="M496.6,490.25c-1.66-.36-3.27-.72-4.82-1.1-20.31-5-40.3-8.62-61.31-6.89-36.61,3-72.19,20.47-102.92,39.48-25.36,15.69-23.53,31.58-13.26,55.34,10.74,24.82,32.53,40.41,59.16,48.82,28.34,9,60.92,1.67,90.08,5.26-14.08,2.9-26.61,6.73-34.38,19.1A192.71,192.71,0,0,0,416.81,674c-3.17,7-9.6,13.68-8.85,22,.34,3.84,7.71,5.2,8.15,7.37.55,2.78-6.51,9.9-8.17,11.92-3.54,4.3,9.22,2,9.75,1.82,4.94-1.9,8.68,7,12.47-2,2.46-5.79-1.58-12.67,1.26-18.47,3.05-6.2,9-12.36,12.81-17.92,4.39,2.19,8.59,2.22,13.42,2.37-5.07-.15,9.31-18.51,10.55-19.44,7.91-5.94,17.45-9.68,26.48-13.53,8.85-3.78,18.65-7.25,26.53-12.81,7.18-5.07,19.89-13.88,20.69-23.45-11.84-3.45-19.09-10.34-30-15.48-10.25-4.81-21.27-7.8-32.21-10.63A259.7,259.7,0,0,0,432.51,578c25-6.33,51.4-3.6,72.11-21.57,16.77-14.55,28.13-41.76,48.93-49.44C539.36,496.78,514.86,494.12,496.6,490.25Z"/><path class="cls-19" d="M452.36,644c-3.8,5.93-3.5,16-5.14,22.84-1.46,6-5.62,14.72-1.89,18.74,3.95,4.26,10.15,3,12.72-1.92,2.07-4-.23-4.31-.44-8-.17-3.13.49-3.73,2.23-6.56,3.8-6.16,4.08-13.75,8.69-19.25-5,2.67-15.29-.48-17.34-6.38"/><path class="cls-20" d="M419,686.15c-4.26,5.81-1.6,13.29-4.23,19.33-2,4.65-6.88,7.72-8,12.79,4.49.55,8.44,2.48,12.36-.48,4.43-3.34,3.07-7,3.08-11.14,0-9.7.07-19.16.91-29.66-1.74,3-4.14,10-6.47,10.33"/><path class="cls-21" d="M419,717.19c3.95,4.26,10.15,3,12.72-1.92,2.07-4-.24-4.31-.44-8-.17-3.13.49-3.73,2.23-6.56,4.22-6.85,6.22-14.74,10.49-21.69,2.63-4.27,7-13.34-1.71-13.31-5.22,0-12.24,3.72-15.53,7.76C421.33,680,423.53,688,422,695.73,420.77,701.48,414,711.83,419,717.19Z"/><path class="cls-8" d="M461.44,450.54l-7.19.56c-36.8,2.81-78,16.8-112.78-.33-7.63-3.75-21.47-9.21-30.12-7.46,2.4,2.16,4.58,5.64,3.78,9.25a88.5,88.5,0,0,1-12.59-.44c6.27,8,4.65,12.26,5.41,22-4-2-8.37-3.53-12.22-.31,1.57,2.57,2.67,5.37,5.14,6.84a7.86,7.86,0,0,1-8.63-2c.83,4.51,2.08,9.5,1,14.07-1,4-4.59,6.59-3.05,10.74-5.71-4.93-7.45-15.15-14.12-20.71,12.68,10.32,3.51,22.67,8.16,36.18-3.34-5-7.69-9.78-11.31-14.67.95,3.06,3,10.44.64,13.31-5.83,7.13-10.32-4.69-12.3-8.76-2.09,11.36-14.62-3.45-13.74-10.47.76,8.43-2.73,15.2-10.28,18.81,6.36-3,10.9,7.7,16.12,4.52,2.85,5.64-.19,16.69-1.52,22.87.2-.94,5.56-3.63,6.54-5,1.55-2.09,2.42-5.23,3.23-7.32,2.49,7.65,2.51,17.35,9.59,22.71-1-2.93-2.37-6.46-2.16-9.62,0-.56,1.25-6,1.57-5.5,4,5.93,5.86,15,6.24,22,6.1-7,15.91,4.14,20.65,7.89,11.31,9,23.57,16.55,35.42,24.74,22.74,15.69,46.94,29.52,72.48,40.12,38,15.8,86.11,11.83,120.25-11.6s45-72.07,86.08-87.09c28.72-10.5,55.52-27.71,84.67-36.7,19.83-6.11,41.17-1.74,60.93,2.33,11.2,2.31,31.8,11.58,42.94,4.82-2.32-1.9-5.94-5.65-5.93-8.59,6.49-3,14.12-2.74,21.16-3.2,3.52-.23,14.86,1.21,14.08-4.07,4.46-.44,9.37,1.8,13.71,3.09,8.1,2.42,16.31,4.08,24.49,6.05,14.77,3.55,29.37,4.44,44.59,3.67-.86,0,1.1-6.64,1.72-7.3,2.69-2.86,5.43-1.75,9.08-1.48,9.35.72,18.91,1.35,28.25.17a36.34,36.34,0,0,0,11.91-3.24c1.47-.73,7-5.62,8.32-5.16-5.78-2.1-10.72-2.8-15.91-5.72-3.63-2-11.69-6.35-15.67-4.64,13.77-9.19,30.74-13.61,44-24.3-6.73-.14-13.29-3.2-5.26-8a230.11,230.11,0,0,1,23.08-11.83c8.75-3.95,19.7-8.28,23.59-18.05-6.89-.41-18.09,8.77-21.31.47-1.1-2.84,12.13-19.51,7.25-21.62-11.88-5.13-26.46-2-37.22-6.64,8.12-22.15-8-24.69-29-24.51-34.83.29-66.23,14.08-100,21.16-21.27,4.46-42.62,8.54-64,12.09-31.75,5.27-65.13,5.38-96.26,13.35-35.48,9.09-70.88,16-105.27,28.83C544.45,450.06,499.09,447.48,461.44,450.54Z"/><path class="cls-22" d="M491,559.52c-24.46,17.14-98,15.56-109-19.19-17.37,13.37-42.25,15.67-60.59,1.23-.69,2.61-3,4.34-3.38,8.06-9.52-2-19.39-5.2-28.4-7.65-1.92,30.47,19.92,36.44,43.26,52.56,22.74,15.69,46.94,29.52,72.48,40.12,38,15.8,86.11,11.83,120.25-11.6,34.64-23.78,48.62-68.51,84.53-91.87-7.32,9.8-17.18,4.86-26.77,8.16S566,552.71,555.71,552.77c1.06-2.94.53-4.89,2.47-7.64C539.94,558.38,506.88,590.6,491,559.52Z"/><path class="cls-22" d="M1018.94,425c-5.16,1.2-10.41,2.43-15.65,3.19-4.4.64-11.65,1.77-10.33-3.31,1-3.85,7.55-5.82,8.23-10.33,1.16-7.65-12.78-11.48-19-12.64-7.56-1.42-17.6-2.54-20.7-9.84-1.69-4-1.66-9.19-2.08-13.37-.44-4.43,2.3-8.12,2.07-12.47-3.5,0-6.66,1.08-10.1,1.8-9.46,2-19.11,2.42-27.95,6.08-9.42,3.89-18.63,8.35-28.85,10.46-36.8,7.6-74,14.4-111.26,19.81-42.8,6.21-84.85,9.83-126.33,22.26-13.12,3.94-36.44,10-46.64,17.24,4.35,5.72,14.6,8.29,20.36,13.41A43.43,43.43,0,0,1,644,477.75c7.6,26.55-25,39.34-41.42,55.94,32.33-5.45,63.58-29.31,96.12-38.08,16-4.32,33.18-2.53,49.35.05,14.32,2.28,34.55,9.74,48.82,4.53-2.59-5.32-8.91-5.65-12.17-10-.33-.45,19.77-.33,21.51-.23,6.67.36,17.19,2.46,23.27.12-2.06-4.92-11-6.23-15.33-9.43,15.58,3,30.44,6.6,45.83,10.26,7.62,1.82,15.23,3.72,23,4.85,2.73.39,22.21-.15,22.87.62a40.09,40.09,0,0,0-11.42-9.2c-3.61-1.95-8.87-2.89-11.8-5.15,5.12-5.26,22.46,3.81,28.71,5,10.16,1.86,23.75,5.38,34.1,3.68,8.91-1.46,16.69-4.48,25.77-5.09-1.35.09-6.66-3.13-8.21-3.75a51.3,51.3,0,0,0-8.9-2.88c-3.1-.68-14.84-1.12-15-5.33-.13-2.74,6.11-3.66,8.12-4.34,3.55-1.22,5.66-3,9-4.46,6.53-2.75,15.72-.69,20.68-6.24-7.49-.39-22.08-2.68-8.66-8.84,9.23-4.23,19.45-5.8,28.54-10.2,10.28-5,20-10.67,29.87-16.29C1024.14,423.78,1021.55,424.38,1018.94,425Z"/><path class="cls-8" d="M421.39,470.11c-66.34,10.33-99.3,75.26-110.13,133.6,19.3,6.46,11.37,28.69,28.95,38,.54-1.81,1.36-3.27,2-5.07,15.45-1,34,22.28,51.09,24.57-.85-1.57-1.57-3.86-2.56-5.32,12.87-8.07,37.68,19.62,49.72,23.05-.41-1.7-.68-3.72-1.24-5.55,20.34-3.45,25.57,32.28,46.71,29.43-3.45,17.44-17.61,32.84-27.84,46.66a32.83,32.83,0,0,1,8.5-2c-3.9,7.28-5.08,17.73-4.72,26,3.08-4.22,2.39-12.14,6.59-15.18-1,.72,2.78,2.06,3.15,2.06,1.5,0,3.85-3.63,4.76-4.48,2.51-2.33,5.41-6.26,8.31-7.42a8.23,8.23,0,0,1,.27,2.53c2.6-3,12.23-7.21,9,.8,6.9-4,11-.51,10.52,7.49,7-14.73,8.69-2,12.74,7.5,1-12.47,6.77-24,8.24-36.16.5,2.67,1.71,2.33,3.42,4-1.6-1.56,8.3-14.24,10.68-14.89-.21,3.07,1.7,6.18,1.42,9.46,5.19-7.64,8.64-16.92,13.52-25,2.48-4.14,3.69-9.19,6.64-13,3.38-4.4,7.52-6.61,10.23-11.8-2.18-.07-8.19-.35-9.8-2.18-.89-1-2.28-8.93.35-8-3.88-1.33-10.48-.64-13-4.52-1.78-2.69-.44-11.41,4.25-10-7.32-2.2-15.12-.94-22.58-2.13-1.49-.24-16.36-6.24-11.24-7.07-5.44.89-13.51,1.31-18.07-2.29a55.19,55.19,0,0,1,4.55-6.45c-7.5,1.46-14.05-1.12-21.23-2.44-2.77-.51-19.21-3.44-20.33-2.56,2.29-1.8,3.61-6.45,5.91-8.53-11.79-11.1-33.33-7.87-44.47-19.13,12.88-12.17,32.7-8.14,46.68-22.74,12.76,10.22,37.42-45.25,51.9-49.1-1.05,2-1.86,4.6-2.89,6.65,7.69-10.23,10.46-25,19.84-33.5,6.94-6.27,15.39-2.67,15.42-15.56-8.16,7.65-10.84-.58-18.84-2-15.74-2.79-34.93,3.75-51.48,2.65,3.62-3.67,2.68-7.17,4.07-11.22-25.48-6.58-50.05-12.54-76.3-9.08"/><path class="cls-23" d="M421.39,470.11c-32.17,5-58.9,24.44-77.3,50.79a188.62,188.62,0,0,0-22,43c-6.38,17.34-15.13,32.13-7.8,50.94-1.53-3.93,4.2-5.78,7-4,3.44,2.26,2.64,15,5.69,19.32.47-2.44,1-1.8,1.81-3.41,3.64,5.33,6.27,11.36,10.27,16.4,3.75-22,23,10,27.37,12.48-3.32-1.88,7.55-3.46,9.22-2.89,5.87,2,4.79,8.59,8.87,11.59,4.61,3.4,10.51,1.41,14.68,6-1.34-1.48,3.95-11.53,5.88-12.27,4.23-1.63,11.89,5,15.25,7.12.15-2.08.11-4.24.06-6.36,4.8,3,5.7,7.06,8.68,11.18-2.62-3.62,1.58-9.42,5.76-4.8,3.46,3.81,4.56,9.84,9.14,12.68.49-2.29.83-5.37,3.3-5.64,3.2-.36,8.3,5.77,9.92,8.16-.17-2.33-1.33-5.22.75-6.83-4.66,3.61,5.29,15.82,6.79,18.32.47-3,1.77-6.87,1.61-10.25.81,8.22,2.8,16.48,7.45,23.23-2.9-4.22,12.48-1.11,13.57-4.5-1.64,6.18-4.68,12.42-3.29,18.91-.48-2.26-7.61,3.17-8.18,3.81-3.26,3.64-5.83,5.79-11.61,6a8.36,8.36,0,0,1,5.55,1.92c-5.54,5.69-7.43,14.54-15.68,17.68,4.6-3,13.69-5.35,19-4.16-.81,5.48-12.12,8.08-16.69,9,6.71-1.27.69,12.42.49,15.11,13.15-1.25,24.29-16.59,29.47-27.5,1.53,8.63,9-2.34,10.24-5-.49,1.07,6.43,10.17,7.33,11.51,2.89,4.29,5.23,9.05,8.24,13.32a50.79,50.79,0,0,1-1.62-9.94c.11,2.58,10,6.31,12.1,7.35-.33-9.29-9.32-16.54-8.69-25.65-.29,4.28,6.77,10.53,10,12.4-8.84-5.06,4.1-17.59,5.3-23.68A36.59,36.59,0,0,1,528,735.73c1.44-5.33,6.56-5.51,9.15-9.86a37,37,0,0,0,4.45-15.09c1.66,2.24,1.54,5.4,2.54,8.15A56.85,56.85,0,0,1,554,697.18c.33,2.63,1.4,5.51,1.95,8.31-1.83-9.32,7.62-13,8.67-20.8.62-4.55-5-8.11-.34-12.24-6.76-8.17-17.94-12.54-26.22-19-7.71-6-19.61-8.64-29.52-11.71-7.11-2.2-13.78-6.37-20.86-8.18-3.67-.94-7.15,1.28-10.89-2.06,1.17-1.54,3.81-1.67,5.58-.69-1.93-1.43-6.22-3.31-5.64-5.95.2-.9,5.07-4,5.88-3.86-5.79-1-15.92-1.3-18.93-7.06,1.16-.56,2.25-2.16,3.84-2.54-2.77-.52-23.72-5.91-17.88-10.56,1.16-.9,5.09.21,5.46,1.7-3.53-14.11,9.12-5.25,8.89-4.47,1.84-6.15,4.5-14.08,9.32-16.15,1-.45,4.46.24,6.2-.37,6.14-2.16,11.33-10.49,15.06-15.36,5.46-7.15,10.41-14.69,16-21.72,2.95-3.68,11.87-8.91,13.64-12.26-1.05,2-1.86,4.6-2.89,6.65,7.69-10.23,10.46-25,19.84-33.5,6.94-6.27,15.39-2.67,15.42-15.56-8.16,7.65-10.84-.58-18.84-2-15.74-2.79-34.93,3.75-51.48,2.65,3.62-3.67,2.68-7.17,4.07-11.22-25.48-6.58-50.05-12.54-76.3-9.08"/><path class="cls-24" d="M332.34,455.64c4.6-12.6,19.25-19.21,27.63-29.54s8-27.37,20.6-31.72c-14.43,5.39-19.59-12.8-27.78-21.64-10.5-11.33-24.51-20.15-35.8-31.23-6.39-6.26-10.12-13.47-15.56-20.68-3.65-4.85-11.77-9.4-13.84-15.06-4.17-11.43,2.66-32.24,9-42.28A187.93,187.93,0,0,1,311.88,243c5.85-7,20.33-15.19,21.86-23.83a59.43,59.43,0,0,1,9.23.26,82.72,82.72,0,0,0-1.2,12.59c-10.62,1.64-.46,11.87,4.49,14.59-8.4,4.82-30.88,28.5-9.33,29-1,7.1-8.78,17.82-2.79,25,6.28,7.54,21.53.78,30.48,5-6.27,9.32,5.05,13.27,12.69,16.6,3.87,1.7,11.48,2.87,14.37,6,1.73,1.84.73,6,1.89,7.26,2.69,3,6.44,6.49,9.58,9.83,11.79,12.53,1,16.84,18.12,22.85,14.91,5.22,27.23,11.51,33.5,27.12C432.92,400,424.4,409,415.47,428.91c-2.81,6.24,2.26,7.66-6.14,10.95-7.27,2.86-12.92-5.5-19.44-4.73-10.68,1.26-6,5.36-9.47,12.39-2.56,5.21-11.07,21.43-16.55,22.82-5,1.26-9.14-4-14.78-5.15-1.4-.28-12-.27-14.32-.24-7.81.13-15.79,3.19-23.95,5.82,8-7.67,19.08-16.79,28.72-22.34"/><path class="cls-24" d="M410.34,118.13c12.08-2.58,23-6.87,34.37-10.72,25.45-8.62,54.57-14.53,80.62-19.16a14.34,14.34,0,0,0-3,12.82c31.9,1.86,58.51-29.37,91.87-26.34a25.26,25.26,0,0,1-7.53,9.76c2.81-.63,5.92.4,8.76-.14-2.9,3.5-5.55,7.53-6.63,11.65,19.35-8.32.17,26.23-2.52,31.08-9.23,16.6-15.5,34.52-24.07,51.39-6.29,12.41-13.45,22.8-15.34,36.94-2.1,15.78.46,33.07,1.2,49,1.07,23,3.23,45.33-6.27,66.91-9.6,21.76-42.83,41.63-5.2,58.53-18.6,17.58-44,32.91-49,59.6-18.32,7.69-40.33,5.47-59.93,10.31-14.83,3.65-32.08,7.17-45,15.64-12.16,8-16.22,10.77-32,11.52C353.14,487.71,329,513,313.87,509l-.06,0c-7.63-2-16.67-17.31-13.93-24.75,3.56-9.6,25.86-24.12,34-31.29,20.59-18.22,34.46-36.81,45.23-61.9-11.69-5.78-23.89-22.8-33.52-32.41-14.82-14.8-33.81-27.57-47.43-42.92-10.15-11.43-1-30.79.12-43.9,1.19-13.39-6.91-31.37.14-43.7,4-6.91,12.17-7.95,15.22-17.59.67.41,1.69,1.11,2.33,1.57,3.54-7.06,1.75-16.16,4.73-23.45a208.34,208.34,0,0,1,14-28c5.87-9.72,14.61-13.82,20.78-23.27,7.24-11.09,14.82-17.66,28.32-17.71C393.28,119.68,400.12,120.31,410.34,118.13Z"/><path class="cls-6" d="M399.66,122.35l0,0c-4,5.32-6.94,9.5-13.36,12.3-1.71.74-17.62,3.28-17.65,3.35-5.09,13.23-15.85,23.8-23,36.14s-13,28-22.64,38.47c-1.68,1.83-4.32,1.36-4.68,4.37,0,.34,3.18,4.24,3.47,5.21,1.07,3.59,0,6.77-1.23,10.16-2.75,7.62-10.22,13.27-12.82,20.24-2,5.29-.21,11.68-2.48,17.78A152.75,152.75,0,0,1,294.71,293c-.59-7,2.91-14.13,3.53-21.11,1.19-13.39-6.91-31.37.14-43.7,4-6.91,12.17-7.95,15.22-17.59.67.41,1.69,1.11,2.33,1.57,3.54-7.06,1.75-16.16,4.73-23.45a208.34,208.34,0,0,1,14-28c5.87-9.72,14.61-13.82,20.78-23.27C363.11,125.76,386.69,109.21,399.66,122.35Z"/><path class="cls-25" d="M128.64,348.86c-1.3.46-1.35-2.76-1.54-3.37.62,1,1.51,1.18,2.34,1.88s1,2.2,2.06,1.45c-.66-1.33-2-2.16-1.22-3.93a4.07,4.07,0,0,0,3.61,2.94c-.32-.68-1-.63-1.36-1.36a3,3,0,0,1,0-2c.25,1.52,2.14,1,2.77,2.31a.73.73,0,0,0,.75-.23c-.85-1.13-1.6-1.32-1.49-2.87.9.93,2,1.25,3,2.1a3.8,3.8,0,0,1-.89-2.73,4,4,0,0,0,2.9,2.1c-.37-1.07-1.08-2.14-.48-3.33a3.05,3.05,0,0,0,1,2.44c1,.83,1.06.29,2.1-.12a3.2,3.2,0,0,1-1-2.82c.63,2.63,2.5,1.58,4.24,1.6-1-.63-1.83-1.17-1.58-2.48.61.91,1.64,1.49,2,2.58a1.38,1.38,0,0,0,1.35-.57,2.36,2.36,0,0,1-1.12-2.75,18.13,18.13,0,0,0,1.54,1.72c1,.83.82.12,2.09.22-.33-1.08-1.15-1.5-.5-2.83a2.57,2.57,0,0,0,3.85,1.37,2.13,2.13,0,0,1-1.2-2.27c.91.35,1.48,1.39,2.3,1.7.58.22.93-.06,1.56-.1-.71-.91-1.32-1.16-1.25-2.44.76.6,1.78,1.09,2.14,2.05.46-1-.42-1.92.35-3-.13,1.18,1.4,1.56,1.29,2.75s-1.6,1.69-2.44,2.14c-2.61,1.38-5.46,1.8-8.26,2.66a46.19,46.19,0,0,0-6.61,2.68,73.3,73.3,0,0,1-8.63,3.1c-1.14.38-2.55,1.32-3.53.48-.46-.39-.16-1-.75-1.28"/><path class="cls-25" d="M108.86,330.82a24.34,24.34,0,0,0-2.18,3.89,9.51,9.51,0,0,1-2.2,2.28c1.19,2.31,2.67,2.82,4.64,4.24-.57-3-3.2-5.58,0-8.39.41,3.1.07,4.38,2.37,6.72a5.88,5.88,0,0,1-.13-3.32c.53-1.54,1.65-2.16,1.51-4.12,2,.68.76,2,1,3.42a4.65,4.65,0,0,0,2.49,2.86c-1.88-3.07,1.95-4.4.74-7.55a19.51,19.51,0,0,1,2,.23c.1,1.15-.59,2.5-.35,3.51.34,1.37,1.34,1.79,2.27,2.66-1.26-2.08,0-2.72.71-4.42.51-1.19-.24-3.67,2.05-3.09a5.58,5.58,0,0,0,1.13,7c-.34-1.74-.92-2.37.35-3.88,1.53-1.81,2.64-2.21,2.39-4.9.27.27,1.58,1.13,1.68,1.51.23.85-.65,1.14-.66,1.92a4.63,4.63,0,0,0,1.86,3.57,3.65,3.65,0,0,1,.3-3.4c.69-1.09,3.06-2.17,1.8-3.77a6.67,6.67,0,0,0,2.4.1c-1.4,3-2.47,3.83.22,6.55,0-1.51-.46-2.72.5-3.85s4.47-1.29,3.45-3.38c-.65,1.69-1.89,4.45.08,5.67-.4-3.16,3.35-3,3.18-5.91a3.81,3.81,0,0,1,1.84.09c-1.09,1.44-2.09,4,.08,4.89-.2-1.82,2.19-3.27,2.64-5.09a6.19,6.19,0,0,1,1.4.11c-1.77,1.46-.12,3.3.74,4.61a9.47,9.47,0,0,1,.89-3.23c1.13-1.67,3.31-1.32,4.19-3.25-1.72,2.14-3.27,4.34-.77,6.36-.06-2.92,3.85-3.5,5.63-5.05-3.93-2.61-7-4.32-12-4.72-7.71-.62-15.62,1.37-23,3.4C119.36,326.46,112.29,326.71,108.86,330.82Z"/><path class="cls-26" d="M234.9,331.65c-.25-3.39-2.79-6.75-5.42-8.75-.14,2.89.48,6.12-2.36,7.82a48.86,48.86,0,0,1-5.9-8.16c.74,3.6,1.31,7,3.09,10.31-5.15-.27-9.15-7.48-15.06-8.08,5.13,3.9-7.3,10.72-9.83,12.25a48.5,48.5,0,0,1-13.27,5.15c-7.74,1.8-15.09-.12-22.77.53-6.24.54-12.93,1.5-18.48,4.33-5.35,2.73-11.56,5.5-17.64,5.82-1.6.09-4.47.79-5.94.27-1.69-.59-1.34-2.42-3.59-2.47-.14-1.52,9.32-2.45,11.28-3,6.88-1.89,13.72-4.5,20.45-7,.86-.31,11.35-3.14,10.62-4.81-1.6-3.64-5.33-4.6-7-8.24-7.71,0-15.91,1.51-23.44,3.12-5.91,1.27-11.58,3.42-17.44,4.9-2.2.56-9.55,1.46-10.4,4-.73-.82-1.85-1.09-2.67-2-2.35-2.51-3.53-6.66-4.69-9.85s-.82-6.19,1.62-8.8c4.62-4.92,13.29-5,19.18-7.59,13.22-5.83,24.61-20.34,35-30.41a36.13,36.13,0,0,1,8.77-6.47c3-1.5,5.21-4.48,8.38-5.71,3.88-1.51,7.35-.92,11.34-.9,4.48,0,8.85-.83,13.38-.51a37.59,37.59,0,0,1,7.18,1c2,.55,2.24,1.07,4,2,3.4,1.73,7.39,2,11.16,2.55a100.73,100.73,0,0,1,16.2,4.42c-6-.21-11.44,2.09-17.2,2.67,3,6.08,10.24,9.54,16.05,12.3a60.86,60.86,0,0,1,10.33,6.26c1.25.92,1.74,2.1,3.3,2.23-6.47.32-13.78-2.26-19.66,1.38,7.9,2.95,10.3,13.25,17.77,16.15a27.24,27.24,0,0,0-9.9-.7c1.39-.1,4.61,5.78,4.88,7.26A10.88,10.88,0,0,1,234.9,331.65Z"/><path class="cls-27" d="M234.9,331.65c-.25-3.39-2.79-6.75-5.42-8.75-.14,2.89.48,6.12-2.36,7.82a48.86,48.86,0,0,1-5.9-8.16c.74,3.6,1.31,7,3.09,10.31-5.15-.27-9.15-7.48-15.06-8.08,5.13,3.9-7.3,10.72-9.83,12.25a48.5,48.5,0,0,1-13.27,5.15c-7.74,1.8-15.09-.12-22.77.53-9.17.78-17.59,4.26-26.36,6.54-2.52.66-7.28,3.12-9.69,2.09,6.22.12,11.88-3.77,17.26-6.36,4.19-2,10.36-2.8,13.91-5.79,1.71-1.45,1.14-5.05-.07-6.64a60.42,60.42,0,0,0-4.92-4.16c2.13.48,3.66,2.52,5.68,3.3.59-1.85-1.6-2.29-1.71-3.83,2.23-.32,3.73.9,5.74,1.52.41-1.79-1.61-2.14-2.05-3.63a23.06,23.06,0,0,1,11.58,2.5,2.85,2.85,0,0,1-1.54-2.24c3-.44,7.44,1.07,10.41,1.81,6.63,1.64,16.41-4.11,18.1-11,.54-2.23-.21-4,1.57-5.94.49-.54,5.6-2.75,5.5-2.12.6-3.53-2.58-5-4.74-7.11.49-.24,1.26-1.07,1.87-1.25-1.78-2.13-4.25-2-3.13-4.25.75-1.54,3.87-3.32,5.42-3.79-3.15-1.84-12.07-2.15-11.61-7.32.17-1.92,3.62-3.6,3.56-5-.18-3.64-8.31-.72-5.16-6.08-3.76,0-7.12,2.21-10.77,2.82-1.79.3-3.38-.2-5.11-.07-2.24.19-4.18,1.38-6.52,1.12-1.34-.16-2.12-1.18-3.13-1.4-1.66-.36-3,.36-4.73,1.11a48.15,48.15,0,0,0-8,4.25c-2.57,1.75-3.44,4-5.21,6.38,2.44-3.31,1.11-7.9,4.38-11a46.1,46.1,0,0,1,13.45-8.33c3.88-1.51,7.35-.92,11.34-.9,4.48,0,8.85-.83,13.38-.51a37.59,37.59,0,0,1,7.18,1c2,.55,2.24,1.07,4,2,3.4,1.73,7.39,2,11.16,2.55a100.73,100.73,0,0,1,16.2,4.42c-6-.21-11.44,2.09-17.2,2.67,3,6.08,10.24,9.54,16.05,12.3a60.86,60.86,0,0,1,10.33,6.26c1.25.92,1.74,2.1,3.3,2.23-6.47.32-13.78-2.26-19.66,1.38,7.9,2.95,10.3,13.25,17.77,16.15a27.24,27.24,0,0,0-9.9-.7c1.39-.1,4.61,5.78,4.88,7.26A10.88,10.88,0,0,1,234.9,331.65Z"/><path class="cls-28" d="M164.75,294.42c-2,.35-4.14,4.35-4.65,6.13a9.19,9.19,0,0,0,.64,6.26c1.77,3.87,5.23,7.94,10,6.21,2-.72,2.12-1.89,2.26-3.77-1.87-.48-2.56-4.59-2.74-6.12s.22-2.77.08-4.17-.33-2-1.63-2.59c-1.05-.48-3.74-2.1-4.55-1.95"/><path class="cls-29" d="M183.56,276.1c1.19,0,2.3-.41,3.48-.37a12.1,12.1,0,0,0-4.14,2.61c-.77.69-2.18,1.6-2.49,2.59.72.33,1.57,0,2.3.26-.61,1-1.36,1.41-.11,1.92.93.37,2-.13,1.58,1.34.63,0,1.28,0,1.91,0,0,.5-.89,1.22-.83,1.55.15.82,1.66.11,2.28,0,3.19-.39,5.94,1.19,8.88,2-.56-1.34-2.38-2-3.08-3.25-1-1.79,1.61-1.09,2.69-2a23.49,23.49,0,0,1-2.11-1.71c2-.74.22-1.64-1-2.08,1.17-.81,2.52-1.16,3.7-1.89-2.15-.52-4.89-.47-6.88-1.35.44-.44,1.26-.66,1.68-1.2-2.35,0-4.85,1-7.15,1.44"/><path class="cls-22" d="M143.49,303c-.56.13-.85.61-1.31.95-.92.67-2,1.28-3,1.87-1.43.84-2.89,1.68-4.34,2.5-.45.26-1.56.5-1.51,1.15,0,.42,1.1.88,1.37,1.08,1.05.76,4.68,3.71,6,2.18.82-1-.55-2.87-.88-3.84a2,2,0,0,1,.5-2.5c.38-.42,3.35-3.38,3.06-3.58"/><path class="cls-22" d="M163,297.11c-1.93.92-2.49,3.15-2.55,5.13-.06,2.22.83,5.13,2.9,6.22,1.11.59,1.94-.5,2.39-1.44a8.2,8.2,0,0,0,.42-3.55,18.84,18.84,0,0,0-.34-3.35,5.78,5.78,0,0,0-.6-2.05,2.61,2.61,0,0,0-1.2-1,2.38,2.38,0,0,0-.69-.12c-.21,0-.46.19-.56.14"/><path class="cls-30" d="M164,296.54a8.52,8.52,0,0,0-1.59,1.42,5.35,5.35,0,0,0-.58,1.54,4.07,4.07,0,0,1,1.53-1.68,3.52,3.52,0,0,1,2.8.33,10.05,10.05,0,0,0-1.29-.87c-.24-.14-.92-.68-1.1-.64"/><path class="cls-30" d="M161.84,305.92a10.39,10.39,0,0,0,2.26,3.25c1.22,1,2.22.38,3.56.26-2.86.39-4.29-1.45-5.82-3.51"/><path class="cls-31" d="M162.19,309.55c1.56.1,2.75.88,4.31,0a5.42,5.42,0,0,0,2.12-3.19c.82-2.32,1.61-5.94.24-8.21-1.25-2.09-3.52-2.26-5.7-2.43,1.61-.57,4.86-1.11,6.24.14s1.15,3.58,1,5.1a11.44,11.44,0,0,0,1.45,7.42c.92,1.46,1,2.48-.91,3.43-1.54.77-4.22,1.26-5.77.44a8.65,8.65,0,0,1-3-2.9"/><path class="cls-32" d="M164.4,294.14a24.29,24.29,0,0,0-2.67.85c-1.35.38-2.86.55-4.17.88.7,0,1.36.3,2.07.35a4.78,4.78,0,0,1-2.67,1.27c2.34.13,4.49-1.21,6.75-1.33,1.89-.09,3.22,0,4.36,1.65a11.64,11.64,0,0,1,1.51,4.57,22.28,22.28,0,0,1,0,8.65c1.36-1.1,3.26.61,4.68.61.35,0,.14-3.18.06-3.49-.5-1.81-1-3.64-1.39-5.47-.23-1-.61-2-.8-3a11.54,11.54,0,0,0-1.36-3.65c-.44-.86-1.14-1.52-1.62-2.34s-.67-2.13-1.26-3c-.88.82-1.77,1.69-2.7,2.47a10.25,10.25,0,0,1-.92.83"/><path class="cls-32" d="M172.18,307.82c-.32,2.19-2.5,3.1-4.41,3.56-.72.18-1.45.31-2.16.51a4.14,4.14,0,0,1-1.5.37,5,5,0,0,1,1.31,1.22c-1.28.72-3.11.63-4.2,1.62-.75.69-1.52,1.29-1.64,2.33a3.6,3.6,0,0,1,1.56-1.32,10.94,10.94,0,0,1,2.31-1.18c.37-.11,1.53-.52,1.85-.2.16.17,0,.47.22.63.94-1.27,3.76,1.47,4.33-.12-.09,0-.18-.15-.3-.17.29-.28,1.15,0,1.55,0a4.54,4.54,0,0,0,1.49-.42,6.06,6.06,0,0,0,1.84-.85c-.28,0-.78,0-.92-.29a12.5,12.5,0,0,0,1.58-1.33,3.4,3.4,0,0,1-1.05-1.59c-.17-.65.5-1.07.22-1.7s-1-1.23-1.39-1.91-.52-1.65-1-2.42a12.27,12.27,0,0,0,.13,2.18,4.47,4.47,0,0,1,.1,1.06"/><path class="cls-8" d="M164.65,294.78c-1.69.1-3.41,1-5.14,1.19a12.15,12.15,0,0,1-4.81-.12c1.14,1.21,4.06.57,5.52.33,1.94-.31,4.32-1.09,6.27-.93-.71-.4-1.49-.38-2.19-.71"/><path class="cls-33" d="M170.51,312.83c-2.08-.13-4.63.81-6.78,1-1.8.13-4.19.61-5.51,1.92,1.4-.91,3.24-1,4.85-1.25a31,31,0,0,1,4.83-.69c-1.82-.93-4.79,1.59-5.79,2.91,2.12-2.15,5-1.88,7.55-3.28-2.5.56-4.71,1.46-6,3.72,1.75-2.74,7-2.35,8.23-5.66a4.25,4.25,0,0,1-2.71,1.48"/><path class="cls-8" d="M165.35,294.19c-2.55.14-6.59,1.31-9,.37,3.06.48,6.28,0,9.36.12-2,1.77-5.07,2.48-7.7,2.91,2.78.27,5.53-1.94,8.34-2a3.87,3.87,0,0,1-1.13.92c-.5.2-1-.06-1.46.24a10.1,10.1,0,0,0,2.6-.7,4.07,4.07,0,0,1,2.42-.22c-.79-.46-3.23-.93-3.77-1.87"/><path class="cls-34" d="M129.85,310.68a19.28,19.28,0,0,0,5.92-8.69c-1.06,2.6-2.35,6.56-4.52,8.49,2.29-1.39,3.57-3.72,4.64-6.13-.91,1.79-1.32,4.47-3.11,5.65-1,.68-2.67.6-3.37.68"/><path class="cls-34" d="M138.17,313.09a36,36,0,0,0,6.31-.67c.33-1,2-1.45,3.08-1.7-2,1.61-4.64,3.53-7.39,2.19,2.57.53,5.54.52,8,1.89-2.82-.55-5.63-1.66-8.51-1.93"/><path class="cls-26" d="M180.19,280.7c1.08-2.21,2.89-3.75,3.51-6.28-.57,1.88-2.08,3.49-2.62,5.38a7,7,0,0,0,4.77-2.31c-1,1.39-3.06,1.9-4.1,3.17,1.23,1.22,4.47-.06,5-1.43-.74.93-4.17,1.89-4.2,3,0,1.85,4.58.2,5.23-.25-1.16.26-3.08,1.25-3.21,2.4,1.2.21,1.8,1.39,2.13,2.42-2.91-.58-4.93-5.32-7.84-6.27a5.9,5.9,0,0,0,1.74-.71"/><path class="cls-29" d="M153.93,326.88c2.47-.18,4.88-.53,7.12.43,3.57,1.53,6.17,4.76,9.66,6.41-1.85.48-4,.57-5.84,1.08-1.7.46-3.25,1.52-5,1.45-.73-3.84-5.64-5.77-7.84-8.72a10.31,10.31,0,0,1,4.52-1.09"/><path class="cls-29" d="M127.66,308.71a137.48,137.48,0,0,1-18.61,9.69c-1.08.43-6.4,2.13-5.91,3.89.38,1.36,2.29.66,3,.43,3-.87,5.65-2.16,8.72-2.84,4.51-1,9-1.46,13.6-2.13,6.25-.92,12.33-1.13,18.61-1.65-1.68-.89-4.11-1-6-1.8s-3.24-2.32-4.91-3.24c-2.74-1.51-6-1.46-8.77-2.35"/><path class="cls-29" d="M98.77,333.23c.27.64.64,1.29.88,1.95,13.15-6.7,29.11-9.37,43.37-10.26-3.79-1.38-9.71.08-13.63.65a91.32,91.32,0,0,0-12,3c-3.94,1.12-7.85,2.52-11.87,3.33-1.63.33-6.31,2.15-7.36.47a4.36,4.36,0,0,0,.4.85"/><path class="cls-34" d="M174.94,312.21c4.47-3.29,8.36-7.6,12.67-11.07-3,2.17-6.44,4.91-8.44,8,3.94-1.74,8.39-3.29,12.18-5.36-4.25,1.17-8,5.22-12.63,5.77,4.15-.22,9.65.29,13.23,2.43-4-2.38-9.65-.59-13.54-1.12,1.8-.18,3.3.65,5,.66-2.42,0-5.43-.43-7.47,1.1-1.6,1.19-1.42,1.75.76,2.14,3.78.67,8.69-.36,12.4-1.06-1.86-.13-3.72.67-5.51,1-2.27.41-5.21-.29-7.27.76a12.83,12.83,0,0,1,2.82,1.09c1.33.87,1.35,1.88,2.34,2.93-5.7-5.32-11.16-3.61-17,.71.74-2.86,4.86-3.49,6.81-5.33a47.29,47.29,0,0,1,4.54-3.56"/><path class="cls-29" d="M118.91,350.52a3,3,0,0,1,1.14,1.06c2-.53,4.35-1.11,6.28-1.67-2.49.08-5,.61-7.64.61"/><path class="cls-22" d="M207.55,325.13c.71,5.43,5.19,4.91,8.5,7.85a19.81,19.81,0,0,0-3-6c-1.83-2.35-3.86-1.36-6-2.32"/><path class="cls-22" d="M221.68,302.93a13.07,13.07,0,0,0,4.64,1.65c1.39.13,3-.31,4.36.09-1.86-2.35-7-3.28-9.84-2.47a2.48,2.48,0,0,0,.71.73"/><path class="cls-22" d="M212.54,279.65c2.65-.38,6-.59,7.87,1.86-2.68-.65-6.32.29-8.25-1.86"/><path class="cls-22" d="M218.3,286.53c2-.81,4.23.21,6.37-.1a6.16,6.16,0,0,1-3.69,1.36c-1.53,0-2-1-3.31-1.38"/><path class="cls-22" d="M226.81,276.15c2.48-1.47,4.62-1.08,7.47-1.39a9.67,9.67,0,0,1-7.22,1.26"/><path class="cls-34" d="M199.65,269.14a5.29,5.29,0,0,1-.38-1.44,19.48,19.48,0,0,0,2.78-4.44c.7.95.37,2.8-.05,3.87-.29.73-1.87,3-2.61,1.51"/><path class="cls-34" d="M212.16,279.78c.49-2.42,4.06-2.42,5.65-3.59a8.29,8.29,0,0,1-3.2,3.39c-1.2.65-1.71.27-2.7-.05"/><path class="cls-34" d="M200.77,269.26a18.54,18.54,0,0,1,3,1.75,9.59,9.59,0,0,0,4.71.89,16.59,16.59,0,0,0-4-2.66,7.5,7.5,0,0,0-2.85-.6c-.59,0-1.23.31-1.63-.13"/><path class="cls-34" d="M221.3,301.68a9.84,9.84,0,0,1,3.39-2.88c1.28-.65,2.8-.73,4.08-1.35-1.17,1.07-1.89,2.43-3.39,3.23a10.14,10.14,0,0,1-4.2,1.25"/><path class="cls-34" d="M207.66,325.34c.09,1.6-.65,3.17-.36,4.78.43,2.38,2.49,3.28,4.2,4.6-1-2,.56-4.45-.62-6.5-.73-1.28-2.46-2-3-3.26"/><path class="cls-34" d="M229.06,308.57c1.23,1.05,2.28,2.31,3.89,2.88a12.48,12.48,0,0,0,6.33.24c-2-.66-3.77-2.15-5.83-2.91a8.87,8.87,0,0,0-3-.84c-.56,0-1.17.39-1.38.25"/><path class="cls-34" d="M196.89,338.61c2.34-.05,3.26,1.31,4.33,3.21a8.23,8.23,0,0,0,4,3.53c-1.88-1.22-1.42-3.19-2.46-4.86-.91-1.45-2.76-2.49-4.38-1.91,1.83-.5,4.27.75,6.08,1.11,2.13.42,3.21,0,5.14-.68-2.77-.21-5.39-1.39-8.19-1.54a7.69,7.69,0,0,0-2.54.42c-.45.12-2,.52-1.75.47"/><path class="cls-34" d="M213.39,325.28c-1.17.44-4.29,1.94-5.3.51s1.18-2,2.16-2.29c2.49-.72,5.38-.23,7.78-1.15C217.09,324,215.05,324.65,213.39,325.28Z"/><path class="cls-34" d="M200.9,269.14c1.07-2.3,2.48-2.85,4.49-4.09-.82,1.47-2.9,4.54-5.12,3.59"/><path class="cls-35" d="M200,269.14c-.43-2.94,6.14-2.69,7.55-3.24a7.09,7.09,0,0,1-3.68,3,8.72,8.72,0,0,1-4.12.08"/><path class="cls-8" d="M147.67,325.72c5.5-1,10.61.4,15.73,3a54.62,54.62,0,0,1,5.39,3.7c1.76,1.17,3.14.68,4.92,1.48-7.24-6.41-17.72-10.42-27.09-8.48"/><path class="cls-33" d="M165.89,282.41c1.6-1.66,1.33-4.62,1.86-6.78,2,3.9,11.22-.62,14.17-.89-4.54.88-12.16,4.33-15.76,7.4"/><path class="cls-29" d="M161.14,340.5c3.41-2.22,13.22-5.8,16.88-3a110.26,110.26,0,0,0-17.67,3"/><path class="cls-36" d="M221.13,322.28c-1.55,8.72,3.77,13.6,9,19.59.62-4.21,1.49-8.33-.71-12.51-2-3.81-6.3-4.49-8.33-7.78"/><path class="cls-8" d="M208.17,273.56c3-4.8,6.2-4.87,11.22-5.81-1.77,1.65-3.08,3.62-5.34,4.76s-4.79.59-6.59,1.4"/><path class="cls-8" d="M168.91,268.31c2.17-3.87,5.81-5.85,10-6.68-1.22,1.63-2.41,3.73-4.1,4.91-2.28,1.6-5.11.28-7,2.12"/><path class="cls-8" d="M199.75,337.35c5.27.52,12.85,4.63,18.54.08-3.37-1.59-6.44-2.56-10.34-2.2-2.52.23-7.24,3-9.25,1.77"/><path class="cls-8" d="M213.77,281.62c1.72,4.54,12.73,4.33,16.1,3.23-3.14-.51-5.88-2.07-8.91-2.85-2.65-.67-5.78.18-8.24-1.08"/><path class="cls-37" d="M222.18,344.71c-4.53,3.14-7.41,14.24-7,19.68,1.37-2.71,3.64-7.24,5-10.71,1.33-3.3.19-6.33,1.26-9.32"/><path class="cls-37" d="M225.69,359.78c-2.14,6.49-2,12.37-2.12,19.16,1.72-3.71,5.11-7.1,4.58-11.6-.45-3.79-3.53-5.87-1.41-10"/><path class="cls-8" d="M222.88,267.61c5-3.78,11.84-1.83,17.5-1-2.29,2.35-6.72,3.56-10,3.11-2.36-.33-6.48-3.59-8.16-1.07"/><path class="cls-36" d="M219.73,341.2c1.15,7.69,5.09,16.63,13.31,19.26-1.52-5.59-.25-10.22-5.68-14.16-2.6-1.89-7.05-4.26-8.35-6.55a11.45,11.45,0,0,0,.72,2.15"/><path class="cls-38" d="M240.17,374.56c1.14,7.69,5.09,16.63,13.3,19.25-1.52-5.58-.25-10.22-5.67-14.16-2.6-1.89-7.06-4.26-8.35-6.55a10.88,10.88,0,0,0,.72,2.16"/><path class="cls-38" d="M230.64,351.33c1.14,7.69,5.09,16.63,13.3,19.25-1.52-5.58-.25-10.22-5.67-14.16-2.6-1.89-7.06-4.25-8.35-6.55a10.88,10.88,0,0,0,.72,2.16"/><path class="cls-36" d="M232.22,359.48c1.15,7.69,5.09,16.63,13.3,19.25-1.51-5.58-.24-10.22-5.67-14.16-2.6-1.89-7-4.26-8.35-6.55a11.57,11.57,0,0,0,.72,2.16"/><path class="cls-38" d="M226.15,374.56c1.14,7.69,5.09,16.63,13.3,19.25-1.52-5.58-.25-10.22-5.67-14.16-2.6-1.89-7.06-4.26-8.35-6.55a10.88,10.88,0,0,0,.72,2.16"/><path class="cls-39" d="M237.05,384.68c1.15,7.69,5.09,16.63,13.3,19.26-1.51-5.59-.24-10.22-5.67-14.16-2.6-1.89-7.05-4.26-8.35-6.55a11.45,11.45,0,0,0,.72,2.15"/><path class="cls-36" d="M231.6,387.8c1.15,7.69,5.09,16.63,13.3,19.25-1.52-5.58-.25-10.22-5.67-14.16-2.6-1.89-7-4.25-8.35-6.54a10.77,10.77,0,0,0,.72,2.15"/><path class="cls-38" d="M248,396.37c1.15,7.69,5.1,16.63,13.31,19.25-1.52-5.58-.25-10.22-5.67-14.16-2.6-1.89-7.06-4.26-8.35-6.55a10.93,10.93,0,0,0,.71,2.16"/><path class="cls-37" d="M265.87,424.41C267,432.1,271,441,279.17,443.66c-1.51-5.58-.24-10.22-5.67-14.16-2.6-1.89-7.05-4.26-8.35-6.55a11.57,11.57,0,0,0,.72,2.16"/><path class="cls-37" d="M258.24,406.49c1.15,7.69,5.09,16.63,13.3,19.26-1.51-5.59-.24-10.22-5.67-14.16-2.6-1.89-7.05-4.26-8.35-6.55a11.83,11.83,0,0,0,.72,2.16"/><path class="cls-40" d="M253.26,392.56c1.15,7.69,5.1,16.63,13.31,19.26-1.52-5.59-.25-10.22-5.67-14.17-2.61-1.88-7.06-4.25-8.35-6.54a10.81,10.81,0,0,0,.71,2.15"/><path class="cls-37" d="M263.56,385.36c1.15,7.69,5.1,16.63,13.31,19.25-1.52-5.58-.25-10.22-5.67-14.16-2.61-1.89-7.06-4.26-8.35-6.55a11.15,11.15,0,0,0,.71,2.16"/><path class="cls-37" d="M250.29,381.38c1.15,7.68,5.1,16.63,13.31,19.25-1.52-5.58-.25-10.22-5.67-14.16-2.6-1.89-7.06-4.26-8.35-6.55a11.15,11.15,0,0,0,.71,2.16"/><path class="cls-41" d="M255.59,412.44c1.14,7.69,5.09,16.63,13.3,19.26-1.52-5.59-.25-10.22-5.67-14.16-2.6-1.89-7.06-4.26-8.35-6.55a10.77,10.77,0,0,0,.72,2.15"/><path class="cls-41" d="M241.54,363c1.15,7.69,5.09,16.63,13.3,19.26-1.51-5.59-.24-10.22-5.67-14.17-2.6-1.89-7-4.25-8.35-6.54a11.45,11.45,0,0,0,.72,2.15"/><path class="cls-39" d="M252.44,373.14c1.15,7.69,5.1,16.63,13.31,19.25-1.52-5.58-.25-10.22-5.67-14.16-2.6-1.89-7.06-4.26-8.35-6.55a11.62,11.62,0,0,0,.71,2.16"/><path class="cls-37" d="M229.89,385.71c-3.9,2.08-7.32,11-8.46,15.12-1,3.6-1.94,9.63-1.72,12.61,1.52-4.43,5.49-7.58,6.71-12.54,1.34-5.49.53-11.56,3.82-16.59"/><path class="cls-37" d="M238.31,415.85c-4.38,11.09-5.78,19.95-.77,30.74-1.79-5.68-.31-9.88,1.05-15.49,1.2-5-1.66-11.46,1.12-16"/><path class="cls-37" d="M232.7,406.74c-6.11,5.7-12.69,15.43-8.49,24.15a28.82,28.82,0,0,1,4.84-15c2.2-3.42,2.1-8,5-10.86"/><path class="cls-37" d="M258.63,331c3.83,3.48,6.4,6.29,12.21,5,2.81-.63,5.34-3.49,8.36-2.86a23.54,23.54,0,0,0-11-3.53c-2.1-.13-4.14.61-6,.62-3,0-3.24-.93-5.93-2,.9,1.76,3,1.84,4.88,2.08"/><path class="cls-41" d="M250.92,344c2.73,3,2.65,7.11,5.16,10.43a22.11,22.11,0,0,0,10.48,7.74c-3-3.37-1.86-8.76-4.59-12.43-3.11-4.17-10-3.81-12.45-8.2"/><path class="cls-39" d="M255.1,356c2.73,3,2.64,7.11,5.16,10.44a22,22,0,0,0,10.48,7.73c-3-3.37-1.86-8.76-4.6-12.43-3.1-4.17-10-3.8-12.45-8.19"/><path class="cls-37" d="M264.79,370c2.73,3,2.64,7.11,5.16,10.43a22.11,22.11,0,0,0,10.48,7.74c-3-3.37-1.86-8.76-4.59-12.43-3.11-4.17-10-3.81-12.45-8.2"/><path class="cls-37" d="M264.13,358.41c2.73,3,2.64,7.11,5.16,10.43a22.11,22.11,0,0,0,10.48,7.74c-3-3.37-1.86-8.76-4.6-12.43-3.1-4.17-10-3.81-12.44-8.2"/><path class="cls-8" d="M273.75,338.5c2.73,3,2.64,7.12,5.16,10.44a22,22,0,0,0,10.48,7.73c-3-3.36-1.86-8.76-4.6-12.43-3.1-4.17-10-3.8-12.44-8.19"/><path class="cls-42" d="M236.6,354.76c2.73,3,2.64,7.11,5.16,10.44a22,22,0,0,0,10.47,7.73c-3-3.37-1.85-8.76-4.59-12.43-3.11-4.17-10-3.81-12.45-8.2"/><path class="cls-40" d="M272.23,384.79c2.73,3,2.65,7.11,5.17,10.44A22,22,0,0,0,287.87,403c-3-3.37-1.86-8.76-4.59-12.43-3.11-4.17-10-3.8-12.45-8.19"/><path class="cls-8" d="M244.61,311.06c3.15-2.62,6.1-2.62,10-1.24s10.34,3.3,13.12,6.08a29.49,29.49,0,0,1-12.56-1.59c-4.64-1.6-8.27-4-13.22-3.41l-.12-.89"/><path class="cls-36" d="M230.55,387.77c-4.84,2.09-3.83,11.77-3,16a9.82,9.82,0,0,0,3.13-6.65c4.47,5.82-2.21,16.9-1.86,24,1.75-2.31,2.64-5.91,4.36-8.58a28,28,0,0,1,4.08,1.32c-2.42,9,4.53,13.28,11.63,17.28-3.17-2.18-4.54-8.14-5.3-11.76,7.13,3.26,10.86,12.32,6.82,19.62,4.13-.81,6.21-3.73,6.11-8,4.85,5.72,1.37,24.93,16.07,22.88-1.81-3.49-5.88-5.86-7.28-9.78-1.54-4.3,1.29-7.53.5-11.17-.86-3.92-2.9-2.65-5-5.39a44.07,44.07,0,0,1-6-12.3c-3.94,1.64-5.56-1.84-7.67-4.56,1.15-1.38,1.15-2.85,1.82-4.26-5.68,2.9-11.28-.48-14.16-5.67-1.7-3.07-5.57-10.24-4.3-13.58"/><path class="cls-36" d="M220,417.46c-5.8,5.62-3.24,19.34.48,25.31.62-2.48,1.87-4.57,2-7.15,7.69,7.71.25,18.93,1.39,28,.9-2.19,2.47-3.45,4.73-3.41.21.58,0,1.09.2,1.68,4.34-.72,2.93-5.78,2.35-9,.68,3.1,2.78,5.52,3.7,8.58,1.17,3.93,0,9.22,4.3,11-1.32-3.84.28-7.69.15-11.64,4.16.54,4.89,4.63,6.27,7.95,3.37-4.61-2.33-13.31-5.68-17.09,1.53,2.65,5.15,4.12,7.3,1.81-7-2.35-14.92-6.53-16.69-14.36-1.41-6.27,3.39-12.88,2.52-18.35-1.33,3.28-4.53,12.27-9,9.72-3.11-1.78-1.41-15.52-1.66-18.55a21.13,21.13,0,0,1-4.81,6.76"/><path class="cls-36" d="M239.21,475.61A194.21,194.21,0,0,0,241.05,502a16.09,16.09,0,0,1,3.74-8.27c3,3.48,2.4,8.41,2.6,12.74.48-1.49,2-3.46,2.83-4.84.21,4.3,3.51,8.4,7,10.86-.15-3.08-1.32-5.82-1.44-9-.23-.21-.25-.2,0,0,4,3,3.52,7.21,6.27,10.34.71-5.86,1.38-14.62-2.49-19.79-2.06-2.76-5.77-2.06-7.12-6.75-1.43-4.95,2.57-9.47,1.6-14.7-5.25,6.08-10.8-5.4-14.63-7.51,0,3.7-.87,7.37-.74,11.08"/><path class="cls-36" d="M229.93,325.91c3.95,4.77,4.09,14.09,1.95,19.74a56.83,56.83,0,0,1,5.94-4.22c3,4.79,5.28,11.1,10.45,14,.69-5.19-3-10-3.4-15.21,4.13.52,10.06,1.46,12.28,5.29-.76-7.85-12.16-9.5-14.15-15.77,3-.19,6.16,0,9.16-.25-4.6-2.31-10.08-5.43-15.33-7.05-.05,2.79.13,5.68-.84,8.35-2.92-1-5.7-4.7-7.92-7.35"/><path class="cls-24" d="M382.88,485.66c-19.95,9.54-34.08,25.25-44.09,45.08,3.07-.94,7.09-1,9.68-1.91-16.48,19.43-29.49,33.27-32,63,2-4.35,5.82-6.57,8.23-9.77.83,6.59,4.26,11.61,6.41,16.72-1.78-20.73,13.76-37.17,28.46-49-9.39-10.61,2.18-16.6,10.54-22.76-.47,4.42.61,9.2-.21,13.57,9.39-23.11,24.72-27.27,45.3-35.81,1.54.09,1.5.17-.11.23-2.64-1.68-4.58-5-6.87-6.52,5.44-5.45,14.18-8.35,21.31-10.48-.5,2.06-1.15,3.9-1.51,6,18-7.61,35.16-9.72,54.56-10.91-14.18-11.46-39.09-14.7-57-14.53-19.13.18-38.77,16.64-51.28,17.1"/><path class="cls-24" d="M489.72,484.13C481.48,494.67,464.45,496.24,456,507a6.21,6.21,0,0,1,7.28.25c-3.75,6.65-8.41,7.79-8.25,16.26,1.37-2.32,3-4.59,5.46-5.24.5,6.29-.8,10.55-4.19,16-4.58,7.41-14.66,13.39-18,20.42a62.59,62.59,0,0,0,6.18-3.14c.44,6.1-1.35,14.35,2.06,19.32,1.44-14.94,4.8-2.84,11.18,2.63.59-5.8-4.27-13,2.19-15.11,2.27-.75,6.06,2.6,9.09,1.45,2.77-1.05,5.1-5.42,6.2-8.15a33.58,33.58,0,0,1-1.3,10.83c13.93-8.6,8-31.93,24.76-37.33.16,1.19.66,2.05.78,3.16,3.14-7.82,9.1-22.38,19.91-18.49-12.91-9.51,14.39-15.09,19.45-16.5-4.22-3.23-10.57-3-15.58-4.52,1.31-.72,2.39-2,3.77-2.65-6.85-.58-35.41,4.92-37.94-2.05"/><path class="cls-24" d="M447.37,600.07c-2.72,3.55-20.74-2.41-26.18-5,4.89,6.38,3.5,16.13,8.15,21.39.78-6,2-7.83,7.58-5,4.35,2.21,6.29,7.86,9.78,11.13,2.89,2.7,7.07,4.12,9.59,6.36a32.81,32.81,0,0,1-2.6-6.65c3.68-.21,4.87,2.48,7.48,4.8,6.22,5.52,14.17,9.07,20.19,14.32-2.28-1.59-1.63-2.56-1.95-5.19a54.88,54.88,0,0,1,16.52,5.3c-3-.88-5.8-4.22-8.42-6.13,3.58-1.05,8.27-2.21,12.39-3.44-3.57-1.63-8-1.84-11.79-3.44-5-2.11-8.76-6.1-14.32-7.15,3.22-.68,8.15-.16,9.61-4.54-6.48-1.71-17.54,3.66-22.09-4.91,4.56-.4,11.07-.57,13.77-4.16-8.67-1.92-25.63-.49-29.1-10.52"/><path class="cls-24" d="M484.17,704.9c2.71-.24,3.8-2.41,4.17-5.31,8.62,10.24,17.5-10.07,20-15.91.3,6,.43,12,.7,17.63-10.23.87-13,15.19-13.94,23.68a45.89,45.89,0,0,0-4.74-9c-5.2,2.16-8.41,16.46-9.85,22-.71-3.17-.86-6.8-1.34-10.17-4.83,3.44-10.23,3.71-16.49,3.26,5.92-2.44,16.65-7.44,15.81-15.76a25,25,0,0,0-3.12,0c5.12-3.75,8.83-12.25,10.86-15.31"/><path class="cls-3" d="M272.42,536.2c-3.06,7.25,4.85,26.56,9.63,32.29-2.87-19,7.72,2.57,9.29,9.17a11.07,11.07,0,0,0,2-7.35c6.05,1.56,7.88,12.82,11.73,17.71-.23-7.78.38-9.29,7.39-12.27-6.47-1.25-10-11.21-12.2-16.51,3.41-1.78,8.79-1.62,12.84-1.47-1.21-6.93-8.46-7-13-11.16a58.5,58.5,0,0,1,14.45-8.88c-9.4.36-21.4.15-27.3-9.18,3.14-1.95,3.5-5.46,3.05-8.95-12.18,8.91-19.53-1.05-24.19-11,.15,9.8,1.78,20.24-4.75,27,4.45.26,7.41,1.19,8.95,5.38"/><path class="cls-3" d="M410.92,472.72a192.39,192.39,0,0,0-44,21c1.34-.07,3.18.3,4.61.32-1.76,12.37-22.58,17.12-25.36,31.33,1.27-3.1,2.76-2.93,5.1-4.85a21.24,21.24,0,0,0,1.57,2.89c3.75-3.57,9.3-12.87,14.63-8.69.16-6.77,4.5-14.47,12.28-13.34-3.51-10.8,27.53-26.85,36.45-31.89"/><path class="cls-1" d="M378.14,120c.43-1.83,2.22-2.32,3.06-3.88,1-1.88.46-5.18,1.23-7.3,1.78-4.89,6.4-9.26,9.91-12.9,3.8-3.94,9.23-6,12.84-9.76-4.24,5.25-10.27,9.23-10.69,16.63-.16,2.81.44,5.93-.39,8.55-1,3.09-3.09,3.41-4.89,5.58a7.25,7.25,0,0,0,3,2.79c-4.39-.13-11,1.63-15,0"/><path class="cls-5" d="M392.22,119.66c-8.5-.25-5.41-4.5-1.36-9.57,2.77-3.46,2.09-8.7,3.31-12.76,1.55-5.16,7.29-6,9.83-10.24-2.4,4-7,6.93-8.84,11.25-1.68,4,.25,8.81-1.06,13-1,3.09-3.09,3.41-4.89,5.58A7.25,7.25,0,0,0,392.22,119.66Z"/><path class="cls-1" d="M305.89,228.14c-12.07-7.88,2.31-22.49,9.95-27.18-1.63,2-4.94,5.82-5.09,8.51-.26,4.51,3.35,4.22,3.67,7.84.95,10.63-6.07,4.28-10.39,10.83"/><path class="cls-1" d="M3.75,291.47c.77-.83,4.55-.6,5.64-.57a13.62,13.62,0,0,1,4.51.86A14.42,14.42,0,0,1,20.18,297a98.16,98.16,0,0,1,5.1,8.39c.75,1.28,1.46,3.12,3.13,3.32,1.44.18,2.94-1.06,3.93-1.95a10.71,10.71,0,0,0,2.15-2.55c.71-1.28,1.81-2.91,1.86-4.42,0-1.72-1.68-3.05-2.81-4.21a36.52,36.52,0,0,0-9.2-7.05C17.19,284.78,9.39,285.4,3.75,291.47Z"/><path class="cls-5" d="M11.66,291.28c3.42,1.79,6,2.22,8.52,5.69a98.16,98.16,0,0,1,5.1,8.39c1.39,2.37,3,4.68,5.15,1.44-2.09-1.49-2-3.85-3.11-5.82s-2.95-2.83-4.36-4.34C19.93,293.4,16.58,289.61,11.66,291.28Z"/><path class="cls-1" d="M25.09,269.12c5-3.14,10.23-1.75,14.83,1.48,3.57,2.52,6.27,6.62,10.79,3.09A12.32,12.32,0,0,0,55,263.41C46.18,262.74,29.34,256.77,25.09,269.12Z"/><path class="cls-5" d="M29.22,267.13c2.32-1.38,8.89,2.2,10.7,3.47,2,1.44,4.33,4.37,7,4.51,1.83.1,4.78-1.3,4.31-3.51-5.49-.27-8.69-2.29-13.59-4.32C34.29,265.89,32.45,265.21,29.22,267.13Z"/><path class="cls-43" d="M625.45,481.21c8.22-.81,8.29,6.77,14.92,9.37,8.09,3.18,24.24-2.9,32.75-4.06s77.82-5.79,77.11-14.38c-.17-2-5.83-8.34-7.42-8.84-3.16-1-10.12,1.14-14.09.61-17.8-2.37-35.05-2-53.06-1.17-12.47.57-28.26,1-39.63,6.72-4.87,2.45-7.63,13.32-13.37,10.63"/><path class="cls-8" d="M614.27,481.21c42.82-9.73,88.48-4.78,131.75-13.55-8.81-1-22.52,1.75-35.07,2.37-19.07.94-41.76,2-60.91,3.36-12.11.86-26,1.56-36.32,7.82"/><path class="cls-44" d="M691.39,452.57c3.93-1.29,7.07,2.25,10.14,4.56a26.41,26.41,0,0,0,13.77,5.35c15.11,1.68,30.12-.1,44.92-2.76,17.48-3.13,34.73-8.35,52.13-11.93a45.37,45.37,0,0,0,22.33-11.45c3.17-2.85,9-8.52,3.65-12.72-2.82-2.2-9.42-1.65-12.58-1.8-9.5-.45-19.26,2.06-28.66,3.41-14,2-28.11,2.3-42.13,4.37-21.55,3.16-44.62,7.28-63.93,17.48,1.2,2.38.73,4.74-1.64,5.32"/><path class="cls-8" d="M677.63,455.55c5.91-4.34,16.94-2,24-3.09,14.23-2.1,29-4.45,43.09-7.31,31-6.27,63-9.86,93.58-17.69-2.62-3.29-14.5,1.31-17.87,1.8-11.11,1.65-21.44,4.58-32.58,6.23-28.32,4.19-54.8,9.51-83.15,13.71-3.87.57-28.13.53-28.65,6a2.92,2.92,0,0,0,2,.3"/><path class="cls-45" d="M665.1,438.12c10.75-.65,13.22,9.8,22.44,12.35,12.8,3.52,26-4.66,37.18-9.61,14.39-6.36,30.19-10.7,45.33-15,13.19-3.75,21.09-7.43,28.64-18.6,2.06-3,10.79-13.88,4-16.21-1.69-.58-6.27,1.05-7.94,1.41-3.93.87-7.84,1.33-11.86,2.07-25.39,4.64-50.53,14.13-75.18,21.68-11.48,3.51-24,6.18-35,10.9-2.81,1.21-5,2.55-6.26,5.32-.92,2.07.27,6.31-2.6,5.92"/><path class="cls-8" d="M659.44,438.7c7.95-1.38,16.1-4,23.91-6.05,16.44-4.37,33.12-7.69,49.62-12,17.07-4.49,33.74-8.77,49.64-16.59,6.86-3.36,13.08-7.43,20.27-10a125.16,125.16,0,0,0-21.47,8.19c-8.13,4-16.59,5.88-25.44,8.81-22.32,7.38-45.77,11.7-68.4,18-10,2.77-23.37,3.47-32.27,8.38.59,2.31,3.59,2.38,4.93.77"/><path class="cls-46" d="M646.08,464.2c2.65,1.73,11.2,1,15.24.34,6.71-1.12,8.89,1.2,15.21,3,12.88,3.67,28.12-.13,40.64-2.21,9.9-1.65,20.24-4.18,29-8,6.33-2.76,13.92-5.67,19-9.7,4.53-3.62,8.08-8.19,12.19-12.14,3.73-3.58,7.09-8,6.85-12.8-7.28-3.92-14.82-3.16-23-.65-14.72,4.53-29.57,8.63-45.26,10.79-20.64,2.85-46.22,7.16-53.63,23.71-3.4,7.59-18.11,5.45-26.09,9.23,3.79-.35,7-1.14,10.86-1.28"/><path class="cls-8" d="M690.4,453c-7.52,2.42-18.37,6.58-26.29,8.2-5,1-6.27-.31-11.43.19-3.35.33-18.08,2.24-17.33,6.05,3.75.73,9.16-.47,12.89-.82,10.61-1,20.81-4,30.63-6.92,5.64-1.68,11-3.76,16.48-5.66,23.63-8.15,48.58-14.59,71.82-23.27a79.9,79.9,0,0,0,7.47-2.91c1.87-.84,7.41-4.55,9.66-4.74.11-.37-.52-.43-.59-.82-6.18,4.3-13,5-20.48,8-9.37,3.75-22.39,7.56-32.39,10.53C716.89,444.9,703.22,448.86,690.4,453Z"/><path class="cls-47" d="M569.72,467.43c7.84-2.59,9.58,4.79,16.62,5.87,8.58,1.32,23-8.16,31-11.16S692,439.4,689.46,431.19c-.62-2-7.52-6.87-9.18-7-3.3-.27-9.62,3.34-13.62,3.69-17.88,1.6-34.62,5.75-52,10.51-12,3.29-27.34,7.18-37.18,15.26-4.22,3.46-4.52,14.67-10.71,13.31"/><path class="cls-8" d="M558.82,469.89c39.63-18.9,85.26-24.09,125.55-42.15-8.81,1-21.58,6.65-33.7,10-18.39,5.11-40.3,11.12-58.68,16.65-11.63,3.5-25,7.24-33.72,15.61"/><path class="cls-48" d="M690.53,480.09c3.59,1.94,7.82,5.13,11.81,6,10.74,2.34,21.81-1.78,32.37-3.63a200.22,200.22,0,0,0,44.59-13.84c6.42-2.83,15-6.82,19-12.94,2.62-4,3.24-7.45,3.17-12-3.89-.46-7.29,1.58-11,2.3-3.26.64-5.85.43-9.08,1.53-7.88,2.68-15.85,4.92-23.91,6.95-10.89,2.74-21.84,4.95-32.83,7.05-5.72,1.09-11.28,2.89-16.88,4.4-4,1.07-8.26,1.61-11.85,3.76s-5,6.28-7.11,9.65c.63.22,1.32,1,1.75,1.16"/><path class="cls-8" d="M678,479c3.53,3.64,17.18-1.21,21.41-2.13,13.62-3,26.93-7.26,40.49-10.57,20-4.88,42.53-10.25,60.4-20.52-5.76.83-10.33,4.67-16,6.38-8.21,2.47-13.9,4.29-22.54,6.8-4.56,1.32-62,16.44-66.57,17.54-3.17.75-14.64.24-16.82,2.5"/><path class="cls-49" d="M581.09,481.22c4,1.18,2.88,3.59,4.95,6.5s1.91,4.43,5,7c4.94,4.11,14.1,4.75,20.31,6.51,8.23,2.32,14.56,1.95,23.51,1.55,24.57-1.1,49.94-2.49,73.82-10.14,16.45-5.27,7.79-22.35-6-21.12-18.37,1.63-36.87,3.95-55.59,3.37-15.22-.47-29.94-3.29-45.26-3.16-12.89.1-17.07-.78-18.84,12.3a44.22,44.22,0,0,1-7.81-2.36"/><path class="cls-8" d="M572,480.16a5.37,5.37,0,0,0-2.33,3.58c5.18,2.2,11.4,0,16.84-.33,10-.64,20-.64,29.9-.87,15.54-.36,31.16,1.57,46.73,1.62,17.09,0,33.63-3.82,50.6-4.6-17.15-2.13-35.65.26-53.2.88-19.37.67-39.42-1.37-58.73-1.62-7.62-.1-25.72-2-31.59,1.8"/><path class="cls-50" d="M575.9,474.05c4.6,0,8.1-.8,12.86.17,7,1.43,13.49,4.23,20.73,5,19.35,2.18,39.14-4.53,56.4-11,12-4.47,24.74-7.78,36.17-13.21,5.13-2.43,11.52-5.55,14.4-10.06,2.69-4.23,2.5-7.78.63-11.77-7.12-1.24-13.18.57-20.32,2.4-14.43,3.7-28.38,7-43.25,9.4-14.3,2.26-28.27,4.16-42.23,7.68-9.19,2.31-18.44,4.16-26.31,8.84-2.93,1.74-5.05,3.31-6.44,5.94-1,2-1,4.62-3.08,6.18"/><path class="cls-8" d="M568.46,476.24a655.36,655.36,0,0,1,70.36-20.41c16.14-3.61,32.35-5.65,48.33-9.8,9.92-2.58,19.16-5.52,28.69-8.95-2.86.65-5.84,2-8.75,3-4.27,1.42-7.87,1.58-12.41,2.23-11,1.57-21.57,5.65-32.55,7a214.4,214.4,0,0,0-32.86,6.94c-11.39,3.16-22.75,5-33.9,8.83-5.82,2-11.2,4.55-17.07,6.45-3.42,1.11-9.68,1.53-11.1,4.73a12.7,12.7,0,0,0,2.14.05"/><path class="cls-36" d="M561.77,445c4.76-.71,8.85-4.37,13.41-5.83-1.71,5-6.46,4.87-10.56,6.16,0,.11,0,.63,0,.75,2,.32,4.47-.48,6.39-1,4.43-1.12,7.8-.66,12.25-1-5.45,3.19-10,3.64-16.43,4,.34,2.41,8.63,1.33,10.63.81,6.19-1.62,11.33-6.37,17.88-7-1.55,3.82-6.42,6.26-9.88,8-3.06,1.56-8.73,5.08-12.25,3.26,7,5.76,17.09-2.55,23.72-4.91-2.71,2.7-4.38,5.74-7.8,7.88a17.07,17.07,0,0,1-14.28,1.68c-2.08-.79-3.78-2.16-5.79-2.86-2.2-.77-4.16-.67-6.43-.84.42-.29.78-.94,1.28-1.28-3-2.13-7.45-2.52-11.07-2.65,1.59-1.18,5.91-1.73,6.66-3.52-1.66,0-3.31-.36-5-.39,2.06-1.11,5.41-1.58,7.53-2.18"/><path class="cls-36" d="M562.89,462.32c3.37.19,5.92-1.24,8.71-2.78a63.43,63.43,0,0,1,11-4.54,31.69,31.69,0,0,1-7.9,4.58c1.64,1.38,5,1.31,7.19,1,5.24-.72,10-2.54,15.44-2.13-2.95,3-9.37,4.3-13.41,3.14,1.13,2,4.29,1.65,6.12,1.33a8.69,8.69,0,0,1-2.89,1.73c-.62.21-3.86.07-4,.23-1,.9.37,4.12.79,5.18,1-4.3,9.93-7.15,13.61-6.59-2.85,4.06-5.16,5.59-9.88,6.59,1.73,1.25,4.53.37,6.58.65a11.41,11.41,0,0,1,5.8,2.54c-1.52-.84-3.76.17-5.45.26-3.08.17-5.9-.5-8.91-.79-5.31-.51-10.17,1.1-15.15,1.57a12.42,12.42,0,0,1,2.11-3.32c-4.7-2-11.71-1.28-16.62-.25,1.36-1,4.12-1.74,4.37-3.34-2.1-.32-4.21-1.33-6.32-1.42,1.3-.4,10.43-2.78,6.16-4a10.43,10.43,0,0,0,3.55.3"/><path class="cls-36" d="M581.11,438.36c10.64-3.15,19.65-9.88,30.92-10.62-8,8.83-21,8.69-31.79,11.65,2.85-.2,8.52.19,10.11,1-6.38,1.81-13.27,1.32-19.8,2.49,3.79-2.86,8.7-4.76,13.11-6"/><path class="cls-51" d="M587.22,494.41c5,.19,13-.42,16.78-3.43-5.66-4.92-10.7-2.2-17.12-1.14,2.55-2.25,6.77-5.64,6.88-9.14-5,1.51-9.71,3.73-14.51,5.61,1-1.43.42-2,.74-3.57-3.64,1.11-7,5-9.94,7.63,7.15-.19,16-1.67,8.56,5.47a46.24,46.24,0,0,1,8,.7c1.93,4.26,15.76,7.59,19.81,6-5.81-4-12.75-6.59-19.21-8.67"/><path class="cls-8" d="M582.13,552.5c.87-3.92,5.23-6.2,7.18-9.7s1-5.72,4.27-7.12c5.54-2.38,13.55.88,16.9-6.55A9.48,9.48,0,0,1,605,528c5.36-3.2,9.36-6.62,16.22-7.73-2.09-4.51-7-4.72-11.42-4.48,3.51-1.56,8.66-4.19,8.42-8.63-2.05,1.3-4.61,1.71-7,2.44.7-4.87,5.59-7.15,5.47-13.11-2,.12-16.11,13.92-14.27,3-4.16,2.37-8.13,3.9-11.14,7.94-1.29-2.82-1-5.47,0-8.31a20.91,20.91,0,0,1-9.05,4c5.83,4.56-1.83,8.17-4.69,10.56a34.8,34.8,0,0,1,14.17-1.9c-1.16,2.23-3.78,3.28-4,6,5.73.11,10.29.37,5.61,6.24-3.89,4.88-10.14,9.28-14.78,13.12,3.3-1,7.35-1.48,10-3.84a18,18,0,0,0-3.34,7.41c.67-.14,1.22-.19,1.86-.38,0,3.24-4.84,8.79-6.85,11.7a5.8,5.8,0,0,0,3.39-1.56"/><path class="cls-52" d="M783.79,441.23c-.65,13.8,8.74,13.2,18.65,13.34,20.15.29,39.17.14,59.34,2.15s40.29-.68,59.87-5.46c9.58-2.33,22.31-3,30.64-7.85,7.25-4.22,15.36-15.84,14.22-25.6-8.76-3.91-21.66-.62-30.91-.18a371.37,371.37,0,0,1-38.18.23c-31.77-1.72-62.7-3.52-94,2.75-5.32,1.07-13.49.57-15.88,6.23s4.27,12.49-3,15.39a2.88,2.88,0,0,1-1.63-3.05"/><path class="cls-8" d="M758.59,441.23c40,0,79.08-5.45,118.78-6.19,26.7-.5,60.51,2.68,84.63-10-25.24,5.24-49.29,3.9-75.57,3.9-29.54,0-57.85,6.16-87.92,6.16-8.94,0-39.46-4.74-40.85,6.15"/><path class="cls-53" d="M807.84,416c6.8-1.22,8.74,4.65,12.79,8.75,5.73,5.81,12.28,8.37,20.46,6.52,21.23-4.8,43.89-14.79,63.88-23.29,19.25-8.18,39-16.35,57.89-25.27,9.44-4.46,15.12-9.13,3.77-13.64-13.07-5.18-23.69-2.92-37,.52-19.91,5.12-40.11,7.53-59.9,13.74C853,388.52,836,392.88,819.4,398.61c-5.81,2-23.07,7.11-22.33,15.2,2.16-.33,4.51-.77,6.69-1.25"/><path class="cls-8" d="M800.36,416.64c53.53-14.89,106.61-34.57,161-47-18.21.28-23.5,3.82-40.65,7.51-25.69,5.54-45.56,12.92-70.72,20.4-8,2.4-32.83,9.51-40.8,12.39-4.14,1.5-11,3-13.68,6.64,2,3.43,5.47,1.93,7.56-.66"/><path class="cls-54" d="M772.12,423.64c4.63-.63,7.78,3.24,10.6,5.62,6.69,5.61,15.25,4.88,24.21,3.51q22.26-3.42,44-8.69c15.78-3.82,31.73-6.24,47.33-10.9,20.73-6.21,40.47-13.27,60.38-21,5.23-2,15.94-5.24,13.46-11.63-3.94-10.19-29.35-6.25-37.44-4.29-15.9,3.84-31.54,8-47.59,11.58-17.19,3.79-34.71,6.22-51.93,9.77A392.26,392.26,0,0,0,783,412.31c-4,1.42-8,2.27-9.61,5.09-1.14,2-.43,5.86-3.58,6.38"/><path class="cls-8" d="M767.77,423.24c8-.21,17.63-3.49,25.43-5.19,8.28-1.8,16.34-5,24.6-7.1,11.22-2.84,22.59-5,33.89-7.52,23-5.13,45.93-9.28,68.53-15.77,14.11-4.06,28.2-9.34,42.53-12.67-6.28-1-18.07,4.33-24.59,6.19-13,3.72-26.59,6.48-39.83,10-30.43,8.12-62.21,12.1-92.6,20.22-7.3,1.95-14.28,5.79-21.82,6.94-6.52,1-12,1.75-18.09,4.08,0,1.24,1,1.23,2.36,1.11"/><path class="cls-55" d="M766.24,432.82c6.76,1.66,10.91,9,17.75,11.39,13.27,4.63,29.75.65,43.14-.87,43.16-4.89,86.48-11,128.33-22.5,12.4-3.42,24.14-10.55,36.16-15.25,3.22-1.26,15-3.1,15.89-7.2,1.15-5.6-14.39-7.61-18.19-8.18-24.46-3.68-49.2,3.25-73.33,6.06-40.47,4.71-80.48,15.62-120.3,24.14-9.61,2.06-28.64,2.39-35.91,9.92,2.78,1.46,6,1.49,8.24,3.67"/><path class="cls-8" d="M742.58,434c33.55-2.59,67.21-6.52,100.75-11,33.33-4.44,66.67-9.07,99.84-14.62,21-3.51,42.55-8.49,63.73-10.47-10.28-3.17-22.38,2.29-32.83,3.55-18.41,2.22-37.45,3.72-55.72,7.09-43.85,8.08-87.05,14-131.27,18.35-14.77,1.44-35.14-.77-47.55,7.08a8.35,8.35,0,0,0,4.82.6"/><path class="cls-56" d="M781.94,441.52c9.6,4.71,19.71,7.49,30.74,7.27,23.24-.46,46.62-3.73,69.61-6.82,29.08-3.91,61.16-2.62,88.71-14,5.92-2.44,12.94-7.12,15.7-13,3.95-8.41-7.54-7-13.46-7.16-31.58-.75-63.4,6.29-94.48,11.2-18.24,2.89-36,6-54.38,8.28q-7.83,1-15.74,1.32c-6.36.27-6.6.81-10.82,4.59-3.89,3.48-12.34,10.41-18.12,8.75"/><path class="cls-8" d="M761.31,439.88c37.76,3.93,79.17-5.51,116.92-10.27,21.48-2.71,42.72-7.07,64.16-10.07,14.89-2.09,30.34-3.77,45-7-7.81,3.12-19.42.73-27.8,1.51-13.84,1.28-35.77,7-49.44,8.49-35.6,4-65.64,10.34-101.33,14.46-12,1.38-20.63,0-32.78-1.11-3.69-.33-10.33-1.84-13.8-.36-2.57,1.09-5,2.71-.94,4.36"/><path class="cls-57" d="M736.33,427.78c6.07-4,14.15-3.17,20.93-1.93a92.5,92.5,0,0,0,24.08,1.43c21.53-1.57,41.11-7.16,61.62-13.27a366.65,366.65,0,0,0,48.65-18.84c6.56-3.05,13.16-5.67,19.87-8.23,3.15-1.2,9.1-2.38,11.13-5s4.67-11.73,3.49-14.72c-1.63-4.1-4.94-2.34-9-1.41-7.53,1.7-15,2.24-22.5,3.84-19.17,4.09-37.45,10.49-56.68,14C821.2,386.74,804,391.88,788,397.15c-15.55,5.08-31.3,10.32-46.31,16.62-6.89,2.9-4.94,8.42-8.25,13.7a16.14,16.14,0,0,0,3.42.19"/><path class="cls-8" d="M718.14,432.63c2.8,4.27,13.41-3.58,16.84-4.91,16.83-6.54,34.62-10.88,52-15.7,26.46-7.33,53.11-13.83,79.61-21,18.45-5,37.36-9.65,54.95-17.25-7.23-.43-17.3,3.74-24.66,5.5-12,2.88-23.92,6.79-36.17,9.14-33.35,6.41-65.59,17.87-98.08,27.48-9.88,2.92-19.77,5.85-29.55,9-4.24,1.36-16.24,3.66-15.57,9.43"/><path class="cls-58" d="M711,439.65c2.65,1.74,11.2,1,15.23.35,6.71-1.13,8.9,1.2,15.22,3,12.88,3.67,28.12-.13,40.63-2.22,9.91-1.64,20.24-4.17,29-8,6.32-2.76,13.92-5.67,19-9.7,4.53-3.62,8.09-8.19,12.2-12.14,3.73-3.59,7.09-8,6.84-12.8-7.27-3.92-14.81-3.16-23-.65-14.72,4.53-29.57,8.63-45.26,10.79-20.64,2.85-46.23,7.16-53.64,23.7-3.4,7.6-18.11,5.45-26.08,9.23,3.78-.34,7-1.13,10.86-1.27"/><path class="cls-8" d="M755.31,428.44c-7.52,2.42-18.37,6.57-26.3,8.2-5,1-6.26-.31-11.42.19-3.35.33-18.08,2.24-17.33,6.05,3.74.73,9.15-.47,12.89-.82,10.61-1,20.81-4,30.62-6.92,5.65-1.68,11-3.76,16.49-5.66,23.63-8.15,48.58-14.59,71.82-23.27,3.86-1.45,3.8-1.25,7.47-2.91,1.86-.84,7.41-4.55,9.65-4.74.12-.37-.51-.43-.59-.82-6.17,4.3-13,5-20.47,7.95-9.38,3.75-22.39,7.56-32.4,10.53C781.79,420.36,768.13,424.32,755.31,428.44Z"/><path class="cls-59" d="M322.39,469.35c28.13-13.37,54-20,83.3-13.91,16.78,3.46,31.12-2.58,48.13-5.86,12.8-2.46,35.13-4.2,45.35-12.69,11.8-9.79,14.49-22.49,28.64-31.11,16.8-10.24,24.64-18.66,1-25.28,1.23-12.06,23.82-13.89,20.84-30a43.7,43.7,0,0,0-5.68-2.05c5.85-10.62,21.13-8.25,25.15-21.16a48.41,48.41,0,0,1-13.24-7.6c5.16-7.41,16.19-4.35,18.53-14.45,2.6-11.22-9.25-15.48-18.23-14.8-2.45-14.24,8.86-9.39,14.82-16.95,6.41-8.14,3.17-13.84-8.63-12.07-5.11-17.34,20.08-18.71,25.5-31.46-6.53-6.88-19.15-7.44-13.89-17.6,4.1-7.89,28.16-7.09,29.29-18.8,1.18-12.28-15.9-7.14-6.81-24.29,4.84-9.14,21.23-20.48,1-24.08,3.86-4.79,13.56-5.8,16.14-10.73,5.89-11.27-1.94-4.59-8-10.26-6.43-6-10.11-.65-4.15-12.6,3.24-6.5,10.11-8.86,14-14.67-7.38-1.32-27.28,7.41-32,4.43-9.2-5.78,10.69-18.32,14-24.51-13-16.69-78.66,44.3-97.71,44.06,1.58-5.69,4.39-18.69,7.33-23.09,4.76-7.12,15.76-6,13.59-17.72-18.18,4.68-35.24,23.66-54.83,30.38-17.34,6-35.07,10.24-53.18,14.59.88-2.33.47-4.52,1.1-6.79-51.16,18.94-77,47.77-80.59,106-2.93,47.64,4.31,93.62,30.35,134.76,11.46,18.1,35.41,32.44,32.21,56.54-2.65,20-19.14,28.45-36.68,33.95"/><g class="cls-60"><path class="cls-61" d="M396.62,388.63c4.64,1.38,3.35,4.18,5.77,7.57s2.21,5.16,5.76,8.11c5.75,4.79,16.41,5.54,23.65,7.58,9.58,2.71,16.94,2.27,27.37,1.81,28.61-1.29,58.15-2.9,85.95-11.81,19.15-6.14,9.07-26-7-24.59-21.39,1.9-42.93,4.61-64.73,3.93-17.72-.55-34.86-3.83-52.69-3.69-15,.12-19.88-.9-21.94,14.33-2.8-.74-6.47-1.46-9.09-2.75"/><path class="cls-8" d="M386.07,387.39a6.25,6.25,0,0,0-2.71,4.18c6,2.56,13.27,0,19.61-.39,11.58-.74,23.26-.75,34.81-1,18.09-.42,36.28,1.83,54.4,1.88,19.9.05,39.17-4.44,58.93-5.35-20-2.48-41.52.31-61.95,1-22.55.78-45.89-1.6-68.38-1.88-8.88-.12-29.94-2.36-36.79,2.1"/></g><g class="cls-60"><path class="cls-62" d="M385.78,355.3c3.73,2.44,15.77,1.43,21.45.48,9.45-1.58,12.53,1.7,21.42,4.23,18.13,5.16,39.6-.19,57.22-3.12,13.94-2.32,28.5-5.88,40.79-11.24,8.91-3.88,19.6-8,26.71-13.65,6.38-5.1,11.38-11.54,17.17-17.1,5.25-5,10-11.27,9.64-18-10.25-5.51-20.86-4.44-32.36-.91-20.71,6.38-41.63,12.15-63.72,15.19-29.06,4-65.08,10.08-75.52,33.38-4.78,10.69-25.5,7.67-36.73,13,5.33-.48,9.87-1.59,15.29-1.79"/><path class="cls-8" d="M448.19,339.51c-10.6,3.41-25.87,9.25-37,11.54-7,1.43-8.83-.44-16.09.27-4.72.47-25.45,3.15-24.4,8.52,5.27,1,12.89-.66,18.15-1.16,14.93-1.42,29.3-5.62,43.12-9.74,7.95-2.37,15.43-5.29,23.21-8,33.27-11.47,68.41-20.54,101.13-32.77a109.67,109.67,0,0,0,10.51-4.09c2.63-1.19,10.43-6.41,13.6-6.67.16-.53-.72-.62-.83-1.17-8.69,6.07-18.32,7-28.83,11.2-13.2,5.29-31.53,10.64-45.62,14.82C485.48,328.13,466.24,333.71,448.19,339.51Z"/></g><g class="cls-60"><path class="cls-63" d="M399.64,332c4.74-.82,7.76,3.79,10.9,7a30.76,30.76,0,0,0,14.95,8.5c17.12,4.51,34.71,5,52.21,4.49,20.66-.64,41.42-3.7,62.07-4.86,10.28-.58,18.67-3.44,27.67-9.39,4.14-2.73,11.85-8.27,6.38-14-2.88-3-10.57-3.52-14.18-4.23-10.87-2.14-22.54-.91-33.59-1-16.44-.08-32.77-2.14-49.28-2.15-25.35,0-52.63.78-76.61,9.24,1,2.94,0,5.59-2.79,5.85"/><path class="cls-8" d="M383.29,333c7.54-4,19.85.54,28.16.54,16.74,0,34.14-.2,50.86-1.08,36.76-1.95,74.22-.63,110.81-4.42-2.46-4.24-16.93-1-20.89-1-13.08,0-25.48,1.62-38.59,1.61-33.33,0-64.74,1.62-98.11,1.62-4.55,0-32.48-4.18-34,2a3.43,3.43,0,0,0,2.22.68"/></g><g class="cls-60"><path class="cls-64" d="M382.81,326.86c6.37-5.62,15.82-5.86,23.84-5.49a107.61,107.61,0,0,0,28-2.09c24.6-5.17,46.32-14.67,69-24.92A425.22,425.22,0,0,0,556.88,265c7.11-4.54,14.31-8.59,21.65-12.59,3.45-1.87,10.14-4.16,12.06-7.53,1.84-3.22,3.57-14.26,1.73-17.53-2.51-4.47-6.05-1.92-10.63-.22-8.43,3.14-17,4.93-25.37,8-21.48,7.7-41.57,17.93-63.21,25-18.78,6.15-37.77,14.76-55.51,23.33-17.15,8.3-34.51,16.79-50.84,26.41-7.5,4.41-4.39,10.48-7.39,17.09a18.5,18.5,0,0,0,4-.32"/><path class="cls-8" d="M362.57,335.29c3.89,4.5,14.91-6.21,18.67-8.29,18.39-10.15,38.25-17.95,57.55-26.21,29.39-12.59,59.14-24.23,88.6-36.65,20.5-8.64,41.59-16.95,60.71-28.47-8.41.63-19.38,7-27.6,10.2-13.43,5.19-26.54,11.56-40.3,16.18-37.49,12.59-72.9,30.84-108.9,47-10.94,4.91-21.89,9.83-32.69,15-4.68,2.23-18.16,6.76-16.49,13.31"/></g><g class="cls-60"><path class="cls-65" d="M385.79,335.8c6,0,10.59-1.05,16.82.22,9.17,1.87,17.62,5.53,27.08,6.59,25.29,2.86,51.16-5.92,73.72-14.34,15.64-5.84,32.32-10.17,47.27-17.26,6.7-3.18,15.05-7.26,18.81-13.15,3.52-5.54,3.27-10.17.82-15.39-9.3-1.61-17.22.75-26.55,3.14-18.86,4.83-37.09,9.2-56.53,12.28-18.68,3-36.94,5.44-55.18,10-12,3-24.1,5.44-34.39,11.55-3.83,2.27-6.59,4.33-8.42,7.76-1.37,2.58-1.37,6-4,8.08"/><path class="cls-8" d="M376.08,338.66C405.74,328.41,437,318.91,468,312c21.09-4.72,42.27-7.38,63.16-12.81,13-3.37,25-7.21,37.5-11.69-3.74.85-7.64,2.6-11.44,3.86-5.58,1.86-10.29,2.08-16.23,2.92-14.38,2.06-28.18,7.39-42.53,9.11-15,1.79-28.51,5.06-42.94,9.07-14.89,4.13-29.74,6.52-44.3,11.53-7.61,2.62-14.64,6-22.31,8.44-4.47,1.45-12.66,2-14.52,6.18a17.41,17.41,0,0,0,2.8.07"/></g><g class="cls-60"><path class="cls-66" d="M392.63,384.44c12.53.46,14.21,12.86,24.61,16.84,14.43,5.54,30.67-2.45,44.17-6.92,17.38-5.75,36.19-9,54.22-12.26,15.71-2.85,25.28-6.22,35.3-18.32,2.72-3.29,14.06-14.86,6.44-18.33-1.9-.86-7.39.5-9.37.74-4.65.55-9.23.65-14,1.05-29.94,2.51-60.15,10.66-89.56,16.62-13.7,2.78-28.52,4.45-41.81,8.68-3.4,1.08-6.13,2.38-7.87,5.46-1.29,2.29-.39,7.34-3.67,6.56"/><path class="cls-8" d="M386,384.47c9.35-.69,19.1-2.78,28.38-4.3,19.55-3.21,39.25-5.17,58.86-8.33,20.29-3.28,40.09-6.35,59.41-13.61,8.32-3.13,16-7.14,24.62-9.36a145.28,145.28,0,0,0-25.8,7.07c-9.88,3.66-19.89,4.93-30.48,7.33-26.7,6-54.36,8.37-81.3,13.12-11.86,2.09-27.47,1.38-38.34,6.06.41,2.74,3.89,3.16,5.62,1.45"/></g><g class="cls-60"><path class="cls-67" d="M394.37,312.88c11.41,2.18,16.84,12.39,29.37,13.86,18,2.1,39.11-4,56.91-6.87,21.6-3.49,44.29-8.78,64.12-17.73,13.26-6,22.51-16.16,31.43-26.68,3.47-4.09,12.64-11.69,4.82-14.49-4.4-1.58-13.18,1.57-17.72,2.64-34.17,8-68.73,15.7-103.2,22.63-19.11,3.84-36.53,8.55-54.24,16.3-3,1.33-6.25,1.8-8.41,4.08-2.35,2.48-1.6,6.14-6.54,5.74"/><path class="cls-8" d="M378.16,314.17c21.31-3,42.82-5.49,63.93-10.08,26.48-5.76,53.59-11.91,79.57-19.33,20-5.72,43-10.4,60.68-21.36-21.1,6.5-38.23,13.06-59.92,19.16-20,5.64-94.38,21.49-114.19,24.3-6.08.87-24-.81-29.05,2.73-1.9,1.33-6.58,4.69-1.58,4.65"/></g><g class="cls-60"><path class="cls-68" d="M391.59,253.13c2.67,14.74-.18,22.54,15.84,25.26a202.79,202.79,0,0,0,47.34,2.14c43.13-3.26,88.09-25.32,125.51-45.7,24.61-13.41-10.2-27.15-25.38-23.78-23.53,5.22-47.51,14.5-71.81,21.09-14.35,3.89-90.32,12-92.61,27.62"/><path class="cls-8" d="M369.23,271.89c21.67,1.79,50.62-9.14,72.39-14.75,24.31-6.25,48.84-11.94,73.19-18.15,18.86-4.81,43.34-16.84,59.86-19.25a1.39,1.39,0,0,0-.28-2.76c-14.75.89-40.77,13.21-60.71,17-38.42,7.34-91.39,26.13-124,30.26-8.1,1-31.52-4.77-24.14,9.33a6.59,6.59,0,0,0,5.92-1.14"/></g><g class="cls-60"><path class="cls-69" d="M410.39,219.93c9.23-1.76,11.05,10.87,16.7,14.94,11.06,8,35.42-2.29,47.12-3.69,26-3.1,52.19-3.43,78.12-6.79,16.77-2.17,47.34-6.83,57-23.41,1.4-2.4,7.09-15.58,5.9-18.08-2.73-5.71-20.8.64-25.33,1.75-34.93,8.61-71,9.87-106.6,14.53-16.77,2.2-33.41,4.2-50.09,6.9-4.56.73-19.72.81-22.84,4.78-1.48,1.87-.61,6.95-1.63,9.07"/><path class="cls-8" d="M388.69,221c2.69,5.84,8.22,1.79,12.67.42,16.67-5.13,33.91-7.17,51.18-9.33,28.44-3.57,57-6.18,85.42-10.22,24.36-3.47,53.9-6,76.1-16.94-26.7,7.69-70.31,13.74-96.82,16.59-35.24,3.79-52.87,5-87.8,9.88-9.5,1.32-18.65,4.47-28,6.68-4.15,1-10.34,1.51-13.33,4"/></g><g class="cls-60"><path class="cls-70" d="M393.45,216.83c10.66-.57,21.58,8.55,32.82,10.41,26.28,4.33,51.58-8.11,75.7-16,23.34-7.63,47.87-11.19,71-19.36,11.13-3.93,29.17-8.82,36.84-18.17,3.53-4.31,12.47-18.71,8.82-22.6-4.38-4.67-23.53-.23-29.27.52-37.92,4.94-76.65,15-113.54,25.56-23.23,6.63-49.34,8.51-71.7,17.56-5.09,2.06-11.17,4.37-13.14,9s1.58,8.77-3,13.4a52.33,52.33,0,0,0,7.28-.64"/><path class="cls-8" d="M370,215.37c-2.08,10.35,12.45,3.73,17.14,2.58,16.61-4.08,32.77-9.41,49.44-14,35.88-10,72.88-15.47,108.84-25.28,24.47-6.68,48.57-19.35,73.25-24-11.15-4-28.34,5.36-38.81,8.36-16.49,4.74-34.2,8.49-51.28,13.35-33.74,9.61-69.29,13.68-103.35,23-18.32,5-38.6,9.45-55.05,17"/></g><g class="cls-60"><path class="cls-71" d="M395.6,185.79c11.84,4.23,24,6.12,36.88,4.39,27.08-3.64,54-10.57,80.41-17.25,33.45-8.45,71.09-11.22,101.75-28.15,6.59-3.64,14.17-10,16.61-17.27,3.5-10.35-9.74-7.19-16.67-6.56-37,3.34-73.22,15.8-108.88,25.69-20.91,5.8-41.31,11.77-62.41,16.92q-9,2.2-18.21,3.65c-7.39,1.16-7.6,1.82-12,6.8-4.08,4.59-13,13.81-20,12.64"/><path class="cls-8" d="M371.28,186.63c44.64-.45,91.75-17,135.21-27.6,24.73-6,49-14,73.61-20.32,17.11-4.43,34.93-8.45,51.63-14.2-8.7,4.7-22.58,3.45-32.26,5.47-16,3.35-40.86,12.92-56.62,16.53-41.06,9.41-75.3,20.83-116.44,30.4-13.83,3.22-24.1,2.72-38.44,3.07-4.35.11-12.32-.76-16.17,1.43-2.85,1.62-5.45,3.83-.52,5.22"/></g><g class="cls-60"><path class="cls-72" d="M414.89,163.22c12.33-2.32,23.7,3,35.83,4.05,28.75,2.53,58.62-6.57,85.55-16,21.66-7.6,42.45-20,62.21-31.52a68.83,68.83,0,0,0,17-13.58c2.69-3,7.94-7,9.68-10.35,3.51-6.92-4-9.79-9.2-7.47C607.24,92.19,598,95.09,589,98.86c-18.23,7.61-37.43,12.45-56.34,18.31-20,6.21-40.68,9.34-60.46,16.24-16.81,5.86-35.26,10.09-51.34,17.76-2,1-5.47,2.21-6.7,4.34s.37,4.86-1.77,7.1a22,22,0,0,0,3.37-.57"/><path class="cls-8" d="M396.79,167.21c2.76-1.69,6.44-2,9.69-2.67a222.46,222.46,0,0,0,23.27-6.89c20.7-6.89,42.14-12.49,63.37-17.47a588.14,588.14,0,0,0,75.58-23.4c11.55-4.38,23-9,34.12-14.43,6.44-3.13,14.74-5.52,20.33-10-11,3.73-22.43,7.52-33.38,12.65-16,7.48-33.89,13.11-50.54,18.68-39.53,13.22-75.72,16.7-112.32,32-6.88,2.87-13.05,5.12-20.47,6.33-3.55.58-13.24.78-12.64,5.63,1.79.24,4.1-.25,4.51-.65"/></g><g class="cls-60"><path class="cls-73" d="M384.76,184.45c15.12-5.44,27.36,1.71,42.38,4.26,19.72,3.35,39.36-9.12,55.65-18.69,21.41-12.59,40-28.9,60.33-43.16,16-11.27,36.91-18.61,49.84-33.65,5-5.86,19.12-21.07,6.34-25-8.53-2.61-19.94,4-27.15,8.1C532.55,99,492.73,122.7,450.68,140.79c-16.38,7-35.37,13.62-49.38,24.66-4.32,3.41-10.81,6.46-14.38,10.37-2,2.16-1.83,1.47-2.77,3.79-.83,2,1.37,3.47-.74,5.61"/><path class="cls-8" d="M372.45,188.6c31.53-14,65.93-24.38,97-40.32,27.31-14,53.45-29.62,80.24-44.6,18-10.07,35.1-22.16,53.06-32-7,1.1-12,2.36-18.28,5.74C574,83,561.7,90.88,551.35,96.66c-17.72,9.89-60.22,35.51-85.21,47.13-13.29,6.19-70.69,31.74-84.4,36.66-2.43.88-5.21,1-7,3.1-2.26,2.64.05,6-4.24,7.95"/></g><g class="cls-60"><path class="cls-74" d="M361.29,157.19c7.87-1.41,11.83,2.88,18.6,6.21s13.43,3.09,20.84,1.82c12.34-2.1,23.5-7.47,34.82-12.55C448.16,147,461,142,473.4,135.81c17.61-8.82,32-19.37,43.07-35.6,3.36-4.92,14.4-15.82,11.61-22.2-5.44-2.35-10.48,1.25-15.4,3.65-13.69,6.68-27.11,13.76-41.49,18.93-23.95,8.61-47.11,19.34-71.34,27.16-10.42,3.37-25.28,7.72-33,15.81-3.2,3.37-3.07,14.09-8.38,14.07"/><path class="cls-8" d="M347.9,159.78c9.37-.95,19.46-5.16,27.85-9.19,15.76-7.58,32-13.88,48.14-20.56,21.05-8.7,41.89-17.13,62.49-26.9,14.05-6.67,39.33-19.6,41.45-23.28-15.27,4.82-31.39,15.78-50.27,24.17-6.45,2.86-36.26,15.69-43.66,18.81-16.27,6.87-37.31,15.84-52,23C373.24,150,368,152,359.14,155.62c-2.61,1.07-5.25.1-7.6,1.69-1.7,1.14-2.76,3.19-4.88,3.62"/></g><g class="cls-60"><path class="cls-75" d="M352.71,209.09c4.87,2.88,8.62,8,14.73,9.82,10.74,3.25,25-.8,36-2.43,13-1.92,24.86-5.91,37-10.72,9.46-3.74,21.68-5,28.59-13.08,3.11-3.64,8.93-11.37,7.53-16.18-1.22-4.18-10.95-5.65-14.93-6.48-7.19-1.51-15.39.74-22.42,3.28a340.72,340.72,0,0,1-35.86,10.29c-13.5,3.25-26.54,7.49-39.91,11-3.12.83-8.86,1.54-10.73,4.49-1.7,2.68,0,6.54-2.21,8.94,1,.55,2,1.32,2.94,1.88"/><path class="cls-8" d="M338.57,211.43c2.25-1,4.75-1.17,7.18-1.52,5.7-.85,11.15-2.45,16.79-3.63,14.7-3.07,29.16-7.32,43.76-10.95,14.15-3.51,28.27-7.49,42.35-11.36,8.47-2.33,17.38-4.58,25.39-8.29-5.94.14-11.42,2.22-17.09,3.62-9.52,2.36-19.23,4.21-28.82,6.54-22.9,5.57-45.59,14.35-68.92,18.37-4,.68-21.35,1.68-22.15,6.7a2.27,2.27,0,0,0,2.87-.09"/></g><g class="cls-60"><path class="cls-76" d="M359,153.34c.44,2.95,6.53,4.61,9.65,5,5.19.6,4.89,4.15,7.66,8.28,5.66,8.4,18.37,8.22,28,9.36a69,69,0,0,0,24.72-1.28c6.15-1.55,13.23-2.9,19.49-6.41,5.62-3.16,11.31-7.79,16.9-11.48,5.07-3.34,10.53-7.85,13.91-13.88-1.83-7-7.29-8.35-14.45-7.66-12.91,1.24-25.59,1.91-37.38-.08-15.51-2.61-35.32-4.88-52.37,13.5-7.82,8.44-15.79,1.38-23.77,3.71,2.72.69,5.39.67,8,1.65"/><path class="cls-8" d="M396.12,152.61c-6.68.76-16.8,2.7-23.15,2.35-4-.21-3.84-2.26-7.57-3.16-2.42-.59-13.4-2.61-15.72,2.35,1.89,2,6.29,2.15,9,2.82,7.63,1.91,16.47,1.24,25,.53,4.91-.41,9.9-1.41,14.89-2.13,21.38-3.09,42.35-3.65,63.87-7.53a53.47,53.47,0,0,0,7-1.39c1.84-.49,8.18-3.45,9.78-3,.35-.43,0-.69.22-1.2-7.19,3.52-12.12,2.3-19.18,3.79-8.86,1.87-20.13,2.72-28.83,3.43C419.3,150.45,407.49,151.3,396.12,152.61Z"/></g><g class="cls-60"><path class="cls-77" d="M487.6,220.76c1.21-6.38,6.77-18.22,5.49-24.81-1.62-8.34-12-7.31-16.69-6.63-15.29,2.2-29.87,8.38-44.95,11.86-14.33,3.31-27,10.9-40.46,17.79-5.79,3-16.26,5.92-19.33,14.2-2.49,6.71,2.91,8,7.09,9.08,4.59,1.24,9.4-.87,13.89-1.25,9.46-.8,18.9-1.44,28.32-2.76a392.71,392.71,0,0,0,40.75-8.05c7.94-2,19.82-4.87,26.73-11.1"/><path class="cls-8" d="M362.48,235.65c-.72-7.28,5.86-2.69,8.28-2.4,8.55,1,18.74-3.41,27.16-5.36,18.19-4.22,36.4-7.86,54.68-11.3,8.17-1.54,16.27-4.53,24.4-6.69,3.59-1,8.08-3.1,11.73-2.08-2.8,3-7,2.7-10.49,3.29-5.41.91-11,2.51-16.33,3.74-7.06,1.63-13.72,4.21-20.83,5.79-16.81,3.73-33.53,7-50.49,10.39-8.42,1.68-20.91,8.54-28.82,3.36-.24-.95.2-.79.39-1.61"/></g><g class="cls-60"><path class="cls-78" d="M344.22,218.24c3.61,2.24,6.68,6.68,10.22,9.42,6.11,4.73,11.08,3.43,18,1.55,12.19-3.31,24.49-3.4,36.81-5.94,9-1.86,15.12-5.17,22.41-10.62,3.25-2.43,10.45-10.3,8-15.21-3.18-6.43-16-4.31-21.13-3.43-9.74,1.67-19.83,2.47-29.49,4.74-7.12,1.68-14.27,3.42-21.5,4.71-4.46.8-11.37,1.11-15.27,3.75-2.67,1.82-7.63,7.58-8.64,10.76.37.27.79.7,1.17.94"/><path class="cls-8" d="M341.09,218.82c13.51-4.33,27.57-7,41.56-9.59,17.74-3.24,35.31-8.65,53.16-11.12-11,2.14-24.09,3.41-35.84,5.82-15.14,3.11-30.43,5.25-45.51,8.77-5,1.17-12.23,1.39-16.32,4.51-.41,3,2.24,2.19,4.07,1.24"/></g><g class="cls-60"><path class="cls-79" d="M421.34,115.22c-1,2.77.17,5.92.34,9.12.25,4.67-1,5.19-4,6.41-6.41,2.61-11.07,7.48-17,11-8.63,5.16-19.6,13-30.6,11.51-3.25-.43-10.37-2.8-12.75-7.18.87-4.08,3.71-6.11,6.4-7.62q6.92-3.87,14-7.52c11.92-6.15,23.44-13.32,35.37-19.34,1.27-.64,3.4-2.16,5-1,1.8,1.28,1.65,4.17,3.65,4.91"/><path class="cls-8" d="M418.36,112c0-.37.67-.29.12-.59a45.53,45.53,0,0,1-12,9.62c-6.12,3.57-12.17,7.25-18.27,10.83-6.56,3.85-14,6.05-20.64,9.72-4.45,2.45-9.87,6.73-15.2,6.64,2-3.92,8.34-4.77,11.61-6.79,4-2.49,8.51-4.75,12.78-7.27,4.61-2.72,10.06-4.66,14.29-7.91A55.75,55.75,0,0,1,404,119c5.31-2.19,9-7.91,14.31-9.33a2.92,2.92,0,0,1,0,2.94"/></g><path class="cls-80" d="M751.53,450c2.87,2.89,6,7.16,9.59,9.14,9.61,5.32,21.4,4.55,32,5.81a200.27,200.27,0,0,0,46.68-.46c7-.87,16.3-2.23,21.87-7,3.66-3.11,5.24-6.2,6.49-10.63-3.6-1.55-7.44-.57-11.18-.94-3.31-.33-5.73-1.27-9.14-1.14-8.31.3-16.59.16-24.9-.21-11.21-.49-22.34-1.52-33.47-2.66-5.79-.6-11.63-.47-17.43-.63-4.12-.11-8.38-.82-12.43.2s-6.61,4.58-9.58,7.21c.54.39,1,1.33,1.34,1.61"/><path class="cls-8" d="M739.83,445.41c2.34,4.5,16.81,3.77,21.13,4.1,13.91,1.05,27.89.77,41.82,1.49,20.54,1.06,43.68,2.39,63.74-2.32-5.74-.86-11.23,1.51-17.16,1.52-8.59,0-14.56.12-23.55,0-4.75,0-64.06-2-68.8-2.3-3.25-.19-14.1-4-16.83-2.43"/><path class="cls-81" d="M310.17,273.86c2.2-36.94,5.23-69.12,24.06-99.69,5.64-9.16,10-19.41,21-23.27,10-3.5,14.53,2.24,23,3.83,5.8,1.08,13.93-.94,20.58.73,23,5.8,5.3,17.18-1.44,26.46,12.32-.52,27.22,1.24,18.21,16.19-3.56,5.9-29.74,12.27-27.68,20.8,1.62,6.7,29.35,3.51,35.61,7.61,18.44,12.09-3.17,14.23-10.9,24.16,13.51,2,38.62-10.05,49.58-2.71,14.3,9.58-7.57,19.9-16,22.49,12.77.64,41.17-14.77,53.28-3.47,13.26,12.37-17.83,21.63-25.4,29.58,5.39-1.5,25.32-4.93,28.45,4.13,3.62,10.47-14.78,16.95-21.54,19,5.87.82,11.91,8.46,8,16.79-4.91,10.4-23.71,9.73-32,14.1,16.13,14.84-9.7,22.78-21.26,25.57,28.33,5.11,7.65,24.59-4.43,35.21,10.32-1.49,40,3.58,34,19.78C458.23,450,421.09,443.12,406.07,453c2.85,3.65,7,5.91,11.52,8-22.56,21.75-63.17,9.25-89.64,6.75,30.49-24.25,63.24-56.57,39.38-97.64-12.51-21.53-39.58-27.69-50.74-51.55-8.39-17.94-7.4-42.07-4.89-61.43"/><path class="cls-82" d="M319.23,211.71c4.8-5.68,12.73-8.81,18.28-14-.71,7.42-8.5,15.19-6.62,23A36.14,36.14,0,0,1,346,209.48c.8,9.62-3.05,15.94-5.77,24,4.51-.3,10.54-.83,13.92-4.39,6.05,14.37-9,17.9-10.4,29,2-.28,4.64.57,6.68.34-1.63,14.13-12.22,23.91-16.06,37.1,10,6.61,26.2,1.06,34,12a10.88,10.88,0,0,1-9.42,6.13c10.49,5,31.3.73,38.44,13.8-4.51,2.37-9.73,5-11.72,9.41,6.08,5.79,14.26,4.41,22.24,3.67,3.17,11.27-8.5,13.8-14.71,17.4,8.29-.82,27.66,1.06,31.15,9.15-13.12,5.65,2.59,18.23,9.37,22.8,1.29.86-17.13,7.63-18.64,11.82-3.83,10.59,10.21,23,2.45,35.36-4.86,7.71-13.65,2.27-17.5,11.48-1.58,3.83,4.52,6.29,2.33,10-8.95,15.17-42.47,10.2-56.29,9.53-12.43-.61-27.25,2.27-36.29,11.13,1.41-11.21,6.9-24.88,12.28-34.88,14.31,9.72,25.54-5.7,34.45-16,8.77-10.14,20-27.29,10.55-39.91-3.52-4.7-10.86-8.1-15.5-12.58-6.86-6.64-12.62-14.69-19.41-21.65-15.82-16.19-47.44-41.81-43.6-67.15C292.39,261.36,302.26,231.83,319.23,211.71Z"/><path class="cls-83" d="M406,358.26c1.42,1.72,3.34.79,7.65,1.77,1.73.4,10.56,7.11,10.65,7.07-13.11,5.65,2.6,18.23,9.38,22.8-.54-.37-15.57,8.26-16.73,9.62-2.63,3.05-3.12,5.79-1.42,9.78.57,1.34,8.13,10.43,8.93,10.2-8.62,2.37-1.44,6.23-.17,11.31,1.94,7.74-13.06,6.75-15.59,11.17s2.92,3.35,3,4.58c.27,6.16-6.44,2.69-8.87,5.4-2.16,2.42,1.24,12.28,4.88,9.81-9.59,6.52-23.83,7.35-35.13,7.62a260,260,0,0,1-40.68-2.21c10.36-6.73,23.31-4.54,34.45-10.43a22.2,22.2,0,0,0-1.91-2c3.56-3.9,12-6.85,5.79-14.66,9.06-5.17,16.9-5.08,16.39-15.08-.57-11.2.63-20.32,13.44-23.56-2.5-3.26-10.67-6.09-11.63-10.62-1.18-5.55,4.86-11.25,9.37-13.26-4.81-.7-9.06-3.45-14-3.38,9.23-10.46,15.72-23.35,23.71-34.75-2.38,3.39-4.29,10.51-3.19,14.59A11.57,11.57,0,0,0,406,358.26Z"/><path class="cls-29" d="M128.59,324.35c-10.45,1.88-20.63,7-31.44,6.47,1.15,2.1,1.36,4.79,4,5.53,2.47.68,5.2-1.21,7.45-2.08a83.89,83.89,0,0,1,13.14-3.57c9.51-2,19.66-1.89,29.29-4-1.54-1.79-3.73-.64-5.51-1.73-2.38-1.46.91-2.84-3.31-3.59C138.89,320.75,132.17,323.7,128.59,324.35Z"/><path class="cls-29" d="M96.55,327c-1.48-1.91-1-6.24.31-8.23,1.75-2.63,5.12-2.69,7.66-4.24-2.56,1.73-5.07,3.31-6.48,6.15-.9,1.81-.62,5.17-1.64,6.49a1,1,0,0,0-.23-.55"/><path class="cls-30" d="M167,300.71c-1.67,1-2.77-1.54-1.05-2.3s2.25,2.61.47,2.49"/><path class="cls-5" d="M411.76,719.66c-4.21.72-10.57,6.16-10.21,10.82,2.23-4,7.67-7.17,11.09-10.54-.11-.4-.37-.33-.59-.56"/><path class="cls-5" d="M422.82,719.66c-1.74,1.6-1.51,5.29-1.35,7.57.86-2.44,2.67-5.13,2.73-7.81-.95.18-1.15-.44-1.66-.61"/><path class="cls-5" d="M412.33,700.94a31,31,0,0,0-.57,5.58c.34-1.8,1.93-4.23.57-5.87"/><path class="cls-5" d="M504.52,765.89c-3.22,2.68-2.49,9.22-.06,11.9-1.31-4.28-1.57-7.52.06-11.9"/><path class="cls-5" d="M462,839.93c-3.37.3-7.88,6.23-7.32,9.55a32.33,32.33,0,0,1,5.05-4.87c1.63-1.27,4.19-2.3,5.37-3.77a6,6,0,0,0-3.34-.67c-.07-.28,0-.53,0-.81"/><path class="cls-5" d="M488.07,826.31c-2.75,3.38-1.07,10.48,3,12.51-4.11-3.37-2.16-8.39-2.74-12.79"/><path class="cls-33" d="M202.33,428.45c-4-3.54-7.77-7.22-10.08-12.93-1.91-4.74-3.13-13.41-6-17.3-6.7-9-28.75-8.49-39.93-12.34-15.26-5.25-30.15-11.45-45.55-16.59-8.71-2.92-19.37-4.92-27-9.78-11.41-7.22-21.64-23.28-31.27-33.37-3-3.16-13.87-10-15.37-13.3-2.18-4.84,4.55-15,9.94-15,7.59-.06,4.76,9.3,7.14,14.18,3.16,6.47,9.37,11.06,14,16.38,2.76,3.18,5,6.75,8,9.83,2.2,2.32,8.38,5.53,9.66,8.05-2-3.85-4.26-7.92-5.44-12-.84-2.89-.3-7.29-1.36-10.17-2.16-5.93-6.67-10.6-9.29-16.29-1.87-4.05-1.8-9.17-3.85-12.87-1.68-3-6.32-4.58-8.19-7.6-2.27-3.65-.64-7.69-2.18-11.42,4.54-4.23,6.42-16.44,12.32-11.17s6.76,14.94,9.17,21.95c2.87,8.36,5.44,17.36,9.38,25.29,7.18,14.47,8.84,31.57,23.29,38.49a555.22,555.22,0,0,0,53,22.14c9.12,3.25,18,6.5,27.07,8.86,11,2.85,13.36,2.51,16.31,14.54,2.17,8.8,6.48,16.91,10.88,24.77,2,3.55,7.85,10.06,7.78,14.1a16.73,16.73,0,0,1-1.94,6.57C208.69,438.67,206.28,432,202.33,428.45Z"/><path class="cls-3" d="M344,620.61c2.24,5.92,5.48,13.81,11.16,17,1.7-2.43.92-5.37-1.61-7.1,6.22,3.83,8.1,12,13.6,16a20.92,20.92,0,0,0-2.62-9,18.73,18.73,0,0,0,14.45,6.46c-.9-1.21-1.22-2.91-2.17-4.08,4.1,1.58,7.36,0,11.05-2.16-8.41-2.52-42.37-6.62-42.53-19"/><path class="cls-22" d="M381.82,647.85c1.72,3.38,4.54,7.63,7.87,9.92a30.51,30.51,0,0,1-.46-6.52c6.36,1.27,12.07,2.49,18.94,2.61-2.67-1.63-5.67-3-8.18-4.87,3.36-1.79,7.66-.32,10.34-3-9.54-.7-19.06-.9-28.41-2a3.74,3.74,0,0,0,.56,3.22"/><path class="cls-22" d="M318.71,596.69c-1.89,3.84-4.66,12.17-1.47,15.25,1.11-1.89,2.07-3.51,2.1-5.74a10.67,10.67,0,0,0,5.91,7c-.23-2.8-1.67-4.31-1.77-7.17a13.69,13.69,0,0,0,8.3-.1c-6.75-.59-8.74-8.74-8.55-14.53a47.84,47.84,0,0,0-5.18,5.91"/></g><g id="Layer_12" data-name="Layer 12"><path class="cls-22" d="M139.37,295.45a14.44,14.44,0,0,0,3.33-3.55,57,57,0,0,0,3.74-5.13c-2.77,2.44-4.17,6.17-6.93,8.68"/><path class="cls-22" d="M172,294.13c4,2.42,5.91,8.79,3.8,13.12,2.21-3,1.26-9.33-1.43-11.73a20.08,20.08,0,0,0-2.64-1.65"/><path class="cls-22" d="M160.84,313.63a4,4,0,0,0,.06-1.87,3.15,3.15,0,0,0,1.64,1.31,10,10,0,0,1-1.44-.45c.13.45-.18.36-.26.61"/><path class="cls-22" d="M166.37,293.87a9.55,9.55,0,0,1,2.45,1.07,4.05,4.05,0,0,0-2.66-1.34,2.82,2.82,0,0,0,.48.27"/><path class="cls-22" d="M178.49,302.17a19.47,19.47,0,0,1-1.33,7.06c1.62-1.74,1.86-4.73,1.2-6.93"/><path class="cls-22" d="M168,293.08a2.32,2.32,0,0,0,.66-.94c.15.53.29,1,.48,1.59-.32-.2-.75-.46-1-.65"/><path class="cls-22" d="M163,312.18c-.71-.13-1.33-1-1.69-1.56a27,27,0,0,1,2.3,2.36,4.14,4.14,0,0,1-1.14-1.07"/><path class="cls-22" d="M130.55,349.19c1-.54,2.63-.53,3.77-1.19-1.25.31-2.94.29-4,1.06"/><path class="cls-22" d="M153.34,327.59a10.64,10.64,0,0,1,4,3c-.69-1.29-2.13-2.14-3.19-3.13,3.39,1.53,5.08,3.7,6.78,6.85a11.9,11.9,0,0,0-6.12-6.67c1.71-.73,4.24.91,6,1.15-1.79-.56-5.76-2.37-7.6-1.18"/></g></g></svg>