<svg xmlns="http://www.w3.org/2000/svg" xmlns:xlink="http://www.w3.org/1999/xlink" viewBox="0 0 693.71 981.79"><defs><style>.cls-1{fill:#c58e96;}.cls-2{fill:#f5c4cb;}.cls-3{fill:#eae5e3;}.cls-4{fill:#977b72;}.cls-5{fill:none;stroke:#27aae1;stroke-miterlimit:10;}.cls-6{fill:url(#radial-gradient);}.cls-7{fill:url(#radial-gradient-2);}.cls-8{fill:#f8f2e3;}.cls-9{fill:#d6baa6;}.cls-10{fill:#ea6e4b;}.cls-11{fill:url(#radial-gradient-3);}.cls-12{fill:#c3c3a4;}.cls-13{fill:#be7071;}.cls-14{fill:#e6572c;}.cls-15{fill:#eeb49b;}.cls-16{fill:#f3cdba;}.cls-17{fill:#f8d7c2;}.cls-18{fill:url(#radial-gradient-4);}.cls-19{fill:url(#radial-gradient-5);}.cls-20{fill:#f6d1b9;}.cls-21{fill:#cca088;opacity:0.3;}.cls-22{fill:#231f20;}.cls-23{fill:#fff;}.cls-24{fill:url(#radial-gradient-6);}</style><radialGradient id="radial-gradient" cx="302.6" cy="279.87" r="290.46" gradientUnits="userSpaceOnUse"><stop offset="0" stop-color="#fff"/><stop offset="1" stop-color="#f6d1b9"/></radialGradient><radialGradient id="radial-gradient-2" cx="125.43" cy="447.87" r="1.83" xlink:href="#radial-gradient"/><radialGradient id="radial-gradient-3" cx="395.61" cy="279.21" r="229.26" gradientUnits="userSpaceOnUse"><stop offset="0" stop-color="#fff"/><stop offset="0.21" stop-color="#fefbf9"/><stop offset="0.49" stop-color="#fcf0e8"/><stop offset="0.81" stop-color="#f9decd"/><stop offset="1" stop-color="#f6d1b9"/></radialGradient><radialGradient id="radial-gradient-4" cx="318.17" cy="263.88" r="151.81" xlink:href="#radial-gradient-3"/><radialGradient id="radial-gradient-5" cx="370.01" cy="328.57" r="214.49" gradientUnits="userSpaceOnUse"><stop offset="0" stop-color="#fff"/><stop offset="0.19" stop-color="#fefbf9"/><stop offset="0.44" stop-color="#fcf0e8"/><stop offset="0.72" stop-color="#f9decd"/><stop offset="0.89" stop-color="#f6d1b9"/></radialGradient><radialGradient id="radial-gradient-6" cx="456.54" cy="355.97" r="154.34" xlink:href="#radial-gradient-5"/></defs><title>Flamingo_Ritterbush2020_CC_BY_NC</title><g id="Layer_2" data-name="Layer 2"><g id="Layer_2-2" data-name="Layer 2"><path class="cls-1" d="M198.43,529.8a8.11,8.11,0,0,1,2.84-2.35c.41.86,1.21,1.44,1.25,2.65,4.6-3.67,7.49-6.91,13.08-9.5,4.13-1.92,7.68-3.91,12.24-4.87,7.41-1.55,14.85-.41,21.86-3.82-5.59-2.29-11.47-4.8-17.22-6.77-6.94-2.39-14.3-8-21.56-8.92-6.65-.85-10.79,5.19-14.49,9.71-4,4.86-3.34,12.06-8.33,16.48a11.49,11.49,0,0,1,5.53.91C194.43,523.8,199.26,528.66,198.43,529.8Z"/><path class="cls-2" d="M331.72,958.24c-5.64-11.1-27.23-15.6-39.32-18.24a183.49,183.49,0,0,0-28.78-4.18c-4.62-.28-11.56-2.06-15.15.59,16.34,9.74-8.71,17.48-16.85,19.34,5.32,2.42,14.12,2.18,17.83,7.31,3.2,4.43,0,14.68-4.6,16.39,6.13-.72,11.7.92,18,0,9.09-1.35,18.08-3.61,27.39-4.81,10-1.3,51.56-2.89,38.5-17.86"/><path class="cls-3" d="M250.69,940.15c5.18-2.82,21.33,3.81,27.26,5.93,5.47,2,13.64,4.73,17.65,8.44-12,3.35-56.17-9.44-62.59,2.51,17.69,3.91,37.29,3.9,55.62,5.08-4.26,4.74-15.6,7.42-22.16,9.23-7.73,2.14-22.28,2.52-27.2,8.61,11.93.82,29.59-1.6,40.8-5.48,14.16-4.89,26-11.87,40.77-14.46,3.55-6.42-9.45-5.14-13.5-5.51-7.79-.7-9.66-4.58-15.92-8.56-11.06-7-29.88-9.7-42.79-10.66,0,1.77,1.19,2.68,2.78,3.63"/><path class="cls-4" d="M252.12,940.78c-3.75.54-7-.84-9.92-2.65,1.43-2.2,4.35-3.51,7.06-4.21,2,1.44,2.51,4,2.86,6.23"/><path class="cls-4" d="M235.63,953.88c-4.72,0-10-1.08-12.65,3.16,3.47-.4,6.81,1.3,9.6,2.39.74-2.62,1.8-5.43,4.49-6.8"/><path class="cls-4" d="M243.52,975.71c-7.35,0-8-.2-9.73,6,3.06-3.23,6,.72,8-.45,2.86-1.63.34-4,1.71-6.83"/><path class="cls-1" d="M252.87,943.31a17.31,17.31,0,0,1,.16-3.68c8.21-4.23,36.11,7.16,42,14-6.79.76-14.07-6.88-20.29-9.17-8.11-3-16.14-3.1-24.77-3.13"/><path class="cls-5" d="M127.1,449.59c17.15,16.19,35.19,27.5,58.57,30.15"/><path class="cls-6" d="M583.45,547.13c-5.92,0-14.37-4.72-23-6.67-14.62-3.31-21.37,5.14-34,2.61-20.43-4.1-28.86-8.41-49.64,0-33.21,13.42-76.43,17.35-112.09,16.59-22.78-.47-35.88-8.34-55.85-16.48-40-16.31-66.78-29.81-105.5-47.62a158.57,158.57,0,0,1-35.4-22c-13-5.32-27.63-15.17-40.67-25.64C111,434.74,97.24,420.62,92.7,413.27c-7.38-12-11.55-27.52-15.75-41.18-11-35.69-14.12-68.09.3-103.36,12.6-30.83,31.54-61.24,47.21-90.22,9-16.71,26.12-43.83,20.48-63.87-2.83-10-7.26-16.08-17.21-19.22-13.37-4.24-9.81,1.23-22.3,5.12-14.35,4.46-34.29,5.83-45.34,17-9.86,10-17.85,44-14.34,57.62,2.51,9.67,7.25,16.11,8.4,24.25a28.57,28.57,0,0,1-1.31,12.91C24.17,191.78-8.39,154.76,5,116.16c5.09-14.63,20.8-26.84,19.54-42-1.76-21,7.84-35.41,15.82-50.31S61.71.07,80.82,0C99.58-.07,119.67,7.34,133,20.41a65.22,65.22,0,0,1,15.24,8.66c12.12,9.35,23.29,29,29.87,43.37,7.59,16.59,13.58,41.74,12.87,60.14-.8,20.6-8.83,47.36-17.94,66.25-5.62,11.65-10.7,23.08-16.06,34.76-5.9,12.86-18.69,26-19.64,40.21,5.63,1,9.31,4,12.36,7.91C172.6,246.64,208,215.16,250.6,213.48c103.38-4.08,220,57,286.67,111,37.3,30.17,68.51,79.08,65.86,121.08-1.12,17.81-11.6,33.39-10,51.55,1.23,14.32,9.63,27.13,8.15,41.56-3-2.8-6.64-3.79-9.62-6.4C591.74,543.75,588.52,547.15,583.45,547.13Z"/><path class="cls-7" d="M123.5,446.15c.69.65,1.37,1.29,2,1.94l1.56,1.5.27-1.71"/><path class="cls-8" d="M55.06,126.12c-3.88,2.93-3.9,2-6-2.74-2-4.49,2.29-5.6,2-10.35-.35-6.2-6-13.37-9.2-17.92-10.84,14.69-26.27,26-27.71,45.24-1.27,17,6.62,35.3,16.81,48.73,6.15,8.1,13.43,14.7,21.1,21,5.35-15.09-7.21-26.83-6.77-41.34.2-6.59,3.38-16.05,5.35-22.69,1.9-6.39,9.2-14.31,2.8-19.85"/><path class="cls-9" d="M26.11,101c-2.89,6.47-4.7,15.34-11,19.41-.79-8.75,8-11.88,9-19.71"/><path class="cls-10" d="M657.61,447.38c25.68,30.15,40,72.84,35.16,109.31-1.51,11.37-46.58-42.6-47.53-43.16-22.73-13.47-48.26,6.24-72.89-4-23.14-9.59-32.5-36.36-54.75-47.35,32.27,1.79,8.66-43.23-.7-57.31,15.2,3.15,29.7,7.12,42.49,15.44,8.22-9.94,11.38-25.57,8.68-39.32-1.2-1.18-1.3-1.1-.32.24C599.75,388.29,636.67,422.78,657.61,447.38Z"/><path class="cls-11" d="M154.93,344.36c-2.41-22.79,15.22-58.75,52.22-61.51,9.62-.72,17.37,4.69,26.19,6.56,21.52,4.58,43.09,3.16,65.47,3.94-1.92,6.81-7.08,13.57-12.07,19.46,20.87,3.83,37.51,13.91,56.85,20.25,16.48,5.41,42.41,5.08,54.4,14.55-15.84,4.28-32.32,10-49.42,10,15.47,3,36.07,1.16,51.46,10.2s33.39,31.11,38.1,45.53A126.6,126.6,0,0,0,399,406.54c33.9,9.38,81.43,12.25,111.4,27.61,14.83,7.6,19.94,21,33.62,29.08,25.2-26.08,59,50.64,54.77,67.77-23.38-9.88-37.27-21.12-55.69-34.57,3.05,9.62,29.16,54.33,17.2,61-10.47,5.82-73.18-32.68-86.4-37-42.42-14-88.52-33.74-134.68-41-37.15-5.81-80,3.94-107.71-15.53-30.6-21.49-42.1-45.21-57-74.27-10.47-20.45-30.75-57.6-12.1-78.21"/><path class="cls-12" d="M320.39,854.91c2.17-44.69,13.21-102.22,8.34-144-1.45-12.41-8.44-20.84-4.07-33.57,4.29-12.48,10.86-15.24,13.55-28.21,6.25-30.07-1-68.47-2-98.37,5.06-4.47,9.14-5.09,15.76-5.82,3.24,37.07-5.7,75.19-3.37,113.89,16.24,13,5.59,34.13,1.23,52.09-4.74,19.45-5.51,40.14-7.59,60.67-3.53,34.8-5.6,69.63-8.52,104.45-2.56,30.62-7.52,60.89-23,88.08.15-8,3.4-15.6,3.91-23.55.56-8.66-.6-17,.16-25.8C316.55,894.83,319.42,875,320.39,854.91Z"/><path class="cls-13" d="M201.59,505.54c-1.1,2.66-3.17,4.53-4.73,7A101.2,101.2,0,0,1,186.93,525c2.47,2.51,8.7-6.12,10.79-8.11,1.75-1.67,3.86-4,6.1-5.12s5.13-.72,7.16-2.3c1.05,3.77-4.21,7.77-6.37,10.34-2.6,3.13-4.29,7-6.82,9.91a31.16,31.16,0,0,0,3.41.43c1.61-7.51,12.25-15.16,18.86-16.78a35.81,35.81,0,0,1,11.36-.8c3.05.15,8.18,1.08,9.84-2.23-6.61-3.87-12.4-9.37-20.43-10.5-3.54-.5-14.45-1.11-17.65,1.2-1.72,1.24-.85,2.58-1.53,4.32Z"/><path class="cls-4" d="M187.86,527.47c-.76-2.27-1.32-4.67-.51-6.89.9,1.73,2.19,3.67,2.87,5.28-1.22,0-.46.64-.9,1.11"/><path class="cls-4" d="M198.52,532.53a9.06,9.06,0,0,1,1.36-6.42,5.53,5.53,0,0,0,3.34,5,9.81,9.81,0,0,1-3.73.88"/><path d="M53.39,211.91c5.08-11.57-6.13-25.55-8.63-37.22C41.52,159.58,49.13,149.54,50,145c-2,.47-9.3-3.17-11.08-1.85a7.83,7.83,0,0,1-1.71-2.51c-1,1.29-3.82,3-5.2,4.21-2.45-2.73-7-5.63-9.5-8.45-.73,1.31-1.32,2.67-2.11,3.93A126.13,126.13,0,0,1,9.5,129.71c-.26.37,0,2.95-.17,3.55C9,133,5.05,130.44,4,129.82c-.48.43-1.9,1.24-2.6,1.05C-.51,153.45,29,204.8,53.09,211.6"/><path class="cls-8" d="M236.81,272.3c12.33-13.08,28.5-14.91,46.19-14,29.4,1.47,69.15,7.64,96.46-5.65-12.31-3.35-26.09-.67-38.9-3.43-16.3-3.52-30.33-11.1-47.28-12C268,236,249.48,250.54,227.17,258.1,231.8,239.34,269,229.6,284,223.2c13-5.59,25.53-5,38-12.69-44.87-3.14-89.54,16.38-127.09,40.25,6.51-11.52,21.95-22.47,32.95-29.8,11.62-7.75,27.9-8.11,37.95-16.07-19.09-.89-46.66,6.14-61.18,18.31-11.54,9.68-28,22.78-36.36,34.78,5,.4,10.19.19,15.17.57-9.52,9.92-34,23.51-33.62,38.5,16.33-18.87,58.89-28.91,82.68-27.28a57.2,57.2,0,0,1-5,4c4.52.07,7.71-2.32,10.73-4.28"/><path class="cls-14" d="M570.66,407C606,421.17,633.05,452.25,653,484.28c11.76,18.9,14.92,40.42,21.15,58.63,2.47-35.76-10.3-67.85-33.35-94.59-21.39-24.82-46.39-32.68-72.94-45.57"/><path class="cls-14" d="M528.57,411.16c18.68,14,37.76,30.47,58.43,41.87-9.37-8.46-12-25.32-22.66-32.64-11-7.55-23.25-2.46-34.36-13.43"/><path class="cls-14" d="M574.86,467.27c18.77,4.2,45.75,19.22,61.75,30.89,7.87,5.75,16.51,14,19.37,23.63-3.1-15.19-16.35-33.81-31.6-41.58-16.67-8.5-48.22-3.18-57.93-19.95"/><path class="cls-15" d="M326.59,526.19a77.37,77.37,0,0,1-15-14.54c-2.12,18.93,38.08,13.39,44.32,22.69-2.92-4.36-5.29-9.7-5.3-15.06,7.47-.51,15,2.78,22,3.9q.18-1.23.45-2.43c25.43,11.7,50.82,13.69,77.56,12.4,10.24-.5,36.21-6.13,43,0-8.63,10.26-28.54,6.44-37.87,16.49,2.19,1.64,3.09,4.1,4.94,5.75a460.78,460.78,0,0,1-61.07,3.29c1.24,1.71,2,4.66,3.95,6.52-21.24-5-45,.14-64.21-10.75.92,2.29.31,4.39.91,6.65-7.75-3.92-16.76-7.18-25-10.52-12.64,7.14-31.51-13.19-42.05-18.79s-20.68-9.78-30.57-18.09c.34,1.42.64,3.67.93,5.32-12.06-9.8-29.06-10.85-42.39-18.56s-27.28-9.75-39.68-19.65c-1.74,1.95-6.17,4.26-7.48,5.9-.62-26.19-28.94-35.26-46.1-49.61-19.38-16.21-25.83-38.05-34.39-61.65-13.42-37-11.15-78.71,8.78-113-6.65,41.71-6,109.86,22.14,144.11-.22-4.21,1.05-9.2.83-13.37,18.2,35.8,40.23,60.67,77.44,77.79-14.47-6.65-9.16-30.61-10.24-42.87-1.49-16.9-9.86-29-12.78-45.27,7.63,10.65,17.35,22.85,23.69,33.11,3,4.84,3.32,12,7.8,18.06s12.17,9.11,16.59,15.32c-.73-1-9.36,4-10.28,4.66,6.79,12.37,19.46,21.94,31.12,29.68,2.44,1.63,3.48,3.85,6.54,3,.14-1.71.38-3.57.42-5.28,12.06,8.88,20.8,26.57,36.05,32-.78-4.92.21-9.76,3.06-12.68,8.44,5.83,14.81,14.29,23.91,19.35.24-.93,0-2.54.14-3.55,7.89,2.26,15.31,9.36,23.6,12.45"/><path class="cls-16" d="M258,494c6.23,2.57-3.56,9-6.14,9.18-4.76.28-10.73-9-13.42-12,.9,7.71,5.3,15.85,6.58,23.41-11.59-19.59-31.43-32.3-44.56-50a28.45,28.45,0,0,1,13.94,7.71c-.07-5.28-.06-10.57-.13-15.85,17,13.42,32.81,23.48,54.77,22.57,23.63-1,46.46-5.19,70.08-.46,34.06,6.82,98.35,14.47,114.92,51.51-9.13,3.27-18.28,3.06-27.78,3.25.64,1.88.24,4.51,1.15,6.59-24.58,3-46-18.17-69.57-16.72,2.09,3.7,1.91,8.26,2.17,12.51-21-.89-40.69-11.88-59.89-17.84.27,2.42-.57,5.21-.12,7.74C287,516.13,272.91,500.19,258,494Z"/><path class="cls-17" d="M473.87,522c-6.28-5.66-22.29-17.73-28.05-19.64-27.83-9.25-63.78-24.95-86.89-42.1,1.39,5.17,4.46,10.72,6.61,15.13-15.31,2.43-30.4-1.54-44.88-2.42-16.13-1-24.6-5.25-39-11.14-5.48,24.94-44.25-9-51.62-15.08.72,2.15.52,5.54,1.07,7.88-23.91-11.95-34.59-40.46-44.76-63.1-8.38-18.66-19.19-36.78-26.67-56.09,5.63-4.32,15.05,18.46,18.34,23.55,14.78,22.87,32.13,38.56,50.2,57.4a4.24,4.24,0,0,0,1.34-1.26c-.77-1.89-1.26-4.53-2.42-6.63,9.75,7.12,19.1,14.82,29.24,21.62,6.52,4.38,16.38,13.28,24.67,14.61-5.17-7.75-18.4-22.07-14.55-30.91,17.72-1.09,43.22,30.36,58.93,38.23,10.86,5.44,24.72,12.43,36.29,15.08-3.93-4.73-8-10.25-8.3-16.54,19,4.51,40,17,57.81,25.6,16.71,8.07,34.31,16.8,52.2,21.89,6.54,1.86,14.12,1.58,18.4,5.51-14.24-6-33.91-10.5-41.53-25,37.72,19.05,76.29,39.74,111.81,63.17-11.21-1.14-19.27-9.58-31.43-8.36,7.55,7,19.63,11,25.79,19.27C532,551.9,518.21,541.84,505,535.93c-14.79-6.6-32.61-7.38-45.13-18.16"/><path class="cls-18" d="M163.87,328.4c-2.26-55.16,85.6-60.81,120.68-47.28-29.4,4.61-58.65,10.18-85.11,24.91,30.84.93,73-5.13,101.55-13.88-12.83,11.31-25.28,16.41-42.33,18-15.54,1.46-40.77-1.49-52.21,11.29,19.13-1.23,41.7.4,61.17,1.26,12.55.56,55.07-6.4,62.75,5.48-32.07,1.46-63.28,5.92-95.06,8.67-13.17,1.14-57.43-12.78-63.41,1.21a25.83,25.83,0,0,1-8-11.08"/><path class="cls-19" d="M241,363.47c17.29-3,32.83-12.71,51.18-15.45,23.8-3.56,50.74-5.75,73.6,3.21-19.42,8.33-43.92,8.79-65.49,12.27,30.78-1.45,68.46,10.78,90.38,32-16.12-3.43-32.84-11.14-49.61-14.58-17.42-3.56-37.15-1.69-54.85-.32,13.68,4.84,31.28,15,38.93,27.34-18.47-7-36.7-15.77-55.1-23.44-8.51-3.55-30.38-16.74-37.46-12.63"/><path class="cls-20" d="M31.25,78.66c8-41.72,74.38-38.13,83.3-68.76,9.54,13,29.4,18.8,41.45,31.72,14.49,15.54,20.47,31.35,27,50,15.86,45,2.71,74.17-17.16,116.62-9.93,21.21-31.47,40-32.54,64.52,21.64,2,9.8,19,8.93,31.75C140.9,324.86,153,344.46,151.66,365c-8.77-15.61-23.59-29.06-31.38-44,9.71-8.73,3.77-28.82-.59-40.44-1.72.36-3,1.09-4.82,1.42-2.11-11.29,7.64-18.32,12.45-27.19-3.37.95-9.23.14-12.53,1.18,2.34-3.49,6.24-9.73,10.17-12.77-2.75.09-5.79-.34-8.41-.23,24-14.59,41.19-41,51.81-67.46-1.28.66-2.25,2.22-3.5,2.9,1.71-6.33,3.73-13.17,3-20-1.29,1.48-3.65,3.87-4.76,5.23,3.09-23.46,9.83-64.11-.52-86.21.42,5-1.17,6.22-2.13,10.2C144.93,79,139.29,49.07,126,34.79c0,2.6-.75,5.85-.69,8.51-6.87-7.24-12.15-16.23-23.33-16.24-3.48,11.46-8.87,13.15-19.33,16.21-4,1.16-8.36-2.31-14.35-.13-4.52,1.64-7.92,4.59-12,7.7C46.16,58.68,37.73,71.65,27.55,78.66"/><path class="cls-8" d="M1.8,133.3c-2.94-8,3-19,6.13-26.18,3.44-7.93,10.62-16.91,13-23.28,3.31,2.81,5.82,4.82,9.9,6.31,3.38,1.24,7.29,4.28,10.43,4.94-4,6.63-10.34,11.93-15.66,17.72-3.09,3.34-5.73,6.13-7.77,10.17-2.14,4.26-2,9-4.16,13.12-1.85-1.52-3.44-3.49-5.18-5-.18.52,0,1-.19,1.5-2.53-.34-4.61-2.28-7-3.41A7.25,7.25,0,0,0,0,131.51"/><path class="cls-12" d="M40.92,95.68c-3.49,1.78-6.54,7.93-9.12,11S25.58,112,23,115c-4.47,5.2-6,10.85-7.33,17.51-.52,2.66-1.93,5.4-1.53,8.21.55,3.85,3.28,8.51,4.88,12.08,5.13,11.43,8.81,23.08,15.28,33.82,3.28,5.45,7.5,10.12,11.58,15,2.53,3,4.69,6.3,7.48,9-5.77-7-10.54-15.35-16.09-22.65-5-6.62-8.22-14.6-11.55-22.1-3.73-8.43-8.23-16.88-9.9-26-1.37-7.57,3.24-15.14,7.3-21.25,3-4.55,5.91-8.94,9.9-12.68,3-2.78,6.36-6.09,8.47-9.5a4,4,0,0,0-1.17-.69"/><path class="cls-21" d="M31.25,78.66C37.17,47.91,73.42,42.4,96.32,29.2a50.87,50.87,0,0,0,13.83-10.9c6.13-7.21,4.17-9.69,13.87-4.73,32.32,16.54,47.25,44.65,59,78.05,7.07,20,9,40.85,4.3,61.64-4,17.6-11.38,43-23.31,56.57,2.08-2.37,1-19,1.67-23,1.5-9,3.89-17.86,5.61-26.83,2.83-14.78,3.42-30,9.52-44-6.42.36-.3-22.87-3.63-28.2-1.61,2.84-2.11,1.29-3.83,2.59-6.09-22-10.07-35.51-26-52.54C133.4,22.93,118,19.35,100.14,30.6c-4.38,2.77-7.55,6-12.61,8.23-10,4.28-22.41,5.23-31.21,12C46.16,58.68,37.73,71.65,27.55,78.66"/><path class="cls-22" d="M51.33,59.83c9.26,6.28,18.48-5.2,10.12-12.49-10.19-8.86-21.74,13.35-5.17,13.44"/><path class="cls-23" d="M60.15,48c-3.2,0-5.07,3.67-1.16,4.22,3.51.5,3.6-3.57.78-4.22"/><path class="cls-23" d="M51.71,51c-1.22,3.88,1.06,9.16,5.64,8.74a8.88,8.88,0,0,1-6-8.74"/><path class="cls-21" d="M53.38,210.16c2.53-9-3.28-16.85-6.43-24.61-4.32-10.63-7-21.22-3.54-32.61,1.49-4.84,4.28-8.63,5.37-13.72s0-8.58,3.38-12.59c1.81-2.13,3.91-4,5.19-6.52.89-1.74.9-3.94,2.16-5.64,2.15-2.87,6.43-4.24,9.56-5.81,7.8-3.9,16.14-6.64,24.13-10.07,8.43-3.62,18-5.48,25.47-11.07,4.68,3.1,11,3.69,16.4,2.28,4.34,7.81,13.57,12.68,15.5,21.81,1.3,6.1-.5,13.38-5.18,17.89,2.28-11.84-4.55-29.42-17-33-3-.87-8.63-3.07-11.72-2.06-2.09.67-4.66,3.93-6.89,5-8,3.87-18.5,5.25-27.12,7.28S64,112.61,58,119.44c-1.4,1.59-4.09,5.09-4.24,7.13-.13,1.73,1.77,4.47,1.57,6.9-.51,6-5.1,13.08-7.67,18.38-3,6.24-3.23,10.86-2.69,17.76.56,7.08,3,14.74,5.87,21.31a39.46,39.46,0,0,1,2.57,23.45"/><path class="cls-24" d="M372.53,344.24c46.09.71,96.1,14.69,109.12,62.21-19.76-13.27-36.74-35.24-62.07-37.93,22.45,30.85,58.71,40.8,73.89,79-27.67-22.2-51.61-48.73-81-69.28-12.75-8.93-39.67-35.29-57-31.95,8.14-3.45,17.49-3.29,24.81,1.85"/><path class="cls-8" d="M429.19,281.73C474.57,283,522.67,277.21,554,320c-21.92-7.49-49.25-23.16-73.44-22.6,19.75,2.86,48.5,14,63.94,26.24,12,9.48,17.13,28.24,25.09,36.94-20.84-17.06-44-23.23-65.59-36.07,36.44,21.86,69.36,28.57,85.61,71.89C572.88,387,556.41,375,539.24,365.94c15.49,16.46,39.48,45.29,19.18,66.25-5.87-35.59-47.24-78.49-81.65-88.19,14.81,8.6,22.64,29,22.49,45.19C475.14,378,469.09,346.73,446,333.56c-7.39-4.22-20.81-7.64-24.94-8.94,15.82,4.72,40.86,26.77,45,40.88-36.8-10.62-67.33-55.26-112.49-43.18,51.56,4,88.66,6,134.19,29.72-2.82-16.64-25.85-32.33-40.45-39.19,10.67.27,21.71.69,32.2-.31-18.75-9.65-38.71-18.2-56.2-30.81"/><path class="cls-23" d="M322.38,283.52c42.8-20,89.94-17.5,137-18.31-22.93,5.69-70.46,2.5-87.44,18.38,45.72-.77,96.91-3.47,138,19.67-26-.68-51.68-2.48-77.72-3,31.85,12.06,71.58,6.8,89.12,42-32.54-19.48-67.89-21.57-103.78-28.69,17.88,8.66,39.77,8.13,58.69,13.47-35-.59-57.76-4.6-89.2-19.78-19.54-9.44-43.75-18.5-64.67-22.37"/><path class="cls-4" d="M350.18,659.88A89.06,89.06,0,0,0,334,657.14c-2,14-14.78,18.56-12.14,34.43,2.93,17.66,12.63,13.8,25.47,21.7,1.67-16.69,20.6-39.36.94-53.39"/><path class="cls-13" d="M300.52,972.77c-9.66,1.54-19.59,2.79-29.41,4.21-10,1.45-19.15,5-29.43,4.81,12.47-3.51,25.91-5.11,38.09-9.17,8.41-2.81,20.43-6.75,27.68-11.79,7.5-5.22,9-14,13-22.77,3.39-7.43,3.9-17.29,7.38-23.49-5.12,9.12,6.05,32.25,3.56,43.55-3,13.64-13.91,11.76-26,13.84h0Z"/><path class="cls-13" d="M230.08,958.68c10.87,1.41,19.51,3.41,30.72,2.86,8.64-.43,25.2,4.78,31.39-1.95-10.93.31-21.84,1.73-32.32-.43-8.76-1.81-23.63-5.62-31.71-.48"/></g></g></svg>