<svg xmlns="http://www.w3.org/2000/svg" viewBox="0 0 510.03 358.45"><defs><style>.cls-1,.cls-11,.cls-3{fill:#231f20;}.cls-2{fill:#3c2415;}.cls-10,.cls-11,.cls-3,.cls-5,.cls-7,.cls-9{stroke:#231f20;stroke-miterlimit:10;}.cls-4,.cls-5{fill:#f1f2f2;}.cls-6{fill:#603913;}.cls-7{fill:#00a79d;}.cls-8{fill:#fff;}.cls-9{fill:#262262;}.cls-10{fill:#006838;}.cls-11{opacity:0.2;}</style></defs><title>Magpie_Ritterbush_2020_CC_BY_NC</title><g id="Layer_2" data-name="Layer 2"><g id="Layer_2-2" data-name="Layer 2"><path class="cls-1" d="M75.34,288.19c-2.78,4-.8,10.13-3.58,14.11-.88,1.26-1.76.52-2.28,2.6a5.27,5.27,0,0,0,.3,3.08c1,2.75,3,3.16,5.65,2.41-2.67-.57-5.12-3.27-1.83-5,2.48-1.29,4.17,1,5.51-2.48a36.16,36.16,0,0,0,1.41-10.08c-.29-4.49-2.52-6.14-6.08-4.36"/><path class="cls-2" d="M84.57,265c-2.89,8.47,4.31,19.73-.43,27.2-1.73,2.73-7.08,6.62-10.44,5.17-4.34-1.87-1.23-5.9-.82-9.05.43-3.32-.43-6.8-.12-10.21.29-3.21.86-6.77,3-9.35C76.86,267.39,84.66,264.72,84.57,265Z"/><path class="cls-1" d="M83.32,293c-3.59,5.11-3.49,9.92.38,14.86,3.29,4.22,9.32,2.11,10-3.11-1.51.58-3.78,1.65-5.35.38-2-1.64-.26-2.74.32-4.72.83-2.88-2.09-8.7-4.77-7.76"/><path class="cls-1" d="M96.25,278.37c12.25,0,5.76,19.21-.68,14.56,2.81-.33,4.47-2.36,3.74-5.36-.77-3.19-4.19-3.12-5.6-5.4.81-1.53,2.6-2.55,3.23-4"/><path class="cls-2" d="M128.84,245.29c-5.79,5-17.42,7.72-25,10.56-4.1,1.54-18.4,3.53-20.9,6.92-6.37,8.65,6.19,25.57-7,33,.8,7.12,13.77,4.3,15.13-1.93.55-2.51-3-6.31-3.61-9-.73-3.44,0-8.09.14-11.55,4.76-.74,5.45,3.26,3.59,6.83,9,7.12,13.52-5.93,2.7-9.84,1.77-5,10.06-6.63,14.92-8.13,9.09-2.81,17.87-7.23,26.87-11.46-2.85-1.22-3.88-3.5-6-5.4"/><path class="cls-3" d="M123.71,246.63c-1.72,1.46-3.5,4.86-5.35,6.25,3.31-.6,7.08-1.26,10.66-1.87a88.33,88.33,0,0,0,1,10.48c11.37-1.42,34.49,6.49,36.22-11.52.66-6.91-15.78-22.39-12.27-26.93-5.54,7.16-13.71.51-18.5-3.5a223.51,223.51,0,0,1-20.17,27C118,245.92,121.1,247,123.71,246.63Z"/><path class="cls-3" d="M31.14,18.18C45.05,3.31,71.6-5.93,92.69,5.88,104.56,12.52,108.4,21,113.14,33.7,117.07,44.24,120.86,53,128.3,62A140.84,140.84,0,0,0,159,90.27a246.05,246.05,0,0,1,40.88,35.93c9.47,10.33,22.28,18.52,33.71,27,14.53,10.72,26.68,22.3,39.41,35.14,5.26,5.32,10.41,10.78,15.88,16.16,2.87,2.82,6.38,5.26,8.91,8.25,2.39,2.82,1.47,5.41,2.6,7.33,5.51,9.36,20.95,14.12,28.79,21.81,2,2,4.18,3.59,4.26,6.52-12.25,3.92-30.34-5-42.21-8.48-20.75-6-40.87-16.27-60.26-25.67-15.89-7.7-32.36-13.72-48.79-20.51A158.32,158.32,0,0,1,163,184.1c-6-3.51-11.12-1.85-17.55-4.3-20-7.61-16.53-34.8-31.53-45,7.57-.58,24.6,3.26,29.13-3.46-5.19-5.79-19.07-7.24-26.54-11.08-11.52-5.93-19-14.33-29.76-21-6-3.73-22.95-7.5-25.82-12.93-2-3.76-.94-11.1-2.48-16-1.66-5.22-4.27-9.45-6.82-14.26C46.83,47,41.21,41.72,32,37.21c6.11-2.74,7.17-16.72.45-18.37"/><path class="cls-3" d="M60.26,81.7c.83,18.31-.58,38.21,1.32,56.58.76,7.31,4.59,16.09,8.11,22.84,4.38,8.42,7.73,17.77,13.57,25.28,6.15,7.92,13.39,15.55,20,23.16,7.34,8.49,18,13.46,26.65,20.33,7.78,6.18,16.6,9.67,20.23,19.37,1.75,4.68,1.84,9.1,2.12,14.08.37,6.78,1.8,6.49,5.29,11.58.92,1.34,2,6.22,3.11,6.83,2.43,1.32,3.64-1.65,6.15-1.55,5.77.23,9.4,5,14.06-1.27,8.08-10.87-2.8-23.58-2.71-35,7.52,2.78,15.2,1.9,23.08.41,8.17-1.54,16.29-.67,23.7-4.56,1.23-12.77,20.59-13.21,29.83-11.05,14.64,3.42,27.14,14.95,40.08,22.07,19.27,10.6,37.73,23,57.08,33.46,17.63,9.53,35.81,18.55,53.74,26.95,18.15,8.49,35.09,19.36,52.62,28.95,4,2.18,8.46,5.57,12.63,7.2,3.31,1.3,5.23.23,8.49,1.1s16.76,5.91,17.05,7.11c5.33,2.92,7.8-3.5,13-4-.38-3.16-7.71-7.58-10.49-9.8-7.53-6-15.24-10.74-23.3-15.86-18.45-11.71-36.43-23-55.95-33.11-21.3-11-40.77-24.44-59.88-38.89-16.45-12.43-35.64-21.07-51.58-33.73-16.38-13-33.13-23.28-50.8-34.05-25.46-15.51-48.86-33.47-73.17-50.74-22.57-16-46.45-35.51-72.92-44.46-12.71-4.3-25.4-5.82-38.57-7.24-3.35-.36-9,.15-9.24-2"/><path class="cls-4" d="M71.24,154.78C69.37,180.93,89.42,201,108,217.1c.18-.7.34-1.39.48-2.1,3.81,4.12,8.45,9.43,13.47,12.05,4.55,2.38,6.85.17,11.67,2.76,7.1,3.83,12.72,15.19,22.48,14.26,5.07-.48,5.63-5.47,11.35-2.64,2.59,1.27,5.65,4.34,8.25.41,2.23-3.36-2.32-8.84,2.91-11.05,3-1.29,5.3,2.21,8.32,2,3.25-.27,8.39-4.81,7.8-8.29,5.1.17,5.93-2.48,4.67-7.39-1-3.7-.44-8.43-1.8-11.89-6.11,2.06-15.46-2.17-21.42-3.63-11.22-2.75-22.84-5.26-33.84-8.69-8.88-2.77-17-7.78-25.54-11.25a218,218,0,0,1-26.43-13.12,101,101,0,0,1-10.25-7C78,159.9,76,156.91,73.71,156"/><path class="cls-5" d="M102.52,112.52c-2-1.85-14.63-14.39-13-5.13,2.75,15.19,24.38,25.25,37.91,26.68a138.94,138.94,0,0,0,20.28.68c-6.41-7.29-19-8.71-27.72-11.82A47.33,47.33,0,0,1,102.52,112.52Z"/><path class="cls-5" d="M164.05,184c7.94.66,16.25,8.45,23.43,11.64,12.34,5.49,25,10.3,37.39,15.75,27,11.84,54.11,22.08,82.66,29.91,6.47,1.78,12.82,3.58,19.25,5.07,3.38.78,7.43,1.26,3.61-3.18-2.49-2.89-7.48-4.71-10.62-6.74-5-3.21-9.67-6.87-14.63-10.12-3.51-2.31-5.81-3.63-9.46-2.92-6.29,1.22-12.2,1.81-18.7.19-8-2-15.8-5.74-23.61-8.5s-15.38-5.43-22.89-9.18C217.86,199.6,204,195,190.86,189.82c-5.51-2.17-11.05-4.34-16.56-6.46-2.28-.88-8.09-4.22-10.39-2.37-1.89,1.51-.4,2.76,1.65,2.22"/><path class="cls-2" d="M0,32.08C2,27.44,21.55,20.23,26.9,18.55c8.78-2.74,6.41,0,11.36,2.44s9.35,2.91,14.62,4.58c0,2.59-.33,3.9-2.61,5.19,2.13,5.28-6.18,6.32-9.51,6.1-4.36-.28-3.35.9-8.1,1-8.37.26-24-7.2-32-2.79A6.83,6.83,0,0,1,0,31.41"/><path class="cls-2" d="M163.49,282.86c-3,5.51-3.53,11.71-6,17.54-2.75,6.39-7.23,11.74-10,18.05-2.05,4.63-3.22,12.59-8,15.89s-9.63,1-15-.2c-9.61-2-7.31,1.86-13,7.79,10.08,4.75,18-.44,28.24,1.17,4.09.64,9,1.6,13.22,2.62s7.7,3.85,12.46,3.2c.95-2.19,1.58-6.41-.2-8.49-3.2-3.73-3.18.42-6.82-.52-3.46-.89-7.09-8.88-6.71-13.71.4-5.14,5.23-13.45,6.87-18.52,2.05-6.39,4.94-13.55,9.12-18.7,3.15-3.88,11.6-8.91,11.66-13.94-4.82.32-9.67,7.34-15.79,4.51"/><path class="cls-1" d="M115.72,337.34c-5.46-5.63-18.51,3.7-9.88,8.51,0-1.4-.14-3.63,1.08-4.64,2.06-1.72,2.42.1,4.06.81,1.37.59,2.19,1.28,3.53.47s2.43-3.69.58-4.2"/><path class="cls-1" d="M161,343.35c3.74-10.85,20.27,1.13,13.92,8.1-1.31-2.94-4-8.26-7.52-6.52-1.47.73-.26,2.68-2.92,1.82-2.05-.66-2.3-3.51-1.58-5.3"/><path class="cls-2" d="M148.88,327.23c.11,3-5.28,9-7.51,10.88-3.1,2.64-8,3.44-11.8,4.35-3.29.78-9.32,1.07-10.42,4.58a5.16,5.16,0,0,0,2.88,6.22c3.79,1.35,3.26-1.53,4.74-3.59a18.36,18.36,0,0,1,10.11-6.36c3.47-.83,7.83-.87,9.88-4.54C148.19,336.23,149,330.16,148.88,327.23Z"/><path class="cls-1" d="M118.88,346.83c-5.83,1.29-6.65,6.89-4.18,11.62,0-1.93.08-3.95,1.78-5s2.92.41,4.45.06c6-1.38-.68-5.47-1.73-7"/><path class="cls-6" d="M81.27,299.36c.59-.08,1.13-.62,1.87-.58-7.54-4-.31-22.48-.07-28.58-2.24,3.54-6.83,28-2.28,28.69"/><path class="cls-6" d="M81.27,265.85c-4.88,3.8-6.16,3.46-7.19,8.86a68.46,68.46,0,0,0-1,8.62c-.24,3.84-4.08,13.54.89,14.91-.8-5.56.55-10.5.54-16.59,0-5.15.52-10.51,4.79-13.88"/><path class="cls-6" d="M161.7,282.61c-5.83,8.78-10.43,21.15-14.13,31.12-1.95,5.24-3.17,10.63-5.86,15.81-3.4,6.54-4.83,6.47-11.13,4.78-4.35-1.17-14.25-3-15.37,3.17,9.69-5.63,23.36,5.27,29.62-7.5,2.44-5,3.66-10.43,6.33-15.5s5.35-9.82,7.17-15.15c2.4-7,4-14.66,10.38-19.15-2.59.15-5.44,2.23-7.49,1.94"/><path class="cls-6" d="M144,332.11c-1.46,5.25-10.75,7.49-15.23,9.18-3,1.13-9.74,1.62-11,5.12a4.27,4.27,0,0,0,3,.69c2.15-3.42,7.93-4.75,11.56-6.12,5-1.9,9-4.28,11.9-8.87"/><path class="cls-7" d="M73.35,21.51c-5,2.14-13.33-1.88-7.22-6.49,4-3,12.84,2.26,7.22,5.77"/><path class="cls-6" d="M51,29.8c-2.92.11-5.6-.55-8.49-.52-3.57,0-7,1.36-10.48,1.84-7.4,1-15.23-1.51-22.37-.41a21.12,21.12,0,0,0-8.78,4c5.05-2.3,9.3-3.95,15.08-3.36a92.56,92.56,0,0,0,22.5-.21c2.58-.35,10-2.48,11.76-.58"/><path class="cls-1" d="M68.23,14.63c-4.21,1.82-1.75,7,2.34,6.54,4.62-.57,1-7.71-2.34-6.28"/><path class="cls-8" d="M72.94,16.72c-.57.58-3.08,1.71-2.6-.1.41-1.56,2.73-1.1,2.07.62"/><path class="cls-8" d="M66.35,17.72a3.94,3.94,0,0,0,3.11,2.83c-1-1.37-2.84-1.82-3.89-3.35"/><path class="cls-9" d="M130.19,150.16c13.22,7.44,24,19.5,36.7,26.87,8.87,5.15,22.92,9.11,30.51,11.27-22.08-.22-42.54-27.52-57.5-41.73,9.07,3.7,23.06,15.86,31.79,16.13-4.92-11.11-25.35-20.1-36.58-22.78-7.15,6.72-16.72-2.94-23-7.24,6.8,8.52,16.18,15.21,23.87,22.1"/><path class="cls-10" d="M133.66,124.73c21,13.21,39.1,29.49,58.94,43.4,15.7,11,33.26,19.26,49.32,30.12-20.94-15-41.55-30.64-62.11-45.9-10.72-8-28.11-18.19-40.37-21.84"/><path class="cls-10" d="M146.37,105.07c27.78,10.15,54.08,17.76,76.21,36.35,12.36,10.39,24.18,23,35.49,33.74-27.85-18.08-56.1-54.79-88.58-62"/><path class="cls-11" d="M233.07,192.93c29.16,12.66,54.18,43.63,85.37,50.69-13-11.36-30.05-16.52-44.3-25.87-7.49-4.91-15.5-8.89-23.75-13-7.46-3.72-13.49-9.44-20.78-13"/><path class="cls-11" d="M60.83,116.63c3.45,11.05,1.67,24.21,4.72,35.26s8.9,19.35,14.07,29.19c9.34,17.8,23.7,36.19,41.61,47.43,10.13,6.35,23.55,8.23,33.15,14.76a20.49,20.49,0,0,0-4.37-.8c-.25-1.33,0-2.37-.89-3.38,7.57,1.75,17.84,3.12,25.81,2.39-19.69-1.09-46.09-15-62.08-26.33-16.46-11.66-28.63-34.28-37.6-52.28C70.83,154,64,141.34,64.3,131.66"/><path class="cls-11" d="M78.17,157.09c11.61,4.47,21.37,15.74,31,23.44s18,8.89,29.21,12.4c9.5,3,18,5.84,27.69,8.35,5.38,1.39,10.56,4.67,16.18,5.29s11.16-1.4,17,.29c-10.93-5.51-25.56-5.67-37.42-10-10.89-3.93-21.55-8.78-32.52-13-19.28-7.37-31.88-21.25-49.93-30.32"/><path class="cls-11" d="M183.37,180.21c16.93,10.65,31.39,28.81,49.36,36.88C213.82,198.3,196.78,183.4,173,169.81"/><path class="cls-10" d="M338.27,256.51c33.08,27.85,79.22,47.61,116.75,69.38,14.12,8.19,31.22,20,45.84,25.21-14.92-14.65-42.73-25.05-62.06-33-22.27-9.17-45.19-22.19-64.72-35.86-9.45-6.61-22.38-23.16-33.5-24.57"/></g></g></svg>