<svg xmlns="http://www.w3.org/2000/svg" viewBox="0 0 1538.4 838.4"><defs><style>.cls-1{fill:#fff;stroke:#231f20;stroke-miterlimit:10;stroke-width:0.28px;}</style></defs><title>Northronychus_Ritterbush2020_bw</title><g id="Layer_2" data-name="Layer 2"><g id="Layer_8" data-name="Layer 8"><path class="cls-1" d="M527,721.93c-19.51-8.77-49.13,15-70.24,15-12.48,0-32.59-9.26-37.51,10,6.76-7.91,10.72-4.6,17.52-2.28,12.19,4.16,24,.91,35.31,1.69s40,1.08,49.39-6.77c6.12-5.09,11-17.63.85-18.54"/><path class="cls-1" d="M503,724.45c-12.5,0-17,9.84-25.84,15.81-7.37,5-20.48,8-29.16,9.76-16,3.26-33.09,2.29-48.8,2.69-2.73,5.26-5,11.13-4.89,17.3,16.73-19.72,40.12,1.39,61-3.65,12.33-3,21-10.88,34-12.9,8.86-1.39,24.53,3.29,31.6-3,4.22-3.74,4.44-10.54,6.33-15.54-7.84-3.92-15.7-3.41-24.22-4.12,1.85-1.34,2.55-4,3.62-5.27a26.23,26.23,0,0,0-9.25.77"/><path class="cls-1" d="M527.34,734.75c-17.15-.87-31.26,5.22-45.46,13.42-5.69,3.29-11.93,3.9-17.34,6.25-5.63,2.45-8.28,7.5-14.77,10.32-3.29,1.43-7.06,1.07-10.08,2.71-3.36,1.81-3.5,4.14-6.71,6.87-5.88,5-14.31,11.4-5.78,20.09.64-12.28,9.11-14.58,18.84-14.91,12.25-.42,14.87-6.49,24.85-10.34,6.55-2.53,18.12,1.4,26.12-.62s14.06-8.44,19.94-11.1c13-5.85,24.95,1.76,34.88-10.44-8.75-12.69-10.31-7-24.36-8.67-.31-2.45-2.33-4.1-3.12-6.24a11,11,0,0,0-3.57,1.73"/><path class="cls-1" d="M540.82,439.82c-7.7,7.41-8.94,20-10.24,30.26-2.15,16.84-7.09,33.06-10.93,49.72-8.9,38.66-16.58,77.75-12.62,117.44,1.81,18.14,29,89.72-8.48,87.6,1.67-2,3.18-2.16,5.58-2.55,2.8,6.14-.13,11.48-2.84,17,1.39-1.81,4.15-3,5.67-4.34.39,1.85,2.16,4.7,2.25,6.74,0,.61-.06.7-.1.28-.84-7.76,10.59-.8,12-.77,6,.16,12.31-3.33,18.52-2.71,10.71,1.09,12.74,5.77,17.78-3.58,6.49-12.05,3.37-28.07,7.27-41,4.25-14.08,7.88-28.22,11.79-42.41,2.64-9.59,3.48-19.56,4-29.34,1.63-28.75,2-58.52,12.91-83.82,7.11-16.49,4.7-35.8,12.31-52.38,3.74-8.16,10.34-15.53,15.39-22.8-23.1-15.46-55.6-21.05-82.53-25.05-.82,2.09-.67,4.28-.85,3.26"/><path class="cls-1" d="M440.54,767.11c-12.42,3.76-26.51,16.52-16.18,29.76,4.46-7.47,10.75-13.92,19.17-15.4,8.8-1.56,4.67-2,1.17-7.6-1.5-2.4-2.59-11.5-6.56-6.16"/><path class="cls-1" d="M420.76,751.53c-7.22,3.23-15.63-5.36-23.39-1.66s-7.68,15.59-7.81,23a28,28,0,0,1,19.51-8.79c5.37-.25,6.16.66,9-3.31,2.27-3.2,1.39-6.35,2.71-9.27"/><path class="cls-1" d="M447.13,734.75c-3.5-.13-5.86-3.07-9.28-3.61-3.86-.6-8.27,1.19-11.73,2.86-6,2.91-12.07,8.85-12.49,15.62,8.57-2.4,18.19-1.49,26.8-3.58,1.63-4.2,4.92-8.27,6.1-10.69"/><path class="cls-1" d="M540.82,439.82c-7.7,7.41-8.94,20-10.24,30.26-2.15,16.84-7.09,33.06-10.93,49.72-8.9,38.66-16.58,77.75-12.62,117.44,2,20.29,9.77,39.71,10.68,60.15,1,22.44-17.85,25.29-35.38,31.56a13.58,13.58,0,0,1,2.66,1.91c-1.68,1.24-2.57,3.6-3.85,4.76,2.06-1,3.26-.39,5.53-.73a24.07,24.07,0,0,1-1.59,9.48c11.37-5.94,10.69,8.22,7.47,14.27,5.92-7.51,21.54-9.57,29.23-3.41,7.56-6.48,17.33,0,25.48-3.73,18.1-8.31,12.7-42.14,17.38-57.59,4.25-14.08,7.88-28.22,11.79-42.41,2.64-9.59,3.48-19.56,4-29.34,1.63-28.75,2-58.52,12.91-83.82,7.11-16.49,4.7-35.8,12.31-52.38,3.74-8.16,10.34-15.53,15.39-22.8-23.1-15.46-55.6-21.05-82.53-25.05-.82,2.09-.67,4.28-.85,3.26"/><path class="cls-1" d="M534.27,734.81c-7,.16-18.16.69-23.22,6.48-6.17,7.07.23,11.24-8.62,15.11-7.77,3.39-12.11-1.1-12.18,11.32-.06,9.62,5.38,14.43,9.89,21.55-7-20.94,25.4-8.79,27.58-24.49.55-4-4.33-5.12-1.44-9.4,2.66-3.94,9.85-2.59,13.71-2.57,8.59.06,16.52.61,18.64-10.08,1-4.82-.16-9.89-4.92-12.63-7.32-4.21-10.6,2.31-18.93,3.79-4.26.75-8.33-1.72-10.81,1.85"/><path class="cls-1" d="M496.56,760c-10.2.07-14.42,3.14-12.72,13.18.94,5.56,4.09,17.29,9.76,20.17-.33-3.61.6-8.57,3.26-11.18,3-2.92,7.45-1.2,9.94-4.19-7.13-4.59,0-19.91-14.44-18"/><path class="cls-1" d="M536.88,439.62a13.45,13.45,0,0,0-.72,3.19l3-1.48c-7.71,7.41-8.94,20-10.24,30.26-2.15,16.84-7.09,33.05-10.93,49.72-8.9,38.66-16.58,77.75-12.62,117.44,0,.17,0,.35.06.52,2.09,20.1,9.72,39.36,10.62,59.63,1,22.43-17.86,25.29-35.38,31.56a6.84,6.84,0,0,1,1.22.73c-9.48,3.79-18.74,7.23-26.78,7.24a75.11,75.11,0,0,1-10.47-1.14l.23-.44.6-.6c-3.5-.12-5.86-3.06-9.29-3.6-3.85-.6-8.26,1.19-11.72,2.86-6,2.91-12.07,8.85-12.5,15.62,8.58-2.41,18.19-1.49,26.81-3.58.05-.12.09-.24.15-.36,7.7,1.74,15.25,1,22.61.62-5.32,1.62-10.82,2.82-15.2,3.71-9,1.84-18.35,2.34-27.58,2.49a7,7,0,0,1,.35-1c-7.23,3.23-15.63-5.36-23.39-1.67s-7.68,15.6-7.81,23a26.28,26.28,0,0,1,4.76-4,23.11,23.11,0,0,1,2.57-1.52,29.25,29.25,0,0,1,12.18-3.21c4.91-.23,6,.51,8.3-2.41,7.16.82,14.68,3.3,22.17,4.62a1.44,1.44,0,0,1,2,.32H440l-.08,0,0,0-2-.32a5.16,5.16,0,0,0-1.4,1.39l2-.51-.15.07c-12.29,4-25.86,16.54-15.67,29.6.66-1.1,1.36-2.18,2.11-3.23.29-.42.59-.84.91-1.25,4.14-5.45,9.48-9.75,16.15-10.93,4.21-.74,5.46-1.24,5.24-2.16,10-1.17,12.93-6.59,22.12-10.15,3.29-1.27,7.85-.91,12.59-.49a22.34,22.34,0,0,0,.36,4.54c.93,5.56,4.09,17.29,9.76,20.17-.29-3.17.39-7.38,2.37-10.13,1.35,1.93,2.8,3.87,4.17,6-1.31-3.94-1.23-6.71-.21-8.72,2.47-.66,5.15-.47,6.87-2.55a6.21,6.21,0,0,1-1.63-1.51c8-3,21.17-1.86,22.54-11.7.56-4-4.32-5.12-1.43-9.4a2.43,2.43,0,0,1,.24-.32c6.31-.61,12.29.1,17.81-2.24,6.8-.1,12.55-1.24,14.3-10.09a14.39,14.39,0,0,0,0-6,10.46,10.46,0,0,0-.93-2.54c5.93-11.74,3.22-27,6.73-39.55l.21-.74c4.25-14.08,7.88-28.22,11.79-42.41,2.64-9.59,3.48-19.56,4-29.34,1.63-28.75,2-58.53,12.91-83.82,7.11-16.49,4.7-35.8,12.31-52.39,3.74-8.15,10.34-15.52,15.39-22.79C596.31,449.21,563.81,443.62,536.88,439.62ZM501.05,724l-2.28.72A7.17,7.17,0,0,1,501.05,724Z"/><path class="cls-1" d="M450.8,483.21c5.95-3.75,7-10.11,9.92-16.45,7.91-17.21,18-31.5,28.62-47.08,21.89-32,46.31-65.27,62.6-100.6C519,368.92,492,436.91,456.56,485.56c11.92-6.16,35-41.35,52.38-56.57,28.3-24.83,49.62-50.44,67.92-82.69-3.2,9.1-12.23,17.67-18.47,25.18-17,20.52-33.11,40.4-48.34,62.26C487.57,466,460.34,490,433.22,517.52c14.66-23,14.87-7.82,35.26-25.65,32.62-28.52,95.3-91,123.48-124.18-32.71,32.48-62.8,65.33-91.17,101.71-19.22,24.64-49.13,40.78-66.74,66.13,5.7-23.54,23.16-46.43,23.68-71.74"/><path class="cls-1" d="M419.63,550.16c-.28,5.42,4.05,9.64,4.46,14.82.34,4.3-3.64,5.07-3.84,9.43-.15,3.21-1.7,3.82-2.84,6.62-1.24,3-.09,7.1-2.37,9.69,5.31,5.93,12.63-1.5,16.08-5.75,5.74-7.05,5.32-15.43,3.75-24.16-1.46-8.07.75-16.84-3-24.45.76,1.55-5.54,7-6.89,7.69a11.85,11.85,0,0,1-7.26,1c-6.54-.76-14.27-1.72-20.07-4.77-3.7-1.94-3.4-.43-4.53,3.2-1.93,6.27-2.19,13-5.54,18.8-4.66,8.08-15.07,14.25-13.52,25,.54,3.7,5,7.59,8.68,4.08-1.22,1.16-2.77-6.37-1.15-8.1,1.42-1.52,8.09-3.77,9.75-2,3.86,4-8.72,13.4-9.94,16.7a7.65,7.65,0,0,0,.65,6.3,24.4,24.4,0,0,0,2.12,3.33c4.29,5.91,14,7,17.64-.48-3.91-2.7,1.74-5.59,3.17-7.4,2.44-3.1,1.48-7.38,3.53-10.76,1.92-3.15,5.73-3.63,7.62-6.48,1.53-2.31.8-5.53,1.74-8,1.4-3.66,4.27-7,4.13-11.12-.15-4.39-5.07-6.8-2.25-13C419.71,549.44,419.67,549.43,419.63,550.16Z"/><path class="cls-1" d="M373,406.2c-1.23,21.07,6.76,41.12,17.3,58.67,4.83,8,12.3,15.2,15.67,23.53,8,19.75-15.67,42.62-12.52,64.77,7.56,1.13,14.74-2.14,22.21.13,6.77,2.05,9.07,7,16.57,2.94,6.47-3.52,6.37-11.6,9.18-19,4.34-11.51,12.65-21.4,17.83-32.83,3.43-7.56,11.9-18.84,12.2-27.14.21-5.74-2.7-11-2.14-17.68,1.27-15.28,0-29.57,3.14-44.48,3.92-18.49-14.06-19.27-30.65-23.17-15.94-3.75-9.74,8.51-23,12.6-9.28,2.88-13.66-11.83-23.27-11.3-4.55,15.87-11.42,11.49-23.41,8,0,2.69-1.17,4.73-1.17,7"/><path class="cls-1" d="M469.3,459.56c-.55,6.67,2.36,11.93,2.15,17.67-.3,8.31-8.77,19.58-12.2,27.14-5.18,11.43-13.49,21.32-17.84,32.83-2.47,6.55-2.69,13.57-7.1,17.57a41.72,41.72,0,0,0,.55,6c1.58,8.73,2,17.11-3.74,24.16-3.45,4.25-10.77,11.69-16.08,5.76,2.28-2.59,1.13-6.67,2.36-9.69,1.15-2.8,2.7-3.41,2.85-6.62.2-4.37,4.18-5.14,3.84-9.43-.27-3.36-2.18-6.31-3.41-9.45a12.62,12.62,0,0,1-1.06-5.09l.12-.27c0-.74-.07-.75-.11,0a2.62,2.62,0,0,0,0,.28,7.89,7.89,0,0,0-.7,4.16c.37,3.28,3,5.42,3.06,8.59.14,4.11-2.73,7.45-4.12,11.11-.94,2.49-.21,5.71-1.74,8-1.89,2.85-5.7,3.33-7.62,6.48-2.05,3.38-1.1,7.66-3.54,10.77-1.42,1.81-7.07,4.7-3.17,7.4-3.65,7.47-13.34,6.38-17.64.47a24.7,24.7,0,0,1-2.11-3.33,7.65,7.65,0,0,1-.65-6.3c1.22-3.29,13.79-12.68,9.93-16.7-1.65-1.72-8.33.53-9.75,2-1.62,1.74-.07,9.27,1.16,8.1-3.69,3.51-8.14-.37-8.68-4.08-1.55-10.7,8.86-16.87,13.51-25,3.36-5.81,3.61-12.52,5.55-18.8a17.08,17.08,0,0,1,1.18-3.53c4.16-17.85,18.08-35.68,11.68-51.51-3.36-8.32-10.83-15.48-15.66-23.53-10.54-17.54-18.53-37.6-17.3-58.67l-2,2c0-2.29,1.19-4.33,1.17-7,12,3.48,18.87,7.86,23.42-8,9.61-.53,14,14.18,23.27,11.31,13.22-4.09,7-16.35,23-12.61,16.6,3.9,34.58,4.68,30.66,23.18C469.29,430,470.58,444.27,469.3,459.56Z"/><path class="cls-1" d="M420.68,555.54c-.56-.31-1.14-.62-1.76-.93a7.89,7.89,0,0,1,.7-4.16A12.62,12.62,0,0,0,420.68,555.54Z"/><path class="cls-1" d="M419.74,550.18l-.12.27a2.62,2.62,0,0,1,0-.28C419.67,549.43,419.7,549.44,419.74,550.18Z"/><path class="cls-1" d="M419.74,550.18l-.12.27a2.62,2.62,0,0,1,0-.28C419.67,549.43,419.7,549.44,419.74,550.18Z"/><path class="cls-1" d="M67.25,60.41A137.25,137.25,0,0,1,49.76,71.85C42.9,75.59,36.19,75,28.86,77c-7,1.94,2.13,8.69,5.68,9,5,.48,6.22-2.07,10.43-2.9,8.68-1.72,18-.51,26.74-.91,8.28-.38,22.5-10.44,16.8-21.88-4-8-19.52-7.51-23.9-.83"/><path class="cls-1" d="M5.32,65.17c1.15,2.54,2,5.62,5.19,5.47,1.08-2.91-1.23-6.42-2.67-9.08a7.12,7.12,0,0,1,6.18-2c-1.76,2.67-.71,8.24,2,9.65.9-3.52,2.68-5.51,1.21-9.14,1.46-.16,3.28-.3,4.6-.4-.27,3.52-.93,6.52,2.42,8.5,1.11-2.75,2.68-5.72.17-8.07,1.89-.67,3.74-.94,5.53,0-1.37,2.5-1.6,5.65,1.11,7.39a7.34,7.34,0,0,0,1.25-7,7.05,7.05,0,0,1,3.3-1,17.64,17.64,0,0,1-.87,5.51,17.54,17.54,0,0,0,3,1.69c1.53-2.23,2.4-4.77,1.08-7.18a48.93,48.93,0,0,1,5.55,0A5.14,5.14,0,0,0,46,65.73c3.11-1.1,2.12-4.43,1.09-6.66a53.44,53.44,0,0,1,6.07,0c-.67,2.08-.8,4.34.42,6,2.42-2.14,4.27-4.3,2.8-7.59a8.08,8.08,0,0,0,4.88,1c-2.35,6.37,3.46,6.17,4.25-.36C62,57.32,58.14,55,53.78,54c-10.09-2.15-19.72-1.73-29.92-1.21-9.14.48-20.82,0-20.53,11.24a9,9,0,0,0,2.5.59"/><path class="cls-1" d="M22.83,104.31a32.23,32.23,0,0,1-3.76-7c.34-.43.4-.13.77-1.07,1.87,2.18,4.61,3.2,4.61,6.46a3,3,0,0,0,2.42-.57,5.59,5.59,0,0,1-1.33-7,4.71,4.71,0,0,1,3.05,5c1.63.78,1.33.24,1.45.09.86-1.06.31-2.26.06-3.24a4.72,4.72,0,0,1,.39-3.41c.42.85,1.34,1,1.92,1.71a5.68,5.68,0,0,1,.85,2.27c.48,1.9,1,1,2.61.4.23-.92-.94-1.91-1.32-2.71-.45-1-.95-1.91-.19-2.9a4.92,4.92,0,0,1,1.85,1.35c.64.85.49,1.78.89,2.65.89,1.91,1.37-.71,2.6-1-1-1-2.73-2.94-1.43-4.38.61,1.46,2.93,1.86,2.81,3.79.9.19,2-1.26,2.74-1.7-.92-1-3.59-2.59-2.4-4.17,1.31.65,4.31,1.38,4.08,3.44a16.33,16.33,0,0,0,2.77-2.35c-1.47-.49-4.58-1.75-2.76-3.73,1.5.61,3.56,1.25,4.11,3,1,.25,1.37-.85,2.22-1-.24-1-1-1.43-1.28-2.33a2.7,2.7,0,0,1,.61-2.59c.29.87,1.72,1.12,2.4,1.7a3.47,3.47,0,0,1,1.3,1.95,3.11,3.11,0,0,1-.45.25c1-.12,1.8-1.13,2.49-1.81-.6-1.26-2.77-3.48-2.27-4.86.76.76,1.85.87,2.51,1.76a11.15,11.15,0,0,1,1.35,2.29c0,1.14-2.64,3.26-3.5,4-3.36,2.77-6.84,5.26-10.46,7.71a108.68,108.68,0,0,1-9.44,5.67c-2.6,1.41-4.91,3.38-8,3.58-2,.14-4.43.14-4.58-2.41"/><path class="cls-1" d="M741.17,707c-5.38,7.72,0,10.7,1,18.41.66,5.17-.31,5.36-4.52,10.51-6.15,7.51-24.71,21-12.14,30.78-5-9.41,9.52-11.81,15.16-15.06,6.39-3.69,15.67-11,19.18-17.83,2-4,.77-7,2-10,1.25-3.26,6.41-6.63,6.16-10.32-.8-12.12-21.92-8.84-29.13-7.41"/><path class="cls-1" d="M752,735.66c-10.07,7-14.72,15.88-26.76,20.36-9.06,3.37-18.49,10.14-28.38,9.71-4.5,8.88-15.15,5.34-22.37,8.9-13.45,6.62-4.33,16.89-4.08,26.93-1.28-11.45,7.11-15.27,16.3-15.84,8.47-.53,16.39-1.39,25.37-2.2,15.63-1.4,36.57-8.31,46.5-21.51,2.53-3.36,7.07-15.33,6.94-19-.23-6.61-2.89-5.62-7.18-8.23"/><path class="cls-1" d="M176.77,90.45c-1.92,5.28-3.68,13-8.85,16.07a36.78,36.78,0,0,0-4.29-10.3c-3-4.74-6.57-8.43-10.51-12.36-3.35-3.34-6.31-6.93-10.18-9.71-3.63-2.62-7.56-4.67-11.13-7.45-4.24-3.31-7.94-7.24-13.18-8.69.12,1.05.24,2,.3,2.92.23,3.2,1.13,6.56-.78,9.38s-5.49,5.57-8.05,8.15a91.26,91.26,0,0,1-12.33,11A49,49,0,0,1,78,98.08c-5.6,1-11.33.51-16.9,1.67a24.29,24.29,0,0,0-10.84,4.86A27.65,27.65,0,0,1,36,110.14c-3.78.19-7.57.5-11-1.08-1.73-.78-6.15-2.88-6.39-4.78-.32-2.44,3.64-2.23,5.44-3a115,115,0,0,1,11.23-4c8.05-2.49,11.88-8.89,17.68-14.52,4.25-4.12,9.18-6.19,14.3-9,2.89-1.57,7.57-3.5,9.58-6.23,1.76-2.38-.29-4.57-2.29-6.56a101.44,101.44,0,0,0-19.79-.06c-6.21.61-12.14-1.34-18.17-.53-4,.54-8.23,0-12.09.89-5.4,1.26-12.06.2-17,2.78-1.4.74-2.34,2.15-3.95,1.31-5.19-2.7-3.16-14.75-2-19A61.12,61.12,0,0,0,3.79,35.93c.34-3.77,1.56-3.38,4.56-4.55,3.42-1.34,4-6.13,7.13-7.15,2.63-.85,3.33.08,5.55-1.93,5.53-5,15.65-7.13,23-7.92C59.38,12.74,73.38,4.48,88.5,1.14a42.7,42.7,0,0,1,17-.26c4.23.84,6.08,3.27,9.36,5.65,9,6.51,20.72,6.5,30.37,11.69,9.24,5,15.48,13,21.16,21.57,5.57,8.43,11.78,16.55,13,26.89A51.39,51.39,0,0,1,176.77,90.45Z"/><path class="cls-1" d="M109.9,137.62c-5.33,17.18-10.9,35.5-10.55,53.63.25,13.47,2.41,28.26,8.83,40.14,2.42,4.48,6.67,13.51,9.63,17.66,2.59-8.16-4.4-24.6-3.21-33.11,4-28.44,5.82-58.09,10.54-86.92,2.27-13.92,4.7-28.54,3.12-42.64-.87-7.75.47-18.78-3.62-25.7-.59-1-1.12-2.77-2.58-2.8-3.5-.07-.43,2.84,0,4,3.14,8.5,2.23,18.07,1,27C120.68,105.6,114.89,121.57,109.9,137.62Z"/><path class="cls-1" d="M1065.93,337c6.1-4.1,14.27-5.11,20.79-8.63,5-2.69,12.94-10.72,19.27-9.54-98.48-18.37-191.43-57.45-289.3-78.86-109.83-24-218.39-82.14-332.59-81.08-29.11.28-51.73,7.2-78.75,17.1-26.38,9.67-52.19,20-78.12,29.37,3.75,13.32,10.94,24.55,15.87,37.47,4.63,12.11,8.66,19.64,3.83,31.67-2.4,6-5.33,13.23-8.35,18.47-5.73,9.92-5.85,9.88-6.54,21.66-.92,15.75-21.84,12.91-21.69,29.23.12,14,18.58,28.67,27.57,37.9A383.85,383.85,0,0,0,375.39,416c19.34,15.13,46.12,26.59,69.39,34.41,26.64,9,53,16.24,79.08,27.47,26.57,11.43,50.33,29.12,76.69,41.21,27.59,12.65,52.7,27.48,83.18,33.66,10.67,2.16,20.8,1.92,31.19,4.84C745,566,777.1,541.4,796.13,518.52c12.24-14.73,28.46-25.23,44.45-35.41,15.17-9.67,30.82-12.85,47.95-18.67,13.56-4.62,27.12-7.34,40.72-11.17,12.5-3.52,23.08-11.69,35.32-15.88,11.39-3.89,23.64-5.68,35.35-8.84,21.29-5.75,42-14.35,62.17-22.79-6.29-7.34-21.47-8.84-25.2-18.31,7.95-3.47,14.62-2.48,15.55-12.41.89-9.48-10.43-14.07-10-22.89C1052.34,349,1057.89,342.4,1065.93,337Z"/><path class="cls-1" d="M1260.66,354a87.37,87.37,0,0,1,10.54-3.5c25.19-6.49,51.44-7.28,76.69-13.45,24.46-6,49.83-8,75-7.14,33.13,1.19,62.93,1.16,94.76,11.24,1.38,7.27,16.6-6.31,20.7-3.53-10.89-7.39-24.23-9.68-36-14.73-14.28-6.11-28.57-12.07-43.26-17.5-37.37-13.8-78.06-15.45-117.4-12.1-19.53,1.66-38.57,5.69-58,8.17-20,2.55-40.31,2-60.43,5.42-12,2-24.34,3.9-36.44,5.13-27.77,2.81-59.36,7.61-87.11,5.76-23.88-1.59-60.61,6.11-82.47,15.85-22.94,10.23-26.12,38.9-11.3,58.07,15.82,20.46,40.37,22.18,62.61,16.31,17-4.5,33.54-6.51,51.2-9.41,27.66-4.54,53.46-14.17,79.51-23.46,12.16-4.34,25.6-5.63,37.47-10.44C1245,361.27,1252.54,357.2,1260.66,354Z"/><path class="cls-1" d="M279.36,465.69c-10.54-1.87-18.57-7.72-27.75-13.4a79.83,79.83,0,0,1-11.2-8.87c-3.81-3.44-8.73-5.42-12.38-8.6-2.63-2.29-3.25-7.5-7.74-6.23-2.71.76-5.63,6.88-7.8,8.84-6.5,5.88-14.39,7.94-4.05,14.6,3.91,2.51,4.68,4.79,7.63,8.16,2.67,3,6.74,3.85,10.25,5.37-5.28.38-10.44.68-15.75.66-6.07,0-12.11,2-18.32,2.29-5.59.28-11-1.41-16.91-1.13-10.47.48-25.28-3.06-35.14.67-3.27,1.24-11.09,6.18-13.12,8.91,2.09,3.88,6,5,8.4,8.58,2.71,4.16,1.25,6.92,7.44,7.77,4.23.59,9-1.26,13.25-1.68,5.44-.54,11.33-1.13,16.94-2,5.2-.79,10.51-2.23,15.87-.87-6.23,2.1-16.44,1.22-21.11,5.66-1.32,1.25-4.5,6.77-5.44,8.47-1.65,3-1.57,5.34-1.39,8.92,5.24,2.32,11.49-2.47,17.4-2.16s11.49,0,17.48,0c10.29-.09,27.15-1,35-7.89,3.59-3.17,4.43-7,9.5-9.71,6.64-3.48,20.39-.71,23.79-7.94,3.2-6.81-.32-7.49,8.29-10.68,3.88-1.44,7.26-2.68,9.19-6.62a13,13,0,0,0-4-2.26"/><path class="cls-1" d="M234.73,465.43c-.86-2.71-5.88-5.25-7.73-6.69-1.28-1-7.28-3.56-7.31-5.08s4.23-2.5,4.91-4.38c-1.8-.79-3.45-2.9-5.24-3.49-2.14-.7-2,.15-4.18.36-3.53.34-7.84-3-5.35-6.69-7.48,3.09-8,8.29-1.38,12.57,3.9,2.51,4.67,4.79,7.62,8.16,2.67,3,6.74,3.85,10.25,5.37-5.28.38-10.44.68-15.75.66-6.07,0-12.11,2-18.32,2.29-5.57.28-11-1.39-16.86-1.14-8.68.39-17.38-1.64-26.11-1.3-4.58.17-9.46.61-13.53,2.91-2.28,1.29-10.42,6.22-8.66,9.49,1,1.87,4.54-1.44,6.41-1.55,3.62-.21,5.82,2.65,7.21,5.6,1.3,2.77.26,4.69,3.85,4.55s7.31-3.82,3.52-6.58c5.67-1.74,11.41-.48,17.23-.77,8-.4,16.12-2.54,24.15-3.5,8.2-1,15.37-.7,23.88-.7,4.16,0,7.44-.21,11.27-1.83,2.11-.89,9.47-4.51,10.15-6.84A2.37,2.37,0,0,0,234.73,465.43Z"/><path class="cls-1" d="M217.34,431.29c-7.38-22.24-65-49.91-67.69-11.81-.61,8.53,4.73,18,9.39,24.73-5.68-11.14-7.26-25.9,7.32-27.58,11.28-1.29,16.6.52,24.48,7.38,6.25,5.44,11.86,10.69,16.78,17.43,2.31,3.18,2.23,6.34,6.9,4.4,2.78-1.16,6.71-7.11,8.53-9.47-2.12-3.51-7.12-3.05-6.53-8.31a6.62,6.62,0,0,0-3.13-.15"/><path class="cls-1" d="M136.15,478.09c-7,2.92-17.83,3.91-25.8,5.52-8.72,1.78-24,3.52-32.07-1.58-9.74-6.17,2.49-15.09,9.23-16.94-10,0-26.1,6.76-23.43,19.75,1.42,6.9,13.66,11.46,19.86,12.49,8.74,1.45,18.35-1.31,27.07-2.61,8.47-1.26,23.93-1.28,30.31-7.06-2.6-2.51-3.66-7.22-5.73-10.13"/><path class="cls-1" d="M167.72,506.84c-11.8,9.84-38.61,6.95-48.82-4,5.61,4,18.33,3.24,25,1.64s15.07-7.23,22.14-5c5.49,1.77,1.86,7.38-2.82,8.46"/><path class="cls-1" d="M1438.71,301c-37.43,2.76-74,11.69-110.65,19.37-12.16,2.55-28.08,9.6-40.36,9.6-1.72,0-37-7.69-35.35-3.68,2.73,6.66,9.77,11.95,16.76,17C1233,346,1157.8,319,1127.67,340.9c11.85,7.39,23.28,15.33,34.91,23-27.57-.53-54.82-2.07-82.29-4.5-22.59-2-67.11-21.1-88.61-11.67-26.36,11.56,2.48,31.47,19.75,43.13-27.9-15.81-64.21-20.15-94.18-31.58C887.68,348,857.82,337.7,829.59,323.5c-22.87-11.5-48.84-30.05-75.53-26,13,33.69,43.9,53.25,74.82,68.59-44.82-5.31-96.26-30.51-135.59-52.24-27.09-15-69.65-46.55-101.48-49.72-28.6-2.85-10.14,16.94,5.2,28.46,22.19,16.67,47.8,29.77,69.44,46.43-28.25-11.19-56.29-21.94-84-35.31-29-14-54.18-34.27-83.33-47.75-24.6-11.38-53.88-18.05-78.59-5.06-.52.27,40.75,23.89,43.93,26.18,17.71,12.73,31.49,30.5,49,43.66-28.7-20.85-64-30.37-98.4-36.38-8.74-1.52-77-11.81-79.13-18,8.54,24.37,22.9,57.25,52.31,64.2-16.54-10.42-37.07-18.65-52.56-30.36-27.29-20.64-28-54.22-69.82-46.68,12.6,22.33,33.05,41.23,49.48,61-35.95-11.91-54-46.32-84.69-64.64-9.2,17,19.56,53.28,33.2,64.29-20.09-16.22-32-39.25-47.18-59.48-8.65-11.52-14.94-27.48-26.54-35,2,15.23-8,70.76-1.34,80-22.2-31.12-16.56-74.94-28.94-110.22-22.81,5.36-15.5,44.47-8.65,60.22-12.35-28.4-28.43-54.13-17.27-85.27-5.41,1.33-12.53,4.94-15.76,10l0,.05c4.38-7,4.13-18.28,8.89-25.85,5-7.93,13.38-16.1,20.27-22.45,3.65-3.37,8.49-6.16,11.21-10.2-10.1,2.27-21,6-29.51,11.76,7.26-8.1,14.71-15.55,21.12-24.22,5.53-7.47,14.63-13.64,18.07-22.6-6.84-.24-13.65,1.7-20.72,1.21,5.55-5.43,19-5.54,22.72-12.54,2.6-4.88-.34-18.44-.45-24.41,2,6.38,7.68,10.74,9.75,17.32,4.14,13.22-3.67,31.38-7.18,44.25-2.21,8.12-2.34,16.53-4.39,24.73-3.55,14.24-7.48,27.32-5.23,42.17,2.07,13.63,27.4,18.66,38.5,21.71,34.56,9.49,69.27,6.2,104.74,5.44,10.73-.23,21.83.23,32.88.29,22.06-8.18,44.1-16.89,66.56-25.12,27-9.9,49.64-16.82,78.75-17.09,114.2-1.07,222.75,57,332.59,81.07,96,21,187.31,59,283.73,77.8,27.57,1.74,58.86-3,86.4-5.8,12.1-1.23,24.41-3.11,36.43-5.13,20.12-3.39,40.41-2.86,60.44-5.42,19.38-2.47,38.42-6.51,58-8.17a386.94,386.94,0,0,1,60.9-.26C1412,293.67,1431.23,301.52,1438.71,301Z"/><path class="cls-1" d="M1157.64,386.16c-29.18,8-58.32,13.7-89.11,21.81a85.57,85.57,0,0,1-18.72,2.89c-16.26,6.7-32.9,13.1-49.89,17.69-11.71,3.16-24,4.95-35.35,8.85-12.24,4.18-22.82,12.35-35.32,15.87-13.6,3.84-27.16,6.55-40.73,11.17-17.12,5.83-32.77,9-47.95,18.67-16,10.18-32.2,20.69-44.44,35.41-19,22.88-51.12,47.5-81.21,39.05-10.4-2.91-20.52-2.68-31.2-4.84-30.47-6.18-55.59-21-83.18-33.66-26.35-12.09-50.12-29.77-76.68-41.21-26.1-11.23-52.44-18.51-79.09-27.46-23.26-7.82-50-19.28-69.38-34.42a382.7,382.7,0,0,1-37.47-34.22c-4.52-4.64-11.44-10.65-17.21-17.26-23.62-8.07-47.67-14.95-70.32-25.63-15.24-7.18-31.23-12.84-46.33-20.16-7.79-3.78-15-8.56-22.91-12.21-17.6-8.15-32.85-21.75-49.42-31.88,29,3.08,59.12,21.95,84.34,35.69,30,16.33,60.91,23.93,93.48,33.42,84.39,24.58,169.59,62.79,245.16,106.76,37.3,21.71,74.15,35.32,117.37,33.37,33.81-1.53,54.58-12.74,84.42-28.8,34.63-18.64,71.75-39.1,110.76-46.82,48.23-9.54,102-3.12,151.38-9A917.14,917.14,0,0,0,1157,372.09c34.44-9.49,81.63-22.77,117.23-21.55-22.43,6.44-45.41,10.62-67.19,19.33A452.15,452.15,0,0,1,1157.64,386.16Z"/><path class="cls-1" d="M1155.68,389.06c-29.17,7.95-56.36,10.8-87.15,18.91a85.57,85.57,0,0,1-18.72,2.89c-16.26,6.7-32.9,13.1-49.89,17.69-11.71,3.16-24,4.95-35.35,8.85-12.24,4.18-22.82,12.35-35.32,15.87-13.6,3.84-27.16,6.55-40.73,11.17-17.12,5.83-32.77,9-47.95,18.67-16,10.18-32.2,20.69-44.44,35.41-19,22.88-51.12,47.5-81.21,39.05-10.4-2.91-20.52-2.68-31.2-4.84-19.17-3.89-34.64-18.09-32.51-40.2,1.53-15.83,20-25.19,32.78-29.69,25.34-8.9,48.24-14.72,72.51-27.78,34.63-18.64,71.75-39.1,110.76-46.82,48.23-9.54,102-3.12,151.38-9A917.14,917.14,0,0,0,1157,372.09c34.44-9.49,107.89-29.93,143.49-28.71-22.43,6.44-53.91,14.79-75.69,23.49C1208.15,373.54,1172.05,384.59,1155.68,389.06Z"/><path class="cls-1" d="M1052.18,383.06c-16,9.82-44.17,8-62.88,13-19.22,5.1-37.72,11.41-57.33,15.21-9.68,1.88-21.51,1.77-30.41,6.41-18,9.4-29.41,30.64-47.87,41C822,476.49,788.27,480.1,753,486.23c-16.39,2.84-33.65,6.51-49.9,11,4.7,10.83,4.31,28,7.8,38.72,5.2,16.08,12.14,31.55,17.35,47.62,7.6,23.41,19.66,45.28,28.42,68.24,11.78,30.88,28.15,54.84,45.32,81.72-2.87,5.61-24.14,5.82-30.83,8-9.25,3.08-16.28,7.33-22.33-2.38-3-4.88-2-11-5.45-16.12-3.22-4.82-8.9-8.33-13.54-11.59-9.27-6.51-19.7-11.39-26.91-20.45-13.47-16.94-21.57-38.74-33.66-56.78-14-20.89-33.39-36-50.24-54.22a267.1,267.1,0,0,1-31.31-40.54c-5.22-8.49-5.1-14.15-7.08-23.13-2.49-11.23-9.75-20.79-10.4-32.68-.61-11.32,3.09-23.09,7.42-33.4,2.66-6.32,8.1-26.48,12.72-30.56a3.05,3.05,0,0,1,.82-.57l-.74.3c.18-.55.37-1.1.55-1.65,4.46-13.1,10.25-25.6,13.7-35,11.74-32,39.55-51,69-66.09,33.45-17.11,66.76-38.05,103.89-46.14,38.81-8.46,75,10.57,107.22,31.64,32.62,21.35,60.61,44.82,98.14,57.76C1005.3,367.72,1029,379.1,1052.18,383.06Z"/><path class="cls-1" d="M591.2,419.21a3.05,3.05,0,0,0-.82.57,2.76,2.76,0,0,1,.08-.27Z"/><path class="cls-1" d="M884.8,302.25c-32.2-21.08-68.42-40.1-107.22-31.64C742,278.37,689.1,298.75,663.41,326c40.85-11.72,81.48,42.39,102.32,73-4.06-14-36.78-59.94-29.71-77.48,8.17-20.24,58.36,29,64.52,38.18,13.29,19.9,17.26,44.24,24.59,65.49-1.6-18.69,2.36-34-.23-52.54-3.18-22.72-8-42.76-14.63-64.76,33.32,9,52.49,66.17,61.61,95.18-4.53-14.4-8-28.76-11.61-43.4-1.89-7.57-19.79-45.71-17.91-50.1,16.23-37.75,64,65.33,67.28,73.54-1.26-11.52.87-25,13.22-26.06,9.66-.85,16.47,10,21.46,16.84,3.46-20.23,29.28-11.94,43.06-14.63-15.83,3.1-51.9-22.86-64-30.72C910.31,320.11,897.83,310.78,884.8,302.25Z"/><path class="cls-1" d="M591,417.86c-.18.55-.37,1.1-.55,1.65l-4.77,1.91A9.63,9.63,0,0,1,591,417.86Z"/><path class="cls-1" d="M758.37,737.47c-3.09,8.36-2.59,14-9.06,21.38-4.86,5.56-9.3,12.73-16.52,15.15-10,3.36-21.56,1.6-31.8,6-13.17,5.67-24.73,13.88-29.74,28a2.3,2.3,0,0,0-.08-1.57c-.91.43-1.49,1.43-2.55,1.79-12.18-6.22-13.6,20.53-11.6,27,6.51-5.32,11.39-12.66,20.15-15.18,3.91-1.12,13.42,1,16.65-1.23,3.68-2.56,2.73-9.11,5.61-12.57,4.23-5.09,12.46-6.63,18.56-7.2,18.37-1.7,31.79-3.24,44.26-17.42,3.76-4.28,3.83-8.45,6.16-13.55,2.46-5.37,3.79-3.94,6.55-8.21,4.15-6.42,5.93-14.35,8.69-21.59-6-2.63-24.58-7.25-29.81-1.77"/><path class="cls-1" d="M757.39,768.91c-7.48.34-16.2,4.77-23.39,7.16-10.56,3.5-15.13,11.89-14.75,22.9-16.2-2.84-1.91,21.6.73,28.4-.73-4.59,4.12-16.3,7.7-20.37s9.51-3.36,11.18-10c7.53,8.16,26.62-4.16,31.45-11.35,4.37-6.52,3.21-10.63,8.06-16.1,6.7-7.55,15.53-5.47,20.58-15.39,3.61-7.07,2.86-22.09-2.67-28-8.55,6.34-17.42,6.56-24,15.71C770.32,744.56,758.87,768.84,757.39,768.91Z"/><path class="cls-1" d="M498.35,366.41c-10.43,3.24-16.47,7.2-27.61,3.45-9.34-3.15-10.87-11-18-14.87-8-4.36-13.49,2.12-21.71,2-2.68,0-15.69-1.15-6.47-7.25-10.82,7.17-18.37,16.44-26.18,26.43.61-7.11.53-14.66,2-21.78,1.8-8.75,9.18-17.89,8.67-26.62-1-.16-2-.09-3-.34,2.37-5,4.72-10.58,7.74-15.24-4.06-4.12-.51-9,3.09-12.88A118.85,118.85,0,0,0,385,341.7c-10.72,24.07-2.84,48.87-11.6,72.7-5.9,16-10.92,31.34-11.78,47.64-7.66,3.52-15.15,2.37-23.06,2.37-15.94,0-30.6,1.32-46,0-8.22-.68-16.76-4-23.47-.08-4,2.32,1,6.33-6,7.81-6.61,1.4-11.76-6.88-19.26-1.16,10.74,13.15-28.74,17.52-36,18.69.59,7.91-5.2,8.54-10.5,11.12,3.2,2.91,7.93,3.6,12.53,3.3-2.19.47-9.53,2.45-13.13,4.47,12-.21,24.06.26,36.05-.3,7.08-.33,14.31-1.91,21.39-2,2.7,0,7-.72,9.48.08,3.29,1.07,2.43,4.36,3.9,4.87,17.86,6.16,44.18,3.72,63,5,18.42,1.27,45.17,11.85,58.75-2.7,6.28-6.74,9.89-14.47,17.11-20.83,9.72-8.56,21.67-13.6,27.91-24.95,4.8-8.72,6.08-14.94,14.3-21.9s16.67-11.7,22.1-21.37c6.22-11,11-24.44,16.28-36C489.83,382.22,498.77,372.69,498.35,366.41Z"/><path class="cls-1" d="M586.26,515.46c10.56,6.92,24.19,7.93,35.08,2.17-.43,5.61-1.71,6.32-5.56,9.84-10-5.39-22.22-5.21-29.52-12"/><path class="cls-1" d="M72.88,23.45c-4.1,5.85,6.41,11.91,10.15,6,4.27-6.71-7.2-13.15-10.76-6.65"/><path class="cls-1" d="M77.51,22.84c-1.53,2.54-.67,5,.13,7.84C79.87,28.21,80,24,76.9,22.23"/><path class="cls-1" d="M36.28,28.78C28.35,26.73,7.64,38.62,9.1,48.08c3.86,1.53,8,0,11.42,2.59,4.3-4.37-3.14-4.79-3.59-7.69s3.24-6,5.54-7.4c5.52-3.33,13.85-4.65,19.35-7.41-2-.81-4.81-.59-7.36-.6"/><path class="cls-1" d="M104.18,23.93c-11,1.23-7.75,29.88,4.17,16.46-13.45,4.76-9.1-13.71-1.06-15.87a7.2,7.2,0,0,0-4.93-.59"/><path class="cls-1" d="M93.27,3.32C89,3.67,86.93,7,89.5,10.62c1.76,2.49,6.13,2.94,8.86,3.67,2.37.63,8.39,2.9,10.7.27,2.68-3.06-.7-6.84-3.57-7.78-.24-.22-.23-.23,0,0,6.17,8.07-12.77,3.3-15.78,1.93-1-2.44.25-4.51,2.92-5.35"/><path class="cls-1" d="M4.15,65.16a11.42,11.42,0,0,1-1.76-2.31C9.28,61,15.52,61.27,22.94,60.91c6.44-.31,13.44-1.8,20.41-.6-11.66,2-33.06-.6-38.11,7.18a5.53,5.53,0,0,1-4-5.27c1.61-.11,3.78-.46,5.36-.09"/><path class="cls-1" d="M19.31,105.39c-.77-.44-.61-1.2-1.32-1.85C22.89,100,30.2,100,35.78,96.38c5-3.29,9.73-7.23,14.48-10.77-9.2,13.17-20.63,12.52-31,19.76"/><path class="cls-1" d="M104.16,22.65c-4.08,3.5-7.81,9.31-6.43,15.17A8.26,8.26,0,0,0,109,43.43c7.52-3,9.35-12.49,3.37-17.56-2-1.68-8.58-6-9.4-1.61"/><path class="cls-1" d="M106.17,4.59c-3.38-1.06-22.3-5.5-17.67,3.85,2.35,4.73,19.73,7.92,22.08,1.77,1.47-3.84-5-6.8-8-7.23"/><path class="cls-1" d="M383.16,574.63c-3.49,4.68-3.41,10.39-2.89,16.08,21.57,4.11,44-25.52,55.48-39.52,10.27-12.57,20.87-29,13.56-43.45-1.23,17.81-12.29,29.74-26.64,41.52-7.36,6-12.53,10.58-18.68,17.76-4.15,4.83-9.92,11.94-16.62,11.51.38-2.81-.54-5.25.74-7.78a12.84,12.84,0,0,0-8,5.91"/><path class="cls-1" d="M405.11,588.91c-4.44-9.27-18.81,13-15.13,17.21,5.61,6.39,32.9-3.92,38.33-8,18.54-13.74,19.29-40.88,17-61.28-.71,11.22-8.72,29-14.79,38.5-3.34,5.27-6.25,8.46-12.52,9.78-6,1.28-12.12-3.07-17.25,1"/><path class="cls-1" d="M412.63,594.57c10.3,6,24.9,16,36.48,8.54,13.64-8.82,8.9-21.06-.81-29.78,2.86,10.89,0,26.89-14.32,18.16-5.33-3.26-6.2-9.34-13.22-8.15-5.69.95-12.23,9.15-6.47,14"/><path class="cls-1" d="M178.48,490.63c-8.74,1.32-12.6,5.16-17.62,12.07,1-.9,6.53-4.49,7.62-3.46.2.19-.61,4.81-.66,5.67-1.23.7-2.12,2-3.34,2.69,2.2-1.65,5.1-3.86,6.54-6.2s1.36-4.38,3.83-5.91c6-3.72,13.73-3.46,20.36-4.48,2-.3,8.07-1.74,8.32-4-4.51,1.23-9-.17-13.47.61C186.2,488.28,182.48,490,178.48,490.63Z"/><path class="cls-1" d="M154.37,416.12c4.71-8.62,13.95-14.07,23.3-7-6.43,2-19.71-4.1-23.3,5.21"/><path class="cls-1" d="M68.29,480.08c-4.21,9,14.73,11.21,18,12.57-4.35-1.33-21.16-8-18-14.36"/><path class="cls-1" d="M134.74,509.75c5.58.76,11,2.56,16.62.26-3.3.21-6.51.61-9.9.57-2.75,0-4.45-1.14-6.91-1.68a4.93,4.93,0,0,0,1.58.57"/><path class="cls-1" d="M671.66,807.59c-19.21-6.34-15.48,20.73-18,30.34a49.41,49.41,0,0,1,8.42-7c3.67-2.26,9.3-2,12.62-4.17,5-3.36.75-20.62-5.41-19.79"/><path class="cls-1" d="M719.61,794.4c-16.88,4.39-7.19,23.89-2.39,35.15,3.83-3.59,3.87-7.48,6.14-11.62,2.44-4.45,7.2-8.47,10.17-12.62,4.12-5.76,3.57-4.83-3.14-7.16-4.76-1.66-7.62-5.16-13.18-3.15"/><path class="cls-1" d="M679.46,775.22c-5.68-3.88-10.36,2.19-12.52,7.49-2.53,6.21-1,13.39.06,19.44a37.79,37.79,0,0,1,8.28-8.8c1.9-1.54,3.39-3.58,5.51-4.79,1.12-.65,6.09-1.64,6.48-2.22,1.19-1.76-.81-10.3-2.42-12.28-3.46-4.26-7.84-1.55-12.59.56"/><path class="cls-1" d="M67.2,25.14c2.31,2.54,6.12-1.13,9.06-1.83a21.3,21.3,0,0,1,12,.53c3.84-6.48-6.13-10.12-10.79-10.22S64.32,18.26,66.59,23.93"/><path class="cls-1" d="M88.42,28.17c-3.2.15-6.33,1.35-9.7,1.81-4,.54-6.48-.56-10.22-.5-2.89,13.85,20.82,15.4,21.63,0a4.75,4.75,0,0,0-4.74-.71"/><path class="cls-1" d="M77.51,13c-5.22.37-8.88,3.5-10.33,8.77-1.27,4.6.92,12.68,4.57,15.73,3.39,2.84,10.1,3.56,13.68.69,1.66-1.33,2.53-3.61,4.66-4.1.06-.07,0-.08,0,0-.21,1.1.65,1.85,1.06,2.77-.35-.79-5.51,3.47-6.17,3.69-2.45.79-5.71.8-8.28.85-6.06.11-10.54-2.44-12.54-8.35C60.82,23.28,66.36,10.5,77.8,11.19c4.72.29,16.82,4,12.83,11,.85-1.51-2.41-6.81-3.63-7.68C84.47,12.74,80.46,12.81,77.51,13Z"/><path class="cls-1" d="M113.92,224.82c.18,2.37.63,4.7,1.06,7.29,7.92,47.5.17,35.92,6.33,83.69-2.45-25.36,1.84-58.83-2.1-79.45,0,0,2.63,3,3,4.09s.72,2.46,1.07,3.67q1.25,4.24,2.48,8.47L132,273.89l15.06,51.47c6.79,23.22,13.89,42,10.64,28.17-4.47-19-9.5-35.68-14-54.71-2.12-9-12.07-49.72-13.63-54.37-1.09-3.25-3.2-9.41-2.47-12.79,2.91,6.18,6.3,10.27,8,14,13,29,28,57.38,42.05,85.95-7.4-15-13.42-30.95-20.09-46.33-8.76-20.18-16.28-49-32.18-64.83-1,1.39-3.06,1.92-4.09,3-2.55-1.68-4.54-4-7-5.38A24.16,24.16,0,0,0,113.92,224.82Z"/><path class="cls-1" d="M137.79,225.55c1.4,4.92,3.12,9.8,4.47,14.7l32.87,119.84L155.3,273.61l-4.38-19.09c-2-8.58-9.46-21.67-9.44-31,.9,5.4,7.26,17.39,8.57,22.69a69.23,69.23,0,0,0,2.8,7.42l7.74,20.51,19.29,51.14c6.1,16.19,12.69,32.28,18.34,48.63l-25.44-73.73-12.07-35c-1.5-4.32-3-8.65-4.48-13-2.13-6.14-6.83-13-6.54-19.57,1.64,5,13.93,15.06,20.77,21.42,12.43,11.55,42.06,43.73,54.49,55.27,1.33,1.24,2.83,2.42,4.05,3.77L185.84,265.7,158,235.07c-2.1-2.31-13.78-20-15.71-22.49-2.57-3.24,3.66,10.81.39,8.23-3.43-2.71-5.56-6.84-7.46-11.26.4,3.33.5,7,1.21,10.43C136.79,221.84,137.27,223.7,137.79,225.55Z"/><path class="cls-1" d="M366.64,525.82,245.36,506.05l95.22,23.81L232.74,508.31l75.95,32.33-92.53-32.79c-2.31.15-4.47-.47-5.33-2.17,3-.2,8,1.71,9.88-.54-.7-.66-1.14-2-1.81-2.59,8.94-.12,18.81-.53,26,3.5"/><path class="cls-1" d="M672.83,193.09c14,6.86,224.86-.91,224.86-.91s-210.86,8.4-203,12c43.65,20.24,234.7,1.9,326.24,4.73-232.61,9.19-267.64,12.1-258.67,15.94,21.06,9,74.1,21.39,90.25,21.81,77.35,2,181.46-24.81,258.73-27.08-28.44.84-173.88,23.81-217.36,36.86,10.84,3.05,232.56-4.59,244.46-8.83-15.41,3.7-162.81,24.75-193.24,24.75,17.39,0,89,26.46,111.84,23.1,132.51-19.45,184.51-66.61,223.93-71.49-9.52,4.78-185,81.22-196,88.51,26.75-9.72,211.49-85.11,238.15-86.24-1.51,1.06-209.9,85-211.4,86.24,13.93,1.05,144.83-44,158-48.63,28-9.72,135.86-25.82,152-26.74-8.25-.59-115,19.89-119.14,26.74,11.59,6.22,112.69-7.73,125.62-7.11,11.8.57,29.18-4,40.93-5-5.58,6-45.45,11.26-58.86,13.28-16.72,2.52-44.57,3.1-61.49,3.74-21.28.79-97.34,8.93-117.92,13.37,7.91,1.52,78-6.6,85.91-5.2-9.76-.36-18.35,1.79-27.86,3.84-9.22,2-126.13,26.89-139.51,28.1,29.18,0,168.39-21,195.73-21.88-10.9-1.91-67.67,15.5-79,17-28,3.77-83.38-.32-109.41,10.94,18.9,7.28,164.37-7.63,182.35,3.65-72.69,3.32-145.75,4.42-218.31,7.2-9.38.36-18.76.68-28.15,1-10.4.39-20.49-.27-30.8,1.6-6,1.09-12.77,4.07-18.19,3.27a177,177,0,0,0,32.73,5.14c21.54,1.44,60.9-3.48,71.56,5.54-7.38.82-31.17-.81-36.9,0-10.31,1.46-11.82,2.29-22.14,1.64.63-.07-17-.9-16.4-.82-8.91-2.52-12,.08-21.59-1.21s-20.13-4.82-29.77-2.09c24.88,10.77,147.3,6.58,180.1,7.4-12.09-.13-130.38,11.48-149.24,12.3,9,6.91,45.21,14.79,56.54,15.43,13.86.78,28.55-.85,41.66-5.57,5.63-2,10.68-5.45,16.61-5.59,14.68-.37,29.54,2.53,44.6,1.86,19.44-.85,38.86-2.24,58.26-3.64,34.75-2.52,69.67-6.44,104.52-7l2.6,0c-10.38-.57-204.3,24.75-214,28-36.31,12.08,150.74-6.08,150.74-6.08s-173,21.2-205.23,28.43c-16.32,3.66-80.32,14.14-97.34,19,6.52.6,87.84,0,94.3-.82-12.06-.75-123.82,3.28-158.26,26.24,12.16,1.21,126.75-4.45,139.2-4.77-72.75.85-154.18,17.37-225,20.52,23.43-2.89,41.9-16.37,63.7-24.11-3.48-.93-6.88-3-10.42-4.29,8.37-5.08,20.93-5.3,29.69-11.81-5.81.07-12.29,1.22-16.37-2.12a20.64,20.64,0,0,0,12.81-3.93c-1.4-.12-3-.11-4.34-.18,1.36.07,12.33-5.29,14.89-6.23,10.44-3.82,84.18-25.79,79.17-37.61-3-7-23.73-8-30-9-21.3-3.5-42.63-6.72-63.77-11.19-17.38-3.67-34.55-8.79-51.73-13.28-7.62-2-22.65-4.81-27.84-10.63,18.39-1,43.55,5.36,60.73-1.54-.69-.79-1.53-2-2.25-2.79,19.25-2.41,41-1.27,59.53-6.79-4-10.28-18.49-8.79-27-11.76-3.91-1.37-31.4-11.78-31.4-11.78s39.5,2.18,43.14,2.5c13.89,1.22,28.29,4,42.32,3.24-14.94-5.74-47.67-11-65-13.94-28.7-4.92-47.56-5.74-86-9.7l0,0c14.5,8.49,36,7.21,52,18.43-6.5.6-13.09-3.14-19.45-4.47q-13.35-2.78-26.72-5.41c-21.62-4.3-26.6-4.67-48.08-9.6-10.23-2.35-39.11-14.29-110.56-35.35,10.51-.72,79,6.77,89.5,5.26,1-.15-22.4-10-29.33-12-15.62-4.56-79.68-25.39-96.27-22.57,6.77,3.86,55.48,11.88,62.42,16.55,5.41,3.64,33.37,8.81,36.1,14.29-7.45-3.48-26.59-6.25-34.69-8.14-35-8.13-72.2-18.05-105.33-32.08,14,2.09,28.81,1.74,43.18,1.74-10.89,1.14-32-4.28-41.8-7.48,59.74-6.8,118.13-18.18,178.08-21.2-32.12,3.65-66.2,8.14-98.93,15.26-10.92,2.37-22.48,6.19-33.62,5.7,2.5-.44,4.86-.8,7.39-1.1"/><path class="cls-1" d="M186.66,505c17.09-.5,35.91,2.73,52.74,7.06,54.25,14,109.51,25.51,163.66,40.4-24.17-8.59-56.07-16.68-81.34-23.93-30-8.59-55.25-13.47-83.8-22.19,33.49,5.57,65.53,10.3,99.07,17.25C373,531,412.86,541.39,449.3,546c-22.78-4.75-47.71-8.48-70.82-14.87-30.53-8.45-62.2-13.3-92.49-22,28.89,5,58.58,8.2,87.76,12.2,35.74,4.91,79,14.75,114.06,10.83-35.2-3-74-4.21-108.6-11.75-29.08-6.35-59.1-9.65-86.4-16.55,26.73,3.18,56.24,1.54,83.78,2.87,41.14,2,82.42,9.66,123.37,11-31.37-.51-62.91-5.54-94.13-10.28-32-4.85-66.55-5.1-97.34-12.2-2.88,16.07-33,5.56-43.85,5.7.09,2.51-1.38,4.79-1.53,6.71a171.85,171.85,0,0,0-36.76-8.09c0,1.22,1.31,1.09,1.17,2.3-7.46-.12-15.08-2-22.49-.5-6.87,1.36-7.54,8.47-17,3.61"/><path class="cls-1" d="M109,136c-9.73,28.11-18.21,52.69-20.61,81.24C85.66,249,98.14,292.76,106.79,336c-1.08-42.16-14.36-85.17-16.65-111.33,3.16,7.41,8.71,27.56,11,38.86,4.81,24,30.5,53.91,37,76.8-35.68-93-33-78.59-33.92-114.89,8.54,17,18.5,34.63,28.32,51.27,11,18.69,20.3,39.73,30.83,54-9.59-15.05-12.84-28.91-20.5-42.69-7.3-13.12-15.6-31.87-14.11-32.54,15.35,19.81,35.58,48.31,53.68,66.65,23,23.26,11.16,11.76,16.55,15.61,9,6.42,30.07,32,32.32,43.1-11.38-28.39-30.77-51.48-51.56-73.89-18.32-19.73-26.17-33.86-26.17-37.71,26.62,27.72,69.84,58.22,98.48,84.35,21.43,19.56,37.75,36.49,60.07,29.56,7.7-2.39-15,3.91-35.6-16.9-15.45-15.59-36.48-32-53-46.49-10.07-8.81-42.05-38.33-48.66-49.73C258,293,335.23,331.5,317.51,321.61c-26.16-14.63-83.71-35.24-92.35-38.49-9.61-3.6-14.81-4.94-43.88-21.55,26.74,4.31,81.4,17.85,107.69,25,25.86,7,51,15.94,76.63,23.79,11.27,3.46,22.78,5.66,31,13.61-44.67-10.43-89.55-31.72-133.84-45.89-30.51-9.76-62.23-16.15-91.61-29.26,24.18,1.21,48.17,7.82,72.27,11.21,47.87,6.72,107.17,13.08,156.29,25-46-17.28-131.21-26.76-185.35-35.75-12.44-2.07-37.69-13.58-41.56-5.39,11.54-.77.54-20.33-4.94-19.59,1.88,9.86,3.72,12.64,0,22.27-2,5-7.07,12.68-2.81,17.86-6.22-6.57-11.69,1.4-18.27.63-5.57-.65-10.73-7.11-14.11-11-8.06-9.17-13.39-20.3-21.09-29.69-20.83-25.44-11-55.91-3.69-85.14"/><path class="cls-1" d="M159.48,170.24a676.31,676.31,0,0,0,81.84-4.88c50.4-5.81,65.83-16.43,120.79-22.93-71.78,16.57-55.77,15-82.83,19.33-40.49,6.44-65.23,14.78-109.48,14,7,2.94,16.45,1.4,24.36,1.76,27.36,1.27,55,3.46,82.33,5.64,43.18,3.44,88.85,7.63,132.14,6.69-78.93-.1-157.16-9.81-236.15-9.81,35.48-2,72.1,13.75,106.15,21.08,51.18,11,64.23,14.64,40.42,10.41-27.45-4.87-80-17.68-100.75-20.28-13.58-1.7-29.62-7.76-43.29-5.29,3.2,5.56,13.36,4.42,22.44,7.1,20.8,6.16,4.51,3.69,25.4,10,44.77,13.55,93.45,28.66,139.31,37.71-22.68-6.12-59.56-8.73-82.36-15.39-29.28-8.55-28.58-11.19-58.49-15.4-25.77-3.62-35.38-15.65-61.34-6,4.2-3.24,8.52-5.87,11.93-9.61-3.88-1.26-6.29-3.56-10.88-3.39.94-1.46,1.26-5.09,2.53-6.8a53.62,53.62,0,0,0-13.74-4.48c2.38-1.75,4.55-6.26,7-8.1-1.45-1-2.34-2.19-4.13-3.21,1.94,1.68,8.48,3.63,11,3.21"/><path class="cls-1" d="M975,320l216.11-84.33-74.2,33.09c-32.35,14.42-82.21,24-107.24,49.74,16.35,1.9,36.94-3.74,53.59-5.77l79.61-9.69,129.78-15.8c2.22-.27,4.46-.47,6.67-.81l-266.41,41.2c-10.3,1.6-50.37,1.86-52.08,13.15,16.61-7.45,41.83-3.72,59.91-4.13l79.09-1.78L1271.49,331c34-.76,68.09-.89,102.07-2.29L963.91,345.65l270.68,9.67c-2.34-.09-4.69,0-7,0l-149.12-.68q-39.24-.18-78.47-.36c-13.76,0-25.36,3.69-39.2.19-14.58-3.69-28-11.12-41.45-17.54C931.36,327.09,959.66,324.77,975,320Z"/><path class="cls-1" d="M1040,374.65l211.47-15.71s-204.36,30-206.64,31.42c-16.91,10.88,211.47-13.29,211.47-13.29s-41.11,5.89-67.67,10.87c-19.33,3.63-50.8,3.9-73.71,6-5.08.48-78.22,5.48-78.55,4.84,2.88,5.68,58.41-.14,65.86-.2l59.61-.46c23.43-.19,50.49,9.3,73.92,9.12-34,1.85-71.59-6-105.57-4.12l-79.08,4.31c-27.54,1.5-55.57,8.51-83.25,5.85,16.34-2,29.65-12,45.46-14.77-1.85-1.2-2.23-3.22-3.38-4.36,7.93-1.73,15.72-3.69,21.74-8.82C1033.71,383.68,1037.66,374.83,1040,374.65Z"/><path class="cls-1" d="M790.58,261c5.55-1.31,11.3-2.62,12.59-2.85l36-6.41,97.92-17.41L996,223.81l-199,39.8,251.84-15.43L811.56,267.67l246.15,8.13-240.46-2.44c-12.63-.88-28.33.4-38-9.54C779.1,263.72,784.72,262.34,790.58,261Z"/></g></g></svg>