<svg xmlns="http://www.w3.org/2000/svg" xmlns:xlink="http://www.w3.org/1999/xlink" viewBox="0 0 1803.95 858.92"><defs><style>.cls-1{fill:#9b8579;}.cls-2,.cls-4,.cls-7{opacity:0.7;}.cls-2{fill:url(#linear-gradient);}.cls-3{fill:url(#linear-gradient-2);}.cls-4{fill:#eae6cd;}.cls-11,.cls-13,.cls-14,.cls-5,.cls-9{fill:#231f20;}.cls-5{opacity:0.39;}.cls-6{fill:#fbb040;opacity:0.4;}.cls-7{fill:url(#linear-gradient-3);}.cls-8{fill:url(#linear-gradient-4);}.cls-9{opacity:0.27;}.cls-10{fill:url(#linear-gradient-5);}.cls-11{opacity:0.15;}.cls-12{fill:url(#linear-gradient-6);}.cls-13{opacity:0.3;}.cls-15{fill:#2bb673;}.cls-16{fill:#3c2415;}.cls-17{fill:url(#linear-gradient-7);}.cls-18{fill:url(#linear-gradient-8);}.cls-19{fill:#c2b59b;}.cls-20{fill:none;}.cls-21{fill:url(#linear-gradient-9);}.cls-22{fill:url(#linear-gradient-10);}.cls-23{fill:url(#linear-gradient-11);}.cls-24{fill:url(#linear-gradient-12);}.cls-25{fill:url(#linear-gradient-13);}.cls-26{fill:url(#linear-gradient-14);}.cls-27{fill:url(#linear-gradient-15);}.cls-28{fill:url(#linear-gradient-16);}.cls-29{fill:#776155;}.cls-30{fill:#382c26;}</style><linearGradient id="linear-gradient" x1="935.67" y1="439.01" x2="1023.06" y2="942.66" gradientUnits="userSpaceOnUse"><stop offset="0" stop-color="#231f20"/><stop offset="0.4" stop-color="#2d2727" stop-opacity="0.92"/><stop offset="0.67" stop-color="#4c423e" stop-opacity="0.66"/><stop offset="0.91" stop-color="#806e65" stop-opacity="0.22"/><stop offset="1" stop-color="#9b8579" stop-opacity="0"/></linearGradient><linearGradient id="linear-gradient-2" x1="572.19" y1="630.34" x2="464.44" y2="659.67" gradientUnits="userSpaceOnUse"><stop offset="0" stop-color="#fff"/><stop offset="0.01" stop-color="#c2b59b"/><stop offset="1" stop-color="#9b8579"/></linearGradient><linearGradient id="linear-gradient-3" x1="584.78" y1="444.61" x2="170.11" y2="655.92" xlink:href="#linear-gradient"/><linearGradient id="linear-gradient-4" x1="574.61" y1="455.97" x2="665.55" y2="455.97" gradientTransform="translate(87.11 -128.73) rotate(8.53)" xlink:href="#linear-gradient-2"/><linearGradient id="linear-gradient-5" x1="646.24" y1="628.38" x2="1150.08" y2="467.15" gradientTransform="translate(87.11 -128.73) rotate(8.53)" xlink:href="#linear-gradient-2"/><linearGradient id="linear-gradient-6" x1="476.45" y1="722.89" x2="620.35" y2="449.8" gradientTransform="translate(87.11 -128.73) rotate(8.53)" xlink:href="#linear-gradient-2"/><linearGradient id="linear-gradient-7" x1="453.44" y1="510.79" x2="571.19" y2="510.79" gradientTransform="translate(87.11 -128.73) rotate(8.53)" xlink:href="#linear-gradient-2"/><linearGradient id="linear-gradient-8" x1="961.76" y1="461.41" x2="1075.72" y2="461.41" gradientTransform="translate(87.11 -128.73) rotate(8.53)" xlink:href="#linear-gradient-2"/><linearGradient id="linear-gradient-9" x1="837.4" y1="733.3" x2="610.65" y2="858.45" xlink:href="#linear-gradient-2"/><linearGradient id="linear-gradient-10" x1="578.43" y1="653.29" x2="470.69" y2="682.62" xlink:href="#linear-gradient-2"/><linearGradient id="linear-gradient-11" x1="581.74" y1="665.44" x2="474" y2="694.76" xlink:href="#linear-gradient-2"/><linearGradient id="linear-gradient-12" x1="582" y1="657.16" x2="448.58" y2="693.47" xlink:href="#linear-gradient-2"/><linearGradient id="linear-gradient-13" x1="587.6" y1="655.81" x2="460.52" y2="690.4" xlink:href="#linear-gradient-2"/><linearGradient id="linear-gradient-14" x1="823.07" y1="758.14" x2="632.51" y2="863.32" gradientTransform="translate(88.17 -69.31) rotate(5.9)" xlink:href="#linear-gradient-2"/><linearGradient id="linear-gradient-15" x1="849.07" y1="750.56" x2="635.6" y2="868.38" xlink:href="#linear-gradient-2"/><linearGradient id="linear-gradient-16" x1="808.32" y1="792.68" x2="660.61" y2="874.21" xlink:href="#linear-gradient-2"/></defs><title>Plateosaurus_Ritterbush2020</title><g id="Layer_2" data-name="Layer 2"><g id="Layer_3" data-name="Layer 3"><path class="cls-1" d="M1041.46,692.19c-4.71,2.14-8.6,5-11,9.73-2.26,4.53-5.83,7.41-8.3,11.68a37.09,37.09,0,0,0-3.05,7.62c-2.92,9.38-7.55,18.51-10.53,27.82-4.17.31-8.66,3.52-12.76,4.72-3.81,1.12-8,2.26-9.54,6.44-3.68-1-7.79-2.48-11.56-3.35-4-.92-7.09,1.62-11,.45a19.72,19.72,0,0,0-9.78-.65c-9.46,1.5-19.28,6.74-19.9,17.43.32-5.48,12.48-4.22,15.56-4.4s5.13-1.91,7.86-2.55c3.35-.77,6.07,2.37,9.29,3.58a17.33,17.33,0,0,0,8,1c2-.15,4.31-.79,6.24-.69,4.69.23,8.64,2.21,13.52,2,4.63-.23,9.87-.87,13.25-4.4,1.43-1.5,1.92-4.63,3.65-5.63,1.07-.61,4.33,0,6.07-1.12,2.49-1.59,6.17-6.67,6.76-9.3s-1-5-1-7.27c0-2.71,3.67-6.77,5-9,2.23-4,4.44-8,6.67-11.93,1.3-2.32,5.09-7.09,5.71-9.62.92-3.8-1.81-4.13-3.07-7.47a11.31,11.31,0,0,1,.12-8.25c1.27-2.72,9.49-7.5,1-8.44"/><path class="cls-1" d="M842.3,531.61c3.31,32.19,41.3,52.33,66.64,65.07,25.68,12.91,52.13,25.8,75.28,43,14.25,10.6,29.72,24.09,39.33,39.15,16,25.14,1.1,30.81-5.53,56.37,5.33-3.29,15.42-15.42,20.24-16.05,10-1.33,9.48,9.51,14.67,9.55,68.82.53,20.19-66,6.28-91.77-7.35-13.63-11.32-28.88-19.49-42.31-8.35-13.71-14.85-24-17.17-39.61-1.91-12.81,2.68-26.95,0-39.37-2.33-10.82-8.46-14.94-12.16-24.64-9.51-24.95-2.55-37.62,5.87-61.73-39.88,21.53-77.41,47.52-111.25,78.89-21.92,20.32-35.67,28.49-62.71,23.43"/><path class="cls-1" d="M1033.13,719.41c3.81-3,4.67-8.66,10-10.63,5.78,6.78,2.87,16,.54,23.5a61.51,61.51,0,0,0-2.27,9.08c-.61,4.08.44,8.38-.64,12.39-.79,2.93-1.89,7.26-3.29,9.91-1.72,3.26-3.14,2.47-5.91,4-2.35,1.27-4.76,2.56-5.27,5-.37,1.79,1,3.64.08,5.53-1.38,2.72-5.82,3.56-8.31,4.83-4.39,2.26-5.92,8.76-11.65,6.63-.88,2.29-3.4,7.17-6.06,8.26-4.74,1.93-5.29-3.56-10-1.56-7.65,3.24-8.63,12.62-9,19.64a11.57,11.57,0,0,1-2,0c-4.86-7.05-.84-18.76,3.35-25.31,2.65-4.13,5.56-7.77,10.76-7.48-4.14-6.3,14.77-14.39,19.23-15.2.3-5,2.3-9.11,4.32-13.79,3.78-8.76,8.3-18.49,13.33-26.59,2-3.28,3-9.75,6.12-11.51"/><path class="cls-1" d="M1049.79,697.19c-3.33-1.39-8.56-1.39-10,1.94-1.32,3.18.29,13.44.5,17.39.49,9.71.8,19.32-.53,29-1.08,7.83-3.56,14.82-2.79,22.53a27.4,27.4,0,0,1-1,9.74c-.87,3.34-.6,5-.25,8.51.26,2.67-.09,5.3.33,8.17.55,3.7,1,7.94,2.49,11.43,1.84,4.28,6.84,3.66,8.62,7-2.11-3.26-3.61-5-2.64-8.67,1.66-6.24,6.19-10.33,4.33-17.09-.57-2-1.15-1.91-.93-4.11.18-1.81,1.45-3.94,2-5.68,1.25-3.74,2.37-7.61,2.25-11.59-.12-3.67-.69-6.73.09-9.75,1.82-7.07,3.67-14.54,3-21.9s-2.15-14.93-2.9-22.44c-.42-4.16-2.39-11.52-1-15"/><path class="cls-1" d="M1057,749.4c0-4.92-2.13-9.6-2-14.53.11-3.5-.06-6.93,0-10.46,0-2.11-1.52-8.49-.67-10,1.33-2.33,6.4-.58,8.4-.51,4,.16,7.28-1.71,10.21-4.54,4.12-4,7.4-8.84,11.47-12.89-.77,4.32-1.6,9-3.66,13.09-1.39,2.77-4,5.16-4.8,8.07-1.17,4.35-2.12,8.49-3.7,12.85-.88,2.4-2.5,5.16-2.75,7.71-.51,5.28,3.11,9.7,2.66,15-.3,3.47-1.61,6.37-1.28,9.37.43,3.91.41,8.75-1,12.47-.9,2.42-2.57,4.41-3.58,6.72,3.17,2.71,2.44,5.44,2.51,9.17.07,3.92,3,5.61,6.41,6.52-5,1.77-10.5-2-13.63-5.61-3.89-4.51-4-10.31-4.43-16.08-.26-3.68,1.89-7.17,1.8-10.4-.07-2.38-2.25-4.89-2.39-7.78S1057,752.15,1057,749.4Z"/><path class="cls-2" d="M1070.62,739.32c-.52,5.28,3.11,9.7,2.65,15-.3,3.47-1.61,6.37-1.27,9.37.43,3.91.4,8.75-1,12.47-.9,2.42-2.57,4.41-3.58,6.72,3.17,2.71,2.44,5.44,2.51,9.17.08,3.92,3,5.61,6.41,6.52-5,1.77-10.49-2-13.63-5.61-3.88-4.51-4-10.31-4.43-16.08-.26-3.68,1.89-7.17,1.8-10.4-.07-2.38-2.25-4.89-2.38-7.78s.42-5.48.43-8.22c0-3.36-1-6.62-1.58-9.92A85.38,85.38,0,0,1,1053.5,757c-.78,3-.2,6.08-.09,9.75.13,4-1,7.85-2.24,11.59-.58,1.74-1.86,3.87-2,5.68-.22,2.2.37,2.06.93,4.11,1.86,6.76-2.67,10.85-4.33,17.09-.9,3.39.35,5.17,2.24,8-2-2.61-6.5-2.34-8.21-6.33-1.5-3.49-1.94-7.73-2.49-11.43-.43-2.87-.08-5.5-.34-8.17-.34-3.47-.61-5.18.25-8.52a26.89,26.89,0,0,0,1-9.73,28.18,28.18,0,0,1-.13-3.3c-1.47,2-2.86,1.6-5.29,2.91s-4.75,2.56-5.26,5c-.37,1.79,1,3.64.07,5.53-1.38,2.72-5.81,3.56-8.3,4.83-4.4,2.26-5.92,8.76-11.65,6.62-.89,2.3-3.41,7.18-6.07,8.27-4.74,1.93-5.29-3.56-10-1.56-7.65,3.24-8.62,12.62-9,19.64a11.58,11.58,0,0,1-2,0c-4.86-7.05-.83-18.77,3.36-25.31,2.64-4.13,5.55-7.77,10.75-7.48-4.14-6.3,14.78-14.39,19.24-15.2a22.53,22.53,0,0,1,1-5.33,5.77,5.77,0,0,0-2.24.34c-1.74,1-2.23,4.13-3.66,5.63-3.37,3.53-8.62,4.16-13.24,4.4-4.89.25-8.84-1.73-13.52-2-1.94-.1-4.28.54-6.25.69a17.29,17.29,0,0,1-7.94-1c-3.22-1.21-6-4.36-9.29-3.58-2.74.64-4.66,2.36-7.87,2.55s-15.24-1.08-15.56,4.4c.62-10.69,10.45-15.93,19.91-17.43a19.8,19.8,0,0,1,9.77.64c3.91,1.18,7-1.36,11-.44,3.77.87,7.88,2.35,11.56,3.35,1.49-4.18,5.72-5.32,9.54-6.44,4.1-1.2,8.59-4.41,12.75-4.72,3-9.31,7.61-18.44,10.53-27.82a37.67,37.67,0,0,1,3.05-7.62c2.45-4.24,6-7.11,8.25-11.59.94-6.29-.55-13.2-6.9-23.16-9.61-15.06-25.09-28.55-39.33-39.15-23.16-17.22-49.6-30.11-75.28-43-25.35-12.74-63.34-32.88-66.64-65.07,27,5.06,40.78-3.11,62.7-23.43,33.85-31.37,71.38-57.36,111.26-78.89-8.43,24.11-15.38,36.78-5.88,61.73,3.7,9.7,9.83,13.82,12.17,24.64,2.67,12.42-1.91,26.56,0,39.37,2.32,15.6,8.83,25.9,17.17,39.61,8.18,13.43,12.14,28.68,19.49,42.31,12.15,22.5,50.8,76.12,14.5,89-.44,1.51-.92,3-1.48,4.58C1072.49,734,1070.87,736.77,1070.62,739.32Z"/><path class="cls-1" d="M481,444.89c-5.4-2.17-10.17-4.76-14.51-6.85-10.91-5.31-19.07-7.6-27.59,7.17-12.15,21.08-23.62,43.17-37.11,63.76-5.58,8.53-10.75,18.25-17,26.83-3.1,7.14-7.95,12.92-14.94,15.46,0,0,0,0,0,0a22.86,22.86,0,0,1-5.38,1.24c-18.05,2-33.77-4.84-50.66-7.85l-1.63-.29c-1.63-.25-3.27-.48-4.92-.65a17.19,17.19,0,0,0-3.44,0c-2.64-6.59-6.65.35-9.82-.51-1.39-.38-2.85-3.73-4.14-4.68a11.28,11.28,0,0,0-5.68-2.08c-3.13-.35-5,0-7.82-1.37-2.6-1.26-4.5-2.76-7.54-3.31-4.68-.85-21.45-.64-19.36,7.94,3.09-1.8,4.19-2,7.53-.88,3,1,6.27.71,9.22,1.56s6.38,3,9.06,4.46c-6.87.55-13.26-3.81-20.16-3.22a27.61,27.61,0,0,1-9.87-.46c-3.84-.81-7.37-.89-10.94,1-4.12,2.18-9.36,6.37-10.5,11.18,5.09-3.1,11.55-.28,16.35-2.89-.48.26,3.27,3.54,4.91,3-2.42,2.37-5.42,1.34-8.18,2.69a11.33,11.33,0,0,0-5.61,7.61c-1,4.15,1.5,7.71,1.2,11.72,2.09-7.51,5.36-9.13,12.69-9.13,4.77,0,8.88-1.5,13.73-.93,2.39.28,4.81.07,7.21.29,3,.26,5.59,1.82,8.68,1.72,1.18,0,1.45-.8,2.32-1a1.57,1.57,0,0,1,.24,0,1.17,1.17,0,0,1,.27,0,4.36,4.36,0,0,1,.61,0l.42.06-.43,0a9.48,9.48,0,0,0-2.79,2.94,11,11,0,0,0-.87,1.88c-.11.28-.18.88-.3,1.38a2.1,2.1,0,0,1-.22.64c1.79-1.8,4.24-1.55,6.54-1.26l.55.08c4.2.53,4.79-2.19,8-2.81.31-.06.62-.12,1-.16a65,65,0,0,1,6.71-.34,2.83,2.83,0,0,1,1.39.45c.78.61.6,1.75,1,2.58a1.19,1.19,0,0,0,.09.15h.09a1.11,1.11,0,0,0,0-.19,6.61,6.61,0,0,0,.73-.19c-.15.16-.32.29-.46.43l-.19.14a.05.05,0,0,1,0,0v.1a.7.7,0,0,1,0,.16c0,.11,0,.22,0,.32a2.44,2.44,0,0,1,0,.27s0,.07,0,.11a1.75,1.75,0,0,1,0,.33,1.69,1.69,0,0,1-.08.34,2.26,2.26,0,0,1-.11.37,5.37,5.37,0,0,1-.8,1.42,11.66,11.66,0,0,1-2.9,2.92,10.6,10.6,0,0,1-1,.54,6.7,6.7,0,0,1-3.23.91,2.94,2.94,0,0,1-.51,0l-.1,0-.17,0-.08,0,0,0a5.16,5.16,0,0,0,1.21.68c2.4,1,6.19.72,8.33.41a4.85,4.85,0,0,0,3.91-2.33c.41-.79.47-2.34,1.14-2.93s2-.46,2.91-.61a10.35,10.35,0,0,0,3.51-1.19,8.62,8.62,0,0,0,1.47-1.2,23.23,23.23,0,0,1,2.37.49c5.09,1.4,9.69,4.11,14.58,6,7.18,2.79,14,6.41,21.22,9.16,12,4.56,37.51,16,57.42,17.67,13.41,11.08,25.57-6.85,29.74-16.39,8-18.38,20.24-32.83,33.6-48.79,27.57-32.95,51.71-74.69,95.21-87.92C541.36,459,504,454.16,481,444.89ZM301.14,569h0s0,0,0,0,0,0,0,0l.06,0a1.26,1.26,0,0,1,.17-.11C301.3,568.82,301.21,568.89,301.14,569Zm1.81-1a3,3,0,0,0-.6.37.73.73,0,0,1,.16-.15,2.52,2.52,0,0,1,.25-.21h.16a.09.09,0,0,1,.06,0Z"/><path class="cls-3" d="M564.18,641.28c-.4-.61-1-.56-1.63-.8-.89-.32-2.6-1.58-3.46-1.63s-1.46,1.08-2.29.54c-.41-.27-.83-1.72-1.17-2.23a13.93,13.93,0,0,0-1.47-1.92,3.36,3.36,0,0,0-4.22-.59c-4.25,2.34-6.42,7.37-10.46,10.07a5.07,5.07,0,0,1-5.53.46c-1.38-.7-3.31-2.07-4.87-1.33,3.79-6.86-9.88-10.31-14.34-11.09a55,55,0,0,0-10.14-1.27,18.38,18.38,0,0,0-11.52,4.5c-2,1.64-4.35,3.77-5,6.32,2.56-1.12,5.89-1.37,8.64-1.89,3.16-.6,6-.8,9,.43a9.58,9.58,0,0,1,3.76,2.38c1,1.24.49,2.47.75,3.89.45,2.44,2.31,3,4.53,3.12.56,0,2.56-.32,3,0s.22.77.38,1.2c.69,1.85,1.2,3.79,3.09,4.79,2.51,1.31,4.12-.17,6.15-1.41,1,2.09,1.94,4.82,4.68,4,1.58-.47,2.76-1.72,4.32-2.23,1.22-.39,1.89.06,3.19.06,3.59,0,6.87-2.34,9.62-4.35a97.62,97.62,0,0,1,10.31-6.86c1.63-.9,4.19-1.51,5.49-2.92s.14-1.89-1.35-1.82"/><path class="cls-4" d="M509.5,643.23c1.66,2-.17,5,2.53,6.5,1.59.9,4.23,0,5.8-.48,3.23-.91,8.48-2.82,10.59-5.64,4.92-6.59-9.18-10.06-13.68-10.85a55,55,0,0,0-10.14-1.27,18.38,18.38,0,0,0-11.52,4.5c-2,1.64-4.35,3.77-5,6.32,2.56-1.12,5.89-1.37,8.64-1.89,3.16-.6,6-.8,9,.43A9.58,9.58,0,0,1,509.5,643.23Z"/><path class="cls-5" d="M549.2,652.35c3.79-2.78,8.31-5.21,11.93-7.67-3.44-.77-8.15-.81-11.43.69-3.08,1.41-3.49,4-5.59,6.42-1.16,1.33-6.9,4.89-6.28.6-1.81,1.45-3.37,3.53-5.88,2.37-2.81-1.3-1.25-3.09-1.55-5.61-.9,2.69-4.62-2.28-4.68-4.23-2.07-.07-4.11.63-6.38.53-2.21-5-11.69-6.78-16.11-5.82,4.68,0,6.31,3.64,7,7.5.45,2.43,2.3,3,4.52,3.11.56,0,2.56-.32,3,0s.22.77.38,1.2c.69,1.85,1.2,3.79,3.09,4.79,2.51,1.31,4.12-.17,6.15-1.41,1,2.09,1.94,4.82,4.68,4,1.58-.47,2.76-1.72,4.32-2.23,1.22-.39,1.89.06,3.19.06C543.17,656.71,546.44,654.36,549.2,652.35Z"/><path class="cls-6" d="M132.63,85.2c1,.71,4.31,6,6.16,4.88,1.11-.68-1.59-6.14-2.62-6.82,1.13-.79,3.17-.8,4.63-1.08,1.17,2.61-.42,5.62,2.37,7.71.37-2,2.11-1.66,2.16-4a9.18,9.18,0,0,0-1-4.18c.89,2.11,1.85,5.63,4.42,6.13,0-1.88-1.77-6.76-.15-7.64.57,2.24.66,5.13,3.16,6.16,1.85-2.35-.09-4.87,0-7.34a14.52,14.52,0,0,1,2.21-.81c1.11,2,.65,3.85,2.85,5.7,2.15-2,1.2-4,1.09-6.64a9.38,9.38,0,0,1,1.33-.63c-.23,2.46,2,3.58,3.23,5.19.91-2.57,1.88-3.73,0-6.13a5.61,5.61,0,0,1,2.36-.62c-.2,1.33.09,5.49,2.31,5.41,2.6-.08,2-4.81,1.37-6.17a2.2,2.2,0,0,1,1.3-.36c.56,1.76,0,3.93,2.25,4.55,1.4-1.73,1.37-3.4.9-5.39a23.44,23.44,0,0,1,4.56-.41,5,5,0,0,0,.58,5.16c2.9-1.76,1.41-3.17,2.24-5.79a6.74,6.74,0,0,1,2.08-.25c1,1.94.71,3.63,2.51,5.06a9.77,9.77,0,0,0,2.22-6.21,39.75,39.75,0,0,0-10.67.12c-7.58.93-15.52,1.09-23,2.88a63.75,63.75,0,0,0-15,5.44c-1.85,1-6.58,3.7-5.94,6.07"/><path class="cls-6" d="M140.39,92.24c-1.08-2.08-2.27-3.27-1.5-5.73a6.3,6.3,0,0,1,3.67,4.15,19.09,19.09,0,0,0,2.38-.45c.05-1.73-.24-3.16.55-4.92,1.38.7,2,2.58,2.35,4a6.62,6.62,0,0,0,2.2-1c-.37-1.39-1.12-3.08-.37-4.45.55,1.7,2.31,2.2,2.09,4.2a2.62,2.62,0,0,0,1.58-.31c-.15-1.52-1.27-4-.18-5.3,1.81,1.83,1.72,6.35,5.15,4.16a4.18,4.18,0,0,1-.11-4.38c2,.92,1.38,5.86,4.16,4.19-.26-1.59-1.82-3-.84-4.58,1.42.28,2,1.61,2.24,2.93a3,3,0,0,0,2.34-.2c-.39-.72-1-3.28.54-3.35,1.05,0,1.44,2.44,1.7,3a7.31,7.31,0,0,0,2.15-.78c-1-.85-2-1.77-1.52-3.13,1.58.4,3.56,1.21,3.81,3.16,1.19.26,2.22-.37,3.43-.29-.89-1.49-1.24-2.53.42-3.86.8,1.11,2.19,1.84,1.86,3.42a11.1,11.1,0,0,1,3.16-.08A3.62,3.62,0,0,1,182,78.8c2.3.53,1.45,4.2,3.71,3.34a3.34,3.34,0,0,1-.7-3.48c2.05,0,2.07,2.45,2.27,4-4,.18-8.66,2.48-12.46,3.68-6.85,2.17-14,4.81-21.15,5.52-2.67.26-5-.38-7.54-.63s-4.95.41-7.49.29q0-.8,1.2-.69"/><path class="cls-7" d="M481,444.89c-5.4-2.17-10.17-4.76-14.51-6.85-10.91-5.31-19.07-7.6-27.59,7.17-12.15,21.08-23.62,43.17-37.11,63.76-5.58,8.53-10.75,18.25-17,26.83-3.1,7.14-7.95,12.92-14.94,15.46,0,0,0,0,0,0a22.86,22.86,0,0,1-5.38,1.24c-18.05,2-33.77-4.84-50.66-7.85l-1.63-.29c-1.63-.25-3.27-.48-4.92-.65a17.19,17.19,0,0,0-3.44,0c-2.64-6.59-6.65.35-9.82-.51-1.39-.38-2.85-3.73-4.14-4.68a11.28,11.28,0,0,0-5.68-2.08c-3.13-.35-5,0-7.82-1.37-2.6-1.26-4.5-2.76-7.54-3.31-4.68-.85-21.45-.64-19.36,7.94,3.09-1.8,4.19-2,7.53-.88,3,1,6.27.71,9.22,1.56s6.38,3,9.06,4.46c-6.87.55-13.26-3.81-20.16-3.22a27.61,27.61,0,0,1-9.87-.46c-3.84-.81-7.37-.89-10.94,1-4.12,2.18-9.36,6.37-10.5,11.18,5.09-3.1,11.55-.28,16.35-2.89-.48.26,3.27,3.54,4.91,3-2.42,2.37-5.42,1.34-8.18,2.69a11.33,11.33,0,0,0-5.61,7.61c-1,4.15,1.5,7.71,1.2,11.72,2.09-7.51,5.36-9.13,12.69-9.13,4.77,0,8.88-1.5,13.73-.93,2.39.28,4.81.07,7.21.29,3,.26,5.59,1.82,8.68,1.72,1.18,0,1.45-.8,2.32-1a1.57,1.57,0,0,1,.24,0,1.17,1.17,0,0,1,.27,0,4.36,4.36,0,0,1,.61,0l.42.06-.43,0a9.48,9.48,0,0,0-2.79,2.94,11,11,0,0,0-.87,1.88c-.11.28-.18.88-.3,1.38a2.1,2.1,0,0,1-.22.64c1.79-1.8,4.24-1.55,6.54-1.26l.55.08c4.2.53,4.79-2.19,8-2.81.31-.06.62-.12,1-.16a65,65,0,0,1,6.71-.34,2.83,2.83,0,0,1,1.39.45c.78.61.6,1.75,1,2.58a1.19,1.19,0,0,0,.09.15h.09a1.11,1.11,0,0,0,0-.19,6.61,6.61,0,0,0,.73-.19c-.15.16-.32.29-.46.43l-.19.14a.05.05,0,0,1,0,0v.1a.7.7,0,0,1,0,.16c0,.11,0,.22,0,.32a2.44,2.44,0,0,1,0,.27s0,.07,0,.11a1.75,1.75,0,0,1,0,.33,1.69,1.69,0,0,1-.08.34,2.26,2.26,0,0,1-.11.37,5.37,5.37,0,0,1-.8,1.42,11.66,11.66,0,0,1-2.9,2.92,10.6,10.6,0,0,1-1,.54,6.7,6.7,0,0,1-3.23.91,2.94,2.94,0,0,1-.51,0l-.1,0-.17,0-.08,0,0,0a5.16,5.16,0,0,0,1.21.68c2.4,1,6.19.72,8.33.41a4.85,4.85,0,0,0,3.91-2.33c.41-.79.47-2.34,1.14-2.93s2-.46,2.91-.61a10.35,10.35,0,0,0,3.51-1.19,8.62,8.62,0,0,0,1.47-1.2,23.23,23.23,0,0,1,2.37.49c5.09,1.4,9.69,4.11,14.58,6,7.18,2.79,14,6.41,21.22,9.16,12,4.56,37.51,16,57.42,17.67,13.41,11.08,25.57-6.85,29.74-16.39,8-18.38,20.24-32.83,33.6-48.79,27.57-32.95,51.71-74.69,95.21-87.92C541.36,459,504,454.16,481,444.89ZM301.14,569h0s0,0,0,0,0,0,0,0l.06,0a1.26,1.26,0,0,1,.17-.11C301.3,568.82,301.21,568.89,301.14,569Zm1.81-1a3,3,0,0,0-.6.37.73.73,0,0,1,.16-.15,2.52,2.52,0,0,1,.25-.21h.16a.09.09,0,0,1,.06,0Z"/><path class="cls-1" d="M195.14,79.5a24.57,24.57,0,0,0-1.59-3.31c-2.26-4.09-6.73-2.63-11.22-2.07a93.58,93.58,0,0,0-23.6,5.74c-7.44,2.94-13.76,6.64-22,6-1.48-.11-2.7-.63-4.19-.58-.91,0-2.64.85-3.31.79-4.23-.37-4.91-7.85-5.55-11.14-1.08-5.46,1.21-13.23,3-18.4,4.26-11.91,12.35-22.15,21.56-30.65,11.4-10.53,26.14-12.72,40.3-17.4,6.67-2.2,13.11-5,19.79-7.18,6-1.93,12.48-1.28,18.74-1.08a229.93,229.93,0,0,1,39.22,4.61c61.45,12.68,75.26,68.25,100.52,115.18,22.62,42,26,99.78,70.75,126.91,16.32,9.9,34.39,15.63,50.3,25,7.27,4.28,9,7.27,16.9,8.44,8.91,1.31,19.73-2.75,29.18-1.77,13.2,1.38,26.39,1.8,39.66,2.25,20.11.69,37.48,8.94,58.14,7.3,24.68-2,49.33-6.39,73.79-10.1,49-7.44,98.27-15.13,148-14.95,86.15.33,170.27,17.19,252.87,41,59.11,17,126.24,22.14,186.9,31,49.62,7.26,98.46,19.46,148.32,25.33,43.1,5.07,86.47,7.33,129.62,11.85,72.42,7.58,145.12,12,217.09,23.64,9.14,1.48,23.82,3,9.79,9.31-12.2,5.45-36.44-.11-49.84.35-53.83,1.87-102.54,10.49-155.23,21.14-79.57,16.07-160.9,17.76-241.4,24.84-20.7,1.82-41.31,1-60.36,11.17-10,5.37-18.6,13-28.47,18.64-27.73,15.75-56.89,32.25-86.66,43.82a434.51,434.51,0,0,1-94.51,25c-28.25,4.12-62.45,13.53-90.69,13.5-17.37,0-33-8.78-50.84-7.37-22.32,1.77-44.7,8.69-67,11.47-30.9,3.86-67.14,4.91-98.22,4.49-19.32-.26-38.79-5-58.07-6.25-50.77-3.17-93.23-22.3-142.72-31.49-23.78-4.41-52.08-.51-74.54-6.76-28.25-7.85-64.53-29.51-84.42-51.11-22.62-24.54-34.67-57-47.12-87.35-12.68-30.95-31.65-59.87-43.07-91.2-8.72-23.93-13.8-49.94-17.79-75.17-1.87-11.79-2.17-22.55-4.28-34.66-3.39-19.4-5.7-41.66-16.13-58.7-2.56-4.17-4.75-6.32-5.9-11.38-.51-2.27-.18-5.54-1.34-7.63-1-1.8-2.66-2.15-3.52-3.37-2.15-3-2.22-6.25-4.1-9.4-2.79-4.67-1.87-1.52-6.26-2.17-11.19-1.66-15.57,0-24.65,5.77-8.18,5.24-20,8.42-29.53,6-4.12-1.05-8.36-1.66-12.54-2.48-14-2.71-27.85.13-42,0-5.38-.07-14.55.87-17.94-4.43-1.45-2.25-4.47-7.22-4.52-9.66,4.79.76,10.62-2,15.22-3.21,5.55-1.43,11.22-2.41,16.8-3.79a70.81,70.81,0,0,1,19.18-1.71c3.08.07,7,.5,10,0A8.51,8.51,0,0,0,195.14,79.5Z"/><path class="cls-8" d="M592.55,473.59c8.53-9.69,12.38-23,19.92-33.57,9.74-13.59,23.58-22.72,35.12-34.62,14.71-15.17,23.5-37.13,39.89-49.95C660.62,354.05,641,403,618.9,416.28c-9.9,5.94-32.52,11.15-36.11,24.55-2.92,10.92,12.3,22.62,12.46,34.66"/><path class="cls-1" d="M684,551.55c52.78-2.17,89.9-58.81,125.65-91.31,20.42-18.58,51.9-46.57,62-72.86-21.33,25.09-34.28,61.37-49.62,90.56a232.2,232.2,0,0,0-18.38,45.56c-2.82,9.92-3.79,29.09-10.43,37.13-8.94,10.84-31,4.24-46.28,4.15-14.38-.08-31.65.35-45.59-3.07-11-2.7-23.13-13.39-34.29-6.72"/><path class="cls-9" d="M195.47,95c13.08-.4,21.55-3.67,31.48-11.83,0,.71.19,1.51.22,2.21,5.2,2.43,21.38-6,24.78-9.76,2.25-2.5,3.31-6,6-8.26s8.12-1.7,9.62-5c-.51,1.1,16,6.48,19.33,3.74,20.49,22.88,30.15,52.09,33.21,82.66,3,29.68,4.41,65.25,17.19,92.53,11.49,24.56,21.28,48.89,31.46,74.26,9.08,22.63,17,44.76,27,66.67,6.69,14.65,11,35.54,21.66,47.76,11.44,13.09,28.31,12.07,42.47,19.13,14.75,7.35,29.21,22.53,40.3,34.63,8.31,9.08,11.5,14.11,22.35,18,15.42,5.57,31.49,5.81,47.58,3.75,4.86-.62,12.33-.3,16.27-3.63,4.77-4.05,6.77-14.76,7.28-20.58.61-6.92-1.06-8.9,4.48-11.72,7.12-3.64,14.52-5.23,21.12-9.66,4,8.66,12,4.43,19.27,4.21,3.76,6.66,14.53,10.65,21.73,12.37,7.37,1.76,15.3,1.85,22.88,2.2,4.65.21,13.66-1.26,17.84.5,19.16,8,39.54,20.32,61,19.75,20.83-.55,44.55-11.13,62.9-20.4,14.75-7.45,25.39-17.35,41.49-22.27,17.86-5.45,36.47-7.38,55-9.56,45.58-5.37,91.44-7.89,137.25-10.32,41.85-2.22,81-4.51,122.29,1.8,19.95,3,38.89.62,58.15-4.9,23.35-6.68,45.58-6.2,69.39-9.43,43.87-5.94,88.78-4,132.89-5.76,72.26-2.93,143.57-3.28,214.73-16,28.72-5.14,53.75-7.18,82.54-5.6,19.56,1.08,38.71,5.62,58,8.72-15.63,5.07-32.06-.16-48.29.4-53.83,1.87-102.54,10.49-155.23,21.14-79.57,16.07-160.9,17.76-241.4,24.84-20.7,1.82-41.31,1-60.36,11.17-10,5.37-18.6,13-28.47,18.64-27.73,15.75-56.89,32.25-86.66,43.82a434.51,434.51,0,0,1-94.51,25c-28.25,4.12-62.45,13.53-90.69,13.5-17.37,0-33-8.78-50.84-7.37-22.32,1.77-44.7,8.69-67,11.47-30.9,3.86-67.14,4.91-98.22,4.49-19.32-.26-38.79-5-58.07-6.25-50.77-3.17-93.23-22.3-142.72-31.49-23.78-4.41-52.08-.51-74.54-6.76-28.25-7.85-64.53-29.51-84.42-51.11-22.62-24.54-34.67-57-47.12-87.35-8-19.46-17.27-38.33-26.55-57.19-16.77-34.06-28.38-60.53-33.21-98.61-2.91-23-7.5-49.32-11.47-72.32-2.32-13.45-4.66-22.51-12-34-2.64-4.16-3.12-8.13-4.83-12.56s-4.64-8.82-6.81-13.37c-2.66-5.58-5.78-5.47-12.31-5.79-17.79-.86-30.71,16.71-49.43,12-4.12-1.05-8.36-1.66-12.54-2.48-13.95-2.71-27.83.13-41.94,0-4.56-.06-19.07,1.65-18.44-6,9,3.06,22.66-3.1,32-3.69C178.82,94.66,187.14,95.21,195.47,95Z"/><path class="cls-9" d="M572.77,508.93c13.91-12.66,42.23-4.78,60.08-7.9,11.86,11.25,20.56,26.46,29.34.41,3.89,6.22-2.69,14.48,6.86,17.92,9.36,3.37,13.75-6.24,17-12.71,2.81,14.59,13,6.27,19.64-.29,8.2,8.69-8.44,40.12,12.55,37.14,4.26-8.09,6.22-17.1,11.9-25-1.71,6.18-3.8,24.19,4.68,25C747.47,544.73,758.51,506,766,497.7c-1,20.56-12.51,35.78-1.77,56.68,17-6.49,17.19-46.53,19.5-61.93-.9,8.27-14.37,59.77-3,63.35s16.07-45.69,17.23-53.38c-1.16,13.86-.83,28.06-2.22,42.26,11.46,2.78,16.88-22.43,20.92-29.27-1.24,4.47.75,6.51,1.53,9.44,9.6-5.42,13.85-10.9,18.15-21.05,3.3-7.81,8.52-17.26,11-24.84,1.79-5.41,1.09-11.37,3.9-15.58.32,14-6.74,35.91-2.86,49,4.16,14,23.67,14.28,36.42,14.19,17.29-.12,37.86,3,54.78-1.33,14.31-3.64,22.76-15,35.88-19.61,23.37-8.28,47.78,5.25,68.55-5.42,4.8,10,16.08,23,27.86,24.65,19,2.58,12.7-11.85,22-21.5,6.2,1.47,9.86,7.34,16,8.83,14.23,3.43,20.6-7.87,30.42-14.62,1.14,14.86,16.7,9.06,24.79,2,13.48-11.74,34.32-38.64,38.42-55.73,2.26,14.21-7.33,38.7,5.31,51.92s16.13-18.41,24.14-25.24c-.26,12.31,17.18,7.76,21.91,2-.1.13.55,10.08-.64,12.49-2.55,5.16-9.45,8.53-14.2,11.15-28.8,16-59.34,26.45-90.66,36.05-18.37,5.63-34.24,13.44-53.37,16.52-21.85,3.53-43.61,8-65.2,12.8-29.14,6.53-58.17,2.38-87.43-1-20.71-2.43-37.38-3.79-57.32,2.16-37.44,11.17-72.83,10.17-111.09,9.65-19.32-.26-38.79-5-58.07-6.25-42.9-2.68-83.29-17.91-124.79-27.71-11.1-2.62-26.78-1-25.94-15A20.43,20.43,0,0,1,572.77,508.93Z"/><path class="cls-9" d="M718.49,567.11c-10.31-10.29-32.82-17.68-47.29-25.48C655,532.91,627,513.09,621,495.49c-24.65,14.1-72.44,15.68-98.47,6.27-10.85-3.92-14-8.95-22.35-18-9.64-10.52-29.83-41-45.74-32.18-15.2,8.42-10.72,35.88-37.71,25.73-.45-.71-.43-.74.08-.09,19.22,24.3,53.31,42.42,82.78,50.61,22.46,6.25,50.76,2.35,74.54,6.76,49.49,9.19,92,28.32,142.72,31.49,19.28,1.2,38.75,6,58.07,6.25,31.08.42,67.32-.63,98.22-4.49,22.31-2.78,44.69-9.7,67-11.47,17.79-1.41,33.47,7.35,50.84,7.37,28.24,0,62.44-9.38,90.69-13.5a434.51,434.51,0,0,0,94.51-25c45.57-17.71,84.89-41.94,124-70.38-16.91,4.26-56.07,3.26-66-14.72,1.89-1.5,3-3.46,5.39-4.64-13.43,7-28.79,5.81-43.21,9h0c-18.85,4.18-20.42,14.21-35,23.68-28.3,18.36-70.47,15.17-102.64,16.53-45.09,1.92-90.7,4.31-134.31,16.87-28.74,8.28-78.26,10-100,32.34-10.66,11-13.44,21.19-27.88,27.29-23,9.71-62.11,14.31-85.78,3.11"/><path class="cls-10" d="M1029.46,303.81c-30-11.81-65.21-30.32-98.51-26.94-38.09,3.88-68.8,26.16-81.61,61.51-10.14,28-16.2,57.11-23.78,85.81-6.78,25.66-16.69,46.81-25.87,71.57-4.38,11.82-8.67,24.26-13.11,34.57-14.81,34.32-13.66,76.44-11.66,113.23.74,13.73,1.61,27.67,2.23,41.42,1,22.35,2.35,57-11.07,76-8.5,12.07-17.51,32.13-32.55,34.81,3.7,12.54,20.51,12.67,27.92,21.77,8,9.84,1,16.11,17.32,9.61,12.86-5.11,14-7,22.07-17.94,9-12.22,23.88-19.15,32.48-31.63,10.86-15.74,2.17-31.72,5.58-49.4,4.27-22.1,6.2-44.73,8.64-67.06,2.21-20.2,2.34-42.09,13.14-60C885,560.67,929.41,532.85,968.09,507c27.56-18.44,76.65-20.72,109.28-24.05,17.18-1.74,55.85-2.82,67.67-15.08-2.55-1.13-4.41-2.58-6.91-3.8-3-1.45,48-31.94,48.74-34.07,4.55-13.23-13.34-20.93-22.11-27.5-20.38-15.26-41.54-28.22-63.1-41.72-5.42-3.4-16-8.45-20-13.63-2.05-2.65,1-6.46-.54-8.53C1069.39,323.4,1047.63,311,1029.46,303.81Z"/><path class="cls-11" d="M1033.58,473.21c-40.44,3.73-78,8.26-114.38,26.57,11-14.13,35-25.85,51.3-34.16,20.64-10.53,38.54-25.41,58.23-36.51C996.32,434,969.11,451,942.32,468.4,929.2,477,915.85,488,901.19,493.85c-9,3.59-23.84,1.73-30.71,9.8-3.59,4.21.13,13.48-3.62,19.26C859.47,534.26,843,534.74,832.3,541c13,13.35,2.91,18.06-2.3,30.49-6.56,15.66-4.07,31.36-19.62,42.49,34.24,11.15,17.65,65.13,15.82,89.17-1.29,16.88,2,37.47-3.49,53.61-5.84,17.19-23.75,22.35-36.27,34-5,4.64-17.12,14.69-18.82,21.35-1.16,4.55,6.9,12,1.81,16.38,5.74-4.91,13.46-4.2,19.07-8.1,7.21-5,10.16-14.58,16.87-20.58,7.23-6.46,16.77-9.61,23-17.37,8.51-10.63,7.56-24.17,8.7-37.14,3-34.49,8-68.78,13.18-103,2.27-14.84,2.83-28.48,10.44-41.15C885,560.67,929.41,532.86,968.08,507c45.15-30.21,101.39-14,149-32.27-3,1.16-23.07-7.41-28.86-7.46-9.66-.07-20.57,3.66-30.57,4.19Q1045.5,472.1,1033.58,473.21Z"/><path class="cls-12" d="M556,434.53c-4,6-10.86,6.59-22.87,2.64-8.58-2.82-24.81-9.64-23.21-21.23-1.51,0-1.19,2-3.71,1.35-7.44-16,10.78-35.45,21.52-45.87.75-.64.74-.66-.06-.07-7,7.53-48.63,50.32-39.7,19.65,7.17-24.6,49.91-47.57,69.43-61.39-30.31,20.54-70.1,29.77-88.82,62-16.38,28.23-19.37,42.09-8.42,71.82,10.08,27.34,20.89,51,48.15,65.85,23.27,12.63,54.14,10,73.21,30.41,12,12.79,20.76,31.44,9.63,45.15-12.91,15.91-31.62,21.72-46.9,33.92-3.91,3.12-6,5.48-10.88,6.91,1.41,3.8,2,8.16-1.24,11.29,8.66,2.12,2.66,5.71.14,8.14-1,1-8.53,11.8-8.19,11.72,4.27-.91,7.67-3.1,11.73-4.56,2.9-1,6.07-1.1,8.87-2.11,4.67-1.67,9-10.17,13.68-5.63,4.69-3.21,7.21-7.61,12.32-10.47,4.6-2.58,9.77-3.89,14.59-6,7.07-3.06,14.48-5.29,21.53-8.39,18-7.92,70-26.73,64.77-50.49-2-9.08-11.3-17-16.56-24.09-11.23-15.17-21.84-30.32-33.62-45-10.42-13-18.34-27.83-26.52-42.26-2.6-4.59-9.4-12.65-10.46-17.52-2.43-11.13-.79-21.24,6.55-30.1,9.69-11.7,17-5.7,29.52-12.61,10.37-5.75,15.26-20.32,22.25-29.44A145.83,145.83,0,0,1,676.4,356c-14.88,10-24.26,12.5-37.33,25.15-12.71,12.31-22,18.79-39.86,20.06-6.77,21.74-21,21-38.8,17C559.65,425.63,558.33,431,556,434.53Z"/><path class="cls-11" d="M514.29,506.27c-19.66-14.94-49.45-32.38-54.55-57.94-7.89,30,24.49,67.91,48.58,81,23.27,12.63,54.14,10,73.21,30.41,9.66,10.32,18.29,25.28,13.26,39.72-.87,2.48-22.51,27.06-16.31,28.62,10,2.5,22.63-19.09,24.68-26.59,3.48-12.77-.86-28.22-6.81-39.57-14-26.77-56.23-35.54-80.19-54.21Z"/><path class="cls-9" d="M601.16,444.91c-9.72,5.94-20.81,15.28-29.34,23,11,9,27.27,32.11,39.83,35.64,2.8-62.31,74.59-92.33,88.15-151.52-17.12,14.2-35.53,28.33-51.52,45.36-14.41,15.34-33.31,44.81-52.6,53,3-2.54.45-2.94.45-4.58"/><path class="cls-11" d="M1105.87,316.31c10.85,10,29.23,13.23,42.15,21.35,9.72,6.1,17.85,14.68,28.5,18.42-10.75-34.19,87.53-13.53,103.27-12.42-31.34-14-71.37-7-105.34-10.51-20.7-2.15-55-8.86-71.53-18.92"/><path class="cls-11" d="M461.94,316.15c5.39,9.05,3.25,23.71,11.1,32.52,20.34-30.15,61.53-33.85,93.16-44.74-35.12-3.55-73.05,31.37-105.86,12"/><path class="cls-11" d="M136.21,65.51c-2.27-7.82,5.23-16.84,11.17-21.23,3.07-2.26,5.71-3.49,9.18-1S160,50.81,162.2,54c2.54,3.72,6.85,2.91,10.68,2.24,8.62-1.51,8.36-3.57,12.53-10.63,2.66-4.5,4.16-7.54,4.9-12.72.52-3.7,1-6.93,3-10.22,3.65-6.16,11.32-8.71,18.15-10,7.05-1.31,8.62.06,10.87,6.4,1.77,5,3.11,9.67,4.52,14.61,1.21,4.26,3,10.55,7.34,12.79,5.41,2.81,13.11-1.14,14.8-7.17,1.54-5.48-1.63-20.69,7.5-20.46,2.72.07,4.61,2.56,6.4,4.22,2.82,2.63,8.52,5.84,10.34,9.14,5.92,10.83-18.73,18-25.06,19.93-5.55,1.71-13.64,1.64-18.58,4-1.59.77-14.26,12.64-12,13.12-10.09-2.16-18.42-10.22-29.28-10.54-7.44-.22-15,1.7-22.17,3.29-8.74,1.92-17.93.45-26.3,1.91-1.37.24-3,1.32-4.33,1.82,0,0-.46-.86-.44-.84.63-.53.37-.93.7-1.58"/><path class="cls-13" d="M226.81,33.69A31,31,0,0,0,231.48,44c5.56,7.52-3.81,3.71-7.51,3.3-5.48-.61-10.79,3.34-17.25,2-3.84-.77-9.75-3.66-13.42-2.74a19.68,19.68,0,0,0,1.84,5c.19.16.2.14,0,0-3.63-1.24-6.62-8.2-9.74-4.43,5.69-6.63,3.31-16.86,7.83-24.49,3.66-6.16,11.32-8.71,18.15-10,7.05-1.31,8.62.06,10.87,6.4C224.06,24.08,225.4,28.74,226.81,33.69Z"/><path class="cls-14" d="M150.43,57.56A74.41,74.41,0,0,1,142,60.35c-6.75-5.35,7.6-17.87,13.82-16.18-2.7.68-9.38,3.16-10.7,6.28-2.27,5.36,4.16,3.62,5.82,7.18a3.89,3.89,0,0,1-3.93.67"/><path class="cls-15" d="M199.48,27.52c-1.11,3.65-2.94,6.28.48,9.32,2.1,1.86,7.16,3,9.95,2.33,6.61-1.57,7.38-13.71-.51-14.79-3.16-.43-9.71.76-10.87,3.84"/><path class="cls-14" d="M205.78,24.68c-3.38,2.47-2,10.87.46,13.77,2.6-3.09,3.27-12.2-1.28-13.89"/><path class="cls-16" d="M205.56,23.39c-3.24-2.1-7.3,3.05-7.69,6.28,4.35-4.3,15.85-7.71,16.26,1.1.2,4.19.09,7.52-4.45,8.32-3.2.57-9.53-.07-11.82-2.61,2.25,3.55,3,4.91,7.18,5,3.6.07,9.78.35,13.1-1.08,2.27-1,2-.24,2.59-3.21.44-2.27-.33-5.31-.6-7.62-.48-4.06,0-6.89-4-7.95-4.28-1.13-10.07.54-14.26,1.22"/><path class="cls-13" d="M254.38,42.48c-1.06-4.61-2.56-10.11-.43-14.69,1.1-2.39,5.62-7.76,7.7-3.95-8.16-3.2-6.29,16.45-6.21,19.6a2.5,2.5,0,0,1-1.57-3.14"/><path class="cls-13" d="M175.64,74.37c2.88-1.21,10.61-1.52,13.72-.43,3.49,1.22,5.15,4.73,7.09,7.37,4.18-2.47,8.91-4.81,13.82-5.14-5.84-5.56-16.48-5.6-24-5.26-3.62.17-9.24,1.41-12,4.35,2.27-2.21,5.62-2.62,8.57-3.61"/><path class="cls-11" d="M276.28,11.3c5.5,3.39,8.58,8.25,11,14.22,5.8-5.48,16.4-1.43,22,3.49-5.22-5.28-14.73-7.43-21.37-11.34-4.42-2.6-7.48-5.63-12.28-7.36-.08-.65.21-1,.59-1.53"/><path class="cls-11" d="M203.81,102.56c5.07-.63,9.51,1.46,14.45-.07a136.63,136.63,0,0,0,17.82-6.57c10.85-5.19,21-14.23,25-25.86-1.87,4.41-5.11,6.55-8.75,9.64a94.7,94.7,0,0,1-23.16,14.57c-9.91,4.37-20.28,5.5-30.55,7.79,1.2.53,2.63.48,3.75,1.09"/><path class="cls-11" d="M271.15,70.69c4.53.57,10.32,1.07,14.39,3.13,9.34,4.75,11.43,14.8,13.1,24.33A244.13,244.13,0,0,1,302,140.84c0,11.91-2.68,23.77-2.62,35.59.46-3-.71-6.31-1.15-9.33-.82-5.6-.52-11-.22-16.63a132.42,132.42,0,0,0-4.16-40.72c-3-11.07-8.3-22.24-15.72-31.09-2.42-2.9-5.39-6.85-9.13-8"/><path class="cls-17" d="M478.15,384.67c-9.62,23.71-27.12,48.56-6.95,71.68,14.08,16.13,30.22,28.55,47.79,40.77,14.92,10.37,34.79,17.16,47.25,30.57C553.4,515.34,538.83,503.2,525.63,490c-6.94-6.94-16-12.44-21.68-20.6-7.73-11.15-3.78-11,7.4-7.63-4-6.8-12-10.44-17.11-16.35-6.95-8-15.14-20.26-18-30.44-3-10.76,6.65-28.11,2.81-36.49"/><path class="cls-18" d="M969.81,488.14c18.67-5.3,36.93-10.65,56-14.82,15-3.28,45.61-9.58,59.08-2.35-20-.92-41.43,4.66-61.46,7.2-10.16,1.29-20.7,2.13-30.74,4.17-8.4,1.7-16.48,5.67-25.28,3.64"/><path class="cls-19" d="M953.68,289c-34.31,1.53-63.2,32-79.24,59.64C866.08,363,861.07,379,854.73,394.23c-2.84,6.82-7.35,13.28-9.61,20.24-1.67,5.14-1,9.89-3.94,14.78,13.24-25.52,30.42-59.36,50.85-82.36,6.56-7.38,11.25-8.58,19.93-12.17,8.34-3.45,9.8-8.7,15.58-14.43,10.26-10.17,23.26-15.28,36.33-20.72-3.68-1.24-17.29.25-19.24-1.63-6.44-6.24,4.74-8.59,8.54-8.44-.88-.94-1.75-2.22-2.52-3.11"/><path class="cls-19" d="M316.63,55.5a22,22,0,0,1-.64-5.68c12.27,7.09,24,30.63,30.52,44,19.69,40.53,42.33,82.26,52.57,127.45,7.15,31.55,15.82,62.2,33.15,89.6-4.15-5-12.58-8.56-15.9-12.91-4.39-5.76-4.47-14.2-6.89-21.67-8.23-25.43-16-51.1-23.47-76.81-7.84-26.89-16.41-53.72-31.62-77.45-7.93-12.38-14.65-25.43-21.62-38.37-6-11.1-12.73-26.59-20.3-36.51-7.36-9.64-20-10.59-28.54-18.41-5-4.57-3.6-9.32-9.24-14.16-6.8-5.85-20.55-6.59-28.6-6,16.95-10.4,30.49,6.35,40.82,15.9,12.6,11.65,24.26,12.51,31.37,30.86"/><path class="cls-19" d="M528.54,343.85c12.17-.68,26.22-13.31,38.61-17.47,15.48-5.2,33.5-6.79,48-11.2-16,5.17-39.38,7.9-53.46,17.74,7-1,14-3.23,21.1-4.62-25.12,13-49.23,25.3-73.35,39.77,1.77-6.93,10.23-12.57,15.14-18.05-6.19-1.34-13.29,2.68-17.72,4.8,8.35-7.23,18.64-13.74,29.08-16.41"/><path class="cls-19" d="M327.34,140.94c1.85,20.71,3.77,52.68,16.15,68.8,10.64,13.85,19.27,29.85,25.93,43.7-5.35-20.94-16.06-39.54-23.87-59.38-6.66-16.89-12-34.82-19.87-50.76"/><path class="cls-11" d="M857.84,364.45c3.82,18.64-9.3,48.34-16.34,65.6-6.22,15.27-17.58,35.73-32.64,44,23.29-26.36,47.43-73.74,44.56-111.73a12.94,12.94,0,0,1,4,4.72"/><path class="cls-19" d="M722.24,387.3c-1.73,10.84-10.75,16.61-14.73,26.29-3.52,8.56-1.58,8.85.65,17.38,4.52,17.22,4.27,33.9,3.77,51.22,2.76-17.85,5.2-32.34,2.05-49.62-1.32-7.24-4.17-11.78-2.63-18.43,1.73-7.45,8.86-18,12-25.37"/><path class="cls-19" d="M408.17,361.13c7.94,10.77,10.8,24.43,16.6,36.15,1.29-6.17,1.34-13.35,4.45-18.59-7.85-8.38-21.28-16.64-24.63-28.56"/><path class="cls-19" d="M657.35,296.43c15.17-9,34.12-5.52,50.74-6.74,16.33-1.2,33.08-2.86,49.23-5.42,32.86-5.19,66.07-3.1,100.15-3.78,16.88-.34,34.35-1,50.68-1.11-14.27-4.32-37.59-1.21-53.3-1.45-18.41-.28-35.94,2.06-54.09,4.68-35.28,5.1-72,6.3-107.29,8.77-21,1.47-43.08.41-63.38,3.58"/><path class="cls-19" d="M1176.84,392.67c10.21-22.39,59.07-18.74,78.72-22.22,37.38-6.61,75.11-8.48,113.09-6.58,93.27,4.65,186,24.36,279.74,23.6-30.78-4.32-64.22-5.89-96-9.15-37.61-3.87-75.9-6.86-113.88-10.64-36.78-3.66-72.61-11.43-109.46-12.08-29.27-.52-58.31,1.33-87.67,1.3-11.65,0-28.83-4-39.85-1.1-7.3,1.93-6.14,5.35-12,8.73-23.48,13.64-57.16-17.35-83.24-13.84,26.83,7.9,48.1,26.35,66,46.05,2.18-5.39,7-9.6,9.87-13.73"/><path class="cls-19" d="M842.58,317.35c-30.08-14.68-80.13,8.46-110.74,16.27,5.12-13.65,25.9-20.79,34.26-30.49-28.79,13.71-55.24,30.86-85.45,41.32,19.15.75,20.38,15,13.48,29,8.11-10.83,15.83-26,27.53-34.18a86.27,86.27,0,0,0-.58,13.68c0-1.41,5.82.58,6.51,1.16C758.26,324.42,801.73,320.12,842.58,317.35Z"/><path class="cls-11" d="M217.41,107.45c6-3.09,13.11-4.64,19.28-7.18a94.52,94.52,0,0,0,12.8-6.06c3.75-2.26,7.12-6.6,10.79-8.26,2.16,6.75,5.56,8.23,12,6.27.95,7,3.15,19.11,11.45,13.91,2.4,2.7.33,8.18.51,11.62A20.65,20.65,0,0,0,287,127.88c-6.63-.74-4.77-12.2-6.76-16.21-1.18-2.38-3.9-3.64-5.41-6s-1.8-6-3.67-8.13c-3.83-4.28-14-3.58-19.39-1.63-6.07,2.18-11.2,5.84-17.07,8.5a40.09,40.09,0,0,1-10.53,2.88c-3.42.56-8.77-.53-11.9,1"/><path class="cls-20" d="M802.72,490.31c7.18-11.1,28.37-18.16,40.15-10.38"/><path class="cls-21" d="M726.28,796.19c-2.36.4-3.55.74-5.55-.82-1.48-1.16-1.91-2.91-3.54-3.94a17.58,17.58,0,0,0-7.6-1.9,45,45,0,0,0-14.67,3,35.13,35.13,0,0,0-14,10c-4,5-5.14,9.42-3,15.26,1.54-4.16,8.33-9.69,12.55-10.65,1.93-.43,5.71-2.08,7.53-2.07,1.53,0,3.14,1.8,4.69,2.4,2.59,1,4.6,1.41,7.13.12,3-1.55,3.11-1.35,6.75-.59,3.21.67,6.57-1.41,9.53-.75,2.35.52,3.32,2.72,6,3,7.54.66,10.71-6,13.48-11.56,1.19-2.4,3-4.14,4.32-6.38A82.76,82.76,0,0,0,756,777.64c-3,3.81-6.52,7.3-9.82,10.93-2.62,2.88-5.8,5.79-9.71,6.8C733.22,796.22,729.6,795.61,726.28,796.19Z"/><path class="cls-4" d="M694.92,792.52a35.13,35.13,0,0,0-14,10c-4,5-5.14,9.42-3,15.26,1.54-4.16,8.33-9.69,12.55-10.65,1.93-.43,5.71-2.08,7.53-2.07,1.53,0,3.14,1.79,4.69,2.4,3,1.16,7.23,1.68,8.66-2s-2.59-6-5.21-7.86c-1-.71-3.77-2-4-3.1-.52-2.21,2.74-3.05-.54-3.89C699.94,790.16,696.5,791.88,694.92,792.52Z"/><path class="cls-13" d="M735.14,802.09c4.07,1.44,8.58-3,10.53-6.18-2.7,3.91-7.81,3.28-11.73,4.55s-8.66,1-12.82.71c-2.45-.21-5.31-1.27-7.76-.88-1.28.2-2.33.8-3.78.94-8.29.77-17.48.27-23.25,7.27,1.4-1.69,9.58-3.5,11.74-3.49,1.53,0,3.14,1.8,4.69,2.4,2.59,1,4.6,1.41,7.13.12,3-1.55,3.11-1.35,6.76-.59s6.4-.54,10-.88,5.29,3,8.88,3c5.6-.12,5.26-7.83,1.81-10.52a4.89,4.89,0,0,1-.39.4"/><path class="cls-22" d="M561.9,646.52a19.87,19.87,0,0,1-3.74-2.16c-1-.7-.49-.73-1-1.47s-2-2.78-3.07-2.66-3.35,2.89-4.32,3.78c-1.75,1.58-3.31,3.32-5.07,4.9a97.24,97.24,0,0,1-8.52,6.73c-1.9,1.37-4.38,2.25-6.08,3.79-1.24,1.12-1.77,3.05-3.11,4-1.11.78-1.49,0-2.85,0-3-.06-4.5,1.53-6.5,3.49-1.62,1.6-4.08,1.74-5.71,3.22s-2.92,3.78-4.43,5.51a23,23,0,0,0-1.61,1.67c-.38.52-.38,1.26-.66,1.68-1.57,2.29-5.29,2.31-7.63,2.41a28.09,28.09,0,0,0-12.12,3.79c-3,1.73-6.06,5.34-8,8.13-1.25,1.78-2.43,5.82,0,7.13,1.48-1.93,3.7-3.1,5.52-4.71,2.54-2.25,5.79-5.16,9.42-4.34,3.88.89,7.28,3,11.15.7a10.79,10.79,0,0,0,4-4.37c.49-1,.55-1.5,1.64-1.76s2,.2,3,.13a13.44,13.44,0,0,0,6.14-2.5c2.1-1.52,2.8-4.16,4.93-5.55,2.38-1.55,4.7-2.3,6.85-4.32a6.35,6.35,0,0,0,2-2.46c.08-.26,0-1.12.12-1.27.48-.58,1.29-.37,2.12-.53,1.94-.38,3.32-1.71,4.75-3a40.92,40.92,0,0,0,6.14-6.48c1.35-1.86,2.47-1.89,4.52-2.78a91,91,0,0,0,8.4-4c1.57-.88,5.08-2.79,5.48-4.83.32-1.61-1.81-1.91-3-2.42"/><path class="cls-4" d="M503.69,692.46c2.5-.66,7.23-6.41,4.65-9-1.07-1.07-4-1.28-5.44-1.73-2-.65-2-1.49-4.82-1.3-8.42.54-15.81,6-20.59,12.86-1.25,1.78-2.43,5.82,0,7.13,1.48-1.93,3.7-3.1,5.52-4.71,2.54-2.25,5.79-5.16,9.42-4.34C495,692,500.07,693.42,503.69,692.46Z"/><path class="cls-5" d="M539.11,666.49c2.4-2.14,4.86-4.37,6.28-7.28-2.07.74-3.28,2.7-5.1,3.87-2.23,1.43-5.15,1.64-7.13,2.83-3.45,2.09-5.24,10.41-10.49,8.72-1.74,3.53-9.42,10.76-13.65,7.34-2.17,1.24-3.17,4.13-5.48,5.38-3.17,1.73-8.17,2.32-11.7,2.35,1.3,4,8.69,4.21,11.75,2.4a10.79,10.79,0,0,0,4-4.37c.49-1,.55-1.5,1.64-1.76s2,.2,3,.13a13.44,13.44,0,0,0,6.14-2.5c2.1-1.52,2.8-4.16,4.93-5.55,2.38-1.55,4.7-2.3,6.85-4.32a6.35,6.35,0,0,0,2-2.46c.08-.26,0-1.12.12-1.27.48-.58,1.29-.37,2.12-.53C536.3,669.09,537.68,667.76,539.11,666.49Z"/><path class="cls-23" d="M566.33,650.81c-.21-2.11-5-2.14-6.45-1.81-2.36.55-4.27,2.33-6.1,3.81-4.79,3.9-9.83,7.1-14.1,11.67a16.9,16.9,0,0,1-4.52,3.78,3.36,3.36,0,0,0-1.85,1.74c-.16.38-.11,1.27-.33,1.55s-1.22.54-1.64.76c-.9.47-1.72,1.13-2.59,1.65-1.72,1-3.55,1.88-5.26,2.92a31.23,31.23,0,0,0-7.57,6.9c-1.52,1.76-3.29,2.72-4.28,4.87-.37.8-.78,2.77-1.44,3.37-.89.81-2.88,0-4.13.19a13.09,13.09,0,0,0-7.78,4.23c-2.91,2.93-7.36,11.32-3.86,15.15,2-1.38,3.23-3.71,5.46-4.87,3.27-1.7,8.08.41,10.18-3.33a30.27,30.27,0,0,1,6.08-7.9,8.11,8.11,0,0,1,2.26-1.26c2.1-1,2.86-2.38,4.23-4.08a12.63,12.63,0,0,1,2.46-1.89c1.89-1.49,3.47-3.33,5.33-4.87,2.31-1.91,5.27-2.63,7.39-4.87.82-.86.47-1.58.94-2.35.58-.95,2.73-2,3.65-2.65,1.81-1.36,4-2.7,4.88-4.9.57-1.37.44-2.36,1.79-3,4.59-2.33,7.32-5.81,10.4-10,.83-1.11,1.43-2.67,2.72-3.3s3.36-.48,3.74-2.41a9.2,9.2,0,0,0-1.22-.41"/><path class="cls-4" d="M506,692.53l-.31-.11c-2.27-.79-6,2.62-7.35,4-2.91,2.93-7.36,11.32-3.86,15.15,2-1.38,3.23-3.71,5.47-4.87,2.44-1.27,8.12.14,9.65-2.55s-1.92-3.63-2.58-5.83S508.54,693.66,506,692.53Z"/><path class="cls-5" d="M542.41,673.52c-.92.69-3.07,1.7-3.65,2.65-.47.77-.12,1.49-.94,2.35-2.12,2.24-5.08,3-7.39,4.87-1.86,1.54-3.44,3.38-5.33,4.87a12.63,12.63,0,0,0-2.46,1.89c-1.37,1.7-2.13,3.09-4.23,4.08a8.11,8.11,0,0,0-2.26,1.26,30.53,30.53,0,0,0-6.09,7.9c-2.57,4.57-9.52.94-12,3.42,2.8-4.49,8-2.74,9.27-9.1,4.46.14,7.52-6.24,11.08-8.54a48.49,48.49,0,0,0,8-6.22,19.53,19.53,0,0,1,3.87-3.5c1.35-.72,2.48-.43,3.76-1.59,2.27-2,3.69-4.67,6.06-6.11,2.8-1.7,4.21-2.12,5.15-5.75a8.19,8.19,0,0,0,4.07.54C547,668.94,545.15,671.46,542.41,673.52Z"/><path class="cls-24" d="M561.16,653c2.15-2.58,5.14-3.7,8.12-4.94a5.26,5.26,0,0,1,.69,1.84c.21,1.41-.39,1.35-.88,2.29-.67,1.3-.22,3.6-.64,5.1a10.51,10.51,0,0,1-1.66,3.31c-.52.72-1.61,1.59-1.66,2.48s1,2,1.25,2.89a4.86,4.86,0,0,1-1.13,4.4c-1.58,2.08-4.93,5.76-7.66,5.93,1.42-.61,2.39-3.09,2.71-4.49a11.64,11.64,0,0,0,0-4.12,4.38,4.38,0,0,0-2-3.34c.33-.52.49-.63.48-1.21,0-1-.86-1.9-.84-3.06C558.05,657.34,559.46,655,561.16,653Z"/><path class="cls-4" d="M561.24,662.85h.16c1.49,0,2.16.95,3.5-.41.42,1.22,1.12,2.3,1.48,3.53a4.86,4.86,0,0,1-1.13,4.4c-1.58,2.08-4.93,5.76-7.66,5.93,1.42-.61,2.39-3.09,2.71-4.49a11.64,11.64,0,0,0,0-4.12c-.21-1.48-2.27-2.79-2.3-4.07C559.17,663.63,560.22,662.93,561.24,662.85Z"/><path class="cls-5" d="M558.42,658.29c-.25,1.14,1.37,1.58,1.55,2.76a4.91,4.91,0,0,0,1.07,2.64c1.48,2,2,3.08,1.82,5.66a7.37,7.37,0,0,1-1.05,3.8c-.87,1.3-2.45,3.17-4.18,3.13,1.54-.81,2.31-2.88,2.67-4.48a11.64,11.64,0,0,0,0-4.12,4.38,4.38,0,0,0-2-3.34c.33-.52.49-.63.48-1.21,0-1-.86-1.9-.84-3.06A8.26,8.26,0,0,1,558.42,658.29Z"/><path class="cls-25" d="M549.32,669.75c-1.86,2.7-.37,5-3.73,7.62-2.26,1.73-4.18,2.74-4.22,5.89,0-.44-.84-1.43-1-1.87a10.56,10.56,0,0,1-.7-1.95c-1.08-4.46,1.28-8.5,3.91-11.9.69-.9,2-1.58,2.52-2.49a7.91,7.91,0,0,0,.4-1.51,15.65,15.65,0,0,1,1.34-3.48c1.51-2.57,4.67-3.43,7-5a14.08,14.08,0,0,0,4.85-6.48,6.27,6.27,0,0,1,2,.18c.75.21,2.39.37,2.92.82-2.09.9-2.4,4.73-3.61,6.47-.87,1.25-2.09,2.18-3,3.35s-1.44,2.24-2.3,3.26C553.59,665.06,551.12,667.11,549.32,669.75Z"/><path class="cls-4" d="M549.11,669.76c0,.1,0,.2,0,.31a23.71,23.71,0,0,1-1.16,3.88,6.35,6.35,0,0,1-2.35,3.42c-2.26,1.73-4.18,2.74-4.22,5.89,0-.44-.84-1.43-1-1.87a10.56,10.56,0,0,1-.7-1.95,11.11,11.11,0,0,1,1-7.42,12,12,0,0,1,1.74-3c.26-.27,2.42-1.07,2.32-.86s-.06.58-.26.84C546,668.8,549,667.48,549.11,669.76Z"/><path class="cls-5" d="M549.32,669.75c-1.85,2.7-.37,5-3.73,7.62-2,1.51-4.2,3.08-4.21,5.82-1-1.34.09-3.79,1.06-4.88,1.33-1.5,3.1-2.67,4-4.55a6.91,6.91,0,0,0,.2-2c.11-.87.51-1.68.62-2.55.06-.48-.36-1.38-.22-1.74s1-.68,1.41-.85c2.56-1.17,6.89-5,7-8,2.3-.46,3.73-2.51,5.88-3.17-.32,1.83-2.7,2.31-3.21,3.84-.32,1,.23,1.89.48,2.79a7.12,7.12,0,0,1,.11,2.52c-1.12-.06-1.83-1.32-3-1.2-.92.1-2,1.28-2.64,1.87A28.49,28.49,0,0,0,549.32,669.75Z"/><path class="cls-5" d="M4.79,426.17c-1.24,1.31-2.88,3-4.79,4.92C1.65,429.32,3.27,427.67,4.79,426.17Z"/><path class="cls-5" d="M6.39,424.6c-.42.41-.86.83-1.3,1.27l1.25-1.34C7.13,423.93,7.15,424,6.39,424.6Z"/><path class="cls-26" d="M668.15,832.78c-.89-8.22,1.31-12.95,8.51-16.82,3.38-1.82,7.25-2,10.51-3.9s5.71-3.74,9.34-4.83a77.54,77.54,0,0,1,27-2.84c2.14.15,4.1,1,6,1.06,3.55.17,7.06-2.13,10.14-3.47,4.26-1.85,7.66.38,12,.25,6-.17,13.91-3.23,18.27-7.59,1.8-1.8,3.42-3.45,5.34-5.18-4.9,2.94-7.84,9.9-9.94,15.06-1.36,3.35-1.83,8.24-3.93,11.18-3.12,4.38-6.38.2-10.11.08-1.86,0-2.25,1-3.82,1.87-4.6,2.52-13.35,3-18,.2-3.35-2-2.11-2.16-6.19-1.31s-8.48-.94-12.5.6c-2.09.8-3.81,2.61-6.15,2.8s-4.5-1.51-6.84-1.74-4,.86-6.43.69c-1.12,1.75-3.37,2.35-5,3.6-2.48,1.86-3.23,1.76-6.3,2.3-2.74.48-4,2.33-6.28,3.9-1.66,1.13-5.82,2.44-5.62,4.89-.61-.72-.34-1.12-.35-1.78"/><path class="cls-4" d="M668.15,832.78c-.89-8.22,1.31-12.95,8.51-16.82a19.17,19.17,0,0,1,6.53-2.27s4.43-.21,3.37.77c-.48.44-2,1.67-2.06,2.31-.27,2.23,1.1,1,1.82,2.35.82,1.51,1.26.43.46,2.14-1.07,2.27-4.5,3.15-6.67,3.53-2.74.48-4,2.33-6.28,3.9-1.66,1.13-5.82,2.44-5.62,4.89-.61-.72-.34-1.12-.35-1.78"/><path class="cls-13" d="M756.71,817.73c-1.77-.41-3.45-1.89-5.36-2s-2.25,1-3.82,1.87c-4.6,2.52-13.35,3-18,.2-3.35-2-2.11-2.16-6.19-1.31s-8.48-.94-12.5.6c-2.09.8-3.81,2.61-6.15,2.8s-4.5-1.51-6.84-1.74-4,.86-6.43.69c-1.12,1.75-3.37,2.35-5,3.6a14,14,0,0,1-8.71,2.63,39.68,39.68,0,0,1,10.47-8c1.6-.79,4-.74,5.75-1.17,2.52-.6,8.92-1.36,9.23-4.46.09-1,11.51,0,12.46-2.92,8.48,3.13,17.08,1.51,25.88,1.94,3.84.19,7.49-1.68,11.21-1.56,3.08.11,5.58.48,8.83.05.28,2.44.54,6.14-1.52,7.87A3.51,3.51,0,0,1,756.71,817.73Z"/><path class="cls-27" d="M757.91,821.89c2-1.55,4.08-3.11,6.09-4.7-2.35-2.93,5.48-8.29,6.61-11.06,3.13-7.6,6.64-15.27,12.62-21.48-5.1,4.62-12,8.17-16.35,13.52-1.92,2.37-1.17,5.08-2.86,7.33-2.73,3.63-9.12,2.77-13,3.55-5.88,1.18-10.88,5-17,5.4-4.57.28-8.16-2.25-12.54-1.86-2.9.25-4.49,1.72-7,2.62a18.12,18.12,0,0,1-6.9.72c-5-.19-8.53-.28-13.23,1.9-1.59.74-3.21.74-4.75,1.33s-1.16,1.1-2.15,1.86c-1.27,1-.54.78-2.56,1.2-1.4.3-2.93.39-4.41.77-4.11,1-7.45,4.1-10.88,6.6-3.59,2.63-8.28,5.44-10.55,9.33s-1.76,7.32-1.37,11.36a31.39,31.39,0,0,1,8.33-7.42c3.56-2,6.47-4.71,10-6.78s5.8-2,9.75-1.31c1.81.31,9.17,1.29,8.77-1.89,2.16-.41,4.57.54,6.91.23a44.85,44.85,0,0,0,9.21-1.9c4.2-1.52,8.38-1.84,12.86-2.76,2-.4,3.51-2,5.31-2.4,1.6-.39,4.11.28,5.76.58,4.92.89,8.56-1.23,13.05-1.92C751.71,824.07,754.43,824.55,757.91,821.89Z"/><path class="cls-4" d="M669.37,829.39c-3.64,2.9-8,5.47-10.39,9.53-2.24,3.84-1.76,7.32-1.37,11.36a31.39,31.39,0,0,1,8.33-7.42c6.37-3.62,11.61-10.93,19.69-8.76a5.56,5.56,0,0,0,.32-1.21c-1.78-.95-4.88-2.48-5.65-4.61-.2-.57.12-6.3,1.22-6.3-4.83,0-7.93,3.87-11.31,6.72C669.94,828.94,669.66,829.16,669.37,829.39Z"/><path class="cls-13" d="M757.87,821.85a6.23,6.23,0,0,0,1.41-2c-1.75-.12-3.31.71-5,1.05-6.73,1.35-13.67-1.59-20.37-.5-2.54.41-9.08,4.28-10.63,2.59-.87.44-1.8,1-2.61,1.45a.19.19,0,0,1,.14.22c-8.31,5.15-17.57,3.64-26.41,2.25-3.09-.48-5.24-.37-7.43,1.76-5.66,5.51-15.16,3.66-18.59,12.3a70.62,70.62,0,0,1,7.6-4.94c3.66-2.13,5.79-2,9.74-1.31,1.81.31,9.17,1.29,8.77-1.89,2.16-.41,4.57.54,6.91.23a44.85,44.85,0,0,0,9.21-1.9c4.2-1.52,8.38-1.84,12.86-2.76,2-.4,3.51-2,5.31-2.4,1.6-.39,4.11.28,5.76.58,4.92.89,8.56-1.23,13.05-1.92C751,824.18,755.29,824.26,757.87,821.85Z"/><path class="cls-28" d="M746.64,817.34a24.3,24.3,0,0,1,10.66-3.91,11.1,11.1,0,0,0,5.35-1.47c3.94-2,8.4-5.12,11.19-.37a50.93,50.93,0,0,1,4.62,11.3c.49,1.76,1.46,3.16-.68,4.46-1.88,1.14-3.28-.49-4.93-.42-7.27.31-12.41,9.42-19.58,3.89-.94,1.82-3.1,1.8-4.81,2.54-1.48.63-1.86,1.39-2.93,2-2.28,1.43-4.46.4-6.64,1.2-1.42.52-2.55,2.69-4.13,3.44-4.32,2.05-5.36-.93-9-1.5-4.2-.65-4.4,4.38-8.16,3.4.21,6.08-14.31,3.08-17.41,3.21-1.43.06-8.44,1.39-8.57,3,.79-9.77,9.89-15.51,18.41-17.83a9.42,9.42,0,0,1,3.19-.71c1,.1,1.88,1,2.55,1.07,2.24.09,4-2,6.12-3.18A71,71,0,0,1,733,822.37c1.9-.71,3.85-1.82,5.86-2.09,1.22-.16,2.25.39,3.4-.08.69-.28,1.63-1.67,2.45-2.13,1.17-.66,2.46-.54,3.54-1.45"/><path class="cls-4" d="M702.84,832.84c.47-.2,6.45-2.49,6.43-2.7.14,2.4-1.7,4.39-.42,7,2.16,4.36,10.4,1,6.81,5.62-3.88,5-11.66,2-16.85,4.49-3.17,1.5-5.37,4-8.4,5.7-2.37,1.31-5.63,2.69-5,6C682.45,845.8,691.44,837.64,702.84,832.84Z"/><path class="cls-13" d="M778.32,828.58a22,22,0,0,1-9.24,2.08c-.47-4.23-5.16.11-7.05.9-.7.29-9.85,1.36-8.76-.74-.94,1.82-3.1,1.8-4.81,2.54-1.48.63-1.86,1.39-2.93,2-2.28,1.43-4.46.4-6.64,1.2-1.42.52-2.55,2.69-4.13,3.44-4.32,2.05-5.36-.93-9-1.5-4.2-.65-4.4,4.38-8.16,3.4.11,3.16-3.6,3.47-6.26,3.61-4.39.23-8.43-.29-12.54,1.65-3,1.42-5.35,4.52-8.12,6.39,2-1.34,3.88-6.8,5.76-8.86,2.35-2.57,5.07-5.74,8.52-6.81,2.74-.86,5.74.57,8.28-.73-2.68,3.9,4,1.8,5.4,1,3.42-1.81,5.82-4.86,9.09-6.84,2.55-1.54,5.09-1.76,8-1.94a37.33,37.33,0,0,0,15.19-4c1.83,3.62,16,1.25,18.87-.34,3.84-2.11,4.53-6.58,8.33-8.32,4.67-2.15,9.19-3.74,13.63-6.53,5.91-3.72,11.86-7.26,17.44-11.47,3.71-2.8,8.14-8.44,12.69-9.41-2.76,4.09-8.69,8.37-12.67,11.48-6.37,5-11,11.45-16.24,17.52C790,821.9,784.12,826.11,778.32,828.58Z"/><path class="cls-5" d="M136.38,514.55c-3.1,7.14-7.95,12.92-14.94,15.46C127.25,525.93,132.07,520.51,136.38,514.55Z"/><path class="cls-5" d="M323.84,430.21q-2.49.8-5.16,1.42Q321.22,430.85,323.84,430.21Z"/><path class="cls-13" d="M136.21,65.51c-2.27-7.82,5.23-16.84,11.17-21.23,3.07-2.26,5.71-3.49,9.18-1,2.31,1.69,4.95,6.87,4.7,9.76-.13,1.51-2.07,2.77-2,4.29,0,.48,1.69,4.25,2.21,3.44-3.18,4.91-16.61,2.22-21.73,3.11-1.37.24-3,1.32-4.33,1.82,0,0-.46-.86-.44-.84.63-.53.37-.93.7-1.58"/></g><g id="Layer_4" data-name="Layer 4"><path class="cls-29" d="M240.58,2.13c3.52,2.3,7.17,4.37,10.8,6.5a104.28,104.28,0,0,1,10.54,7,29.86,29.86,0,0,0,5.28,3.31,15.93,15.93,0,0,1,5.08,4,41.47,41.47,0,0,1,3.24,5.5l1.39,2.83.68,1.42.35.7.19.34c0,.1.2.24.17.24l.09,0c0,.08-.15.06-.16,0a.31.31,0,0,1-.09-.07l-.13-.15-.24-.32-.43-.67-.83-1.35-1.6-2.71a46.73,46.73,0,0,0-3.41-5.21c-2.53-3.15-6.88-4.38-10.07-7.27-6.51-5.26-14-9.17-20.91-14Z"/><path class="cls-29" d="M298,17.25A11.2,11.2,0,0,1,301.39,21a15.68,15.68,0,0,1,1.53,4.85,49.55,49.55,0,0,0,.95,4.94,9.39,9.39,0,0,0,.91,2.25,16.1,16.1,0,0,0,1.45,2,15.21,15.21,0,0,1,2.83,4.34,8.9,8.9,0,0,1,.52,2.63,14.78,14.78,0,0,1-.26,2.6,38.47,38.47,0,0,1-1.38,4.92l-.86,2.38-.44,1.19a3.75,3.75,0,0,0-.28,1.18l-.09,0a3.3,3.3,0,0,1,.09-1.3l.28-1.24.63-2.45a47.29,47.29,0,0,0,1.06-4.88,14.39,14.39,0,0,0,.21-2.42,7.77,7.77,0,0,0-.42-2.32,14.4,14.4,0,0,0-2.52-4.18,17.08,17.08,0,0,1-1.45-2.14,10.42,10.42,0,0,1-.91-2.44,49,49,0,0,1-.81-5,15.82,15.82,0,0,0-1.3-4.8A11.13,11.13,0,0,0,298,17.33Z"/><path class="cls-29" d="M321.48,36.93a22.91,22.91,0,0,1,1.25,5.81,31.22,31.22,0,0,1-.17,6c-.22,2-.48,3.94-.85,5.87s-.69,3.84-1,5.81h-.1a24.83,24.83,0,0,1,.1-6c.24-2,.73-3.88,1-5.82a30.85,30.85,0,0,0,.47-5.83,22.91,22.91,0,0,0-.85-5.8Z"/><path class="cls-29" d="M315.43,29.39a26.06,26.06,0,0,0,.79,7.91,39.37,39.37,0,0,1,1.14,8,42.1,42.1,0,0,1-1.05,8,18.61,18.61,0,0,0-.12,7.83l-.1,0a14.44,14.44,0,0,1-.77-8c.37-2.68,1.15-5.24,1.24-7.85a38.6,38.6,0,0,0-.83-7.89,26.27,26.27,0,0,1-.4-8Z"/><path class="cls-29" d="M253.36,95.11A37.45,37.45,0,0,0,257,90.25a34.17,34.17,0,0,0,2.86-5.33,29.32,29.32,0,0,0,1.68-5.73,16.06,16.06,0,0,0,.11-6l.09,0a11.09,11.09,0,0,1,.79,6.14,19.49,19.49,0,0,1-1.94,5.9,36.25,36.25,0,0,1-7.17,9.93Z"/><path class="cls-29" d="M270,95.88c.66-1.44,1.27-2.91,1.81-4.39A39.9,39.9,0,0,0,273.21,87a36.6,36.6,0,0,0,.76-4.59,12.59,12.59,0,0,0-.21-4.61l.09,0A7.93,7.93,0,0,1,275,82.46a17.33,17.33,0,0,1-1,4.74,44.43,44.43,0,0,1-3.91,8.73Z"/><path class="cls-29" d="M280.58,109.47a25.29,25.29,0,0,0,3.29-3.42,14.71,14.71,0,0,0,2.38-4,14.11,14.11,0,0,0,.8-4.49,21.85,21.85,0,0,0-.44-4.65l.1,0a10.7,10.7,0,0,1,1.34,4.69,10.34,10.34,0,0,1-1.07,4.8,19,19,0,0,1-6.34,7.2Z"/><path class="cls-29" d="M285.91,126.09a6.5,6.5,0,0,0,3.35-.81,11.92,11.92,0,0,0,1.28-1c.43-.35.84-.74,1.37-1.14l.08,0a3.24,3.24,0,0,1-.74,1.79,3.84,3.84,0,0,1-1.64,1.07,6,6,0,0,1-3.71.19Z"/><path class="cls-29" d="M196.72,102.66a14.18,14.18,0,0,0,8.42-1.75,42.66,42.66,0,0,0,7.05-5.19A32.05,32.05,0,0,1,215.73,93c1.25-.81,2.55-1.51,3.82-2.23a34.74,34.74,0,0,0,3.71-2.28,9.32,9.32,0,0,0,2.88-3.17l.1,0A8.14,8.14,0,0,1,223.7,89a27.76,27.76,0,0,1-3.64,2.6l-3.81,2.21a31.54,31.54,0,0,0-3.56,2.52,44.11,44.11,0,0,1-7.32,5,14.47,14.47,0,0,1-8.67,1.39Z"/><path class="cls-29" d="M131.75,52.82c0,2.63-.12,5.26-.24,7.89,0,1.31-.09,2.62-.09,3.92s.07,2.62.15,3.91l-.59-.48a29.83,29.83,0,0,1,4.13-.47,18.24,18.24,0,0,1,2.09,0,12.12,12.12,0,0,1,2.07.28V68c-.69,0-1.37.11-2,.18s-1.35.17-2,.26c-1.35.2-2.69.45-4,.65l-.58.08,0-.56c0-1.33,0-2.66.08-4s.17-2.63.29-3.94c.23-2.63.56-5.23.73-7.85Z"/><path class="cls-29" d="M195.25,21.08a48.12,48.12,0,0,1-2.14,7c-.83,2.27-1.66,4.54-2.34,6.84a35.46,35.46,0,0,0-1.37,7,7.27,7.27,0,0,0,2,6.39l-.06.08a5.44,5.44,0,0,1-2.41-2.8,9.67,9.67,0,0,1-.58-3.72A24.43,24.43,0,0,1,190,34.63c.78-2.31,1.71-4.55,2.64-6.79a47.13,47.13,0,0,0,2.5-6.78Z"/><path class="cls-29" d="M219.44,16.53a34.85,34.85,0,0,0,2.23,7.7c1,2.49,2.12,4.92,3.2,7.39a48.94,48.94,0,0,1,2.79,7.63A19.83,19.83,0,0,1,228,47.4l-.16-.25a9,9,0,0,0,2.13.33v.1a8.13,8.13,0,0,1-2.26,0l-.18,0v-.21a25.92,25.92,0,0,0-.88-7.85,59.61,59.61,0,0,0-2.5-7.59c-1-2.49-2-5-2.93-7.52a34.71,34.71,0,0,1-1.89-7.85Z"/><path class="cls-29" d="M254.11,49.77a8,8,0,0,1,1.45-2A20.57,20.57,0,0,0,257.14,46l.11-.14.17.07a34.8,34.8,0,0,0,3.72,1.28,13.14,13.14,0,0,0,3.8.52,6.11,6.11,0,0,0,3.43-1,8.09,8.09,0,0,0,2.37-2.94l.09,0a6.25,6.25,0,0,1-1.91,3.61,5.61,5.61,0,0,1-4,1.32,14.74,14.74,0,0,1-4-.82,33.38,33.38,0,0,1-3.7-1.52l.28-.07c-.55.63-1.17,1.17-1.75,1.72a8,8,0,0,0-1.57,1.82Z"/><path class="cls-29" d="M276.87,5.93A46.12,46.12,0,0,0,282,11.65c1.8,1.82,3.64,3.62,5.3,5.6a18.8,18.8,0,0,1,4,6.73,10.1,10.1,0,0,1-.79,7.69l-.09,0a11.75,11.75,0,0,0-.07-7.35,23,23,0,0,0-3.66-6.52c-1.56-2-3.31-3.88-5-5.77a44.92,44.92,0,0,1-4.83-6Z"/><path class="cls-29" d="M412.93,224.38a81.94,81.94,0,0,1,4.53,10.18,98.88,98.88,0,0,1,3.32,10.66,47.57,47.57,0,0,1,1.66,11.09,22.72,22.72,0,0,1-.65,5.62,9.57,9.57,0,0,1-2.82,4.84l-.07-.08a10.44,10.44,0,0,0,2.21-4.92,24.16,24.16,0,0,0,.33-5.44A63.32,63.32,0,0,0,420,245.4a98.84,98.84,0,0,0-3-10.67,83.39,83.39,0,0,0-4.14-10.31Z"/><path class="cls-29" d="M497.58,278a18,18,0,0,1,3.76,6.06A45.34,45.34,0,0,1,503.2,291c.24,1.15.51,2.33.68,3.52s.29,2.36.41,3.54l.27,3.54q.06.88.15,1.77c0,.29.06.58.11.87a1.59,1.59,0,0,0,.1.39c.06.05,0,.06,0,0a.71.71,0,0,0,.11-.17l.09,0a.79.79,0,0,1-.08.23.15.15,0,0,1-.17.09.28.28,0,0,1-.14-.1,1.81,1.81,0,0,1-.22-.44,8.63,8.63,0,0,1-.28-.86c-.15-.58-.27-1.17-.39-1.76-.23-1.17-.39-2.35-.58-3.52s-.28-2.35-.4-3.53-.29-2.32-.47-3.5a45.81,45.81,0,0,0-1.55-6.89,17.65,17.65,0,0,0-3.36-6.16Z"/><path class="cls-29" d="M428.81,241a94.55,94.55,0,0,1,4,8.84c1.15,3,2.14,6.1,3,9.21s1.66,6.25,2.24,9.43,1.07,6.36,1.39,9.57l-.1,0c-.88-3.11-1.54-6.26-2.27-9.4s-1.28-6.3-2-9.42a99.66,99.66,0,0,0-6.28-18.2Z"/><path class="cls-29" d="M403.11,210c0,3.38-.16,6.76-.26,10.14s-.22,6.75-.18,10.12a98.38,98.38,0,0,0,.63,10,25.94,25.94,0,0,0,.95,4.89,7.23,7.23,0,0,0,2.62,4.07l-.05.09a5.26,5.26,0,0,1-2-1.64,10.77,10.77,0,0,1-1.23-2.29,23,23,0,0,1-1.29-5,58.94,58.94,0,0,1-.44-10.19c.06-3.39.25-6.76.48-10.14s.56-6.74.66-10.11Z"/><path class="cls-29" d="M316.93,269a68,68,0,0,1,7.54,11.3c2.2,4,4.22,8,6.44,12a76.59,76.59,0,0,0,7.52,11.17A34.9,34.9,0,0,0,348.66,312l0,.09a29.05,29.05,0,0,1-10.95-8.08,60.19,60.19,0,0,1-7.46-11.43c-2.14-4-4.08-8.11-6.18-12.11A68.75,68.75,0,0,0,316.86,269Z"/><path class="cls-29" d="M338.85,327.17a42.63,42.63,0,0,0,7.95,7.1,97,97,0,0,0,9,5.72c3.11,1.75,6.32,3.28,9.52,4.83s6.45,3,9.79,4.25l0,.1a54.71,54.71,0,0,1-10.18-3.44,84.61,84.61,0,0,1-9.5-5.05,95.66,95.66,0,0,1-8.9-6,42.9,42.9,0,0,1-7.73-7.44Z"/><path class="cls-29" d="M327.5,302.21a32,32,0,0,1,7.9,5.56c2.39,2.17,4.67,4.45,7,6.64a69.74,69.74,0,0,0,7.39,6.08,19,19,0,0,0,8.67,3.64v.1c-3.29.21-6.49-1.18-9.23-2.91a46.17,46.17,0,0,1-7.38-6.33c-2.29-2.28-4.49-4.63-6.8-6.86a31.85,31.85,0,0,0-7.6-5.83Z"/><path class="cls-29" d="M404.53,458.71a12.22,12.22,0,0,0,.24-3.52c-.06-1.19-.16-2.37-.27-3.55-.2-2.37-.45-4.74-.46-7.14a20.78,20.78,0,0,1,.27-3.6,16.58,16.58,0,0,1,.44-1.75c.17-.58.31-1.16.51-1.73a53.09,53.09,0,0,1,2.68-6.65,79,79,0,0,1,7.49-12.21c2.86-3.81,5.8-7.53,8.76-11.27l.08.06c-2.49,4.07-5.34,7.89-8,11.8a106,106,0,0,0-7.58,12,53.2,53.2,0,0,0-2.79,6.5c-.21.55-.35,1.13-.53,1.69a15.15,15.15,0,0,0-.46,1.69,19.4,19.4,0,0,0-.34,3.5c-.06,2.36.12,4.73.26,7.1.08,1.19.15,2.38.17,3.57a11.88,11.88,0,0,1-.35,3.56Z"/><path class="cls-29" d="M380.34,417.14a15.15,15.15,0,0,1,3.73-7.11c1.76-2.06,3.78-3.87,5.71-5.73a42.53,42.53,0,0,0,5.34-6,21.8,21.8,0,0,0,3.31-7.19,58.79,58.79,0,0,0,1.7-15.87,33.72,33.72,0,0,0-.91-7.9,12.38,12.38,0,0,0-1.5-3.64,6.24,6.24,0,0,0-1.27-1.49,5.57,5.57,0,0,0-1.71-1l0-.09a5.74,5.74,0,0,1,3.34,2.29,12.8,12.8,0,0,1,1.79,3.7,32.6,32.6,0,0,1,1.24,8.07,51.33,51.33,0,0,1-1.94,16.12,22.23,22.23,0,0,1-3.54,7.35,43.38,43.38,0,0,1-5.52,6c-2,1.82-4,3.57-5.83,5.57a14.83,14.83,0,0,0-3.86,6.93Z"/><path class="cls-29" d="M392.43,440.59a22.49,22.49,0,0,1,1.28-9.2,47.88,47.88,0,0,1,4-8.46c3.13-5.4,6.83-10.41,10.23-15.59a89.19,89.19,0,0,0,4.72-8,34.47,34.47,0,0,0,3.2-8.56,16.57,16.57,0,0,0-.35-9,21.68,21.68,0,0,0-4.87-7.74l.07-.07,1.66,1.64c.54.56,1,1.21,1.5,1.81a20.3,20.3,0,0,1,1.28,2,22.24,22.24,0,0,1,1,2.15,17,17,0,0,1,.68,9.39,31.61,31.61,0,0,1-3.31,8.82,83.12,83.12,0,0,1-4.93,8c-3.49,5.15-7.27,10.09-10.46,15.4a48.13,48.13,0,0,0-4.1,8.3,22.26,22.26,0,0,0-1.46,9.1Z"/><path class="cls-29" d="M475.65,362.68a29.39,29.39,0,0,1,5.65,4.26c1.75,1.55,3.58,3.14,5.83,3.67a12.33,12.33,0,0,0,6.79-.58c2.2-.73,4.29-1.92,6.69-2.43a15,15,0,0,1,7.2.36,31.7,31.7,0,0,1,6.63,2.73,22.91,22.91,0,0,1,5.68,4.37,14.1,14.1,0,0,1,1.12,1.43,7.52,7.52,0,0,1,.45.78,3.66,3.66,0,0,1,.4.82,6.83,6.83,0,0,1,.45,3.54h-.1a8.23,8.23,0,0,0-2.82-6.08,23.64,23.64,0,0,0-5.66-4,38.61,38.61,0,0,0-6.42-2.66,14.06,14.06,0,0,0-6.77-.52c-2.26.41-4.36,1.54-6.64,2.26a12.88,12.88,0,0,1-7.12.44c-2.39-.64-4.21-2.34-5.91-3.93a29.06,29.06,0,0,0-5.5-4.39Z"/><path class="cls-29" d="M504.36,340c2.21.63,4.51.34,6.79.3a12.85,12.85,0,0,1,3.43.34,6.8,6.8,0,0,1,2.94,1.88c.85.76,1.6,1.62,2.7,1.7a10.53,10.53,0,0,0,3.31.14c1.1-.13,2.2-.42,3.32-.66s2.26-.45,3.39-.61a47.61,47.61,0,0,1,13.75-.43,17.11,17.11,0,0,1,6.58,2.28,9,9,0,0,1,2.52,2.44,7.82,7.82,0,0,1,1.2,3.24l-.1,0a8,8,0,0,0-4-5.11,17.18,17.18,0,0,0-6.35-1.88,57,57,0,0,0-13.5.23c-1.13.14-2.24.3-3.35.53s-2.23.48-3.4.59a10.75,10.75,0,0,1-3.49-.22,4.86,4.86,0,0,1-.88-.24,3.67,3.67,0,0,1-.78-.49,16,16,0,0,1-1.28-1.17,6.22,6.22,0,0,0-2.69-1.85,12,12,0,0,0-3.34-.43c-2.25,0-4.59.19-6.8-.5Z"/><path class="cls-29" d="M545.18,322.62c4.6,1.14,9,2.91,13.59,4a22.1,22.1,0,0,0,6.93.8,36.56,36.56,0,0,0,6.82-1.64,15.53,15.53,0,0,1,7.21-.56,27.94,27.94,0,0,1,6.78,2.42c2.13,1.07,4.2,2.23,6.24,3.44s4,2.48,6.1,3.6l0,.09a71,71,0,0,1-6.4-3.08c-2.1-1.08-4.19-2.19-6.33-3.15-1.06-.48-2.13-1-3.23-1.35a21.71,21.71,0,0,0-3.31-1,14.64,14.64,0,0,0-6.82.37,37.17,37.17,0,0,1-7,1.51,23.13,23.13,0,0,1-7.09-1c-4.59-1.27-8.94-3.16-13.5-4.43Z"/><path class="cls-29" d="M589,311.28a25.25,25.25,0,0,1,5.54,1.92c1.78.82,3.48,1.79,5.23,2.64a16.41,16.41,0,0,0,5.44,1.74c1.92.18,3.87.22,5.82.27,3.89.08,7.87.07,11.73,1.1a23.57,23.57,0,0,1,5.5,2.25,21.72,21.72,0,0,1,4.6,3.7l-.07.07a28.23,28.23,0,0,0-4.86-3.15,25.38,25.38,0,0,0-5.41-1.9A64.7,64.7,0,0,0,611,318.65c-1.95-.1-3.9-.19-5.86-.42a17.12,17.12,0,0,1-5.6-2c-1.74-.91-3.4-1.94-5.13-2.81a25.19,25.19,0,0,0-5.43-2.09Z"/><path class="cls-29" d="M465.05,381.57c4,0,7.86-1.32,11.61-2.66,1.9-.65,3.8-1.33,5.77-1.8a21.72,21.72,0,0,1,6.06-.51,37.56,37.56,0,0,1,11.9,2.25,20.58,20.58,0,0,1,5.34,3,10.94,10.94,0,0,1,2.11,2.24,6.6,6.6,0,0,1,1.09,2.84l-.09,0a8.36,8.36,0,0,0-3.53-4.54,21.17,21.17,0,0,0-5.27-2.59,44.35,44.35,0,0,0-11.59-2.39,21.05,21.05,0,0,0-5.88.34c-1.94.42-3.84,1-5.75,1.64-3.8,1.22-7.73,2.41-11.78,2.29Z"/><path class="cls-29" d="M494.52,352.09c3.81-.29,7.65-.18,11.45-.34,1.9-.06,3.77-.27,5.67-.52s3.8-.46,5.71-.63,3.83-.26,5.77-.23a28,28,0,0,1,5.76.73,20.09,20.09,0,0,1,5.37,2.29,16.16,16.16,0,0,1,4.15,4l-.07.07a19.49,19.49,0,0,0-4.44-3.48,20.7,20.7,0,0,0-5.24-1.91,42.67,42.67,0,0,0-11.25-.68c-1.89.11-3.79.29-5.69.48s-3.82.36-5.73.37c-3.83,0-7.64-.22-11.45-.06Z"/><path class="cls-29" d="M527.78,330.17a29.43,29.43,0,0,1,8.58.49,35.65,35.65,0,0,1,8.17,2.78h-.26a21,21,0,0,1,10.74-3,33.1,33.1,0,0,1,11.08,1.78,41.65,41.65,0,0,1,10,5,39.84,39.84,0,0,1,8.38,7.37l-.07.07a53.27,53.27,0,0,0-18.67-11.48,32.15,32.15,0,0,0-10.75-2,20.37,20.37,0,0,0-10.47,2.75l-.13.08-.13-.07a36.08,36.08,0,0,0-8-2.95,29.24,29.24,0,0,0-8.5-.7Z"/><path class="cls-29" d="M596.53,473.05a18,18,0,0,0,4.68-8,40.42,40.42,0,0,0,1.55-9.21c.22-3.11.22-6.24.2-9.37s-.07-6.29.18-9.43c.45-6.25,1.22-12.51.32-18.63a18.63,18.63,0,0,0-3.37-8.44,14.53,14.53,0,0,0-3.27-3.23,9.21,9.21,0,0,0-2-1.17,3,3,0,0,0-1.09-.26,1,1,0,0,0-.92.49l-.09,0a1.07,1.07,0,0,1,1-.63,3,3,0,0,1,1.19.18,9.74,9.74,0,0,1,2.15,1.05,14.78,14.78,0,0,1,3.56,3.18,18.93,18.93,0,0,1,3.8,8.71c1.07,6.33,0,12.66-.5,18.86-.3,3.1-.31,6.22-.33,9.36s-.08,6.28-.35,9.41a41.06,41.06,0,0,1-1.76,9.26,18.13,18.13,0,0,1-4.9,7.95Z"/><path class="cls-29" d="M618.44,434.51A63,63,0,0,0,622.2,422a84,84,0,0,0,1.67-12.92,59.23,59.23,0,0,0-.8-12.91c-.76-4.21-2.28-8.4-5.37-11.52l.06-.07a15.18,15.18,0,0,1,4.13,5.13,26.67,26.67,0,0,1,2.16,6.26,48,48,0,0,1,.62,13.16,86,86,0,0,1-2,13,63.53,63.53,0,0,1-4.16,12.41Z"/><path class="cls-29" d="M609.37,447.38a75.37,75.37,0,0,1,1-13.58c.66-4.5,1.44-9,1.8-13.48a40.13,40.13,0,0,0-.93-13.35,28.53,28.53,0,0,0-6.36-11.71l.07-.07a24.79,24.79,0,0,1,7.26,11.52,35.72,35.72,0,0,1,.76,13.69c-.47,4.54-1.35,9-2.1,13.47a74,74,0,0,0-1.37,13.51Z"/><path class="cls-29" d="M630.54,420.14a25.68,25.68,0,0,0,4.25-9.62A45.07,45.07,0,0,0,635.94,400a63.54,63.54,0,0,0-1.05-10.49,49.77,49.77,0,0,0-2.84-10.17l.09-.05a33.6,33.6,0,0,1,3.73,10,49.23,49.23,0,0,1-.59,21.29,25.94,25.94,0,0,1-4.66,9.55Z"/><path class="cls-29" d="M644.14,408.82a43.15,43.15,0,0,0,1.73-6.89,57.65,57.65,0,0,0,.86-7c.13-2.36.06-4.72,0-7.06a30,30,0,0,0-1-6.95l.09,0a17.91,17.91,0,0,1,1.94,6.92,35.25,35.25,0,0,1-.16,7.19,50.53,50.53,0,0,1-3.29,13.89Z"/><path class="cls-29" d="M657,396.73c.59-3.32,1.43-6.6,2.11-9.9a47.23,47.23,0,0,0,1.11-10c0-3.35-.34-6.69-.59-10.05a97.69,97.69,0,0,1-.37-10.13h.1l1.27,10a67.46,67.46,0,0,1,.39,10.16,48,48,0,0,1-1.42,10.06c-.81,3.29-1.78,6.52-2.5,9.81Z"/><path class="cls-30" d="M470.34,447.05c-1.11,3.81-2.09,7.66-2.86,11.55a85,85,0,0,0-1.6,11.76,47.29,47.29,0,0,0,.7,11.72,18.67,18.67,0,0,0,5.26,10.27l-.07.08a14,14,0,0,1-4-4.48,21.31,21.31,0,0,1-2.17-5.65,39,39,0,0,1-.53-12A85.08,85.08,0,0,1,467,458.5c.91-3.88,2-7.7,3.25-11.48Z"/><path class="cls-30" d="M497,467.06q-2,6.9-3.61,13.89c-1.07,4.66-2,9.36-2.66,14.08a78,78,0,0,0-.77,14.22,21.26,21.26,0,0,0,1.31,6.87,7.06,7.06,0,0,0,4.93,4.54l0,.1-.88-.18-.45-.1-.42-.19c-.28-.13-.57-.24-.84-.39l-.74-.55a3.39,3.39,0,0,1-.67-.64,5.78,5.78,0,0,1-.6-.71,10.22,10.22,0,0,1-.94-1.59,20.88,20.88,0,0,1-1.68-7.09,61.9,61.9,0,0,1,1-14.4,195.73,195.73,0,0,1,7-27.89Z"/><path class="cls-30" d="M485.38,473.13a26.25,26.25,0,0,0-3.78,7.44,49.31,49.31,0,0,0-2.13,8.08,45.16,45.16,0,0,0-.61,8.27,14.58,14.58,0,0,0,2,7.9l-.07.06a9.11,9.11,0,0,1-2.15-3.68,18.08,18.08,0,0,1-.76-4.23,32,32,0,0,1,.82-8.47,50.86,50.86,0,0,1,2.45-8.11,26.69,26.69,0,0,1,4.17-7.32Z"/><path class="cls-30" d="M466.6,428.51l-3.11,6.56c-1,2.18-2.05,4.37-2.89,6.62a51.94,51.94,0,0,0-2,6.89,61.38,61.38,0,0,0-1.1,7.12h-.1a26.36,26.36,0,0,1,.22-7.31,30.94,30.94,0,0,1,2.19-7c1.91-4.49,4.4-8.65,6.66-12.93Z"/><path class="cls-30" d="M514.89,532.82c-1.46-3-2.9-6.07-4.09-9.23a31.25,31.25,0,0,1-2.17-9.9,23.47,23.47,0,0,1,1.85-10,39.74,39.74,0,0,1,5.17-8.71l.08,0a73.68,73.68,0,0,0-4.32,9,27.07,27.07,0,0,0-2,9.63,30.94,30.94,0,0,0,1.84,9.75c1.06,3.17,2.37,6.27,3.71,9.35Z"/><path class="cls-30" d="M536.09,537.38a8.14,8.14,0,0,1-6.31-4.27,15.39,15.39,0,0,1-1.68-7.68,20.4,20.4,0,0,1,1.55-7.74,12.74,12.74,0,0,1,4.91-6.1l.05.08a16.15,16.15,0,0,0-4,6.39,26.07,26.07,0,0,0-1.67,7.4,14.74,14.74,0,0,0,1.32,7.42,8.3,8.3,0,0,0,2.38,2.92,8.2,8.2,0,0,0,3.5,1.48Z"/><path class="cls-30" d="M501.29,526a8.35,8.35,0,0,1-2.32-4.67,28.19,28.19,0,0,1-.54-5.26,72.59,72.59,0,0,1,.72-10.53A95.6,95.6,0,0,1,501,495.19a64.25,64.25,0,0,1,3.28-10l.1,0c-.91,3.39-1.69,6.8-2.4,10.22s-1.5,6.82-2.06,10.27a72.94,72.94,0,0,0-1,10.42,28.23,28.23,0,0,0,.33,5.2,8.19,8.19,0,0,0,2.1,4.66Z"/><path class="cls-30" d="M611.65,502.53c7.75-7.4,15.44-14.87,22.8-22.64,3.67-3.89,7.21-7.9,10.74-11.91s6.95-8.12,10.29-12.31l.09.06a130.12,130.12,0,0,1-9.62,12.9c-3.45,4.12-7.17,8-10.93,11.82-7.5,7.66-15.36,15-23.3,22.15Z"/><path class="cls-16" d="M739.4,569a63.42,63.42,0,0,0,14.45-15.25,51.89,51.89,0,0,0,4.72-9.35,48.49,48.49,0,0,0,2.73-10.14h.1a32.7,32.7,0,0,1-1.89,10.48,39.9,39.9,0,0,1-5,9.44,60.83,60.83,0,0,1-15,14.89Z"/><path class="cls-16" d="M761.31,569.8a46.83,46.83,0,0,0,8-10.28,89.57,89.57,0,0,0,5.85-11.67c1.67-4,3.06-8.16,4.41-12.3s2.53-8.34,3.61-12.59l.1,0a82,82,0,0,1-2.75,12.86,99.77,99.77,0,0,1-4.63,12.32,89.82,89.82,0,0,1-6.17,11.63,46.92,46.92,0,0,1-8.39,10.08Z"/><path class="cls-16" d="M728.08,563a12.55,12.55,0,0,0,5-2.32,22.2,22.2,0,0,0,4-3.91,52.13,52.13,0,0,0,5.84-9.53c1.65-3.35,3-6.84,4.53-10.28s2.93-6.92,4.78-10.21l.09,0c-1.33,3.52-2.58,7.05-4,10.56a101.18,101.18,0,0,1-4.74,10.26,52.27,52.27,0,0,1-6.17,9.48,22.68,22.68,0,0,1-4.17,3.84,12.73,12.73,0,0,1-5.19,2.17Z"/><path class="cls-16" d="M715.2,563.75a60.17,60.17,0,0,0,10.55-18.23c1.25-3.3,2.22-6.69,3.22-10.07s1.87-6.81,2.85-10.22l.1,0a86.49,86.49,0,0,1-2,10.46,75.23,75.23,0,0,1-3.44,10.11,67.88,67.88,0,0,1-4.78,9.53,53.67,53.67,0,0,1-6.43,8.47Z"/><path class="cls-30" d="M595.78,476.82c3.57-2.8,7.38-5.29,11.2-7.72s7.7-4.78,11.38-7.4a70.94,70.94,0,0,0,10.21-8.79,54.1,54.1,0,0,0,8-10.84l.09,0a40.9,40.9,0,0,1-7.36,11.48,56.29,56.29,0,0,1-10.49,8.76c-7.53,5.12-15.68,9.16-23,14.55Z"/><path class="cls-30" d="M617,510.07c2.89-.9,5.83-1.61,8.76-2.36s5.86-1.46,8.74-2.34a74.4,74.4,0,0,0,8.41-3.15,20.59,20.59,0,0,0,7.32-5l.09.06c-1.58,2.66-4.29,4.44-7,5.83a46.53,46.53,0,0,1-8.61,3c-2.93.79-5.89,1.43-8.85,2.06s-5.92,1.19-8.84,2Z"/><path class="cls-30" d="M598.08,481.35a40.93,40.93,0,0,0,6.36-.4,43.08,43.08,0,0,0,6.21-1.31,56.19,56.19,0,0,0,5.92-2.23,50.09,50.09,0,0,0,5.67-2.85l.06.07a21.05,21.05,0,0,1-5.31,3.69,29.18,29.18,0,0,1-6.13,2.09,40.52,40.52,0,0,1-12.78,1Z"/><path class="cls-30" d="M613.18,504.78a118.88,118.88,0,0,0,13.16-6.47c2.09-1.25,4.07-2.66,6-4.08s3.84-3,5.72-4.55l.08.07A30.16,30.16,0,0,1,633,495a40.62,40.62,0,0,1-6.26,4,101.71,101.71,0,0,1-13.52,5.87Z"/><path class="cls-30" d="M604.12,491.18a19.2,19.2,0,0,0,5.66-2.32,33.65,33.65,0,0,0,4.93-3.63c1.53-1.35,2.93-2.85,4.42-4.26s3-2.84,4.61-4.14l.07.07a53.1,53.1,0,0,1-4,4.77,40.64,40.64,0,0,1-4.62,4.17,32.13,32.13,0,0,1-5.2,3.45,18.72,18.72,0,0,1-5.89,2Z"/><path class="cls-30" d="M1239,495a33.67,33.67,0,0,0,3.78-10.89,70.71,70.71,0,0,0,1.15-11.51,103.4,103.4,0,0,0-.57-11.55,60.43,60.43,0,0,0-2.1-11.36l.09,0a40,40,0,0,1,3,11.29,68,68,0,0,1,.38,11.68,70.51,70.51,0,0,1-1.46,11.59A33.61,33.61,0,0,1,1239.1,495Z"/><path class="cls-30" d="M1265.48,479.09a31,31,0,0,0,6.61-11,62.31,62.31,0,0,0,3.17-12.54c1.41-8.54-.89-17.24.7-26a14.31,14.31,0,0,1,1-3.19,15.4,15.4,0,0,1,1.77-2.82c1.35-1.75,2.88-3.29,4.21-5a22,22,0,0,0,1.83-2.59c.51-.94,1.07-1.85,1.52-2.83a40.88,40.88,0,0,0,2.4-5.95c2.72-8.17,3-16.94,3.25-25.58h.1c.28,8.63.2,17.47-2.4,25.89a41.58,41.58,0,0,1-2.46,6.08c-.46,1-1,1.94-1.56,2.9a24.47,24.47,0,0,1-1.91,2.71c-1.4,1.7-3,3.22-4.27,4.89a14.58,14.58,0,0,0-1.72,2.64,13.4,13.4,0,0,0-1,3c-.85,4.18-.66,8.55-.55,12.86s.37,8.71-.44,13a61.44,61.44,0,0,1-3.38,12.57,31.4,31.4,0,0,1-6.82,11Z"/><path class="cls-30" d="M1330.48,452.64a24.48,24.48,0,0,0,4.8-9.43,64.36,64.36,0,0,0,1.69-10.53,54.83,54.83,0,0,1,1.88-10.59l.42-1.28c.16-.43.35-.84.52-1.26a11,11,0,0,1,1.3-2.41,24.49,24.49,0,0,1,3.7-4c2.65-2.41,5.58-4.54,7.63-7.34,1-1.43,1.92-3,2.78-4.5s1.69-3.12,2.44-4.72a76.5,76.5,0,0,0,4-9.86,38.65,38.65,0,0,0,2.09-10.42h.1a31.19,31.19,0,0,1-.34,5.37,53,53,0,0,1-1.18,5.25,72.23,72.23,0,0,1-3.76,10.08,59.58,59.58,0,0,1-5.33,9.38c-2.26,3-5.24,5-7.9,7.36a23.68,23.68,0,0,0-3.64,3.79,9.84,9.84,0,0,0-1.26,2.27c-.17.41-.36.8-.53,1.21l-.42,1.25a53.16,53.16,0,0,0-2,10.45,65.39,65.39,0,0,1-1.9,10.55,24.8,24.8,0,0,1-5,9.42Z"/><path class="cls-30" d="M1288.14,462.49c1.69-7.08,2.85-14.26,4.16-21.42.66-3.58,1.35-7.15,2.17-10.7.41-1.78.84-3.55,1.33-5.31a27.31,27.31,0,0,1,1.85-5.2c1.59-3.38,4.06-6.14,6-9.17a56.14,56.14,0,0,0,5.08-9.52c2.8-6.66,3.87-13.91,5.13-21.07l.1,0c-.69,7.22-1.61,14.55-4.3,21.42a49.06,49.06,0,0,1-5.19,9.69c-2,3.07-4.51,5.77-6.09,9a26.52,26.52,0,0,0-1.86,5.05c-.51,1.74-1,3.49-1.4,5.26-.86,3.52-1.6,7.08-2.31,10.65-1.44,7.12-2.73,14.29-4.55,21.34Z"/><path class="cls-30" d="M1353.91,451.14c3.37-5.83,5-12.41,6.62-18.9.82-3.25,1.64-6.52,2.76-9.7a45.85,45.85,0,0,1,4.31-9.16c3.54-5.78,8.25-10.67,12-16.14a33.83,33.83,0,0,0,4.51-8.81,31.9,31.9,0,0,0,1.52-9.83h.1a35.48,35.48,0,0,1,0,5c0,.42,0,.84-.11,1.26l-.24,1.25-.23,1.25c-.09.42-.23.82-.34,1.23a33.51,33.51,0,0,1-4.35,9.16c-3.75,5.66-8.61,10.37-12.17,16a44.73,44.73,0,0,0-4.38,8.95c-1.15,3.13-2,6.37-2.89,9.61-1.72,6.45-3.52,13-7,18.82Z"/><path class="cls-30" d="M1254.9,487.41c2.14-2.19,3-5.25,3.65-8.19a63.6,63.6,0,0,0,1.11-9c.19-3,.25-6.07.26-9.12,0-1.52,0-3.05,0-4.56s-.2-3-.38-4.52c-.38-3-.94-6-1.27-9.06a28.64,28.64,0,0,1-.2-4.64,23.86,23.86,0,0,1,.68-4.61,64.92,64.92,0,0,1,3.12-8.65,53.41,53.41,0,0,0,2.88-8.64l.1,0a38.6,38.6,0,0,1-.92,4.5c-.42,1.47-.9,2.93-1.41,4.37a70.52,70.52,0,0,0-2.8,8.63,26.18,26.18,0,0,0-.47,8.92c.27,3,.76,6,1.08,9.07.17,1.52.29,3.06.32,4.59s0,3.06,0,4.59c-.06,3.05-.17,6.1-.41,9.15a64.56,64.56,0,0,1-1.31,9.07c-.7,2.94-1.66,6-3.88,8.19Z"/><path class="cls-30" d="M1301,457.2c.89-8.31,3.87-16.22,5.38-24.35.17-1,.33-2,.55-3.09.11-.52.28-1,.41-1.54s.36-1,.54-1.51a33.71,33.71,0,0,1,3-5.54c2.33-3.46,4.7-6.85,6-10.84l.09,0a21.76,21.76,0,0,1-2.06,5.93c-.94,1.88-2.08,3.64-3.15,5.42a44.27,44.27,0,0,0-3,5.38c-.18.48-.38,1-.55,1.42s-.32,1-.44,1.46c-.23,1-.43,2-.64,3-.85,4.1-2.08,8.09-3.22,12.09a85.43,85.43,0,0,0-2.84,12.13Z"/><path class="cls-30" d="M1279.08,468.53a60.94,60.94,0,0,0,3.91-13.32,133,133,0,0,0,1.6-13.81l.53-7c.11-1.16.19-2.3.37-3.49a13.61,13.61,0,0,1,1-3.45c1-2.18,2.31-4.11,3.42-6.12a13.1,13.1,0,0,0,2-6.5h.1a10.4,10.4,0,0,1-.22,3.51,16.67,16.67,0,0,1-1.24,3.31c-1,2.13-2.29,4.08-3.12,6.19a13.16,13.16,0,0,0-.93,3.22c-.17,1.1-.28,2.29-.41,3.43l-.71,6.93a134.61,134.61,0,0,1-1.91,13.84,61.19,61.19,0,0,1-4.31,13.26Z"/><path class="cls-30" d="M1339.56,451.88a31.17,31.17,0,0,0,3.57-4.86c1.07-1.7,2.06-3.46,3-5.24a40,40,0,0,0,2.57-5.42,28.66,28.66,0,0,0,1.14-5.86,30.35,30.35,0,0,1,1.06-6.05,21.9,21.9,0,0,1,2.9-5.45c2.41-3.32,5.17-6.24,7.65-9.44l.08.06c-2,3.53-4.71,6.61-6.9,9.94a25,25,0,0,0-2.79,5.21,29.28,29.28,0,0,0-1.21,5.83,28.94,28.94,0,0,1-1.31,6,43.49,43.49,0,0,1-2.76,5.45c-1,1.75-2.07,3.48-3.2,5.16a30.81,30.81,0,0,1-3.75,4.76Z"/><path class="cls-30" d="M1217.1,501.77a15.19,15.19,0,0,0,3.07-5.27,36.38,36.38,0,0,0,1.62-5.91c.38-2,.56-4,.81-6.08s.42-4.06.54-6.13h.1a24.1,24.1,0,0,1,.36,6.23,35.69,35.69,0,0,1-1,6.16,36.38,36.38,0,0,1-1.94,5.93,15.43,15.43,0,0,1-3.46,5.15Z"/><path class="cls-30" d="M1229.94,498.77a107.51,107.51,0,0,0,4.49-19.79,92.31,92.31,0,0,0,.44-10.11c0-3.37-.2-6.74-.4-10.14l.1,0a53.71,53.71,0,0,1,.65,20.37A99.08,99.08,0,0,1,1230,498.8Z"/><path class="cls-30" d="M1251.11,487.43a56.59,56.59,0,0,0,1.23-12.78c0-2.15-.14-4.29-.1-6.44a60.84,60.84,0,0,1,.38-6.46h.09c.29,2.15.41,4.29.53,6.45s0,4.31-.1,6.47a51.16,51.16,0,0,1-1.94,12.79Z"/><path class="cls-30" d="M1308.56,455.67a47.7,47.7,0,0,0,3.93-6.85,35.33,35.33,0,0,0,1.26-3.67,25.76,25.76,0,0,0,.85-3.81h.1a9,9,0,0,1,0,4.07,14.17,14.17,0,0,1-1.51,3.77,38.47,38.47,0,0,1-4.57,6.56Z"/><path class="cls-30" d="M1319.13,454.17a142.68,142.68,0,0,0,4.5-16.65c.56-2.81.61-5.71,1.29-8.56a21,21,0,0,1,1.42-4.15,34.5,34.5,0,0,1,2.16-3.8c1.56-2.44,3.25-4.77,4.64-7.26a52.89,52.89,0,0,0,3.6-7.75,44.44,44.44,0,0,0,2.8-16.82h.1a38.44,38.44,0,0,1-2,17.16,44.45,44.45,0,0,1-3.69,7.91c-1.47,2.51-3.23,4.82-4.82,7.2a32.43,32.43,0,0,0-2.17,3.67,20.68,20.68,0,0,0-1.45,4c-.71,2.75-.81,5.66-1.43,8.5a143.55,143.55,0,0,1-4.89,16.59Z"/><path class="cls-30" d="M1374.32,448.86c3.27-4.05,5-9,6.37-14s2.51-10.08,4.92-14.78c.33-.57.63-1.16,1-1.71s.74-1.1,1.14-1.63a31.78,31.78,0,0,1,2.64-2.91c1.85-1.85,3.82-3.53,5.65-5.32a24.43,24.43,0,0,0,4.78-5.92,12.25,12.25,0,0,0,1.47-7.36l.1,0c.09.64.21,1.29.26,1.94a16.22,16.22,0,0,1-.07,2,11.23,11.23,0,0,1-.42,1.93l-.31.95c-.12.31-.27.6-.41.91a24.29,24.29,0,0,1-4.69,6.31c-1.84,1.85-3.81,3.55-5.67,5.31a34.38,34.38,0,0,0-2.64,2.77c-.39.5-.74,1-1.12,1.53s-.66,1.09-1,1.63c-2.43,4.51-3.63,9.6-5.15,14.54s-3.38,9.93-6.77,13.92Z"/><path class="cls-30" d="M1458.22,444.33a80.46,80.46,0,0,0,6.52-12.39,25,25,0,0,0,1.8-6.68c.24-2.28.2-4.76,1.39-7,2.56-4.17,6.57-6.92,10.17-9.81a28.19,28.19,0,0,0,4.92-4.84,19.51,19.51,0,0,0,3.16-6.15l.1,0a17.23,17.23,0,0,1-2.7,6.53,26.85,26.85,0,0,1-4.84,5.2c-1.81,1.52-3.7,2.91-5.46,4.4a23.28,23.28,0,0,0-4.65,5c-1.11,1.94-1.16,4.34-1.44,6.66a25.23,25.23,0,0,1-2,6.8,80.15,80.15,0,0,1-6.9,12.26Z"/><path class="cls-30" d="M1434.79,445.09a109.58,109.58,0,0,0,6.59-11.26c2.09-3.83,2.18-8.29,3.47-12.53a10.87,10.87,0,0,1,1.4-3.06,13,13,0,0,1,1-1.37c.33-.45.7-.86,1.07-1.28,1.47-1.66,3.15-3.07,4.69-4.57a17.83,17.83,0,0,0,3.91-5,14.54,14.54,0,0,0,1.32-6.24h.1a13.22,13.22,0,0,1-.78,6.54,18,18,0,0,1-3.84,5.43c-1.55,1.56-3.21,3-4.68,4.53-.36.39-.73.78-1,1.2a12.82,12.82,0,0,0-1,1.27,10,10,0,0,0-1.39,2.82c-.67,2-1.06,4.18-1.56,6.31-.25,1.06-.52,2.13-.88,3.18a22.58,22.58,0,0,1-1.34,3,107.48,107.48,0,0,1-7,11.09Z"/><path class="cls-30" d="M1390.19,445.09a67.27,67.27,0,0,0,5.62-15.63c.65-2.69.87-5.48,1.85-8.19a11.9,11.9,0,0,1,5.39-6.43l.06.08a17.63,17.63,0,0,0-2.77,3,12.83,12.83,0,0,0-1.73,3.64c-.81,2.57-1.26,5.35-2,8a65.25,65.25,0,0,1-2.64,8,68.75,68.75,0,0,1-3.67,7.52Z"/><path class="cls-30" d="M1420.42,430c.67-2.37.82-4.86,1.32-7.3a11.1,11.1,0,0,1,1.22-3.61,12.31,12.31,0,0,1,2.66-2.73,52,52,0,0,1,6.33-3.95,22.87,22.87,0,0,0,5.86-4.34l.08.06a12.28,12.28,0,0,1-2.4,2.89,25.2,25.2,0,0,1-3,2.24c-2.11,1.35-4.39,2.34-6.36,3.74a12,12,0,0,0-2.61,2.46,11,11,0,0,0-1.27,3.35c-.62,2.38-.9,4.86-1.7,7.22Z"/><path class="cls-30" d="M1459,423.94c.47-1.63.78-3.27,1.17-4.93a20.1,20.1,0,0,1,1.82-4.8,26.53,26.53,0,0,1,3-4.1,12.88,12.88,0,0,0,1.37-2,13.9,13.9,0,0,0,.92-2.31l.1,0a7.94,7.94,0,0,1-1.6,4.89c-1,1.42-2.26,2.52-3.13,3.91a18.65,18.65,0,0,0-2,4.53c-.52,1.6-1,3.24-1.56,4.82Z"/><path class="cls-30" d="M1518.7,405a2.13,2.13,0,0,0,.53-.87,1,1,0,0,1,.37-.43,1.54,1.54,0,0,1,.53-.19l.21,0-.1.19a17.67,17.67,0,0,1-2.69,3.74,26.42,26.42,0,0,1-3.47,3,67.09,67.09,0,0,0-7.17,5.56l.1-.61a7.57,7.57,0,0,1,1,4.59,7.64,7.64,0,0,1-.62,2.27,8.1,8.1,0,0,1-1.29,1.94l0,0,0,0-.54.25-.16.06-.11,0a.36.36,0,0,1-.17,0,.25.25,0,0,1-.09-.17.15.15,0,0,1,0-.08.87.87,0,0,1,.23-.28l.41-.4c.12-.13.29-.3.27-.42l.08-.05c.09.27-.09.43-.18.6l-.34.48a1.27,1.27,0,0,0-.12.18v0a.17.17,0,0,0-.07-.14c-.1-.05-.09,0-.1,0l0,0,.11-.06.47-.31-.06.06a7.79,7.79,0,0,0,1.38-4,8,8,0,0,0-.92-4l-.18-.36.28-.25a75.89,75.89,0,0,1,7.5-5.33,28.21,28.21,0,0,0,3.52-2.84,17.5,17.5,0,0,0,2.82-3.53l.1.15a1,1,0,0,0-.8.49,2.07,2.07,0,0,1-.6.88Z"/><path class="cls-29" d="M979.75,499.52a74.41,74.41,0,0,0,3.78-14.67,59.92,59.92,0,0,0,.48-15.07A43,43,0,0,0,980,455.39a35.61,35.61,0,0,0-9.26-11.75l.06-.08a30.75,30.75,0,0,1,10.09,11.38,38.73,38.73,0,0,1,4,14.76,59.74,59.74,0,0,1-.78,15.23,74.12,74.12,0,0,1-4.18,14.63Z"/><path class="cls-29" d="M1003.2,491.94a17.46,17.46,0,0,0,4.51-5.1,17.88,17.88,0,0,0,2.11-6.45,37.11,37.11,0,0,0-1.17-13.54c-1.08-4.45-2.58-8.78-4.07-13.12s-3.06-8.67-3.8-13.29l0-.24.19-.18a9.71,9.71,0,0,0,2.44-3.51,11,11,0,0,0,.71-4.22,22.34,22.34,0,0,0-2.26-8.49,54.62,54.62,0,0,0-4.5-7.75q-2.57-3.71-5.47-7.18l.08-.07a75.81,75.81,0,0,1,5.87,6.9,48,48,0,0,1,4.83,7.72,22,22,0,0,1,2.48,8.85,11.3,11.3,0,0,1-.8,4.62,10.59,10.59,0,0,1-2.73,3.84l.15-.42a80.73,80.73,0,0,0,3.56,13.19c1.42,4.36,2.87,8.73,3.91,13.22a37.12,37.12,0,0,1,1,13.72,18,18,0,0,1-2.26,6.51,17.56,17.56,0,0,1-4.64,5.07Z"/><path class="cls-29" d="M1030.4,488.93a23.94,23.94,0,0,0,3.85-9.25,42.3,42.3,0,0,0,.67-10.05,107.11,107.11,0,0,0-3.15-19.94l-2.41-9.85a28.65,28.65,0,0,1-.62-10.23c.39-3.4,1.13-6.71,1.8-10a64.93,64.93,0,0,0,1.36-10h.1a52.11,52.11,0,0,1-.78,10.13c-.52,3.35-1.2,6.66-1.48,10a30.26,30.26,0,0,0,.58,9.91l2.23,9.89a108.2,108.2,0,0,1,2.87,20.1,42.49,42.49,0,0,1-.87,10.13,24.18,24.18,0,0,1-4.07,9.25Z"/><path class="cls-29" d="M945.82,452.65a23.81,23.81,0,0,1,3.44,7.9,19.7,19.7,0,0,1,.24,4.34c-.06,1.44-.2,2.88-.34,4.31l-.1-.21a7.51,7.51,0,0,1,2.41,3.23,19.14,19.14,0,0,1,1.17,3.82,43.74,43.74,0,0,1,.81,7.9,82.79,82.79,0,0,1-1.32,15.79,59.57,59.57,0,0,1-4.64,15.17,25.13,25.13,0,0,1-4.4,6.65,11,11,0,0,1-3.23,2.38,7,7,0,0,1-3.91.6v-.1a6.69,6.69,0,0,0,3.73-.84,11.07,11.07,0,0,0,3-2.45,26.94,26.94,0,0,0,4-6.62,73,73,0,0,0,4.5-15,80.14,80.14,0,0,0,1.57-15.6,43.33,43.33,0,0,0-.68-7.8,20.15,20.15,0,0,0-1.08-3.73,7.16,7.16,0,0,0-2.19-3.06l-.11-.08,0-.13c.17-1.43.33-2.85.42-4.28a18.47,18.47,0,0,0-.15-4.27,23.8,23.8,0,0,0-3.25-7.9Z"/><path class="cls-16" d="M855,606.87a26.1,26.1,0,0,0-.59-6.6,25.13,25.13,0,0,0-2.33-6.17c-2-3.94-4.76-7.45-7.25-11.15-.64-.91-1.24-1.86-1.84-2.8l-.87-1.44c-.26-.51-.55-1-.78-1.52a44.78,44.78,0,0,1-2.26-6.34,39.73,39.73,0,0,0-2.19-6.21,17.89,17.89,0,0,0-3.8-5.35l.07-.08a16,16,0,0,1,4.35,5.11,36.91,36.91,0,0,1,2.53,6.24,62.61,62.61,0,0,0,2.2,6.22c.2.51.47,1,.71,1.47l.81,1.44c.56.95,1.13,1.89,1.73,2.82,2.39,3.73,5.08,7.33,7,11.36a24.61,24.61,0,0,1,2.57,13Z"/><path class="cls-16" d="M861.83,594.79a40.6,40.6,0,0,0-3.41-9.37,96.05,96.05,0,0,1-4.06-9.2,28.37,28.37,0,0,1-1.2-10,47.16,47.16,0,0,0-.4-9.94l.1,0c1.18,3.18,1.21,6.65,1.3,10s0,6.66,1,9.79a95.33,95.33,0,0,0,3.76,9.25,41.21,41.21,0,0,1,3,9.55Z"/><path class="cls-16" d="M852,619a47.06,47.06,0,0,0-2.15-8.54,34.9,34.9,0,0,0-3.79-7.88,22.79,22.79,0,0,0-2.72-3.37,18.81,18.81,0,0,0-3.46-2.51c-1.23-.77-2.54-1.47-3.77-2.34a14,14,0,0,1-1.74-1.44,6,6,0,0,1-1.26-1.87l.09,0a9,9,0,0,0,3.28,2.76c1.27.72,2.59,1.37,3.9,2.07a15.13,15.13,0,0,1,3.67,2.69,23.59,23.59,0,0,1,2.69,3.62,35.85,35.85,0,0,1,3.59,8.15A48,48,0,0,1,852.1,619Z"/><path class="cls-16" d="M868.63,589.5a94.34,94.34,0,0,1-2.28-10.91c-.31-1.83-.68-3.65-.9-5.48s-.45-3.67-.6-5.53l.1,0a31.9,31.9,0,0,1,1.48,5.39c.36,1.83.51,3.69.71,5.53.43,3.68.84,7.36,1.59,11Z"/><path class="cls-30" d="M595.05,599a21.81,21.81,0,0,1,4.45-7.11c1.87-2.1,3.92-4,5.84-6a31.39,31.39,0,0,0,4.94-6.55,16.54,16.54,0,0,0,2-7.89h.1a13.52,13.52,0,0,1-1.18,8.35,24.29,24.29,0,0,1-5.27,6.66c-2,2-4.11,3.79-6,5.8a21.46,21.46,0,0,0-4.72,6.81Z"/><path class="cls-30" d="M596.12,587.92a16,16,0,0,1,2.66-4.78,24.44,24.44,0,0,0,2.89-4.53c.74-1.62,1.18-3.36,1.77-5.08a19.3,19.3,0,0,1,2.36-5l.09,0c-.59,1.74-1,3.46-1.49,5.22a24.47,24.47,0,0,1-2,5.14,25,25,0,0,1-3.22,4.48,15.84,15.84,0,0,0-2.95,4.51Z"/><path class="cls-30" d="M593.62,576.45a18.56,18.56,0,0,0,.67-2.86c.18-1,.32-1.94.46-2.91a20.61,20.61,0,0,1,.5-2.93,9.89,9.89,0,0,1,1.23-2.76l.1,0c-.06,1-.2,2-.35,3s-.46,1.9-.69,2.86a28.33,28.33,0,0,1-1.83,5.66Z"/><path class="cls-30" d="M588.6,567.85c.17-.79.3-1.58.39-2.35a6.34,6.34,0,0,1,.12-1.16,4,4,0,0,1,.56-1.13h.1a2.27,2.27,0,0,1,.33,1.26,3.16,3.16,0,0,1-.33,1.2,11,11,0,0,1-1.08,2.21Z"/><path class="cls-16" d="M720.58,565.56a7.36,7.36,0,0,0,4-2.67,24.8,24.8,0,0,0,2.81-4c.82-1.42,1.47-2.92,2.22-4.38s1.46-2.93,2.19-4.43l.09,0a18.72,18.72,0,0,1-1.37,4.82,26.1,26.1,0,0,1-2.45,4.38,25.12,25.12,0,0,1-3.13,3.93,7.72,7.72,0,0,1-4.32,2.42Z"/><path class="cls-16" d="M751.59,570.91a7.09,7.09,0,0,0,3-2.15,20.16,20.16,0,0,0,2.22-3c.65-1.07,1.17-2.22,1.81-3.31s1.27-2.18,2-3.25l.09,0a15.17,15.17,0,0,1-1.2,3.67,19.05,19.05,0,0,1-2,3.3,20.16,20.16,0,0,1-2.53,2.93,7.29,7.29,0,0,1-3.35,1.89Z"/><path class="cls-16" d="M734.47,567.7a18.13,18.13,0,0,0,5.79-5.37c.79-1.07,1.46-2.22,2.26-3.29a25.58,25.58,0,0,1,2.63-3.09l.08.06a29.13,29.13,0,0,1-1.88,3.59,24.59,24.59,0,0,1-2.46,3.23,17,17,0,0,1-6.38,5Z"/><path class="cls-16" d="M704,566.1a31.14,31.14,0,0,0,3.68-4.91c1.12-1.71,2.17-3.47,3.16-5.26s1.86-3.65,2.74-5.47c.44-.92.85-1.84,1.2-2.78a9.44,9.44,0,0,0,.42-1.44,3,3,0,0,0,0-1.47l.09,0a4.73,4.73,0,0,1,.14,3.15,18.24,18.24,0,0,1-.95,3,37.52,37.52,0,0,1-3,5.47q-1.62,2.64-3.44,5.15a31.66,31.66,0,0,1-4,4.7Z"/><path class="cls-16" d="M694.88,562.36a24.54,24.54,0,0,0,3.15-3.53,37.89,37.89,0,0,0,2.63-3.93c.79-1.36,1.44-2.79,2.12-4.19a26.68,26.68,0,0,0,1.71-4.36h.1a11.26,11.26,0,0,1-.9,4.75,21.48,21.48,0,0,1-2.35,4.22,30.34,30.34,0,0,1-6.4,7.11Z"/><path class="cls-20" d="M788.18,529.08c7-9.6,39.93-21.35,46.38-9.69"/><path class="cls-29" d="M788.83,531.82a22.29,22.29,0,0,1,5.89-4.91,39.29,39.29,0,0,1,7-3.31,25,25,0,0,1,7.57-1.64,14.74,14.74,0,0,1,3.91.42,8.21,8.21,0,0,1,3.44,1.81l-.06.08A12.38,12.38,0,0,0,809.3,523a34.73,34.73,0,0,0-7.37,1.4,38.79,38.79,0,0,0-7,3,22.13,22.13,0,0,0-6.06,4.54Z"/><path class="cls-29" d="M825.58,430a29.28,29.28,0,0,0,8,.82,27.53,27.53,0,0,0,7.8-1.67c2.52-.88,5-2,7.5-2.93a65.87,65.87,0,0,1,7.69-2.53,30.25,30.25,0,0,1,8.11-.93,19.67,19.67,0,0,1,8,1.93,22.57,22.57,0,0,1,6.5,4.95,33.38,33.38,0,0,1,4.66,6.62l-.09,0a42.13,42.13,0,0,0-5.07-6.18,22.39,22.39,0,0,0-6.43-4.53,20.45,20.45,0,0,0-7.58-1.85,29.83,29.83,0,0,0-7.87.71,69.74,69.74,0,0,0-7.66,2.36c-2.51.92-5,2-7.56,2.8a27.62,27.62,0,0,1-8,1.5,30,30,0,0,1-8-1Z"/><path class="cls-29" d="M840.78,366.34a22.23,22.23,0,0,0,4.44-2.41,10.81,10.81,0,0,1,4.75-1.87,6,6,0,0,1,2.56.36,16.9,16.9,0,0,1,2.28,1.18,8.15,8.15,0,0,0,2.28.94,12.07,12.07,0,0,0,2.48.15,7.92,7.92,0,0,0,4.58-1.6c1.34-1,2.58-2.17,4.05-3.09a13.89,13.89,0,0,1,4.78-2,19,19,0,0,1,5.16-.32,31.81,31.81,0,0,1,10,2.44,36.74,36.74,0,0,1,8.85,5.22,27.36,27.36,0,0,1,6.75,7.74,15.83,15.83,0,0,1,1.77,4.84,11.55,11.55,0,0,1-.26,5.1l-.1,0a13.11,13.11,0,0,0-2-9.56,27.39,27.39,0,0,0-6.77-7.31,41.51,41.51,0,0,0-8.62-5.09,30.92,30.92,0,0,0-9.64-2.55,18.29,18.29,0,0,0-5,.23,13.21,13.21,0,0,0-4.58,1.84c-1.43.86-2.65,2-4.07,3a8.46,8.46,0,0,1-4.89,1.63,11.22,11.22,0,0,1-1.3,0A9.71,9.71,0,0,1,857,365a8.77,8.77,0,0,1-2.39-1,17.51,17.51,0,0,0-2.2-1.2,5.58,5.58,0,0,0-2.42-.39,10.56,10.56,0,0,0-4.66,1.74,22.52,22.52,0,0,1-4.52,2.34Z"/><path class="cls-29" d="M851.15,337.27a14.86,14.86,0,0,1,5.29-2,29.24,29.24,0,0,1,5.68-.34c3.77.09,7.6.17,11.15-1.14s6.87-3.09,10.53-4.24a24.22,24.22,0,0,1,2.79-.7c1-.16,1.91-.24,2.86-.31a36.54,36.54,0,0,1,5.73.15A38.36,38.36,0,0,1,916,337.49a31.28,31.28,0,0,1,7.19,8.91,25.64,25.64,0,0,1,2.06,5.34,24.52,24.52,0,0,1,.73,5.65h-.1a25.66,25.66,0,0,0-3.3-10.66,31.6,31.6,0,0,0-7.22-8.48,39.66,39.66,0,0,0-20.29-8.81,37.37,37.37,0,0,0-5.6-.22c-.93.06-1.87.13-2.78.27a21.92,21.92,0,0,0-2.72.65c-3.59,1.06-6.93,2.93-10.57,4.09a21.1,21.1,0,0,1-5.62,1c-1.9.1-3.8,0-5.69-.06a28.6,28.6,0,0,0-5.63.24,14.44,14.44,0,0,0-5.27,1.93Z"/><path class="cls-29" d="M828.33,416.19a21.45,21.45,0,0,0,4-1.21c1.31-.51,2.61-1,3.95-1.47a12.38,12.38,0,0,1,4.19-.71,6.11,6.11,0,0,1,4,1.58l-.42.13a7.81,7.81,0,0,1,3.71-4.72,21,21,0,0,1,5.59-2.27,33.55,33.55,0,0,1,5.92-1.08l1.52-.07c.5,0,1,.05,1.52.07a19.14,19.14,0,0,1,3,.43,23.34,23.34,0,0,1,5.65,2.23,46.65,46.65,0,0,1,5,3.31c1.6,1.17,3.16,2.39,4.77,3.53a38.31,38.31,0,0,0,5.09,3l0,.09c-3.78-1.34-7.09-3.7-10.33-5.95q-2.44-1.68-5-3.11a26.63,26.63,0,0,0-5.39-2.16,21.32,21.32,0,0,0-2.86-.47,13.93,13.93,0,0,0-1.45-.1l-1.46,0a8.9,8.9,0,0,0-1.45.14l-1.45.19c-1,.17-1.93.38-2.89.61a20.71,20.71,0,0,0-5.44,2.09,7.17,7.17,0,0,0-3.54,4.31l-.11.43-.31-.3a5.7,5.7,0,0,0-3.65-1.55,12.41,12.41,0,0,0-4.08.59c-1.34.39-2.64.9-4,1.37a21,21,0,0,1-4.06,1.11Z"/><path class="cls-29" d="M838,384.35a10.85,10.85,0,0,1,6.48-3.36,19.94,19.94,0,0,1,7.32,1,27.45,27.45,0,0,0,7.15,1.36,23.33,23.33,0,0,0,3.62-.28c1.2-.17,2.41-.42,3.69-.48a9.35,9.35,0,0,1,3.78.53,16.29,16.29,0,0,1,3.39,1.7,29.57,29.57,0,0,1,5.72,4.79c3.4,3.64,6.19,7.68,9.46,11.35l-.07.07c-3.7-3.29-6.65-7.29-10.11-10.72a34.13,34.13,0,0,0-5.54-4.66,11,11,0,0,0-6.6-2.27c-1.19,0-2.4.26-3.63.41a24.34,24.34,0,0,1-3.73.21,27.94,27.94,0,0,1-7.27-1.53,19.57,19.57,0,0,0-7.15-1.19,10.65,10.65,0,0,0-6.44,3.14Z"/><path class="cls-29" d="M778.54,570.62a22.29,22.29,0,0,0,1.1,5.89A28.32,28.32,0,0,0,782,582a16.55,16.55,0,0,0,3.64,4.54,6.48,6.48,0,0,0,2.46,1.33,5.73,5.73,0,0,0,2.88,0l0,.09a5,5,0,0,1-3.05.6,6.34,6.34,0,0,1-2.95-1.23,13.33,13.33,0,0,1-3.73-5,28.85,28.85,0,0,1-2.08-5.75,22.3,22.3,0,0,1-.72-6Z"/><path class="cls-29" d="M775.08,596.91a9.65,9.65,0,0,0,1.3,2.73,27,27,0,0,0,1.82,2.43,35.49,35.49,0,0,0,4.25,4.33,31.31,31.31,0,0,0,4.94,3.38c1.72.91,3.67,1.67,5.61,1l0,.08a4.45,4.45,0,0,1-3,.75,9.23,9.23,0,0,1-3.06-.89,19.47,19.47,0,0,1-5-3.68,35.92,35.92,0,0,1-4.11-4.61,24.39,24.39,0,0,1-1.68-2.59,9.59,9.59,0,0,1-1.15-2.86Z"/><path class="cls-29" d="M781.29,655c1.33,1.13,2.53,2.38,3.78,3.59s2.46,2.42,3.78,3.52a23.17,23.17,0,0,0,4.21,2.77,6.13,6.13,0,0,0,4.79.5l0,.08a4.49,4.49,0,0,1-2.55.86,6.83,6.83,0,0,1-2.69-.53,14.81,14.81,0,0,1-4.34-3.08c-1.28-1.2-2.46-2.48-3.62-3.78s-2.25-2.64-3.48-3.86Z"/><path class="cls-29" d="M775.74,589.26c1.75.56,3.47,1.22,5.2,1.77.86.29,1.75.45,2.6.75s1.69.58,2.57.94v.1a7.23,7.23,0,0,1-2.82-.07,12.46,12.46,0,0,1-2.62-1c-1.7-.73-3.32-1.6-5-2.43Z"/><path class="cls-29" d="M778.52,616.27a12.23,12.23,0,0,0,6.83,2h.19v.21c.3,4.83.59,9.67,1,14.49.21,2.41.42,4.81.54,7.23s.3,4.83.42,7.25l-.1,0a70,70,0,0,1-1.21-7.19c-.32-2.41-.48-4.83-.6-7.25-.21-4.85-.41-9.69-.5-14.53l.21.2a12.54,12.54,0,0,1-6.88-2.35Z"/><path class="cls-29" d="M775.75,595.5a32.2,32.2,0,0,0,6,3.31,29.9,29.9,0,0,0,6.44,2.09l.33.06-.09.33a16.88,16.88,0,0,0-.41,6.57,40.73,40.73,0,0,0,1.4,6.52c.61,2.15,1.27,4.29,1.94,6.44a58.49,58.49,0,0,1,1.75,6.55l-.1,0c-.75-2.13-1.63-4.2-2.42-6.31a62.39,62.39,0,0,1-2.16-6.44,37.13,37.13,0,0,1-1.21-6.72,17.68,17.68,0,0,1,.63-6.82l.24.39a28.83,28.83,0,0,1-6.5-2.35,33.08,33.08,0,0,1-5.87-3.57Z"/><path class="cls-29" d="M777.1,565l7.57-.07h.45l-.25.41a42.24,42.24,0,0,0-4.07,9.26c-.49,1.61-1,3.22-1.4,4.85a34.69,34.69,0,0,0-.86,5h-.1a16.86,16.86,0,0,1,.13-5.16,26.78,26.78,0,0,1,1.28-5c.59-1.62,1.29-3.2,2-4.74a37.24,37.24,0,0,1,2.55-4.48l.2.4-7.53-.35Z"/><path class="cls-29" d="M794.45,513.81a7.55,7.55,0,0,0,4.3,1.49,44.65,44.65,0,0,1,4.68.52l.46.1-.33.34c-1.43,1.51-2.95,2.91-4.38,4.38a28.07,28.07,0,0,0-3.83,4.75,23.62,23.62,0,0,0-2.73,5.37c-.32,1-.57,1.94-.81,3l-.38,1.5a6.85,6.85,0,0,0-.14.74.92.92,0,0,0,0,.16s0,0,0,0a1.12,1.12,0,0,0,.31-.18l.07.08a1.33,1.33,0,0,1-.33.27.21.21,0,0,1-.27-.14c0-.08,0-.16,0-.22a6.91,6.91,0,0,1,0-.8c0-.52.11-1,.17-1.54a19.27,19.27,0,0,1,.56-3.09,16.88,16.88,0,0,1,2.71-5.69,29.12,29.12,0,0,1,4.13-4.72c1.5-1.43,3.06-2.78,4.53-4.22l.13.45c-1.48-.38-3-.48-4.6-.72a7.77,7.77,0,0,1-4.33-1.73Z"/><path class="cls-29" d="M826.24,509.74a36.78,36.78,0,0,0-6.55-2,46.69,46.69,0,0,0-6.75-1.06,38.1,38.1,0,0,0-6.76.1A11.1,11.1,0,0,0,800,509l-.08-.07a7.08,7.08,0,0,1,2.74-2.19,14,14,0,0,1,3.4-1,25,25,0,0,1,7,.09,50.09,50.09,0,0,1,6.79,1.37,37,37,0,0,1,6.47,2.43Z"/><path class="cls-29" d="M815.83,513.14a27.38,27.38,0,0,1,2.69-6.43c.16-.24.3-.5.48-.74l.56-.69a9.45,9.45,0,0,1,1.26-1.27,4.9,4.9,0,0,1,.74-.52,4.7,4.7,0,0,1,.78-.46,7.42,7.42,0,0,1,1.71-.61,12.64,12.64,0,0,1,7.06.6,31.11,31.11,0,0,1,6.25,3.17l-.05.09c-2.2-.78-4.32-1.68-6.5-2.3a14.25,14.25,0,0,0-6.59-.77,7,7,0,0,0-3,1.31,9.44,9.44,0,0,0-1.23,1.14l-.56.63c-.18.22-.33.47-.49.7a27,27,0,0,0-3,6.18Z"/><path class="cls-29" d="M807.56,490.26a37.27,37.27,0,0,1,7.24.16l3.58.41c1.2.14,2.39.24,3.58.34l1.86.16-1.71.81a10.74,10.74,0,0,0-3,2,7,7,0,0,0-1.83,3.11h-.1a5.08,5.08,0,0,1,.33-1.92,5.87,5.87,0,0,1,1-1.74,8.21,8.21,0,0,1,3.18-2.36l.15,1c-1.2-.14-2.39-.36-3.58-.56l-3.55-.61a40.89,40.89,0,0,0-7.15-.65Z"/><path class="cls-29" d="M505.31,281.59a54,54,0,0,1,6.85,2.49,14.57,14.57,0,0,1,5.67,4.67l1,1.53c.34.48.69,1,1.06,1.44.73.95,1.46,1.91,2.17,2.9a33.15,33.15,0,0,1,2,3.1,9.72,9.72,0,0,1,1.25,3.46l-.1,0a13.45,13.45,0,0,0-1.74-3.12c-.69-1-1.41-1.93-2.18-2.86s-1.48-1.91-2.17-2.92c-.35-.5-.69-1-1-1.54l-.91-1.56a13.92,13.92,0,0,0-5.24-4.68,55.14,55.14,0,0,0-6.65-2.84Z"/><path class="cls-29" d="M524.85,279a13.26,13.26,0,0,1,6.65,1.34,26.76,26.76,0,0,1,5.78,3.69,24,24,0,0,1,4.7,5,12.35,12.35,0,0,1,2.28,6.49l-.17-.14.16,0s0,0,0-.1a.79.79,0,0,1,.08-.47l.09,0a.73.73,0,0,0,0,.41.31.31,0,0,1-.09.32.63.63,0,0,1-.26.11l-.13,0,0-.18a16.06,16.06,0,0,0-2.83-5.94,31.54,31.54,0,0,0-4.37-5,25.73,25.73,0,0,0-5.48-3.84,13,13,0,0,0-6.43-1.68Z"/><path class="cls-29" d="M516.6,279.71c1.16.61,2.31,1.24,3.41,2a8,8,0,0,1,1.61,1.17,4,4,0,0,1,1,1.78l-.09.06c-.58-.37-1.09-.72-1.6-1.09s-.93-.86-1.42-1.28c-1-.84-2-1.66-3-2.51Z"/><path class="cls-29" d="M442.52,249.26a47,47,0,0,0,3.69,5.87c1.33,1.89,2.74,3.72,4.16,5.55s2.88,3.64,4.13,5.62a27.57,27.57,0,0,1,3.07,6.29l-.09,0c-1.2-2-2.46-3.9-3.81-5.76s-2.62-3.8-3.95-5.7a72.8,72.8,0,0,1-7.29-11.85Z"/><path class="cls-29" d="M459.44,257.91c1,1.18,2.12,2.24,3.09,3.47a7.24,7.24,0,0,1,1.31,2,3.59,3.59,0,0,1,.13,2.44h-.1a12.53,12.53,0,0,0-.94-2c-.36-.62-.65-1.32-1.05-2-.8-1.29-1.75-2.53-2.52-3.89Z"/><path class="cls-29" d="M401.14,206.81c-1,1.73-1.89,3.49-2.67,5.29a25.76,25.76,0,0,0-1,2.74,8.22,8.22,0,0,0-.39,2.79l-.63-.36a4,4,0,0,1,3.46,0,9.65,9.65,0,0,1,2.72,1.93,36,36,0,0,1,4.06,5c2.45,3.52,4.8,7.12,6.94,10.83,1.08,1.84,2.1,3.77,3.29,5.44s2.63,3.35,4.69,3.14a19.92,19.92,0,0,1,3.26.09,9.53,9.53,0,0,1,1.64.33,5.12,5.12,0,0,1,1.53.77,16.29,16.29,0,0,1,2.43,2.17l1.09,1.2a4.45,4.45,0,0,0,1.14,1v.1a4.15,4.15,0,0,1-1.34-.94l-1.19-1.07a15.48,15.48,0,0,0-2.49-1.92,6.08,6.08,0,0,0-1.37-.6,10.49,10.49,0,0,0-1.52-.23,20.88,20.88,0,0,0-3.15.06,5.07,5.07,0,0,1-1.75-.18,4.59,4.59,0,0,1-1.57-.85,14.08,14.08,0,0,1-2.24-2.48c-1.24-1.86-2.18-3.75-3.21-5.64a99.12,99.12,0,0,0-6.42-11.08,25.92,25.92,0,0,0-4.26-4.72,9.59,9.59,0,0,0-2.59-1.62,3.38,3.38,0,0,0-2.75,0l-.61.29,0-.65a8.73,8.73,0,0,1,.5-3.08,17.09,17.09,0,0,1,1.16-2.79,33.25,33.25,0,0,1,3.19-5.07Z"/><path class="cls-29" d="M416.57,256.44a5.9,5.9,0,0,0,.52,2.12,2.38,2.38,0,0,0,1.53,1.1,6.16,6.16,0,0,0,2.21.29,11.41,11.41,0,0,0,2.28-.47,12.1,12.1,0,0,1,2.34-.45,8.09,8.09,0,0,1,2.45.11,7.93,7.93,0,0,1,4.07,2.52l-.06.08a16.82,16.82,0,0,0-4.23-1.55,11.3,11.3,0,0,0-2.19-.22l-2.3.06a20.27,20.27,0,0,0-2.32.24,8.11,8.11,0,0,1-2.43.2,2.5,2.5,0,0,1-2.05-1.59,3.57,3.57,0,0,1,.08-2.46Z"/><path class="cls-29" d="M497.44,284.62a7.76,7.76,0,0,1,.68,4.35c-.06.72-.13,1.44-.23,2.14a13.57,13.57,0,0,0-.2,2.1l-.26-.22a31.74,31.74,0,0,0,4.42-.47,10.75,10.75,0,0,1,4.54.33,38.65,38.65,0,0,1,4.13,1.67,6.59,6.59,0,0,0,4.16.61l0,.09a4,4,0,0,1-2.23.55,8.25,8.25,0,0,1-2.27-.39c-1.46-.42-2.8-1.07-4.13-1.57a14.44,14.44,0,0,0-4.21-.76,18.85,18.85,0,0,0-4.41.43l-.21,0-.05-.26a11.12,11.12,0,0,1-.16-2.22,21.64,21.64,0,0,1,.21-2.16,13.57,13.57,0,0,0,.09-4.22Z"/><path class="cls-29" d="M509.86,286.52c.13,1,.61,1.88.71,3l-.53-.25a19.56,19.56,0,0,1,6.78-3.68c2.46-.76,4.83-1.69,7.33-2.38,1.26-.32,2.5-.56,3.79-.76a12.38,12.38,0,0,1,3.94-.08,15.28,15.28,0,0,1,3.76,1.12c.58.26,1.16.52,1.75.76l.88.33a3.74,3.74,0,0,0,.45.12c.15,0,.31,0,.38-.05l.09,0c-.1.21-.33.21-.48.22a4.07,4.07,0,0,1-.5,0,9.59,9.59,0,0,1-1-.18c-.63-.15-1.25-.33-1.86-.5a19,19,0,0,0-3.64-.81,32.1,32.1,0,0,0-7.45.54,21.74,21.74,0,0,0-7.27,2.16c-2.25,1.2-4.49,2.33-6.59,3.71l-.55.36,0-.62c0-.93-.27-1.95-.15-3Z"/><path class="cls-29" d="M338.71,296.3c.24,1.63.42,3.26.62,4.88s.41,3.23.57,4.84a12.64,12.64,0,0,0,1.1,4.69c.77,1.43,1.88,2.67,2.57,4.25l-.39-.21a1.83,1.83,0,0,1,1.32.22,5,5,0,0,1,1,.72,13.29,13.29,0,0,1,1.47,1.74,32.28,32.28,0,0,1,2.3,3.8,39.22,39.22,0,0,1,1.86,4c.28.68.55,1.36.85,2l.42,1,.11.25,0,.13,0,.06a.11.11,0,0,0-.12,0c-.06,0-.05.06-.07.07s0,.09,0,.06l-.19-.51.09-.05.29.47a.15.15,0,0,1,0,.13s0,0-.08,0a.13.13,0,0,1-.13-.07l0-.06-.07-.11-.15-.24c-.2-.31-.4-.61-.59-.93-.38-.63-.75-1.28-1.09-1.92-.68-1.31-1.36-2.58-2.1-3.83s-1.41-2.55-2.19-3.75a14.34,14.34,0,0,0-1.27-1.69,2.16,2.16,0,0,0-1.51-.9l-.33,0-.07-.23a23.23,23.23,0,0,0-2.2-4.33,18,18,0,0,1-1.61-4.71,30.19,30.19,0,0,1-.59-4.91,38.81,38.81,0,0,1,.07-4.94Z"/><path class="cls-29" d="M393.15,399.35a9.35,9.35,0,0,1,3.63-4.27l.16-.1.13.17a100,100,0,0,1,5.57,8.39c.87,1.43,1.69,2.89,2.42,4.4s1.45,3,2.1,4.57l-.09.05c-1-1.35-1.92-2.76-2.78-4.2s-1.7-2.87-2.49-4.35a95.22,95.22,0,0,0-5.09-8.6l.29.06a9.1,9.1,0,0,0-3.75,3.92Z"/><path class="cls-29" d="M392,430.59a5.88,5.88,0,0,1,.21-2.56,4.06,4.06,0,0,1,1.52-2.14l.24-.17.13.27c.54,1.08,1,2.17,1.5,3.25s1,2.15,1.51,3.21,1,2.15,1.45,3.22c.24.53.47,1.07.73,1.59a6.79,6.79,0,0,0,.43.74c.15.23.33.48.58.44l.05.09a.52.52,0,0,1-.51,0,2.86,2.86,0,0,1-.4-.28,4.5,4.5,0,0,1-.63-.68,13.75,13.75,0,0,1-1-1.5,23.41,23.41,0,0,1-1.58-3.22l-1.28-3.33c-.43-1.11-.83-2.23-1.29-3.31l.38.11a3.72,3.72,0,0,0-1.51,1.82,5.6,5.6,0,0,0-.4,2.44Z"/><path class="cls-29" d="M418.76,438.16a8.74,8.74,0,0,1-3.27-2.38,29.25,29.25,0,0,1-2.48-3.21,27.45,27.45,0,0,0-5-6.07l-.53-.42.53-.39a7.65,7.65,0,0,0,2.06-2.11,2.73,2.73,0,0,0,.46-1.34,2.33,2.33,0,0,0-.43-1.4l.07-.07a2.34,2.34,0,0,1,.85,1.44,3.33,3.33,0,0,1-.27,1.71,6.81,6.81,0,0,1-2.13,2.59v-.82a12.33,12.33,0,0,1,2.76,3.11c.77,1.13,1.46,2.28,2.16,3.42a36.3,36.3,0,0,0,2.25,3.31,8.3,8.3,0,0,0,3,2.53Z"/><path class="cls-29" d="M360.53,333.91c.5,1.5,1.26,2.88,1.67,4.48a6.06,6.06,0,0,1,.17,2.52,4.17,4.17,0,0,1-1.21,2.26l-.58.58V343a1.29,1.29,0,0,0-.16-.66l-1.1-1.44,1.42,1a45.59,45.59,0,0,1,4.15,3.41,30.73,30.73,0,0,1,3.6,4c1.1,1.4,2.12,2.85,3.14,4.28a52.2,52.2,0,0,0,3.21,4.19l-.26.16a.48.48,0,0,0-.21-.33,2.66,2.66,0,0,1-.4-.32l.07-.07a3.18,3.18,0,0,0,.45.2.79.79,0,0,1,.39.43l.19.51-.45-.35a23.9,23.9,0,0,1-3.77-3.82c-1.13-1.39-2.14-2.85-3.14-4.3s-2-2.88-3.16-4.22a12.61,12.61,0,0,0-4.08-3.29l.33-.41a1.66,1.66,0,0,1,.43,1l-.57-.19a4.42,4.42,0,0,0,.82-2,6.31,6.31,0,0,0-.1-2.2,37.34,37.34,0,0,1-1-4.64Z"/><path class="cls-29" d="M345.46,329.07a7.32,7.32,0,0,0-.87,1.16,2.87,2.87,0,0,1-1.18,1l.13-.4a64.39,64.39,0,0,1,4.69,8.23,76.85,76.85,0,0,0,4.45,8.36c1.61,2.71,3.12,5.48,4.61,8.26s2.83,5.63,4.16,8.5l-.32.18a1.55,1.55,0,0,0-.44-.58,5.77,5.77,0,0,1-.62-.51l.06-.07c.22.15.46.24.7.39a1.84,1.84,0,0,1,.62.59l-.32.17q-2.55-4-4.79-8.17t-4.21-8.48a63.55,63.55,0,0,0-4.47-8.33c-1.7-2.66-3.15-5.45-4.59-8.26l-.16-.3.29-.1a2.68,2.68,0,0,0,1.11-.74,5.5,5.5,0,0,1,1.09-1Z"/><path class="cls-30" d="M456.26,454.1a6.24,6.24,0,0,0,2.6-3.5,23,23,0,0,0,.9-4.38l.09-.65.36.57a48.36,48.36,0,0,1,3.43,7.29,34,34,0,0,0,3.64,7l-.91.14a11.81,11.81,0,0,1,1.21-2.44,17.35,17.35,0,0,0,1.2-2.21l.49-1.37.35,1.38c.3,1.18.6,2.36.92,3.54.16.58.35,1.16.54,1.73a6,6,0,0,0,.79,1.61l-.06.07a5,5,0,0,1-1.08-1.53,15.82,15.82,0,0,1-.75-1.69c-.47-1.15-.85-2.32-1.21-3.5h.85a12.73,12.73,0,0,1-1.17,2.46,14.11,14.11,0,0,0-1.1,2.25l-.34,1-.57-.83A33.72,33.72,0,0,1,463,453.7a49,49,0,0,0-3.15-7.31l.44-.09a23.26,23.26,0,0,1-1.11,4.4,6.42,6.42,0,0,1-2.82,3.49Z"/><path class="cls-30" d="M473.13,480.87a19.69,19.69,0,0,0,2.53,3.91,7.63,7.63,0,0,0,3.66,2.54l-.48.3a16.8,16.8,0,0,1,.62-2.85c.26-.92.53-1.81.75-2.69l.38-1.51.58,1.42a13.06,13.06,0,0,0,1.31,2.36,11,11,0,0,0,1.83,2.1l-.05.09a7.36,7.36,0,0,1-2.35-1.72,8.66,8.66,0,0,1-1.67-2.44l1-.08c-.38,1.94-1.34,3.61-1.62,5.42l-.07.45-.41-.14a8.16,8.16,0,0,1-3.8-3,19.91,19.91,0,0,1-2.26-4.15Z"/><path class="cls-30" d="M498.54,510.13c.12-1.14.29-2.28.45-3.41a22.53,22.53,0,0,0,.29-3.36l.45.49a4.81,4.81,0,0,1-1.3-.12,3.31,3.31,0,0,1-1.21-.58,20.15,20.15,0,0,1-1.76-1.68l.05-.09a9.35,9.35,0,0,1,2.19,1,6.33,6.33,0,0,0,2.06.55l.5.06-.06.43a25.53,25.53,0,0,1-.67,3.42c-.28,1.11-.63,2.2-.89,3.31Z"/><path class="cls-30" d="M498,518.18c2,1,3.92,2,5.86,3s3.9,2.06,5.88,3a54.17,54.17,0,0,0,6.07,2.5c2,.64,4.27,1.18,6.26.67l-.22.5a23,23,0,0,1-2.34-11.24l.09-1.41.82,1.18a19.36,19.36,0,0,0,3.52,3.92,14.52,14.52,0,0,0,4.62,2.48c1.69.54,3.47.9,5.24,1.32a41.53,41.53,0,0,1,5.26,1.5l0,.1c-1.77-.44-3.55-.75-5.34-1a46.11,46.11,0,0,1-5.38-1.07,14.25,14.25,0,0,1-5-2.5,17.52,17.52,0,0,1-3.72-4.16l.91-.24a21.92,21.92,0,0,0,2,10.85l.21.44-.43.07a7.38,7.38,0,0,1-1.74.2l-.85,0-.84-.13a18.59,18.59,0,0,1-3.24-.85,52.27,52.27,0,0,1-6.08-2.66c-2-1-3.89-2.08-5.81-3.16s-3.81-2.2-5.77-3.2Z"/><path class="cls-30" d="M462.46,469.7c-.48-2.4-1.41-4.73-1.54-7.27l-.11-2.1.72,2a20.45,20.45,0,0,0,3.39,5.59c.66.87,1.36,1.72,2.08,2.54a17.27,17.27,0,0,0,2.38,2.3l-.05.09a9.62,9.62,0,0,1-2.9-1.81,16.71,16.71,0,0,1-2.34-2.49,22.6,22.6,0,0,1-1.81-2.89,16.61,16.61,0,0,1-1.35-3.15l.62-.1c0,2.42.7,4.82,1,7.28Z"/></g></g></svg>