<svg xmlns="http://www.w3.org/2000/svg" xmlns:xlink="http://www.w3.org/1999/xlink" viewBox="0 0 1781.47 1135.51"><defs><style>.cls-1{fill:#bc9b72;}.cls-15,.cls-2,.cls-21,.cls-23{opacity:0.3;}.cls-2{fill:url(#radial-gradient);}.cls-3,.cls-7{fill:#e7983e;}.cls-3{stroke:#dd643a;stroke-width:11.34px;opacity:0.5;}.cls-3,.cls-4,.cls-5,.cls-6{stroke-miterlimit:10;}.cls-4,.cls-5,.cls-6{fill:none;stroke:#ac3034;}.cls-4{stroke-width:5.67px;}.cls-14,.cls-4,.cls-5{opacity:0.2;}.cls-5,.cls-6{stroke-width:2.13px;}.cls-8{fill:#dd643a;}.cls-22,.cls-9{fill:#5fb379;}.cls-10{fill:#43914d;}.cls-11{fill:#f6ec5b;}.cls-12{fill:#d8de50;}.cls-13{fill:#63b157;}.cls-14,.cls-16{fill:#221f20;}.cls-15{fill:url(#radial-gradient-2);}.cls-17{fill:#59a8dc;}.cls-18{fill:#e6e7e8;}.cls-19{fill:#924b40;}.cls-20{fill:#fff;}.cls-21{fill:url(#radial-gradient-3);}.cls-22{opacity:0.4;}.cls-23{fill:url(#radial-gradient-4);}</style><radialGradient id="radial-gradient" cx="933.61" cy="794.36" r="150.21" gradientUnits="userSpaceOnUse"><stop offset="0" stop-color="#dd643a"/><stop offset="1" stop-color="#6e4e2f"/></radialGradient><radialGradient id="radial-gradient-2" cx="929.13" cy="836.49" r="129.89" xlink:href="#radial-gradient"/><radialGradient id="radial-gradient-3" cx="339.65" cy="715.71" r="22" xlink:href="#radial-gradient"/><radialGradient id="radial-gradient-4" cx="692.63" cy="668.92" r="529.13" xlink:href="#radial-gradient"/></defs><title>Ritterbush_Pteranodon_afterHartman</title><g id="Layer_2" data-name="Layer 2"><g id="Layer_2-2" data-name="Layer 2"><path class="cls-1" d="M757.69,765.2c20.3,33.73,37.92,85.11,79.71,90.71,28.52,3.82,58.47-20.85,83.14-33,39.93-19.74,71.79-37.57,116.33-38,31.54-.34,71.46-.86,99.93-16.26-32.69.28-66.72-1.51-98.52-9.56-34.69-8.79-43.81-1.22-77,10.88-36,13.09-73.66,25.85-109.58,38.88-7.07,2.56-19.6-42.77-23-48.06-9.47-14.73-8.43-18.8-29.82-22.68-21.64-3.92-47.28-8.93-68.4-2.58,8.63,8.67,16.17,18.22,24.52,27"/><path class="cls-2" d="M757.69,765.2c20.3,33.73,37.92,85.11,79.71,90.71,28.52,3.82,58.47-20.85,83.14-33,39.93-19.74,71.79-37.57,116.33-38,31.54-.34,71.46-.86,99.93-16.26-32.69.28-66.72-1.51-98.52-9.56-34.69-8.79-43.81-1.22-77,10.88-36,13.09-73.66,25.85-109.58,38.88-7.07,2.56-19.6-42.77-23-48.06-9.47-14.73-8.43-18.8-29.82-22.68-21.64-3.92-47.28-8.93-68.4-2.58,8.63,8.67,16.17,18.22,24.52,27"/><path class="cls-3" d="M540.53,660.82c-20.22-16.37-35.32-32.92-44.65-57.12-11.35-29.43-8.06-59.82.61-91.25,10.56-38.3,7.11-76.82,16.55-115.58,7.14-29.35-1.42-67.78,24.14-88.78,15.19-12.49,40.62-19.47,58.35-29.43,100.35-56.39,198.36-118.55,298.84-175.3,43.94-24.82,92.08-48.94,140.18-63.07,67.2-19.74,148.17-32.9,213.21-34.5,3.91,20.41-67.24,74.32-80,85.81C1119,135.29,1084,199.73,1048.37,254.17c-70.22,107.34-158.9,218.14-206.61,338-9.82,24.68-22.74,48.21-30.8,73.59-8.21,25.82-1.55,49.68-21.85,63.51-40.47,27.57-132.54,22.92-175.47,5.62C575.28,719.41,571.13,685.61,540.53,660.82Z"/><path class="cls-4" d="M520.39,468.92c44.66,41.17,128-18.89,162.92-45,45.78-34.16,95.19-72.41,152.74-84.16,21-4.28,44.59,4.76,55.4,7.72"/><path class="cls-4" d="M535.11,346c27-7.21,53-27.59,78.59-39.08,49.16-22.11,100.53-41.53,151.6-58.59,25-8.36,208,19.56,241.65,36.41"/><path class="cls-4" d="M953,88c9.6,15.73-1.34,48.7,3.32,68.44,5.81,24.6,48.74,74.47,71.68,86.1"/><path class="cls-4" d="M960.36,145.81c16.11-5.22,32.22-23.52,47.47-33.8,26.55-17.9,56.88-36.61,87.47-46,26.67-8.22,65.39-15.12,89.22,1.55"/><path class="cls-4" d="M625.66,308.63c25.7,24.65-19.78,66.3-2.6,97"/><path class="cls-4" d="M680.6,423.65c4.86-16.54,5.72-31.89,14.94-47.54,19.14-32.49,49.91-47.23,79.11-69"/><path class="cls-4" d="M765.88,370.19c-4.39,17.23,60,37.89,57.89,57.67-2.08,19.44,38.13,33.58,33.69,52.63"/><path class="cls-4" d="M497.19,601.26c28,19.78,90.29-5.2,114.92-21,27-17.35,181-69.07,215.87-57.63"/><path class="cls-4" d="M576.07,598.81c-5.26,40,55,58.3,45.13,97.61"/><path class="cls-4" d="M604.1,652.56c10.41-19.86,107.34-64.64,131.24-66.79"/><path class="cls-4" d="M872.2,259.42c1,13.46-7.81,22.74-12.63,37.9"/><path class="cls-4" d="M779,245.81a439.43,439.43,0,0,0,57-25.38c27.55-14.94,44.4-46.87,77.83-51.42"/><path class="cls-4" d="M573,476.73c.15,17.9-8.42,37.19-18.19,52.25-9.07,14-28.3,29-26,46.85"/><path class="cls-4" d="M743.77,451c-54.57,9-103.95,80.86-130.53,116.11-9.38,8-8.53,14.9-18.36,20.3"/><path class="cls-5" d="M676.39,606.82c12.19,11.87,78.25,59.83,88.43,71.59"/><path class="cls-5" d="M823.77,415.22c14.29-7.89,83.51-30.94,101.06-25.26"/><path class="cls-5" d="M972.78,185.44c27.17-31.6,84-66.24,125.79-48"/><path class="cls-5" d="M918.52,265.74c-14.65,18.73,34,40.25,35.79,61.05"/><path class="cls-5" d="M862.68,338.52c9.08-12.55,23.18-15.35,38.06-13.83"/><path class="cls-5" d="M736.06,340.38c7.72,2.06,16.19,11.79,23.27,18.21"/><path class="cls-5" d="M701.57,366c-8-6.61-26.72-15.29-31.6-5.87"/><path class="cls-5" d="M757.1,314c-6.1-13.94,4.79-28.48,14.5-38"/><path class="cls-5" d="M656.36,415.91c-2.08-25.93-10.85-32-32.11-46.09C614.2,382.28,596.89,421,612.5,433"/><path class="cls-5" d="M602.69,475.24c6.95,26.87-11.28,43.16-16,67.88"/><path class="cls-5" d="M547.75,539.11a71.15,71.15,0,0,1,15.91,20.07"/><path class="cls-5" d="M674.29,495.23c35.15,2.67,111.48-24,122.11-12.63"/><path class="cls-5" d="M739.55,535.23c-6.07,13.27,49.5,71.63,56.85,82.12"/><path class="cls-5" d="M613.91,670c-4.45,10.85-12.39,26-5.57,37.55"/><path class="cls-5" d="M1098.13,68.86c16.12-1.8,42.39,16.69,43.42,33.61"/><path class="cls-5" d="M999.1,115.55c2.54-11.11,11.24-20.17,21-26.39"/><path class="cls-5" d="M1036.27,143.51c11.2,10.73,3.23,32.21-.74,44.75"/><path class="cls-5" d="M867.58,198.15c12.25.35,78.19,38.49,88.84,44.43"/><path class="cls-5" d="M827,221.05c-4.54-8.75-1-36.65,1-45.85"/><path class="cls-5" d="M899,169.75c8.88-11.8,17.89-48.6,28-59.82"/><path class="cls-5" d="M955.76,172.87c-14.86,15.29,27,59.71,36.45,76"/><path class="cls-5" d="M810.86,345.58c9.53-19.07,9.85-44.83,5.65-65.87"/><path class="cls-5" d="M768.78,398.37c-17.09,10.79-40.14,37.6-37.25,60"/><path class="cls-6" d="M1141.7,55.19c7.64-18.83,36.92-16.38,52.63-25.27"/><path class="cls-7" d="M464.2,682.56a15.67,15.67,0,0,1,6.88,2.57c9.81,6.84,12.2,19.7,24.1,25.1,13.49,6.11,32.05,1.46,46.73,0,34.92-3.48,66.5-15.35,100.33-18.63,74.09-7.18,138.75,46.56,214.41,32.45,33.17-6.19,83.21-15.49,111.72-30.59-22.89,10.21-42.14,26.49-61.88,41.59-8.48,6.49-18.81,11.59-24.27,21-4.69,8.06-5.44,17.88-10,26.05-5.89,10.65-18.15,20.31-28.42,26.64-27.87,17.2-62.65,19.43-94.41,22.53-63.31,6.18-116.3-7.25-177.53-27.9-37.5-12.64-77.3-17.21-116.72-17.79-16.95-.26-33.79,4.48-45.1-10.74-7.45-10-11.56-24.68-10.87-37.11,1.28-23.13,20.72-41.66,41-50.06C447.05,684.83,456.41,681.49,464.2,682.56Z"/><path class="cls-8" d="M605.19,567.48a3.13,3.13,0,0,0,.15-2.28c-4-11.86-55.05,4.35-63.66,7.44-60.12,21.59-103.27,61.08-156.41,95.83-35.55,23.23-75.9,40.24-115.56,52.48C221.94,735.7,172.63,740.8,123,747.65c-21.41,3-43.23,4.29-64.56,5.24-16.23.73-34.07,5-50,3.15,30.18,8.4,68.59,10.5,100.9,7.8,55.44-4.64,112-2.75,168.18-5.29,22.31-1,44.47-3.95,66.73-6,15.78-1.46,36.09,5.5,50.45,2.05,16.13-3.88,28.08-22.27,36.39-35.28,8.46-13.24,19.66-25.37,29.77-37.44,27.74-33.12,66.22-66.48,101.8-91C568.42,587,601.68,575.83,605.19,567.48Z"/><path class="cls-8" d="M74.19,761c35.3,16.51,81.08,18.67,120.29,23.4,29.79,3.59,58.44,5.87,88.64,5.67,19.75-.14,30.18-11.47,48.2-18.17,14.43-5.36,78.74-15.52,80.21-30.4-27.62-6.26-66.42-5.56-95.12,2.09-53.19,14.19-108,15.86-163.22,15.79-21.45,0-47.94-2.39-67.7,4.85"/><path class="cls-8" d="M577.5,709.11c12.32,6.46,27.86,1.65,38.07-7-6.78-24.1-24.91-43.76-42.62-60.81-21-20.23-38.2-49.6-61-66.89-9.55-7.23-6.87-8.35-18.2-2.43-9.5,5-11.14,6.55-9.62,15.83,3,18.31,34.16,41.78,45.46,55.3,18.75,22.45,43.41,45.76,56.31,71.21"/><path class="cls-8" d="M495.41,577.29c-6.88,4.17-11,10.23-14.51,17,14,24.2,26.92,48.55,30.63,76.65-12.78-8.29-46.47-96-33.81-96.31-7.51-2.72-19-8-18.13-17.43a35.33,35.33,0,0,1,14.09,9.8,19.87,19.87,0,0,1,1.46-15.24c2.69,6,4.18,18,10.32,21,8,4,12.18-6.66,20,.44"/><path class="cls-8" d="M485.24,579.12c7.75-24,7.35-52.68,12.2-77.7,4.47-23,7.38-45.65,10.69-68.71,2.47-17.22,24.54-92.89,7.73-101.65,5.95-6.1,25.1-31,23.87-39.13,6.15,13.86,3.08,20.17-4.86,32.05,10.2,9.26,1.06,23,0,34.62-1.55,16.59-2.06,32.47-3.81,49.35-3.14,30.29-8.18,60.07-13.49,90.05-4.71,26.57,1.91,56.68-7.09,81.71"/><path class="cls-8" d="M540,354.67c15.59-22.21,45.38-40.63,69.14-53.38,22.61-12.13,41.31-31.76,63-46.09,25.78-17.06,49.36-36.33,76.56-51.34,18.62-10.27,38.71-15.63,57.84-25.29,29.74-15,54.45-35,81.45-54.35,50.77-36.29,96.09-59.38,157.15-72.39,29.51-6.28,55.72-21.8,85.74-26.1,36.82-5.27,108.83-9.51,121.68-20.75-34.53-9.63-98.17,6.83-118.31,6.1-19-.69-39.85,9.77-57.42,16.1-20.85,7.51-41.33,16.23-62.38,23.62C965.45,68,918.07,76,873.21,104.13,780.65,162.23,687.46,218.65,598,279.21c-21.62,14.65-47.94,26.15-68,41.12-23.86,17.75,1,26,13.22,36.07"/><path class="cls-8" d="M331,730.29c13.61,4.18,64.35-5.31,39.24-26-13.91-11.44-38.16,12.8-44.09,21.11"/><path class="cls-9" d="M429.63,747.45c38.06-1.34,62.5,20.13,88.7,42.5-91.9-9.09-82.43-1.08-111.09-.07-21.38.76-47.95,8.93-68.42.85,16.86-1.37,34.4-3.17,49.78-10.85,12.38-6.18,21.82-26.16,31.19-30.25A26.83,26.83,0,0,1,429.63,747.45Z"/><path class="cls-10" d="M447.08,688.24q-24.25,50.94-52.91,99.49a5.61,5.61,0,0,0,.22-4.28c-39.66,28-95,3.74-134.62,3.74,52.48,6.25,153.48-58.2,184.56-99"/><path class="cls-11" d="M427.84,718.47c9.72-30.18-14.67-40.79-33.25-57.72C415.37,638.15,456.5,619,484.22,603c30.18-17.37,59.87-42.21,93.66-46.49,54.73-6.93,20.55,21.66-5.59,34.75-32.13,16.08-56.41,37.78-84,61.23-23.12,19.67-41.09,44.06-57.84,68.77"/><path class="cls-12" d="M394.85,660.75q-46.2,25.44-94.19,47.21c1.52-.79,2.06-1.71,1.63-2.77-49.67,17.34-100.39,29.88-154.86,35.24-49.58,4.88-103-1.29-147.43,19.42,53.36,8.22,99.34-2.57,151.58-5.41,53.43-2.9,103.79,2.44,158.06-.23,29.34-1.45,52.56-.31,75.93-18.55-9.64-5-21.95-3.39-33.87-3.38,31.69-.81,11.71-18.8,15.77-31.57,4.37-13.77,21.09-24.4,35.34-26.83-4.1-4.29-6.69-11.79-10.71-15.88"/><path class="cls-13" d="M283.93,789.44c-47.73,7.8-107.39-7.4-154.33-13.27-28.14-3.52-67.91,2.45-93.87-8.36,52.55-9.81,106-14.36,159.25-17.59,27.37-1.65,54.76-2.89,82.15-4.13,11.16-.5,25.21-3.71,35.82-1,8.26,2.1,13.63,9.59,22.66,9.36,12.81-.34,24.25-6.9,37.66-6.92C348.71,768.69,316,784.2,283.93,789.44Z"/><path class="cls-9" d="M489.05,653.61C473.23,671.93,467.7,695,493,706.76c24.24,11.23,48.81,2,72.58-4.46a489.62,489.62,0,0,1,50.49-10.83c20.61-3.27,43.49-4.54,64.28-1.93,23.89,3,45.75,14.42,69.33,18.8,15.85,2.95,28.81,8.16,43.55,13.5,13.4,4.86,26.53,2.92,40,6-16.53,5.78-43-4.66-59.36-9.08-25.77-7-49.21-13.34-76-10.46-27,2.91-54.22,2.51-81.32,4.42-11.72.82-14.42,3.83-23.56,7.91-11.12,5-14.3.4-24.86,2.64-13,2.77-11.17,12.05-10.64,22.34-18.59,1.62-34.54-16.37-52.27-1.09-9.3-8.37-13.77,6.15-21,10.51-11.74-2.18-19-13.17-30.63-13.58-1.79-.06-14.44,3.88-17.37,4.4-7.32,1.3-12.62,1.23-19.3,4.26,8.24-30.93,37.88-65.49,60-88.42"/><path class="cls-14" d="M696.48,830.23c31.41,1.86,63.36.65,94-6.73,28.18-6.77,58.12-12.74,76.64-36.1,9.28-11.71,8.58-29.16,18.38-39-27.32,27.38-73.5,51.93-112,57.39-67.39,9.56-119.18-7.09-183.48-21.45-90.34-20.16-188.19-19.06-280.44-5.27-44,6.58-95.26-2.25-142.11-3,34.44,17.27,95.45,13,133.86,17.24,48.91,5.39,93-3.28,140.13-6.17,25.27-1.55,50.51-2,75.58,2,9.08,1.46,16.68,4.16,25.52,6.85,9.94,3,19.84,3.69,29.56,7.1,22,7.71,43.77,13.39,66,20.43C655.91,829.15,678,829.14,696.48,830.23Z"/><path class="cls-8" d="M630.88,793.72c-16.32-12.28-26-36.22-11.31-56.75,10.83-15.09,38.36-14.75,63.48-9,32.85,15.46,42.53,16.42,56,25.12-16.88-1.27-80.89-10.12-85.5,6,20.14,7.3,39.42,12.32,60.52,17.11.43-.08-7.79,1.58-12.5,2.61,7.36,3.12,20.17,8.62,25.89,14.84-25.43,6.54-61.84,9.66-90.82,1.93"/><path class="cls-1" d="M836,762.72c-12.2,22.55-66.31,22.16-79,.07v0c.8,5.64,2,12,3.35,17.61,9.48,40.71,39.8,93.2,84,94.72,20.82.72,41.68-.12,62.49,1.14,15.63.94,31.14,8,46.5,7.51,16.94-.59,30.24-3.29,47.05,2.35,23.38,7.84,47.1,11.93,70.07,19.67,14.91,5,17,4.83,27.49-6.45-10.71,11.55-25.71-1.77-35.76-7.19-23.34-12.57-49.33-22.51-70.44-38.47-10.86,3.4-21,.12-31.87-.46-37.49-2-77.86,5.36-113.72-8.82-3.7-1.47-10.32-34.52-10.8-39.33C834.07,792.64,832.85,774.9,836,762.72Z"/><path class="cls-15" d="M837.86,779.27c-25.28,15.5-52.49-13.15-77.51-15.26-.45,44.49,33.36,109.4,84,111.15,20.82.72,41.68-.12,62.49,1.14,15.63.94,31.14,8,46.5,7.51,16.94-.59,30.24-3.29,47.05,2.35,23.38,7.84,47.1,11.93,70.07,19.67,14.91,5,17,4.83,27.49-6.45-10.71,11.55-25.71-1.77-35.76-7.19-23.34-12.57-49.33-22.51-70.44-38.47-10.86,3.4-21,.12-31.87-.46-37.49-2-77.86,5.36-113.72-8.82-3.17-1.26-9.2-30.71-10-35C834.26,798.76,834.59,789.66,837.86,779.27Z"/><path class="cls-16" d="M403.62,698c-17,7-24.87-12-5.65-13.73,19.52-1.73,11.26,21.56-2.43,13.73"/><path class="cls-17" d="M393.46,685.77c-4.22,7.21-.83,11.87,4.8,13.9-2.16-4.93-4.76-7.82-4-13.9"/><path class="cls-18" d="M402.79,685.54c-3.49-.15-2.52,5.19.69,4.35,2.77-.73,1.35-4.28-1-4.35"/><path class="cls-19" d="M393.52,685.27c-3.33,1.33-7.79,4-6.55,8.46s6.44,4.8,10,5.67c-5.06-3.17-7.71-8.3-4-13.31"/><path class="cls-20" d="M393,691.81c1.56,3.49,6.56,6.07,10.07,4.15a11,11,0,0,1-10.35-5.42c-.37.62-.15.94,0,1.55"/><path class="cls-14" d="M477.85,695.52c-6.85-23.93,13.34-49.87,32.2-63,21.75-15.16,42.67-32.52,65.81-45.88,10.34-6,32.48-13.5,33.54-27-5.49,1.75-10,8.08-14.79,11.87-8.76,6.91-19.44,10.91-28.73,17-26.36,17.3-49.71,36.9-74,56.95-13.71,11.34-25.47,24.08-38.31,36.21-6.08,5.75-20.17,16.49-20.19,24.62,7.16,3.63,18-.57,25.83,1-8.29-7.82,2.81-17.88,8.92-23.32-2.64,4.52-6.15,8-5.36,13.6,1.24-.95,4.61-1.66,6.12-3-.43,2.92.67,6.55.38,9.53,3.61-1.67,7.58-4.27,11.82-1.9.42-.39,1.92-2.06,2.28-2.29-1.49-1.55-2.13-3.83-3.37-5.44"/><path class="cls-21" d="M353.74,695.52c-9.66,2.33-34,9.78-37.26,20.45-3.57,11.81,12.44,19.11,22.48,19.88,9.35.71,24.84-6.31,24.36-17.19-.39-8.6-10.24-13.84-7.4-23.14"/><path class="cls-16" d="M350.47,699.88c-6,4.86-32.1,7.8-30.29,19.57,1.86,12.11,27.21,5.29,9.74-5.17,8.25-2.13,12.13-7.49,19.46-11.13"/><path class="cls-14" d="M216.15,788.85c8.38.48,18.94-2.39,27.41-3.44,11.87-1.48,23.2-2.9,34.76-6.09,22.8-6.28,45.66-15.41,66.08-27.74,12-7.26,18-8,31.14-11.22,8.47-2.06,14.46-8,21.51-12.9-7.34,17.17-18.24,29.3-33.73,40.06-4.83,3.35-19,8.13-19.71,13.4,19.18,3,30.07-21.89,45.74-26.67-1,6.7-8.26,10.86-9.38,17.14,9.38,2.43,22.7-19.69,27.51-26.56,2.78,12.27-15.53,19.22-13.63,30.91,8.88.07,14.13-14.52,20.52-19.54,1,5.92-3.56,10.41-3.2,16.06,2.95.69,6.48-2.29,8.14-2,2.81.49,2.69,3,5.53,3.86,13.47,4.34,17.9-3.76,22.58-15.61,9.85,8.63,9.38,18,20.59,6.13,5.25,7.44,20.32,12.11,27,4.55,7.27,7.69,18,12.79,23.07,22.4a328.26,328.26,0,0,0-46.93-5.31c-36.1-1.55-71.64,6.86-107.48,9.52-34.77,2.58-67.86-7.57-102.55-4.35-9.76.9-18.51.23-28.15-.8-5.6-.59-16.18.62-20.33-2.67"/><path class="cls-14" d="M172.27,754.84c11.93-4.2,68.36-5.13,83.11-4.37,14.42.74,41.69,1.44,53.26-5.87C233.44,740.37,156.38,748,83,759.21c-18,2.76-37.22.87-54.24,6.12,6.15.39,10.84,3,16.05,3,4.42,0,11-2.71,16.49-3,15.55-.8,28-6,44.28-7.52,15.83-1.48,31.85.71,47.21-1.48s6.84-7.14,22.5-1.5"/><path class="cls-14" d="M476,688.21c-4.37,20.89-15.63,29.13-34.07,40.11,9.93,1.43,15.72-5.33,24.17-6.75.61.93,1.37,2.65,1.9,3.68,12-8.48,16.7-6.37,31.45-5.62,11.5.59,19.87-5.7,31.32-6.59a102.1,102.1,0,0,1-35.46-6.51c-14.86-5.81-16.19-14.66-23.45-28"/><path class="cls-14" d="M438.72,702c6.57-7.8-1.51-13,1.67-20.48,1.79-4.26,8.35-3,11-8.4,13,11,16.25-20.56,15.18-27.55,2,2.41,5.79,3.44,8,5.52.84-2.12,3.8-3.77,4.45-6.86,1.3,1,3.64,1.53,4.94,2.37,1.23-2.87,4.95-5,6.13-7.86,1.2.31,2.26.75,3.45,1,5.35-7.32,4.07-14.66,3.35-22.82,1.66,1.62,4.78,2.23,6.38,3.44,1.09-2.52,4.78-4.8,5.79-6.85,4.67,4.89,10.32,2.57,12.76-3.85,9,2,13.41-8.17,12.35-16.55,11.28,6.17,9.17-4.88,15.9-8.51,2.52-1.36,9.2.31,11.18-1.18,3.42-2.6,1.87-7.16,5.8-9.48,5-3,16-2.76,23.1-6.07,6.7-3.11,11.44-6.08,18-6.42-15.72,19.69-46,29.91-66,45.29-13.69,10.5-28.7,18.72-41.39,30.42-12.27,11.32-16.78,26.43-29,38.07-11.78,11.24-25.76,19.05-37.24,30.88"/><path class="cls-22" d="M437.34,725.46c-9.08,5.87-18.66,25.95-21.89,35.83,8.63-6.28,16.17.07,22.17-.31,4-.25,8.51-4.38,12.81-3.91,8.58.93,14,13.33,22.88,6.12,3.74,6.6,36.55,24.06,45.19,21.38,2.83-12.45,20-.47,29.1-1.38-1-3.13.22-7.63-1.09-10.66,5.1-1.44,10.94-2.45,16.26-.67-1.32-3-2.17-8-3.92-11.08,6.39-.2,20.2,3,23.61-4.76,9.71-.2,19-4.67,28.67-6-3.89-5-8.82-10.16-12.23-16,12.14.07,21.29-6.39,33.39-8.32,8.45-1.35,23.65-1.77,30.13-7.14-22.49-23.65-63,.75-86.88-9.42-2.21,2.49-26.25,6.79-34.26,9.42,3.49,2.16,7.3,5.51,10.51,6.59-35,2.86-70.61.72-105.78,3,4.29,3.18,10.56,5,14.67,6.77-8.18-1.82-18.79-.57-24.72-6.66"/><path class="cls-23" d="M913.89,728.85c-21,13.21-87.77,67.58-113.41,85.45-31.31,21.82-129.68,17.85-168.56,7-86.22-24.08-126.58-44.65-198.08-34.18-28.7,4.2-64.39,7.76-84.66,9.32-40.4,3.11-34.18-10.87-91.66-5.44-28.49,2.7-111.08-13.2-139-14.76-32.92-1.83-52.73,2.25-87-9.32,37-2.55,71.48-13.65,108.61-14.84,45.14-1.45,91.67-2.84,136.85-5.35,12.72-.71,36.92,4.37,34.28-14.12-1.27-8.88-6.78-19.1-12.87-26,27-12.74,53.74-23.34,80.53-36.95,20.67-10.5,37.43-27.05,57.35-38.76,21.32-12.55,45.91-24.15,64.42-38.8,14.76-9.32,14.92-8.49,14-7.77-6.83,13-55.15,50.49-25.63,70.69-22.53,18.64-12.4,37.75-7,43.5,12.43,13.2,43.45,13.92,62.92,11.19,60.36-8.45,114.19-35.27,185.73-3.42,25.22,11.23,60.22,17.11,87.7,19.41,34.08,2.87,60.6-8.39,94-12.42C892.33,731.41,936.7,714.49,913.89,728.85Z"/></g><g id="Layer_3" data-name="Layer 3"><path class="cls-3" d="M625.09,747.34C657,751.75,728.15,782,751.83,809.12c29.25,33.53,15.32,102.15,17.54,143.87,51.76,21.26,93.32,60.78,140.76,91.87,28.85,18.91,65.09,39.16,97.72,50.73,28.68,10.17,52.87-2.51,85.88-9.37,192-39.87,392.41-111.77,567.18-202.15,41.47-21.45,58.83-40.64,82.77-77.91,16.62-25.87,17.31-50.23,28.86-76.12-43.15,2-90.69,36.34-135,45.42-146.12,30-288.55,35.17-437.8,36.81-58.48.64-116.54,3.36-175,.71-43-2-91.44,4.69-132.86-8.89-20.66-6.78-31.18-24.62-49.14-31.86-18.38-7.41-44.88-3.15-64.66-6-54.27-7.82-108.43-16.78-162.68-18.42"/><path class="cls-8" d="M659.87,758.66c31.2-.14,75.28,1.63,100.81,11.76,25.77,10.23,26.67,54.15,27.93,80.34,1.56,32.54,13.62,68.59,11.37,100.5-.94,13.35,2,11.92-11.33,17.09-11.18,4.34-13.71,4.55-20.39-3.54-17.29-21-14.87-74.53-15.82-100.88-1.47-41-.41-57.47-42.38-79.38-17.75-9.27-50.58-5-61-25.74,4.38,8.65,12.58-11.15,12.54-11.13a59.37,59.37,0,0,0-13.28,11.26"/><path class="cls-8" d="M785.4,963c-8.57,2.72-16.7,1.74-24.94-.28-10.09-29.52-21-58.32-41.93-82.1-2.43,16.83,46.52,109.62,56.12,99.23-3.23,8.32-7.22,21.83,1.33,28a39.41,39.41,0,0,0,2.12-19,22.19,22.19,0,0,0,13.88,10c-3.06-6.67-12-16.72-10.07-24.12,2.55-9.64,14.55-5.35,14.31-17.12"/><path class="cls-8" d="M776.38,970.2c25.93,11.16,49.7,32.54,74.3,46.86,22.66,13.18,43.81,27.35,65.64,41.52,16.3,10.58,96.14,47.66,91.16,68.23,9.49-.52,44.5,1.68,50.45,8.7-7.13-15.37-14.7-17.42-30.53-19.48-.29-15.38-18.53-17.78-29.12-25.43-15.1-10.89-28.83-22.14-44.31-33.07-27.77-19.63-56.52-37.29-85.64-54.86-25.79-15.57-46.25-43.27-73.91-54.11"/><path class="cls-8" d="M1005.4,1089.12c30.14,3.22,67.53-8.29,95.71-18.9,26.83-10.09,57.08-11.39,85.05-19.07,33.31-9.14,66.84-14.8,99.47-26.64,22.32-8.1,41.59-21,63.78-30,34.48-14,69.49-20,105.58-28.53,67.84-16,120.57-37.15,176.4-78.93,27-20.19,59.29-30.82,85-52.91,31.49-27.08,37.57-54.25,51.87-91.71,29.6,21.4-22.89,82.18-37.08,99.65-13.39,16.5-37.51,26.33-55.74,36.45-21.65,12-44,22.82-65.73,35.1-50.48,28.58-92,62.54-148.69,79.56-116.9,35.12-232.86,72-349.51,102.67-28.21,7.41-57.23,21.09-84.61,27-32.46,7-21.1-20-20.6-37.64"/><path class="cls-14" d="M838.51,966.85c-29.15-14.46,28.34-48.6,35.52-65.05-20.61,8.56-43,36-64.73,37.41-4.4-25.81,14.37-50,14.05-75.36-5.33,6.49-11.47,15.65-18.53,20.62-10.26-11.05-5.46-29.68-8.41-43.31,0,26.78-10.44,83,2,106.84,9.16,17.59,40.66,27.27,54.52,39.58-6.24-9.34-15.63-17.22-16.52-29.15"/><path class="cls-14" d="M929.05,1038.44c35.87,14.29,70.18,60.38,108.41,53.66,53.84-9.46,105.17-29.27,154.07-53.93-8,5.18-17.35,4.4-26.25,7.85-9-6.93-26.38,2.37-37.06,4.93-26.24,6.3-58.2,12.53-85.3,12.31,9-22.31,45.32-19.83,64.59-24.73,41-10.45,86-24.53,123.81-44-31,2.42-65.09,16.42-97.11,22.78-35.86,7.13-77.4,38.37-114.37,33.38-1.47-2.6-3.54-5-5-7.75-1.37,0-1.89,2-3.17,1.5-9.67-8.92-17.91-20.16-26-30.57,4.53,13.7,16,28.43,14.57,43.24-22-7.75-51.41-25.64-74.74-27.26,4.52,5.45,10.06,11.17,16.16,14.89"/><path class="cls-4" d="M914.31,1023.7c-.56-60.74,99.87-82.23,142.65-90.64,56-11,117.56-22,164.88-56.8,17.25-12.68,26.39-36.26,31.45-46.26"/><path class="cls-4" d="M1015.37,1095.29c23.48-15.21,56-20.82,81.71-32.06,49.38-21.63,98.25-46.68,145.16-73.11,23-13,148.52-103.86,110-143.28"/><path class="cls-4" d="M1487,958.43c-5.22-17.66-37-31.67-48.52-48.37-14.35-20.82-21.42-48.93-14.64-73.75"/><path class="cls-4" d="M1449.09,914.22c14.68-8.45,39.06-8.12,56.91-12.53,31.09-7.67,65.31-17.61,92.83-34,24-14.26,55.08-38.35,58.7-67.2"/><path class="cls-4" d="M1103.8,1053.18c-1-35.6-62.44-29.82-73.69-63.17"/><path class="cls-4" d="M1055.37,935.27c15.53,7.49,27.48,17.15,45.27,20.81,36.94,7.61,68.51-5.32,104.22-12.39"/><path class="cls-4" d="M1152.22,907.9c-15.72-8.31-21.81-30.88-37.89-42.58-15.82-11.5-33.42-19.52-50.54-29"/><path class="cls-4" d="M800.61,952.11c4.13-34,64.44-63.46,92.7-71.11,31-8.37,103-13.29,117.85-46.79"/><path class="cls-4" d="M855.35,895.27c-33.19-22.93-6.35-79.89-42.1-99"/><path class="cls-4" d="M834.3,838.42c21.71,5.61,56.06,10,73.69-6.32"/><path class="cls-4" d="M1318.55,926.85c-9.27-9.81-8.68-25-23.16-31.58"/><path class="cls-4" d="M1253.29,981.59a439.37,439.37,0,0,1,57-25.21c29.57-10.4,64.55-1.47,90.36-23.21"/><path class="cls-4" d="M943.78,979.49c-13.17-12.13-33.23-18.71-50.95-21.58-16.46-2.66-40.46,1.57-52.21-12.11"/><path class="cls-4" d="M1038.53,905.79c-43.32,34.4-90.78-12.89-134.75-16.84-12.23,1.59-16.77-3.66-27.37,0"/><path class="cls-5" d="M870.09,840.53c-.62-17-17.06-24.57-19-40"/><path class="cls-5" d="M1118.54,859.47c15.44-5.29,45.07-8.43,52.63-25.26"/><path class="cls-5" d="M1428,878.42c41.66,1.06,105.49-17.86,120-61"/><path class="cls-5" d="M1354.35,884.74c-23.73-1.71-25.78-18.41-40-33.69"/><path class="cls-5" d="M1240.65,857.37c15.4,1.68,26.94-6.9,35.8-19"/><path class="cls-5" d="M1154.33,950c3.65-7.1,2.11-19.92,2.1-29.48"/><path class="cls-5" d="M1112.22,958.43c-.45,10.35-6.59,30.07-16.84,27.37"/><path class="cls-5" d="M1188,952.11c6.24,13.89,24.33,15.56,37.89,14.74"/><path class="cls-5" d="M1044.85,958.43c17.82,19,16.45,29.53,12.63,54.74-16-.91-56.34-14.07-54.74-33.68"/><path class="cls-5" d="M964.84,958.43c-15.26-23.19-39.57-20.59-61.06-33.69"/><path class="cls-5" d="M880.62,956.33a71.25,71.25,0,0,0-4.21-25.27"/><path class="cls-5" d="M998.53,914.22c14-5.62,24.46-28.71,23.16-44.22"/><path class="cls-5" d="M975.37,861.58c-13.92-4.4-16.11-17-19-29.48"/><path class="cls-5" d="M828,819.47c-11-4-27.61-8.26-31.58-21.05"/><path class="cls-5" d="M1598.58,863.69c12.15-10.76,16.07-42.64,4.21-54.75"/><path class="cls-5" d="M1653.32,823.68c32,4.81,62.58-34.41,73.69-58.95"/><path class="cls-5" d="M1497.52,905.79c10,5.57,22.5,5.2,33.69,2.11"/><path class="cls-5" d="M1501.73,859.47c-.45-15.5-21.73-24-33.69-29.47"/><path class="cls-5" d="M1695.43,802.63a26,26,0,0,1-8.42-19"/><path class="cls-5" d="M1348,947.9a82.39,82.39,0,0,0,16.84-33.68"/><path class="cls-5" d="M1303.82,962.64c3.44,9.24,10.78,16.37,19,21.06"/><path class="cls-5" d="M1390.14,943.69c14.71,1.33,29.12,6.28,44.21,6.32"/><path class="cls-5" d="M1425.93,899.48c-21.3.76-25.85-9.38-31.58-27.37"/><path class="cls-5" d="M1200.65,891.06c20.54,5.72,39.85,22.76,52.64,40"/><path class="cls-5" d="M1133.27,886.85c-19.46,5.42-54.81,4.53-69.48-12.64"/><path class="cls-14" d="M617.36,770.61c9,28.21,59.42,16.11,79.28,13.49,33.94-4.48,56.24,11.92,57.2,47.37-8.32-31.21-34.44-46.16-64-35.1-15.94,6-29.31,9-45.93,3-15.41-5.53-18.69-17.27-28.28-25.4"/><path class="cls-14" d="M781,965c23.86,23.87,69.69,50.4,102.29,73.31,24.33,17.1,43.2,29.09,69.9,42.62,17.21,8.72,50.88,25.21,59.37,43.77-4.88-20.81-51.29-50.57-69.69-63-40.07-27.13-84.18-48.08-123.49-76.93-12.89-9.46-26.07-22.78-43.5-21.44"/><path class="cls-14" d="M1045.28,1120.1c-4.87-1.33-9.84-3-15.17-3.74,18.87-18.08,62.7-21,87.24-30.73,45.43-18,95.87-28.59,142.74-42.71,44.06-13.28,88-25.91,131.47-40.5,36.28-12.18,71-28.18,107.3-39.58a545.65,545.65,0,0,0,81.61-33c-20.47,18.57-51.52,33-76.66,45-31.26,14.87-62.68,27.17-97.18,34.52-81.13,17.29-160.14,49-240,72.8-38.47,11.49-94,13.16-126.49,38"/><path class="cls-14" d="M1131.79,768.94c-25.65,12-59.77,10.64-87.94,8.11-11.57-1-24.33-5.26-35.81-5.23-10.48,0-20.69,6.6-29.87,12.12s-33.31,22.86-43.68,21.93c15.21,7.44,39-10.25,54.53-14.09,17.93-4.45,36.26-5.69,54.55-6.58,15.06-.73,29.91-3.35,44.86-5.1,7.2-.84,15.51-.32,22.48-2.16,4.16-1.1,10.52-7.12,15.1-5.53"/><path class="cls-14" d="M1052,773.57c18.68-.64,36.11,2.81,52.76-5.84-19.52,3.87-41.55,1.85-61.66,3.78a106.72,106.72,0,0,1,11.21,2.06"/><path class="cls-16" d="M1100.58,768.48c1.18-1.19,1.56-2.65,3.26-3.33,1.06,3-1.07,1.13-2.1,2.17"/><path class="cls-16" d="M1130.63,770.79c1.89-2.12,4.52-3.31,5.75-5.35,1,2.12,1.28,2.54,1,5.17-2.31.42-3.42-.44-5.6-1"/></g></g></svg>