<svg xmlns="http://www.w3.org/2000/svg" xmlns:xlink="http://www.w3.org/1999/xlink" viewBox="0 0 1815.17 758.74"><defs><style>.cls-1{fill:none;}.cls-2{fill:#8b5e3c;}.cls-3{fill:#a97c50;}.cls-14,.cls-4{fill:#3c2415;}.cls-5,.cls-6{fill:#594a42;}.cls-14,.cls-15,.cls-16,.cls-5{opacity:0.4;}.cls-6,.cls-8{opacity:0.2;}.cls-7{fill:#bcbec0;}.cls-8{fill:#fff200;}.cls-9{fill:#fff;}.cls-10{fill:#00aeef;}.cls-11{fill:#231f20;}.cls-12{fill:#603913;}.cls-13{fill:#754c29;}.cls-15{fill:url(#New_Pattern_Swatch_1);}.cls-16{fill:url(#New_Pattern_Swatch_1-7);}</style><pattern id="New_Pattern_Swatch_1" data-name="New Pattern Swatch 1" width="501.56" height="320.94" patternTransform="translate(82.38 -15.65) scale(0.4)" patternUnits="userSpaceOnUse" viewBox="0 0 501.56 320.94"><rect class="cls-1" width="501.56" height="320.94"/><polygon class="cls-2" points="452.95 271.12 421.61 284.23 394.59 263.64 398.9 229.94 430.25 216.84 457.27 237.43 452.95 271.12"/><polygon class="cls-2" points="445.23 335.46 410.37 349.51 380.78 326.35 386.04 289.14 420.89 275.09 450.49 298.25 445.23 335.46"/><polygon class="cls-2" points="500.56 335.46 474.37 339.65 457.64 319.07 467.11 294.29 493.3 290.09 510.03 310.68 500.56 335.46"/><polygon class="cls-2" points="527.03 298.04 509.63 300.57 498.55 286.92 504.87 270.74 522.27 268.21 533.36 281.87 527.03 298.04"/><polygon class="cls-2" points="522.44 201.63 499.59 207.76 482.86 191.03 488.98 168.18 511.83 162.06 528.56 178.78 522.44 201.63"/><polygon class="cls-2" points="443.94 192.63 425.38 204.2 406.07 193.9 405.34 172.04 423.91 160.47 443.21 170.76 443.94 192.63"/><polygon class="cls-2" points="425.93 336.75 376.84 357.44 334.37 325.27 341 272.41 390.09 251.72 432.56 283.89 425.93 336.75"/><polygon class="cls-2" points="527.59 262.12 499.81 263.91 484.36 240.74 496.7 215.79 524.48 214 539.92 237.16 527.59 262.12"/><polygon class="cls-2" points="403.79 237.51 385.57 243.33 371.41 230.47 375.48 211.77 393.7 205.95 407.86 218.82 403.79 237.51"/><polygon class="cls-2" points="481.26 228.66 460.51 228.57 450.22 210.55 460.67 192.63 481.42 192.72 491.71 210.74 481.26 228.66"/><polygon class="cls-2" points="486.41 285.28 462.61 287.88 448.46 268.58 458.1 246.67 481.89 244.07 496.05 263.37 486.41 285.28"/><polygon class="cls-2" points="165 330.31 153.81 334.26 144.81 326.54 146.99 314.87 158.18 310.93 167.19 318.65 165 330.31"/><polygon class="cls-2" points="-0.99 335.46 -27.19 339.65 -43.92 319.07 -34.45 294.29 -8.26 290.09 8.47 310.68 -0.99 335.46"/><polygon class="cls-2" points="28.79 330.98 16.09 332.97 7.94 323.02 12.5 311.08 25.21 309.09 33.35 319.05 28.79 330.98"/><polygon class="cls-2" points="80.07 285.28 43.68 286.55 24.38 255.67 41.47 223.51 77.87 222.24 97.17 253.12 80.07 285.28"/><polygon class="cls-2" points="119.97 340.61 86.44 342.06 68.42 313.75 83.94 283.99 117.46 282.54 135.47 310.85 119.97 340.61"/><polygon class="cls-2" points="25.48 298.04 8.07 300.57 -3.01 286.92 3.31 270.74 20.71 268.21 31.8 281.87 25.48 298.04"/><polygon class="cls-2" points="20.88 201.63 -1.97 207.76 -18.7 191.03 -12.58 168.18 10.28 162.06 27 178.78 20.88 201.63"/><polygon class="cls-2" points="81.36 213.22 51.01 219.47 30.42 196.3 40.18 166.89 70.54 160.64 91.13 183.81 81.36 213.22"/><polygon class="cls-2" points="140.55 348.33 90.94 377.64 40.76 349.33 40.18 291.71 89.79 262.4 139.98 290.71 140.55 348.33"/><polygon class="cls-2" points="26.03 262.12 -1.75 263.91 -17.19 240.74 -4.86 215.79 22.93 214 38.37 237.16 26.03 262.12"/><polygon class="cls-2" points="85.22 217.08 64.3 219.86 51.43 203.13 59.48 183.62 80.41 180.84 93.28 197.57 85.22 217.08"/><polygon class="cls-2" points="123.83 272.41 97.98 270.86 86.39 247.69 100.66 226.08 126.51 227.64 138.09 250.8 123.83 272.41"/><polygon class="cls-2" points="445.23 14.52 410.37 28.57 380.78 5.41 386.04 -31.8 420.89 -45.85 450.49 -22.69 445.23 14.52"/><polygon class="cls-2" points="500.56 14.52 474.37 18.72 457.64 -1.87 467.11 -26.66 493.3 -30.85 510.03 -10.26 500.56 14.52"/><polygon class="cls-2" points="504.43 105.09 491.72 107.08 483.58 97.13 488.14 85.19 500.84 83.2 508.99 93.15 504.43 105.09"/><polygon class="cls-2" points="482.55 82.72 443.4 91.33 416.38 61.73 428.5 23.53 467.64 14.93 494.67 44.52 482.55 82.72"/><polygon class="cls-2" points="425.93 15.81 376.84 36.5 334.37 4.33 341 -48.53 390.09 -69.22 432.56 -37.05 425.93 15.81"/><polygon class="cls-2" points="559.76 96.88 518.73 98.45 496.85 63.71 516 27.39 557.03 25.82 578.91 60.56 559.76 96.88"/><polygon class="cls-2" points="402.77 81.44 377.98 90.9 357.39 74.17 361.59 47.98 386.37 38.51 406.96 55.24 402.77 81.44"/><polygon class="cls-2" points="442.66 135.48 456.34 109.21 485.94 107.92 501.85 132.91 488.17 159.18 458.57 160.47 442.66 135.48"/><polygon class="cls-2" points="440.08 116.18 420.06 132.85 395.61 123.84 391.18 98.17 411.21 81.5 435.66 90.5 440.08 116.18"/><polygon class="cls-2" points="202.17 110.65 170.83 123.76 143.81 103.17 148.13 69.47 179.47 56.37 206.49 76.96 202.17 110.65"/><polygon class="cls-2" points="415.78 169.84 404.59 173.79 395.58 166.06 397.77 154.4 408.96 150.46 417.96 158.18 415.78 169.84"/><polygon class="cls-2" points="382.63 237.53 371.44 241.47 362.43 233.75 364.61 222.09 375.8 218.15 384.81 225.87 382.63 237.53"/><polygon class="cls-2" points="194.45 174.99 159.59 189.04 130 165.88 135.26 128.67 170.12 114.62 199.71 137.78 194.45 174.99"/><polygon class="cls-2" points="249.78 174.99 223.59 179.19 206.86 158.6 216.33 133.81 242.52 129.62 259.25 150.21 249.78 174.99"/><polygon class="cls-2" points="253.65 265.56 240.94 267.55 232.8 257.6 237.36 245.66 250.06 243.67 258.21 253.62 253.65 265.56"/><polygon class="cls-2" points="279.57 170.51 266.87 172.5 258.72 162.55 263.28 150.61 275.99 148.62 284.13 158.57 279.57 170.51"/><polygon class="cls-2" points="330.85 124.81 294.46 126.08 275.15 95.2 292.25 63.04 328.64 61.77 347.95 92.65 330.85 124.81"/><polygon class="cls-2" points="316.7 211.02 292.09 217.62 274.07 199.6 280.67 174.99 305.28 168.4 323.29 186.41 316.7 211.02"/><polygon class="cls-2" points="231.77 243.19 192.63 251.8 165.6 222.2 177.72 184 216.87 175.4 243.89 204.99 231.77 243.19"/><polygon class="cls-2" points="303.83 295.95 285.14 300.02 272.27 285.86 278.09 267.64 296.79 263.58 309.65 277.73 303.83 295.95"/><polygon class="cls-2" points="370.74 180.14 337.22 181.59 319.2 153.28 334.71 123.52 368.24 122.07 386.25 150.38 370.74 180.14"/><polygon class="cls-2" points="276.25 137.57 258.85 140.1 247.77 126.44 254.09 110.27 271.49 107.74 282.58 121.4 276.25 137.57"/><polygon class="cls-2" points="271.66 41.16 248.81 47.29 232.08 30.56 238.2 7.71 261.05 1.58 277.78 18.31 271.66 41.16"/><polygon class="cls-2" points="193.16 32.16 174.6 43.73 155.3 33.43 154.56 11.57 173.13 0 192.43 10.29 193.16 32.16"/><polygon class="cls-2" points="332.14 52.75 301.79 59 281.2 35.83 290.96 6.42 321.31 0.17 341.9 23.34 332.14 52.75"/><polygon class="cls-2" points="175.15 176.28 126.06 196.97 83.59 164.8 90.22 111.94 139.31 91.25 181.78 123.42 175.15 176.28"/><polygon class="cls-2" points="391.33 187.86 341.72 217.17 291.54 188.86 290.96 131.24 340.57 101.94 390.76 130.24 391.33 187.86"/><polygon class="cls-2" points="308.98 257.35 267.95 258.92 246.07 224.18 265.23 187.86 306.25 186.29 328.13 221.03 308.98 257.35"/><polygon class="cls-2" points="372.03 208.45 346.65 208.66 333.78 186.78 346.29 164.7 371.67 164.49 384.54 186.37 372.03 208.45"/><polygon class="cls-2" points="151.99 241.91 127.21 251.37 106.62 234.64 110.81 208.45 135.59 198.98 156.18 215.71 151.99 241.91"/><polygon class="cls-2" points="276.81 101.64 249.03 103.44 233.59 80.27 245.92 55.32 273.7 53.53 289.14 76.69 276.81 101.64"/><polygon class="cls-2" points="336 56.61 315.08 59.39 302.21 42.66 310.26 23.15 331.19 20.37 344.05 37.1 336 56.61"/><polygon class="cls-2" points="374.6 111.94 348.75 110.39 337.17 87.22 351.44 65.61 377.29 67.17 388.87 90.33 374.6 111.94"/><polygon class="cls-2" points="354.01 229.04 324.01 229.54 308.56 203.81 323.13 177.57 353.14 177.06 368.58 202.8 354.01 229.04"/><polygon class="cls-2" points="312.84 270.22 327.93 249.22 353.67 251.79 364.31 275.36 349.21 296.36 323.48 293.79 312.84 270.22"/><polygon class="cls-2" points="191.88 295.95 205.56 269.68 235.16 268.39 251.07 293.38 237.39 319.65 207.79 320.94 191.88 295.95"/><polygon class="cls-2" points="189.3 276.65 169.28 293.32 144.83 284.31 140.41 258.63 160.43 241.97 184.88 250.97 189.3 276.65"/><polygon class="cls-2" points="153.01 77.04 134.79 82.86 120.64 70 124.7 51.3 142.92 45.48 157.08 58.35 153.01 77.04"/><polygon class="cls-2" points="230.48 68.19 209.73 68.1 199.44 50.08 209.89 32.16 230.64 32.25 240.94 50.27 230.48 68.19"/><polygon class="cls-2" points="235.63 124.81 211.84 127.42 197.68 108.11 207.32 86.2 231.11 83.6 245.27 102.9 235.63 124.81"/><polygon class="cls-2" points="165 9.38 153.81 13.32 144.81 5.59 146.99 -6.07 158.18 -10.01 167.19 -2.29 165 9.38"/><polygon class="cls-2" points="131.85 77.06 120.66 81 111.65 73.28 113.83 61.62 125.02 57.67 134.03 65.4 131.85 77.06"/><polygon class="cls-2" points="-0.99 14.52 -27.19 18.72 -43.92 -1.87 -34.45 -26.66 -8.26 -30.85 8.47 -10.26 -0.99 14.52"/><polygon class="cls-2" points="2.87 105.09 -9.84 107.08 -17.98 97.13 -13.42 85.19 -0.71 83.2 7.43 93.15 2.87 105.09"/><polygon class="cls-2" points="28.79 10.04 16.09 12.03 7.94 2.08 12.5 -9.86 25.21 -11.85 33.35 -1.9 28.79 10.04"/><polygon class="cls-2" points="65.92 50.55 41.31 57.15 23.3 39.13 29.89 14.52 54.5 7.93 72.51 25.94 65.92 50.55"/><polygon class="cls-2" points="53.05 135.48 34.36 139.55 21.49 125.39 27.32 107.17 46.01 103.11 58.88 117.26 53.05 135.48"/><polygon class="cls-2" points="119.97 19.67 86.44 21.12 68.42 -7.19 83.94 -36.95 117.46 -38.4 135.47 -10.09 119.97 19.67"/><polygon class="cls-2" points="140.55 27.39 90.94 56.7 40.76 28.39 40.18 -29.23 89.79 -58.53 139.98 -30.23 140.55 27.39"/><polygon class="cls-2" points="58.2 96.88 17.17 98.45 -4.7 63.71 14.45 27.39 55.47 25.82 77.35 60.56 58.2 96.88"/><polygon class="cls-2" points="121.25 47.98 95.87 48.19 83 26.31 95.52 4.23 120.89 4.02 133.76 25.9 121.25 47.98"/><polygon class="cls-2" points="103.24 68.57 73.23 69.07 57.79 43.34 72.35 17.1 102.36 16.59 117.8 42.33 103.24 68.57"/><polygon class="cls-2" points="62.06 109.75 77.16 88.75 102.89 91.32 113.53 114.89 98.43 135.9 72.7 133.32 62.06 109.75"/><polygon class="cls-2" points="-58.9 135.48 -45.22 109.21 -15.62 107.92 0.29 132.91 -13.39 159.18 -42.99 160.47 -58.9 135.48"/></pattern><pattern id="New_Pattern_Swatch_1-7" data-name="New Pattern Swatch 1" width="501.56" height="320.94" patternTransform="translate(98.87 -33.53) scale(0.23)" patternUnits="userSpaceOnUse" viewBox="0 0 501.56 320.94"><rect class="cls-1" width="501.56" height="320.94"/><polygon class="cls-2" points="452.95 271.12 421.61 284.23 394.59 263.64 398.9 229.94 430.25 216.84 457.27 237.43 452.95 271.12"/><polygon class="cls-2" points="445.23 335.46 410.37 349.51 380.78 326.35 386.04 289.14 420.89 275.09 450.49 298.25 445.23 335.46"/><polygon class="cls-2" points="500.56 335.46 474.37 339.65 457.64 319.07 467.11 294.29 493.3 290.09 510.03 310.68 500.56 335.46"/><polygon class="cls-2" points="527.03 298.04 509.63 300.57 498.55 286.92 504.87 270.74 522.27 268.21 533.36 281.87 527.03 298.04"/><polygon class="cls-2" points="522.44 201.63 499.59 207.76 482.86 191.03 488.98 168.18 511.83 162.06 528.56 178.78 522.44 201.63"/><polygon class="cls-2" points="443.94 192.63 425.38 204.2 406.07 193.9 405.34 172.04 423.91 160.47 443.21 170.76 443.94 192.63"/><polygon class="cls-2" points="425.93 336.75 376.84 357.44 334.37 325.27 341 272.41 390.09 251.72 432.56 283.89 425.93 336.75"/><polygon class="cls-2" points="527.59 262.12 499.81 263.91 484.36 240.74 496.7 215.79 524.48 214 539.92 237.16 527.59 262.12"/><polygon class="cls-2" points="403.79 237.51 385.57 243.33 371.41 230.47 375.48 211.77 393.7 205.95 407.86 218.82 403.79 237.51"/><polygon class="cls-2" points="481.26 228.66 460.51 228.57 450.22 210.55 460.67 192.63 481.42 192.72 491.71 210.74 481.26 228.66"/><polygon class="cls-2" points="486.41 285.28 462.61 287.88 448.46 268.58 458.1 246.67 481.89 244.07 496.05 263.37 486.41 285.28"/><polygon class="cls-2" points="165 330.31 153.81 334.26 144.81 326.54 146.99 314.87 158.18 310.93 167.19 318.65 165 330.31"/><polygon class="cls-2" points="-0.99 335.46 -27.19 339.65 -43.92 319.07 -34.45 294.29 -8.26 290.09 8.47 310.68 -0.99 335.46"/><polygon class="cls-2" points="28.79 330.98 16.09 332.97 7.94 323.02 12.5 311.08 25.21 309.09 33.35 319.05 28.79 330.98"/><polygon class="cls-2" points="80.07 285.28 43.68 286.55 24.38 255.67 41.47 223.51 77.87 222.24 97.17 253.12 80.07 285.28"/><polygon class="cls-2" points="119.97 340.61 86.44 342.06 68.42 313.75 83.94 283.99 117.46 282.54 135.47 310.85 119.97 340.61"/><polygon class="cls-2" points="25.48 298.04 8.07 300.57 -3.01 286.92 3.31 270.74 20.71 268.21 31.8 281.87 25.48 298.04"/><polygon class="cls-2" points="20.88 201.63 -1.97 207.76 -18.7 191.03 -12.58 168.18 10.28 162.06 27 178.78 20.88 201.63"/><polygon class="cls-2" points="81.36 213.22 51.01 219.47 30.42 196.3 40.18 166.89 70.54 160.64 91.13 183.81 81.36 213.22"/><polygon class="cls-2" points="140.55 348.33 90.94 377.64 40.76 349.33 40.18 291.71 89.79 262.4 139.98 290.71 140.55 348.33"/><polygon class="cls-2" points="26.03 262.12 -1.75 263.91 -17.19 240.74 -4.86 215.79 22.93 214 38.37 237.16 26.03 262.12"/><polygon class="cls-2" points="85.22 217.08 64.3 219.86 51.43 203.13 59.48 183.62 80.41 180.84 93.28 197.57 85.22 217.08"/><polygon class="cls-2" points="123.83 272.41 97.98 270.86 86.39 247.69 100.66 226.08 126.51 227.64 138.09 250.8 123.83 272.41"/><polygon class="cls-2" points="445.23 14.52 410.37 28.57 380.78 5.41 386.04 -31.8 420.89 -45.85 450.49 -22.69 445.23 14.52"/><polygon class="cls-2" points="500.56 14.52 474.37 18.72 457.64 -1.87 467.11 -26.66 493.3 -30.85 510.03 -10.26 500.56 14.52"/><polygon class="cls-2" points="504.43 105.09 491.72 107.08 483.58 97.13 488.14 85.19 500.84 83.2 508.99 93.15 504.43 105.09"/><polygon class="cls-2" points="482.55 82.72 443.4 91.33 416.38 61.73 428.5 23.53 467.64 14.93 494.67 44.52 482.55 82.72"/><polygon class="cls-2" points="425.93 15.81 376.84 36.5 334.37 4.33 341 -48.53 390.09 -69.22 432.56 -37.05 425.93 15.81"/><polygon class="cls-2" points="559.76 96.88 518.73 98.45 496.85 63.71 516 27.39 557.03 25.82 578.91 60.56 559.76 96.88"/><polygon class="cls-2" points="402.77 81.44 377.98 90.9 357.39 74.17 361.59 47.98 386.37 38.51 406.96 55.24 402.77 81.44"/><polygon class="cls-2" points="442.66 135.48 456.34 109.21 485.94 107.92 501.85 132.91 488.17 159.18 458.57 160.47 442.66 135.48"/><polygon class="cls-2" points="440.08 116.18 420.06 132.85 395.61 123.84 391.18 98.17 411.21 81.5 435.66 90.5 440.08 116.18"/><polygon class="cls-2" points="202.17 110.65 170.83 123.76 143.81 103.17 148.13 69.47 179.47 56.37 206.49 76.96 202.17 110.65"/><polygon class="cls-2" points="415.78 169.84 404.59 173.79 395.58 166.06 397.77 154.4 408.96 150.46 417.96 158.18 415.78 169.84"/><polygon class="cls-2" points="382.63 237.53 371.44 241.47 362.43 233.75 364.61 222.09 375.8 218.15 384.81 225.87 382.63 237.53"/><polygon class="cls-2" points="194.45 174.99 159.59 189.04 130 165.88 135.26 128.67 170.12 114.62 199.71 137.78 194.45 174.99"/><polygon class="cls-2" points="249.78 174.99 223.59 179.19 206.86 158.6 216.33 133.81 242.52 129.62 259.25 150.21 249.78 174.99"/><polygon class="cls-2" points="253.65 265.56 240.94 267.55 232.8 257.6 237.36 245.66 250.06 243.67 258.21 253.62 253.65 265.56"/><polygon class="cls-2" points="279.57 170.51 266.87 172.5 258.72 162.55 263.28 150.61 275.99 148.62 284.13 158.57 279.57 170.51"/><polygon class="cls-2" points="330.85 124.81 294.46 126.08 275.15 95.2 292.25 63.04 328.64 61.77 347.95 92.65 330.85 124.81"/><polygon class="cls-2" points="316.7 211.02 292.09 217.62 274.07 199.6 280.67 174.99 305.28 168.4 323.29 186.41 316.7 211.02"/><polygon class="cls-2" points="231.77 243.19 192.63 251.8 165.6 222.2 177.72 184 216.87 175.4 243.89 204.99 231.77 243.19"/><polygon class="cls-2" points="303.83 295.95 285.14 300.02 272.27 285.86 278.09 267.64 296.79 263.58 309.65 277.73 303.83 295.95"/><polygon class="cls-2" points="370.74 180.14 337.22 181.59 319.2 153.28 334.71 123.52 368.24 122.07 386.25 150.38 370.74 180.14"/><polygon class="cls-2" points="276.25 137.57 258.85 140.1 247.77 126.44 254.09 110.27 271.49 107.74 282.58 121.4 276.25 137.57"/><polygon class="cls-2" points="271.66 41.16 248.81 47.29 232.08 30.56 238.2 7.71 261.05 1.58 277.78 18.31 271.66 41.16"/><polygon class="cls-2" points="193.16 32.16 174.6 43.73 155.3 33.43 154.56 11.57 173.13 0 192.43 10.29 193.16 32.16"/><polygon class="cls-2" points="332.14 52.75 301.79 59 281.2 35.83 290.96 6.42 321.31 0.17 341.9 23.34 332.14 52.75"/><polygon class="cls-2" points="175.15 176.28 126.06 196.97 83.59 164.8 90.22 111.94 139.31 91.25 181.78 123.42 175.15 176.28"/><polygon class="cls-2" points="391.33 187.86 341.72 217.17 291.54 188.86 290.96 131.24 340.57 101.94 390.76 130.24 391.33 187.86"/><polygon class="cls-2" points="308.98 257.35 267.95 258.92 246.07 224.18 265.23 187.86 306.25 186.29 328.13 221.03 308.98 257.35"/><polygon class="cls-2" points="372.03 208.45 346.65 208.66 333.78 186.78 346.29 164.7 371.67 164.49 384.54 186.37 372.03 208.45"/><polygon class="cls-2" points="151.99 241.91 127.21 251.37 106.62 234.64 110.81 208.45 135.59 198.98 156.18 215.71 151.99 241.91"/><polygon class="cls-2" points="276.81 101.64 249.03 103.44 233.59 80.27 245.92 55.32 273.7 53.53 289.14 76.69 276.81 101.64"/><polygon class="cls-2" points="336 56.61 315.08 59.39 302.21 42.66 310.26 23.15 331.19 20.37 344.05 37.1 336 56.61"/><polygon class="cls-2" points="374.6 111.94 348.75 110.39 337.17 87.22 351.44 65.61 377.29 67.17 388.87 90.33 374.6 111.94"/><polygon class="cls-2" points="354.01 229.04 324.01 229.54 308.56 203.81 323.13 177.57 353.14 177.06 368.58 202.8 354.01 229.04"/><polygon class="cls-2" points="312.84 270.22 327.93 249.22 353.67 251.79 364.31 275.36 349.21 296.36 323.48 293.79 312.84 270.22"/><polygon class="cls-2" points="191.88 295.95 205.56 269.68 235.16 268.39 251.07 293.38 237.39 319.65 207.79 320.94 191.88 295.95"/><polygon class="cls-2" points="189.3 276.65 169.28 293.32 144.83 284.31 140.41 258.63 160.43 241.97 184.88 250.97 189.3 276.65"/><polygon class="cls-2" points="153.01 77.04 134.79 82.86 120.64 70 124.7 51.3 142.92 45.48 157.08 58.35 153.01 77.04"/><polygon class="cls-2" points="230.48 68.19 209.73 68.1 199.44 50.08 209.89 32.16 230.64 32.25 240.94 50.27 230.48 68.19"/><polygon class="cls-2" points="235.63 124.81 211.84 127.42 197.68 108.11 207.32 86.2 231.11 83.6 245.27 102.9 235.63 124.81"/><polygon class="cls-2" points="165 9.38 153.81 13.32 144.81 5.59 146.99 -6.07 158.18 -10.01 167.19 -2.29 165 9.38"/><polygon class="cls-2" points="131.85 77.06 120.66 81 111.65 73.28 113.83 61.62 125.02 57.67 134.03 65.4 131.85 77.06"/><polygon class="cls-2" points="-0.99 14.52 -27.19 18.72 -43.92 -1.87 -34.45 -26.66 -8.26 -30.85 8.47 -10.26 -0.99 14.52"/><polygon class="cls-2" points="2.87 105.09 -9.84 107.08 -17.98 97.13 -13.42 85.19 -0.71 83.2 7.43 93.15 2.87 105.09"/><polygon class="cls-2" points="28.79 10.04 16.09 12.03 7.94 2.08 12.5 -9.86 25.21 -11.85 33.35 -1.9 28.79 10.04"/><polygon class="cls-2" points="65.92 50.55 41.31 57.15 23.3 39.13 29.89 14.52 54.5 7.93 72.51 25.94 65.92 50.55"/><polygon class="cls-2" points="53.05 135.48 34.36 139.55 21.49 125.39 27.32 107.17 46.01 103.11 58.88 117.26 53.05 135.48"/><polygon class="cls-2" points="119.97 19.67 86.44 21.12 68.42 -7.19 83.94 -36.95 117.46 -38.4 135.47 -10.09 119.97 19.67"/><polygon class="cls-2" points="140.55 27.39 90.94 56.7 40.76 28.39 40.18 -29.23 89.79 -58.53 139.98 -30.23 140.55 27.39"/><polygon class="cls-2" points="58.2 96.88 17.17 98.45 -4.7 63.71 14.45 27.39 55.47 25.82 77.35 60.56 58.2 96.88"/><polygon class="cls-2" points="121.25 47.98 95.87 48.19 83 26.31 95.52 4.23 120.89 4.02 133.76 25.9 121.25 47.98"/><polygon class="cls-2" points="103.24 68.57 73.23 69.07 57.79 43.34 72.35 17.1 102.36 16.59 117.8 42.33 103.24 68.57"/><polygon class="cls-2" points="62.06 109.75 77.16 88.75 102.89 91.32 113.53 114.89 98.43 135.9 72.7 133.32 62.06 109.75"/><polygon class="cls-2" points="-58.9 135.48 -45.22 109.21 -15.62 107.92 0.29 132.91 -13.39 159.18 -42.99 160.47 -58.9 135.48"/></pattern></defs><title>UUDino_Iguanadon_afterHartman</title><g id="Layer_2" data-name="Layer 2"><g id="rearlegs"><path class="cls-3" d="M791,404.89a47.56,47.56,0,0,1,12.21-5.72c32.93-9.8,65.42-19.46,96.28-34.92,14.09-7.05,25.55-17.78,39.26-25.29,6.16-3.37,18.21-4.76,18.6-13.08.54-11.51-23.32-18.54-31.61-22.15-23.15-10.08-44.93-22.87-67.7-33.77-24.66-11.82-51.48-16.34-76.69-26.76-23.84-9.83-49.26-22.18-75.15-25.33-22.15-2.69-49.13.74-68,13.53-16.88,11.46-16.79,43.26-21.15,62.61-6,26.48-7.74,53.81-6.55,80.92,1.51,34.19,20.73,63.86,27.71,95.25,11.15,50.17-8.14,106,4.09,155.47,3.6,14.53,8.67,30.8,6.43,45.91-3.45,23.26-20,20.48-38.18,28-8.74,3.59-14.53,6.52-24.18,7.17-5.88.4-7.35-1.69-12.45,2.13-8,6-14.92,22.42-22.38,30.48,5.14,7,24.53,5.92,33.27,5.52,26.29-1.2,61.79,9.67,86.88,1,18-6.2,46-29.33,56-45.55,6.85-11.08.12-18.6-3.92-28.72-5.44-13.62-7.43-29.31-8-43.86-1.12-29.8,5.85-59.24,13.59-87.8,6.94-25.61,11.53-54.24,20.67-78.29C757.66,441.88,772.21,417,791,404.89Z"/><path class="cls-4" d="M572.15,723a23.16,23.16,0,0,1,5.26-11.16c-5.63-3.22-14.77-.94-20.51,1.24-9.33,3.52-21.26,11-25.62,20.33-2.47,5.29-4.46,10.54,3.12,10.18,6.34-.3,10.89-6.22,16.53-8.66,6.15-2.66,12.43-1.67,19-2a71.92,71.92,0,0,1,3.77-12.75"/><path class="cls-4" d="M599.3,718.92c-3.6-1.66-5.2,12.1-4.09,14.61-5.32,1.92-10.14-2.73-15.82-1.54-8.74,1.83-15.4,7.86-23.23,11.82-2.49,1.26-2.84,2.13-3.67-.7-1-3.45,1.33-7.79,3.21-10.4,5.61-7.81,17.07-13.37,26.2-16.37,4.1-1.35,8.35-.84,12.49-.3,1.4.19,8.54,1.33,3.66,3.51"/><path class="cls-3" d="M668,682.73c-2.28.63-4.92,8.43-6,10.67-1.84,3.9-4.49,7.45-6.51,11.3-4.16,7.9-.18,12.67,8,7.35,3.47-2.27,6.16-4.16,5.74-8.73-.29-3.18-2.09-4.9-.08-7.73,1.53-2.17,5-3.05,5.08-6.32s-4.09-5.64-6.88-6.23"/><path class="cls-4" d="M426.09,627.32a143,143,0,0,1-6.59,20.23c-2,4.89-7.41,13.83-5.75,19.36,2,6.62,13.16-1.17,15.9-3.56,6.62-5.79,12.77-14.44,15.21-22.89,1.15-4,.76-6.35-2.45-8.31-2.63-1.61-5.8-3.65-8.71-4.49-3.9-1.11-7.95,2-11.38.7"/><path class="cls-4" d="M449.59,646.1c-7.21,1.75-8.9,5.75-8.24,12.49.55,5.63.16,10,5.86,12.16,6.41,2.43,10.85,5.24,15.73-1,2.51-3.24,7.8-12.22,4.47-15.54-2.61-2.6-7.84-3.45-11.23-4.63s-8.93-3.19-12.55-1.6"/><path class="cls-4" d="M487.18,649.94c-5.6-5.39-23.81,1.17-15.11,9.08,2.85,2.59,9.76,3.18,13,1.14,3.47-2.16,3.13-9.12.11-11.8"/><path class="cls-4" d="M420.64,552.8c-4.53,3.13-9.71,5.74-14.22,9.17-6.25,4.75-13.59,7.48-19.86,12.18-5.62,4.2-10.86,8-13.54,14.53,4,4.33,18.17-1.76,22.63-3,7-1.88,14.17-2.49,21.17-4.23a41.28,41.28,0,0,1,10.09-1.42c1.46-3-.37-9.87-1-13-1.27-6.27-3.95-12.76-8.28-17.57"/><path class="cls-4" d="M495.52,641.2c1.52,3.79,11.24,6.41,13.35,1.93,1-2.12.08-8.75-1.6-10.26-3.31,1.88-15.19,3.63-11.68,9.32"/><path class="cls-5" d="M574.17,708.68l-.18.13c-8,6-14.92,22.42-22.38,30.48,5.14,7,24.53,5.92,33.27,5.52,26.29-1.2,61.79,9.67,86.88,1,18-6.2,46-29.33,56-45.55,6.85-11.08.12-18.6-3.92-28.72-5.44-13.62-7.43-29.31-8-43.86-1.12-29.8,5.85-59.24,13.59-87.8,6.94-25.61,11.53-54.24,20.67-78.29,7.5-19.74,22.05-44.6,40.88-56.73a47.56,47.56,0,0,1,12.21-5.72c32.93-9.8,65.42-19.46,96.28-34.92,14.09-7.05,25.55-17.78,39.26-25.29,6.16-3.37,18.21-4.76,18.6-13.08.54-11.51-23.32-18.54-31.61-22.15-23.15-10.08-44.93-22.87-67.7-33.77-24.66-11.82-51.48-16.34-76.69-26.76-23.84-9.83-49.26-22.18-75.15-25.33-22.15-2.69-49.13.74-68,13.53-16.88,11.46-16.79,43.26-21.15,62.61-6,26.48-7.74,53.81-6.55,80.92,1.51,34.19,20.73,63.86,27.71,95.25,11.15,50.17-8.14,106,4.09,155.47,3.6,14.53,8.67,30.8,6.43,45.91-3.45,23.26-20,20.48-38.18,28-8.73,3.59-14.52,6.52-24.16,7.17-16.77,1.14-40.52,7.91-51.67,22-3.34,4.23-8.93,15.16-.87,15.28,7.14.09,13.34-11.79,21-9.45"/><path class="cls-5" d="M681.06,683.09c.45,11.6-12,14.42-16.58,21.62.41.32,1.46.12,2,.25,4.21,9.67,19.13-6.12,19.73-11.69.48-4.37-1.71-7.69-.59-12.36,1-4.33,3.75-7.76,4-12.1-2.89,5.18-6.52,10.05-8.55,15.73"/><path class="cls-5" d="M557.83,742.53c8.32,3.79,21,1.92,30.44,1.45,14.09-.71,28.08,3.24,42.22,3.62,5.21.14,10.58.19,15.78-.06,9.36-.45,19.43-.34,28.05-4.24,9.62-4.34,18.18-11.82,26.54-18.14,10.43-7.88,26.45-18.85,27.19-33.28-10.48,3.25-19.53,12.8-28.47,19.61-17.05,13-33.46,16.7-54.5,12.19-10-2.15-14.71,3.12-24.53,3.65-10.57.57-22-3.19-32.24-3.67-11.47-.52-28.44,6.43-31.86,18.63,6.58-5,16.28-8.66,24.36-9.91-7.2-.5-17.36,5.6-20.08,12.32"/><path class="cls-5" d="M533.18,742.53c6.18-15.87,24.8-20.8,38.88-24.54-1.15,4.66-3.94,3.72-6.94,5.69-3.43,2.26-6.3,5.78-9.76,8-7,4.46-15.6,8-23.63,11.59"/><path class="cls-5" d="M711.51,667.86C699.77,651.6,698,631.57,696.62,612c-.26-3.77-1.46-46.84-8.16-42.86-3.58,2.12-1.73,18.2-1.63,21.69.33,12.61,2.74,24.81,4.4,37.27C692.65,638.78,696,653,705,659.89"/><path class="cls-5" d="M626,435.17c15.65.74,31.42,6.22,47,8.9,13.27,2.28,33.15,5.24,44.35,13,7.36,5.12,10.76,15.87,15.4,23.56,5.93,9.82,7.13,14.92,3.63,25.53-3.35,10.13-5.35,20.62-8.15,30.91-2.29,8.44-2.76,18.22-6.55,26.12-1.19-11.31-7.87-17.7-17.92-23.12-4.6-2.47-10.56-3.38-14.82-6.18-5.34-3.51-2.66-2.59-4.14-9.39-2-8.91-10.58-21.65-18.18-26.86-6.41-4.39-14-6.85-20.29-11.92-14.62-11.7-10-37.67-21.75-52"/><path class="cls-3" d="M371.36,268.54c-11.17,13.72,7.85,59.88,14.55,74.12,9.33,19.85,19.5,39.53,31.81,57.66,9.51,14,34.94,27.76,35.48,46.15.4,13.59-4.36,29-4.6,43.07-.16,9.13.62,18.14.77,27.24.22,14.39-2.69,24.31-17.26,28.06-7.33,1.89-27.4,4.17-26.4,15.3,1.51-.4,2.78.13,4.23-.52,7.41,8.58,5.22,14,2.29,23-.46,1.47,24.26,4,26.57,4.82-1.9,7.54-8.75,14.14-10.73,22.49-.9,3.79-.17,4.07-1.8,7.13-4.39,8.23-13.22,15.33-6,25.71,6.75-5.09,15.88,2.83,18.06,9.44-.83-2.53,3-2.59,4.5-2.14a28.14,28.14,0,0,1-1.76,5.61c4.86-3.76,22.49.55,26.88,4.33-2.64-2.27,1.89-4,4.17-1.49,3.07-5.53,8.67-9.85,15.27-9.22,1-5.35-1.08-8.67-3.33-13.14-3-5.86-3.25-4.26-1.54-11A31.6,31.6,0,0,0,481,604.39c.9,5.16,3.94,7.74,6,12.25,1.49,3.24,1,4.27,1.9,7.83a89.6,89.6,0,0,0,6.78,17.62c3.09-3,8.11-8,12.57-5.46,1-7.22-3.11-13.88-4-21-.51-4.19.74-8.36,0-13.08-1.49-9.56-4.24-17.21-3.9-26.93.37-11,1.5-21.65,2.74-32.62,4-35.53,21.34-69.26,28.45-104.54,2.28-11.29,7.08-26.3,6.48-37.73-.74-14.12-13.06-27-21.33-37.64-7.76-10-15.61-19.8-21.53-31-3.76-7.15-7.64-21.46-14.1-26.68-7.89-6.36-25.36-8.17-34.76-13.57-23-13.18-52.94-23.09-72.88-40.26"/><path class="cls-6" d="M371.36,268.54c-11.17,13.72,7.85,59.88,14.55,74.12,9.33,19.85,19.5,39.53,31.81,57.66,9.51,14,34.94,27.76,35.48,46.15.4,13.59-4.36,29-4.6,43.07-.16,9.13.62,18.14.77,27.24.22,14.39-2.69,24.31-17.26,28.06-7.33,1.89-27.4,4.17-26.4,15.3,1.51-.4,2.78.13,4.23-.52,7.41,8.58,5.22,14,2.29,23-.46,1.47,24.26,4,26.57,4.82-1.9,7.54-8.75,14.14-10.73,22.49-.9,3.79-.17,4.07-1.8,7.13-4.39,8.23-13.22,15.33-6,25.71,6.75-5.09,15.88,2.83,18.06,9.44-.83-2.53,3-2.59,4.5-2.14a28.14,28.14,0,0,1-1.76,5.61c4.86-3.76,22.49.55,26.88,4.33-2.64-2.27,1.89-4,4.17-1.49,3.07-5.53,8.67-9.85,15.27-9.22,1-5.35-1.08-8.67-3.33-13.14-3-5.86-3.25-4.26-1.54-11A31.6,31.6,0,0,0,481,604.39c.9,5.16,3.94,7.74,6,12.25,1.49,3.24,1,4.27,1.9,7.83a89.6,89.6,0,0,0,6.78,17.62c3.09-3,8.11-8,12.57-5.46,1-7.22-3.11-13.88-4-21-.51-4.19.74-8.36,0-13.08-1.49-9.56-4.24-17.21-3.9-26.93.37-11,1.5-21.65,2.74-32.62,4-35.53,21.34-69.26,28.45-104.54,2.28-11.29,7.08-26.3,6.48-37.73-.74-14.12-13.06-27-21.33-37.64-7.76-10-15.61-19.8-21.53-31-3.76-7.15-7.64-21.46-14.1-26.68-7.89-6.36-25.36-8.17-34.76-13.57-23-13.18-52.94-23.09-72.88-40.26"/><path class="cls-5" d="M523.76,457.32c-3.89,20.71-20,50.56-39.58,60.49-6.19,3.13-13.14,3.74-18.51,8.09-6.7,5.44-10.47,13.66-14,21.25-5,10.86-11.85,16.47-22,22.49-3.15,1.87-16.34,8.83-13.56,13.85,2.44,4.41,20.21,3.13,24.87,4.42.49,2.62-2,6.05-1.41,7.9s4.25,2.77,5.34,5c3.4,7.13-.68,17.55-3.4,24.22-1.54,3.77-8.18,12.39-8.34,16.07-.18,4.07,4.91,10.19,9.24,9.6,5.19-8.18,7.46-21.29,8.79-31.15,1.52-11.33-2.53-20.71,9.3-25.18.11.42.21.85.32,1.28a24,24,0,0,1,2-1.84c-.21,19,3.42,45.29-10.11,60.5,7.65-.52,8.43,1.81,15,4.38,2.91-8.18.52-16.85.9-25.58s5.14-13.73,5-22.62a9.64,9.64,0,0,0,6.43,4.22c-1.62,6.32-4.77,8.75-3.42,16.93,1.05,6.36,2.7,12,3,18.39,2.06-.47,4-1.16,6.26-1.49.61-7.69-3.75-12.29-4.24-19.46-.31-4.67.28-16.1,2.76-19.51-.07,5.33,3.59,13,5.18,18.1.87,2.76,4.2,12,7.31,12.9,1.08.3,4.47-2.43,5.76-2.81,4.51-1.31,5.11,1.82,6-2.88.66-3.43-3.63-10-4.33-13.68a135.54,135.54,0,0,1-1.85-17.66c-.88-16.29-2.08-32.75-1.26-49.07.83-16.59,2.76-30.63,8.49-46.13,5.43-14.66,14.33-32.48,16.15-48.16"/><path class="cls-5" d="M439.67,422.52c-.65-14.18-.87-34.7,3.75-47.72,6.81-.91,11.24,2.15,17.27,4.61,8.43,3.43,17.75,5.35,26.49,7.95a207.22,207.22,0,0,1,41.68,17.49c8.2,4.56,11.86,4.82,8.49,14-3.83,10.45-6.19,21.85-11.26,31.79-4.42,8.68-8.1,7.24-17.19,8.12-4.7.45-8.41.36-12.39,3.27-3.2,2.34-2,4.28-6.1,5.42-4.78,1.35-9.33-1.31-14.55.42-6.13,2-13,7.07-17.34,11.85-7.6,8.46-5.58,17.93-8.68,27.37-7.66-15.12-.91-31.89,1.45-47.66,1-7.07,2.12-15.23-.75-21.26-2.68-5.66-8.21-10.84-12.32-15.66"/></g><g id="Layer_5" data-name="Layer 5"><path class="cls-7" d="M46.34,103.05c.43-.54-2.17-4-1.65-7,2.56.69,4.41,3.29,6.8,4.55a22.09,22.09,0,0,1-.38-5.7c2.48-.19,4.18,1.56,5.21,3.8-.6-1.79-.39-3.61-.53-5.44a20.33,20.33,0,0,1,4.48,3.83c.08-2.45.27-4.67,2.34-5.7a55,55,0,0,0,3.51,4.4c-.07-2.16-.42-3.93-.38-6.17a6.1,6.1,0,0,1,4.46,3.39c-.13-1.8.89-3,1.42-4.55a6.19,6.19,0,0,1,4.13,4.55c1.39-1.6,1.18-4.38.56-6.34a19.27,19.27,0,0,1,3.87,1.22A13.53,13.53,0,0,1,81,90.59c.24-1.67.88-3.35,1.13-5,1.35,1.17,3,2.61,4.51,3.83a17.39,17.39,0,0,1-1-5.57,9.6,9.6,0,0,1,5.83,3.45C85.94,98.11,75.86,99.65,64.91,103c-4.4,1.35-17.13,6.37-19.74.62"/><path class="cls-7" d="M42.83,89c.79,3.11,3.58,5,6.32,5.79A9.38,9.38,0,0,0,47,86.91c3.85.22,3.23,4.67,5.82,6.57a6.08,6.08,0,0,0,0-6.65c.33-.57.85-1.33,1.25-1.87,1,2.37,1.69,5.56,4.56,6.75.21-2.73.77-5.26.08-7.91,1.47,2.35,2.43,5.27,5.6,6.31,1.31-2.27.5-4.84-.95-6.81a5.83,5.83,0,0,0,1.11-1.11c.47,2.57,1.5,5.21,4.07,6.16,2.25-2.25,2-5.41,1.26-8a5.67,5.67,0,0,0,1.41-.65,5.64,5.64,0,0,0,3,6.88,9.19,9.19,0,0,0-.49-8.47c3.16,1.71.41,6.34,4.63,6.73-.15-3.07,1.85-5.49.21-7.92,0,2.37.75,5.29,3.26,6.18,2-2.61,2.52-5.59.24-7.93,4,1.49,3.07,5.68,6.2,7.9,1.29-3.2.91-7.23,2.41-10.32C81.16,67.9,32.06,79,43.9,89.51a4.33,4.33,0,0,0,.1-2.26"/><path class="cls-3" d="M78.75,77.12c4.94,1.51,6.61,10.47,3,12.32,10.28,0,18.67,4.74,29.06,5.51,21.85,1.61,40.55,4.56,55.93-13.52,9.47-11.13,14-32.2-2.83-38.23-15.18-5.46-32.83,10-45.74,15.75-10.52,4.64-33.75,10.69-39.41,18.79"/><path class="cls-4" d="M244,367.67c0-2.91-2.11-4.91-4-7.18-3.61-4.26-7.41-8.43-10.87-12.82-8-10.15-14.95-20.95-23.9-30.51-1.13,2.41-.55,6.16-.16,8.78.85,5.66,2.81,11.55,4.24,17.16,2.67,10.4,6,21.18,6.2,32,4.92,1.14,11.8-1,16.85-1.62,3.8-.49,12.16-.73,14-4.94-.35-.36-.29-.8-.49-1.15"/><path class="cls-4" d="M163,375.41a142,142,0,0,1-19.77-7.87c-4.75-2.3-13.33-8.27-19-7-6.74,1.56.33,13.2,2.54,16.09,5.36,7,13.6,13.66,21.88,16.64,3.9,1.4,6.28,1.16,8.45-1.92,1.77-2.52,4-5.55,5-8.41,1.35-3.82-1.48-8.06,0-11.4"/><path class="cls-4" d="M143.15,396.36c-4.46-5.93-8.8-5.92-14.73-2.65-5,2.73-9.13,4.1-8.86,10.19.3,6.85-.53,12,7.17,14,4,1,14.31,2.35,16-2,1.37-3.43.08-8.56-.17-12.14s-.6-9.47-3.49-12.17"/><path class="cls-4" d="M162,463a15.63,15.63,0,0,0-2.36-3.67c-2.71,2.09-8.11,10.4-2.25,11.38,1.29.21,6.68-1.08,7.17-2.41.83-2.24-3.45-5.06-3.5-7.37"/><path class="cls-4" d="M148.09,436c5.73-5.25.34-23.83-8.11-15.65-2.76,2.67-3.79,9.54-2,12.94,1.93,3.59,8.9,3.7,11.77.85"/><path class="cls-3" d="M224.17,30.38c-2.79-15.11-37.6-24.78-50.31-28.14-22.08-5.83-34.37.39-54.19,10.93-40,21.29-88.56,18.67-112.9,62.91a43.3,43.3,0,0,0-3.93,11.3c-.53,2.34-.94,4.71-1.24,7.09-.15,1.23-.26,2.45-.35,3.68a3.45,3.45,0,0,1-.2,1.41c-.23.45-.85.48-1,1.06a9.69,9.69,0,0,0,.4,2.84c.39,2.32.42,4.73.91,7a23,23,0,0,0,2.53,6.35c.78,1.45,1.42,3.28,3.23,3.42a8,8,0,0,0,5.55-2,49.91,49.91,0,0,1,6.16-3.51c2.81-1.48,5.63-2.94,8.36-4.56,1.06-.63,2.17-.7,3.22-1.35a26.19,26.19,0,0,0,2.81-2.23c.67-.55,1.41-1.1,2-1.67a11,11,0,0,0,1.55-1.45c.58-.94.45-3.17.46-4.26a43.27,43.27,0,0,1,.35-5.34,6.55,6.55,0,0,1,1.24-3.08c1.26,2.18,6.84-.32,8.48-.91,4.58-1.68,9.29-2.62,14-4,4.06-1.15,8.19-2.33,12.18-3.41"/><path class="cls-3" d="M66.61,92.85c-5,2.82-10.66,4.46-16.13,6.07-3.65,1.08-8.91,1.86-9.59,6.38a16.3,16.3,0,0,0-2.64-1.66c-7.84,7.81-16.71,12.88-26.52,18,1.42,9.77,13.16,16.79,22,17.57,11.81,1,18.94-5.79,29.7-10.18,13.11-5.35,27.09-7.43,41.09-7.42,4.11,0,8.15.35,12.23.54,4.63.22,9.14,1.27,13.72,1,5.12-.34,10.25-.7,15.39-.71,3.73,0,7.33,1.42,11.08,1.49,4,.07,8.1-.91,12.1,0,3.58.81,6.68,4.68,10.19,2.25,6-4.2,3.73-14.22,2.64-20.14-1.16-6.35-2.19-15.67-6.9-20.57-5.74-6-24.54-5.45-32.31-4.56-4.88.55-9.53,3.83-14.35,4.06-7.46.34-9.94-4.09-16.75-5.49-8.66-1.78-18.38,4.81-26.2,7.76"/><path class="cls-3" d="M973.54,218.78c215.92,63.71,427.79,60,650.49,60,38.39,0,76.2-7.5,114.38-10.49,6.95-.54,79.95,0,76.66,15.62-1.25,5.87-28.59,6-33.57,6.22-27.24,1-54.09,6.73-81.09,10.22-43.91,5.67-89.59,11.53-132.27,23.39-35.79,10-71.12,14.86-107.84,19.87-27,3.67-53.34,11.77-78.42,22.18-25.36,10.53-55,12.48-82.05,17.78-67.92,13.27-135.1,30.05-202.08,47.42-51,13.23-132.21,52.81-184.22,47.79l-29.82-2.88c-18.85,6-29.82,25-50.73,25.93-33.89,1.45-57.09-20.2-87.51-26.12-47-9.17-93.36-21.63-139.34-35-32.24-9.37-59.51-25.64-89.24-40.1-32.65-15.87-69.16-21.56-103.43-33.13-14.93-5.05-38.23-12.33-49-24.13-9.08-9.93-12.91-24.55-17.9-36.61-5.87-14.18-10.58-28.2-15.75-42.15-5.52-14.91-17.52-19.6-30-26.88-13.94-8.15-24.42-19.65-39.22-26.93-17.36-8.53-27.45-25.69-37.71-41.41-3-4.63-7.29-13.31-11.52-16.83-6.06-5-14.67-6.2-20.73-12.09-14.55-14.14-22.52-21.58-43.48-23.24,23-14.48,4.23-34.7,10-54.69,3.39-11.63,13.56-18.86,23.57-24.51,6.54-3.69,24.5-18.11,18.23-25.83,16,8.76,36.13,12.33,47.74,27.53l0,0C257.06,51.93,263.32,66,271.29,79c4.36,7.12,8.78,15.7,15.56,20.18,22.27,14.68,37.67,9.78,62.58,10.85,11.16.48,22,3.28,33.19,3.81a245.77,245.77,0,0,0,52.11-3.62c31.92-5.68,64.42-8.13,96.55-12.2,32.42-4.11,65,5.45,96.21,12.89,20.65,4.92,39.94,12.25,60.34,18.44,18.91,5.74,38.67,6.07,58.14,8.2,37,4,71.58,14.75,106.31,28.61,31.06,12.39,62.75,23.38,92.92,37.92Z"/><path class="cls-5" d="M1383,362.69c16.29-5.12,38.72-10.69,51.29-16.31-34.17-5.13-62.45,14.07-94.42,16.86-13.71,1.19-25.52-3.3-38.39-2.19-5.29.46-18.9,2.27-24.57,3.12-13.94,2.07-30.89,10-47,16.31-10.38,4-10.48,9.68-25,8.82-11.94-.72-18.2-1.91-28.4-2.1-23.66-.45-35.45,12-58.86,14.25-20.21,2-35-11.47-51.27-9.74-14.57,1.54-20.42,9.61-37.83,7.68-8.05-.88-14.77-4.37-22.89-4.53-30.21-.57-79.66,12.56-109.58-5.45-10.15,18.43-20.79,11.2-36.9,12.38-5.57,10.95-15.64,2.91-22.89-3.72-.89,1.59-1.34,3.37-2.28,5.1-13.71-.19-29.43-9.38-42.53-14.91-11.43-4.83-12.26-4.37-20.8-5.59-6.76-1-11.46,1.2-17.39-3.36-6.43,5.14-7.47.56-14.89,1.79-1.66.27-10.12,4.18-10,4.17-12.06.36-18.54.13-30.54-6.17-12.83-6.74-20.74-16-34.82-18-9.17-1.35-23.8,1.66-34.33-.05-4.21,7.05-6.62,7.32-13.14,1.92-12.72,5.5-16.28-11.62-24.36-18.7-11.16-9.79-15.78-7.18-29.13-8.23-26.6-2.1-42.05-16.21-66.32-24.24-17.75-5.87-34.71-7-51.95-16.57-16.78-9.33-27.92-19.24-46.74-24.1S366.8,264,363,242.71c-30.05-5.16-21.25-21.46-39.42-36.09-13.34-10.73-59.4-24.39-56.39-47.56-20.5,1.54-42.71-14.16-47.23-34.17-18.08-.3-35.29-2.51-52.51-2.61,9.77,6.44,21.12,14.94,31.54,20.67,8.21,4.51,12.18,4.3,17.81,12.12,7.84,10.89,12.61,23.56,20.13,34.58,7,10.31,17.48,13.8,27.58,20.83,17.17,12,35.82,22.08,51.25,36.38,17.54,16.24,21.86,38.29,30.79,59.88,5,12.06,8.82,26.68,17.9,36.61,10.77,11.8,34.07,19.08,49,24.13,34.27,11.57,70.78,17.26,103.43,33.13,29.73,14.46,57,30.73,89.24,40.1,46,13.37,92.31,25.83,139.34,35,30.42,5.92,53.62,27.57,87.51,26.12,20.91-.89,31.88-19.93,50.73-25.93l29.82,2.88c52,5,133.22-34.56,184.22-47.79,100.87-26.16,246.54-56.07,336.27-82.58"/><path class="cls-3" d="M352.57,371.8c6.12,14.1,14.95,35.69-8.35,27.09-21.41-7.9-40.48,3.54-62.22.95-8.86-1.06-17.68-6.22-23.86-12.52-7.6-7.75-3.63-25.76-17.77-27.1.14,3.66-1.17,7.19-4.62,9-4.78,2.58-20,5.77-20.34-2.6.09,2.2-2.9,4.91-3.18,7.29a12.59,12.59,0,0,0,2.89,9.11c-4.6,11.84-18.69,7.65-27.42,3.6a82.15,82.15,0,0,1-16.29-9.8c-5.35-4.26-10.94-10.93-18.4-6.27,2.67,8.26-6.12,11.78-9.78,17.31-1.64,2.47-.83,3.83,2.24,4.71-3.81-1.09-7.83-.15-11.47-2.29,4.89,8.83,1.94,19.16,3.2,28.38-.17-1.2,5.22-.52,5.87-.17,1.84,1,2.51,3,3.26,4.82,2.07,4.89,2.58,8.54,1,13.37,8.1,3.89,19.11,1.5,27-1.84,8.36-3.53,15.37-4.26,24.07-1.35a84,84,0,0,0-14.58,8.25,77.56,77.56,0,0,1-11.12,7c-3.47,1.86-13.6,6.87-14.73,10.62,3.47,2.29,3.78,6.27,4.48,9.83,0,.23,47.9-16.09,52.49-16.24,13.19-.41,25.8,2.71,39.1,5,16.2,2.78,33.58,1,50.09,1.85,20.18,1.06,127.54,18.72,133.25-19.23,2.6-17.33,2.31-34.95,3.71-52.39,1.85-22.92,7-45.45,9.58-68.33a97.86,97.86,0,0,0-1.4-30.67c-1.57-7.76-7.67-17.35-6.12-25.56,3.57-18.82,31.86-38.75,45.42-50.36,13.92-11.9,25.41-25.32,38-38.24-11.44,7.51-25.84,10.55-38.05,17-18.35,9.64-36.47,19.21-55.61,27.21-24.86,10.4-53.9,15.41-74.42,33.8-6.43,5.76-7.82,12.13-7.91,20.43-.11,10.27-3.23,18.7-5.22,28.87A117.25,117.25,0,0,0,352.57,371.8Z"/><path class="cls-3" d="M937.08,365.23c16.6-10.24,37.11-18,48.83-34.39,18.16-25.45-53.94-40.94-67.48-46.63-39-16.42-77.28-31.65-117.85-43.81-29.4-8.82-67.81-21.7-98.9-16.9-15,2.31-28.38,9.32-40,19-39.87,33.25,16.59,131.32,31.61,168.13a534.15,534.15,0,0,0,30.55,63.58c8.68,15.16,17.47,36.72,30.38,48.78,8.44,7.87,20.16,12.73,30.1,17.67,29.79,14.79,51.83,37.4,77.85,57.42,21.55,16.59,36.08,41.75,59.28,55.94,10.93,6.68,23.72,3.3,31.36,14.92,6.15,9.34,3,20.33,3,30.79-.08,21.43-13.53,6.36-22.08,19.12,6.64,14.08-12,30.52,1.48,37.51,10.78,5.6,13.83.13,23.84-3.6,7.4-2.76,10.59-1.73,17.37-.36,24.11,4.89,27.21-14.6,37-30.22,6-9.54,13.61-20,15.92-31.35,1.9-9.3,1-19,3.29-28.3,1.87-7.71,7.54-16.7,2.67-24.67-2-3.28-14.1-6.52-17.77-9.26-14.59-10.87-24.35-23.43-36.13-37.28-17.57-20.64-32.59-43.28-50.17-64-11.34-13.39-21.82-27.43-33.4-40.54-7.52-8.52-14.82-17.36-23.15-25.11-5.06-4.71-20.33-10.73-23.35-15.3-9.58-14.54,26.17-29.6,37.1-38,17.11-13.21,29.42-31,48-42.58Z"/><path class="cls-4" d="M943.8,720.59c-10-2.46-19,3.28-26.42,9.36-7.58,6.22-16,14-17.9,23.93,5.95,1.4,6.34,2.35,12-1.22,5.94-3.76,12-7.92,19.25-8.7,6.7-.71,10.37,2.28,11.08-5.76.32-3.57-.37-15.32,3.46-16.66"/><path class="cls-4" d="M970.05,724.4c-6.36-.48-12.48,5.93-15.41,11-2.75,4.74-4.52,12,2.76,9.77,3.6-1.12,5.85-4,8.78-6.17,2.22-1.66,6.19-2.64,7.94-4.58,4.2-4.65-7-7.53-3.12-11.92"/><path class="cls-6" d="M226.72,24.15c14.59,14.05,20.47,35.27,29,52.52a170.86,170.86,0,0,0,11.94,18.76c7.63,9.35,4.09,5.13,15.8,10.71,24.19,11.51,57.33,19.21,82.41,6.2C334.2,110,301.17,118,278.22,91.55,262,72.91,254.09,33.1,226.72,26.19"/><path class="cls-6" d="M901.75,193.42c22,9.39,37,25.62,58.27,35.94,30.18,14.66,65.45,13.45,96.14,27.43-19.37-2.31-39.35-9.92-58.57-14.48-25.39-6-49.88.64-74.68-3.78-22-3.93-24.15-14.36-37.94-29.3-11.53-12.5-27.69-15.59-39.61-26.1,21.55-1.47,41.64,8.93,62.51,10.29"/><path class="cls-8" d="M359.28,262.76c-13.73,35.68-20.46,106.43,14.53,133.87-14.16-27.87-32.53-103.07-12.49-129.79"/><path class="cls-6" d="M1013.91,303.55C989.55,344.07,937.14,363.5,898.85,388c-17.08,10.93-39.2,40.09-60,41.62,0-2.11-1.42-3.61-2.19-5.19,18.07-12.18,2.52-29,15.09-44.23,7.58-9.16,15.89-11.79,21.47-23.18,5.78-11.81.74-13.47,13.2-20.92,8.16-4.87,20.25-.74,28.17-9.62,4.68-5.24,2.31-14.94,7.94-20.38,12.58-12.16,42.28-5.8,58.27-6.63,23-1.21,48.06-9.18,70.31-8.21-10,4.08-21.81,7.51-31.25,12.84-16.15,9.11-26.27,25.21-42.69,34.11"/><path class="cls-6" d="M746.76,503.4c44.48,28.09,94.46,61.68,132.74,97.23-13.17-26.78-46-59.06-68.57-78.92-15.1-13.29-46.35-17.94-68.25-24.43"/><path class="cls-6" d="M944.57,554.38c20,39.71,44.45,78.19,81.26,101.82-5.62-14.75-21.45-26.91-32.26-38.44-17-18.12-29.29-38.43-42.88-59.3"/><path class="cls-6" d="M166.81,466.14c14.81-20.08,59.31-35.72,82.8-36.06,33.68-.48,66.08,11.62,99.3,15.28,36,4,75.28-1.17,90-39.21-4.71,12.17,3,27.76-3.86,39.72-8.64,15.08-27.78,15.22-43.68,17.45-34.63,4.84-79,4-113.9-.44-22.64-2.89-43.19-18.75-67-14.08-16.16,3.16-28.1,19-44.67,18.83C166.1,467.13,166.45,466.64,166.81,466.14Z"/><path class="cls-6" d="M190,54.74c10,21.67,19.47,60.64-14,67-2.36-17.67,27.37-50.5,5.81-65"/><path class="cls-8" d="M132.92,7.84C102.45,21.41,42.39,34.46,25,66.11c16.15-8.85,35.24-14,52.32-22.13C98.69,33.87,128.1,8.39,151.27,7.84"/><path class="cls-5" d="M655,270.92c16.88,68.32,25.7,135.64,62.41,197.07-12.12-1.24-25.94-4.12-38.1-6.53-11-2.19-23.14-5.36-34.93-8.09,27.17-28,12.2-79.3,4.74-112.21-6.66-29.33-14.68-83.82,11.59-106.74-2.24,24.65,2.92,49,2.45,73.2"/><path class="cls-5" d="M889.51,476.89c3.14-11.47-23.85-15.41-30.53-25.72-10.83-16.71,8-27.19,22.27-37.95,37.48-28.29,80.88-48.54,119.58-75.18,16.54-11.39,29.34-34.33,47.44-40.3-10.68,25.36-17.4,49.24-14,78,3.11,26.58,17.36,42.19,32.5,61.92-31.39,9.72-63.45,22.55-95.2,31.49-20.26,5.7-86.09,19.18-96.29-8.61-3-8.18-28.58-33.35-34.92-38.74,7.61-11.28,14.39-24.95,24.16-34.62,14.49-14.35,35.22-18,52.46-31.66,16.54-13.08,29.25-31.36,44.76-45.85,9.73-9.09,28.31-19.27,32.17-32.31,14.3-2,28,6.47,41.29,10.66,15.74,5,29,4.32,45.89,5.75-24.56,11.15-54.82,28.18-52.86,62.77"/><path class="cls-6" d="M447,370.84c13,9.31,30,17.19,46.25,22.24-16.42-5.11-24-47.89-27.46-62.06-6.13-25.36-10.23-47.76,3.08-71.88,7.49-13.57,15.88-20.46,26.18-31,10-10.28,15.38-24.84,25.22-34.41-16.49,4.48-32.32,23.36-47.62,33.39C433.83,252.5,440.83,264,442.9,306.66c1,19.73-.82,37.56-5.81,55.46,4.65,6.2,10.87,10,18,10.76-3.45-.85-6.47-2.05-9.89-1.73-.95,17.67,7.36,49.09-12.74,56,7.9-20.73,4.28-47.8,4.28-70.56"/><path class="cls-6" d="M722.29,138.36c-13.47,5.9-34,14.76-48.64,14,1.66-8.94-3.56-17-10.29-21.72,17.22-1.2,42.31,4.06,58.93,7.75"/><path class="cls-5" d="M955.8,745.11c2.54-8,9.88-8.56,16-11.75,5.15-2.7,8.45-5.12,14.32-7.27,12.44-4.55,24.53-20.89,32.91-30.75,10-11.74,6.11-30.22,15.87-42.8-.42,8.62-3.54,17.81-5.22,26.51-3.58,18.51-5.23,31.31-19.48,45.07-3.37,3.25-4.63,4.21-6.53,7.94s-1.8,6.22-5.09,9.4c-8.86,8.59-14.85,1.75-23.86,0-8.68-1.7-14,4.71-21,5a5,5,0,0,1,2.79-5.69"/><path class="cls-5" d="M902.16,756.7a181.11,181.11,0,0,1,20-15.14c4.57-3.07,17.48-5.11,19.25-9.38,5.6-.37,10.68,1.74,15.75-1.06-3.9,3-5.74,8.47-4.89,13.88,7.15.92,11.31-3.41,18-3.52,6.13-.1,11.58,3.94,17.4,4.19,13.63.58,13.5-18.42,24.54-23.65-4.48,12.7-15,32-30.34,32.51-7.21.22-14.6-4.16-21.75-2.9-6.58,1.16-9.66,7.27-17.22,6.56-9.53-.89-11.76-6.1-11.88-14.42-8.06.73-22.27,6.18-24.54,14.38"/><path class="cls-5" d="M952.18,732.06c11.1-4.3,16.15-11.41,20.26-21.79,4.73-12,15.32-20,21.11-31.6-2.47,9.36-5.5,18.06-11.81,25.84-3.79,4.67-12.77,14.32-13,20.91-5.93.58-8.57,2.05-13.66,5.19"/><path class="cls-6" d="M214.62,381.37c3.72,4.78,8.62,4.16,13.11,6.89,1.87,1.14,2.64,3.26,4.24,4.9,3.91,4,9.31,6.61,14.11,9.47-10.07.4-19.74-5.66-29.27-7.43-7.7-1.43-17.29,1-23.24-5.47,4.31.53,22.27.76,21.55-6.39"/><path class="cls-6" d="M142.55,389.27c3.37-.55,6.85-3.55,8.52-6.35,4.79,2.47,8.77,7,13.67,9.69,8,4.38,16.8,8.65,26,9-9.75.27-20.61-6.15-30-8.75-3.5-1-18.45-1.05-19.27-3.1"/><path class="cls-6" d="M136.63,417.9c-1.92-4.71-.66-6.92,2.34-10.33,3,5.34,22.35,2.82,28,3.48,5.24.61,10.46,1.71,16.08,1.42,5.78-.3,12.17-1.94,17.6,0-10.09.18-21,1.83-31.2,3.3-8.26,1.19-18.5,1.19-25.32,6,.73-5.32-5.58-4.18-9-3.41"/><path class="cls-6" d="M149.46,432.21c10.63,2.91,19.31-4.79,29.39-4.95,12.61-.21,25.68.62,38.08-1.86-12.38,10.59-29.05,13.94-42.25,22.89,4.07-1.66,7.72-5.4,11.7-7.59,3.36-1.85,7.56-3.31,9.9-6.39a29.77,29.77,0,0,0-21.91,1.35c-10,4.77-17.32,3.25-27.79,1.91.42-2.72,1.09-5.39.91-8.32"/><path class="cls-9" d="M122.63,27.26c.21.36-1.91,8.86-1.69,11.65.27,3.3,1.3,9.67,5.47,9.77,7.53.18,4.3-13.68,3-17.47-.93-2.69-3.53-9.07-6.76-3.95"/><path class="cls-10" d="M122.6,28c.19.34-1.76,8.22-1.55,10.82.24,3.06,1.19,9,5,9.06C133,48,130,35.16,128.8,31.64c-.85-2.49-3.25-8.41-6.2-3.67"/><path class="cls-11" d="M122.67,29.12c.13.26-1.17,6.47-1,8.51.16,2.4.79,7,3.34,7.13,4.6.13,2.62-10,1.82-12.76-.57-2-2.16-6.62-4.13-2.88"/><path class="cls-12" d="M117.17,29.36q4.48-.76,9-1.38c5.16,4.07,4.09,12.08,7.35,18.09-2.55.41-5.2-.15-7.71.1s-5,1-7.75.92a37.16,37.16,0,0,0,3.59,2.11c-.35.32-.77.8-1,1,2.13,1.75,6,.88,8.68,1,1.1,5.58,6.07-4.16,8.43-4.34-2.53-2.6-.88-6.91-1.31-9.91a36,36,0,0,0-3.58-10.18c-2-3.35-5.45-3.37-9.35-2.51-3,.65-4.53,3.73-6.3,4.62"/><path class="cls-11" d="M128.88,26.75c-5.29.48-10.38,1.75-15.64.42,1.44.35,2.49,1.88,3.8,2.14,1.07.21,2.28-.58,3.31-.75a37.54,37.54,0,0,1,7.57-.1c1.16.06,2.8-.78,3.61-.07-1-.73-2.11-1.41-3.08-2.07"/><path class="cls-11" d="M135.17,47.22q-6.93.83-13.87,1.6a2.07,2.07,0,0,0,.61-.12c-2.27.61-6.2.15-7,3.28,2.45-3,6.61-1.77,9.77-2.75a1.45,1.45,0,0,0-.79,1c1.71-1.16,4.28-1.47,6.28-1.8,1.83-.3,3.65-.09,5.41-.34-.28-.3-.42-.67,0-.94"/><ellipse class="cls-9" cx="126.09" cy="31.59" rx="0.66" ry="2.08"/><path class="cls-9" d="M123.47,39.8c.34,2,.62,6.18,3.64,5.71-1.69-1.48-3.46-3.42-3.43-5.71"/><path class="cls-6" d="M1.87,108.32c1.32,1.73,2.28,8.17,3.61,11.61,5.74.18,18.43-6.34,23.44-9.7,3.86-2.58,6.4-4.69,7.47-8.35,1.42-4.82.86-10.29,2.29-15.12-5.32-.52-9.87,5.28-15.16,2.76-4.1,4.45-4.91,3-9.38,5-3.06,1.37-4.94,6.62-8.76,2.63a14.74,14.74,0,0,1-4,4.09c-.21-.63-.4-1.31-.55-1.63a55.57,55.57,0,0,0,1,13.41"/><path class="cls-13" d="M4.21,97.79c-.49,4.89,2.92,9.58,3.52,14.46.32-5-3.31-10.09-1.18-14.81.33.63.7,1.29,1,1.93a10.72,10.72,0,0,1,.87-2.55,57,57,0,0,0,3.38,10.12,32.62,32.62,0,0,1-.52-9.68c2.28.75,3.77-.84,4.46-2.94A32,32,0,0,0,18.12,103a26.84,26.84,0,0,1-.33-8.08c.42.45,1.17,1,1.65,1.51.39-1.12,1.45-2.05,1.75-3.11.32,1.42,1.16,2.37,1.63,3.69-.09-2.29.22-4.75,1.87-6.36.41.36.87.84,1.3,1.23.85-.87,3-1.3,3.82-2.2,2.26,3.34,5.49.35,8.27-.8a18.79,18.79,0,0,0-.48-2.58c-7.4,2.25-15.72,3.33-23.15,6.51C11.39,94.12,6.61,95.53,4,97.26.1,99.79.76,100.6.67,105.77c1.13-2.59.88-6.38,4.12-7.4"/><path class="cls-8" d="M6.48,77.18c-2.43,12.56-8.38,28.19,3.67,36.5,3.64-14.59,5.46-30.25,8.25-44.35-7.68,1.84-11.89,9.21-11.92,18"/><path class="cls-5" d="M82,79.64c7.11,1,10.69-9.31,18.63-7.51-.27,4.7-1.69,4.92.56,8.83,2.38,4.12,5.27,5.3,9.09,7.46,8.3,4.71,14.59,5.41,24.18,5.24a24.4,24.4,0,0,1-15.63,1.78c-8.41-1.63-12.29-8.11-19.31-11.58-5.91-2.93-4.24.29-8.29,3.26-3,2.18-8.68,3.36-12.11,3.51C84,87,83.28,87,83.07,79.54c-2.09.15,2.56.2.72-.48"/><path class="cls-6" d="M37.56,103.05c4.68,5.78,7.62,11.57,13.44,16.51,2.77,2.35,7.13,4.36,9.14,7.48,4.5,7-10.85,8.43-16.72,9.94-8.82,2.27-15.7,4.38-23.1-2.32a41.8,41.8,0,0,1-6-6.16c-1.76-2.41-1.76-4.75-2.81-7.32,4.83-1.77,8.75-4.69,13.25-7.1,5-2.66,10.24-6.29,13.42-11"/><path class="cls-13" d="M29.37,135.82c-4.25-1.61-6.79-4.24-9.89-7.39,3.71,2.81,7.55,4.17,11.6,6.42-.85-.78-3.19-2.94-4.46-4.22,4.55,1.05,9,4.27,13.68,5.69-5-4.26-8.91-8.7-13.21-13.33,4.19,4.71,11.64,10.36,17.92,12.17-1.06-.82-2.09-2-3.16-2.76,2.08.74,4.44,1.88,6.8,2.63-1.31-6.05-8.76-9.29-11.57-14.8,3.35,4.54,11.08,9.65,16.37,11.86a55.81,55.81,0,0,1-4-5A25.32,25.32,0,0,0,55,129.33c-.59-5.29-9.36-10.07-12.78-14.28a47.64,47.64,0,0,0,9.89,8.42c-1.72-3.66-5.51-7.31-8.06-10.38,4.76,3.54,14,7.77,16.45,13.84,2,4.88-2.14,6.23-7.17,8.18-8.9,3.43-18.15,5.59-27.38,2.34-5.75-2-7.74-5.57-11.32-10.19,2,1.19,4.11,2.64,6.51,2.71l-.59.59"/><path class="cls-5" d="M14.74,124.7c4.42,9.71,26.2,2.37,33.23-.58,6.79-2.86,12.26-8.28,19.12-10.85s15.63-2.42,22.85-2c25.79,1.33,53.08,3,78-4.66,11.54-3.56,27.28-7.63,31.74-20.3-.09,13.7-6.53,32.08-21.08,36.26-11.66,3.36-25.61-.89-37.79-.16-18.72,1.11-37.62-3.15-56.37.28-14.33,2.62-26.58,11.41-39.87,13.74C28.91,139.11,17,137.13,12.4,120"/><path class="cls-6" d="M193.22,47.46C181,59.34,165.47,35,164,25.05,163,19,164,8.72,171.51,7.77c-11.85,8.23-6.93,22.09,0,32.05,3.44,4.91,19.94,16.36,23.94,6.56-2.75.76-5.51,2.33-8.71,2.25"/><path class="cls-6" d="M180.35,15.86c-3.35,6.63,24.22,27.64,4.27,31,23.86,1.35-2.94-25.74-5.44-33.37"/><path class="cls-5" d="M899.23,633.52c10.89,14.92,20.87,20.86,38.57,25.91,14.33,4.08,22.29,10.55,20.45,26.72.78-9.31,9.27-18.7,9.45-28.08s-9-8.2-16.3-8.92c-25.12-2.46-44.43-13.64-63.59-29.42C896,629.94,902.44,641.22,913,649.3"/><path class="cls-4" d="M882.33,471c-10.27-5.33-19.61-11-31.41-11.86-8-.6-18.57,2.06-25.89-.89,12.6-1.56,28.44-4.47,40.09,1.82-17.06-12-44.83-14.15-64.9-12.6,7.23,1.4,18.43-3.71,27-3.62,12.89.15,22.8,5.6,34.51,9.45-22.19-14.67-45.85-30.87-72.51-35.87,8.8-.67,23.81,5,32.83,8.68,12,4.95,20.35,15.37,31.42,20.26-5.27-17.27-23.5-37.15-39.5-45.37a142.9,142.9,0,0,1,25,18.33c5.15,4.62,9,12.34,14.66,15.78,1-13.83,3.63-23.69-3.54-36.67,5.74,11.56,9.24,19,6.19,31.82,6.52-6.25,11.51-11.11,10.79-20.84,5.57,16.77-21.79,24.67-9.27,39.6,9.05,10.8,24.86,14.34,30.49,28.76"/><path class="cls-4" d="M358,402.4c5.94-3.62,15.5.09,20.22,5-5.88-2.71-12.36-11-19.28-10.21,5.69-6.91,12.66-11.25,21.68-7.39-4.15-.95-9.78-2.72-14.15-1.76-6.86,1.52-4,4.12-7.52,8.15-5.42,6.14-15.68,1-19.28,8.87,5.37-4.21,13.48-2.62,20-2.62"/><path class="cls-4" d="M215.7,383.77c3.8,7.13,12,7.88,17.72,11.73-5.22-1.6-20.59-9.21-23.65-6.65a18.82,18.82,0,0,1,4.23-5.08"/><path class="cls-4" d="M345.3,300.75c.16-11.57,1.6-41.65-9.21-49,3.35,12.81,9.1,25.69,8.19,39.44-5.51-7.75-9.11-17.6-11.71-26.57.49,11.05,10.47,27,12.72,36.29,1-8.86,4.16-15.19,2.57-24.45-1.28,5.63-.82,13.92-3.41,18.4"/><path class="cls-4" d="M170.81,122.74c11-1.06,19-8.71,25.88-16.08-1.76,9.49-17.31,11.79-18.29,18.69,11,.57,22.1-1.11,32.5,1.31-10.84,2.66-29.42,3.33-38.73-2.56"/><path class="cls-4" d="M227.92,172.36c11.71,3.89,32.34,1,39.3-10.65-1.15,4.93-9.62,9.17-14.1,11-6.06,2.44-16.46-.42-20.92,3.08,3.36,2.16,9.66,3.5,13.88,3.38-7.52,0-13.68-1.31-18.84-6.8"/><path class="cls-4" d="M209.56,151.29c7.7.59,12,1.68,19.49-2.09-5.65,2.36-14.38,3.59-20.17.73"/><path class="cls-4" d="M273.46,216.55c9.6,5.29,24.22.7,34.73-1.07-10.05,4.07-24.47,3.17-35.35,2.27,4.09-2.2,13.74-4.8,14.13-10.63-6.29,2.64-10.07,9.47-18.06,9.43,3.12.7,6.74,1.53,9.31,3.4"/><path class="cls-4" d="M404,200.23c-13.39,1.87-30.8,16.12-36.76,28.35.85-4.93,4.29-9.83,7.67-13.4C379,210.86,388,208,390.3,203.07c-6.32,0-12.94,6-18.63,8.75-6.07,2.9-12.59,6.17-18.57,8.7,8.12-11.56,22.22-15.53,35.27-18.93,5.93-1.54,11.82-3,17.12-6.12,6.21-3.6,11.38-9.64,18.9-10.39-9.74,3.07-16.81,11.08-25.17,16.51"/><path class="cls-4" d="M274.82,88.75c8.71,9.69-9.77,11.32-10.59,18.13,2.62-4,11.42-9.15,16.4-7.94,6.82,1.66,1.29,5.56,3.74,10.64-1.08-8.93,4.61-6.59,10.08-4.32-4.73-5.85-18.37-6.43-20.31-15.83"/><path class="cls-4" d="M365.23,113.9c6.34,3.15,14.48,3.7,21.55,3.36-8.34,3.47-17.63,4.4-23,12.71,6.17-5.66,16.85-8.83,24.41-12.14,6.51-2.87,10.81-.27,17.73,1.4-.95-3.1-5.53-3.72-8.54-4.5,7.28-.61,16.57.94,22.85-2.72-9.07-.64-19,3.28-28.19,3.93-9.82.69-21.63-1.52-30.9-4.08"/><path class="cls-4" d="M196,97.58c2.76-10.19-1.19-20.86-1.36-31.06-.26,6,3.18,12.12,3.4,18.25,1.11-2,1.4-7.14,1.36-10.77.19,7.46,2.67,17.5-3.4,22.9"/><path class="cls-12" d="M17.18,65.63c-.53,4.4.13,10.19,3.38,13.28,3.91,3.71,8.24,2.92,8.86-2.4.51-4.43-4.29-6.85-1.87-11.39,1.88-3.52,8.58-4.63,11.3-6.86-6.71,3.06-13.7,4.59-20.89,6.13a13.73,13.73,0,0,0-.1,1.92"/><path class="cls-11" d="M44.09,56.24A34.71,34.71,0,0,1,29.46,61.7c-3.05.45-7.81-.88-9.94,1-4.3,3.88-1.33,15.31,4.76,14.86,2-3.83-2-9.41.31-12.53,2.94-3.9,12.25-2.46,15.72-6.72"/><path class="cls-4" d="M225.27,25.5C233.22,31.84,229.13,43,237,49.67c-2.72-6.36-2.38-14.05-6.28-19.44-3.61-5-9.21-6.15-13.67-10.68a42.79,42.79,0,0,1,6.77,4.5"/><path class="cls-4" d="M992.32,270.9c1.41.18,2.63-.14,4,.12,5.33,11,10.66,25.2,6.17,37.39-2.28,6.18-12.76,13-11,19.26,2.8,9.91,24.46,7.26,16.71,24.13-.32-14.61-8.74-20.48-20.05-26,8.61-13.84,23.53-45.65,4.14-57.77"/><path class="cls-4" d="M905.09,395.92c8.51-17.08,26.48-43.58,14.4-63.45,10.31,13.3,1.47,28.91-3.33,42.3-3.54,9.89.36,29.11-3.79,34.45.53-7.88.5-18.3-7.28-20.57"/><path class="cls-4" d="M1162.4,286.89c2.53,20.09-.1,30.43-13.68,45.87-4.76,5.4-6.94,6.42-9.25,12.28-1.26,3.2,1.82,8.39-.4,12.57-1.14-6-1.14-11.56-3.82-15.72,12-9.14,34.26-39.93,24.24-55"/><path class="cls-4" d="M983.59,279.63c8.12,21.92-13.66,41.91-11.41,62.29,1.37.33,2.58,0,3.93.43.4,7.11-3.54,13.79-7.16,19.59,5.31-12.86,2.74-26,6.28-40.12,2.82-11.25,9.42-34.07,4-42.19"/><path class="cls-4" d="M883.29,356.67c6,13.51,13.05,26.61,10.05,42.76-1.11,6-6.76,18.37-10.52,19.57,2.77-2.74,4.33-7,6.14-10-1.21-.58-2.84-1.1-4.07-1.74,12.14-13.75,6.56-41.79-6-53.46"/><path class="cls-4" d="M733.55,490.42c-1.91-11.5-2.44-27.8-5.49-37.69-3.9,12.48-1.87,30.74,7,40.59"/><path class="cls-4" d="M772.8,532.57c8.31-.23,17.62-3,20.1-11.45-10.5,1.75-14.31,10.69-27.36,8.55"/><path class="cls-4" d="M769.9,473c5.06,8.73,22.17,40.56,6.36,46.33,7-13.91,1.76-36.94-6.36-49.24"/><path class="cls-4" d="M437,432.27c-.15-10.2-5.59-19.68-11.49-27.4,7.12,2.57,9.45,11.35,12.61,17.11-.48-9.87-5-21.18-7.09-31.39,4.74,10.51,10.12,22.81,6,34.41"/><path class="cls-4" d="M208.76,451.16c6.19-4.82,15.12-6.52,22.82-10.24-14.44.43-20.28,9.3-31.54,16.06"/><path class="cls-14" d="M678.31,211.3c17.92-10.7,40.64,1.35,54.72,12.89-6.74-6.61-14.73-15.36-24.19-17.68-10.34-2.54-28.05,2.47-30.31,1.66.56-7.36-7.64-6.62-11.74-6.72,4.31,2.22,9.49,6.18,11.52,11.3"/><path class="cls-14" d="M705.93,183.68c7.16.8,13.72,4.85,13.31,12.94,15.51-4.33,30.73-.85,37.72,14.1-9-7.69-9.37-9.83-19.68-13.29-5.59-1.87-14.33,1.61-18.14-.82-3.3-2.11-5.32-11.38-12.37-12.38"/><path class="cls-14" d="M649.24,240.38c14.22-2.53,8,2.92,11.66,3.74,13.73-10.21,31.67-4.08,46,.77-16.94-10.1-40.77-8.31-59.13-6"/><path class="cls-14" d="M740.82,175a26.93,26.93,0,0,1,17.81,9.95c6.58-4.92,16.8-1.87,23.8,1.78-7.25-2.38-17.2-5.43-23.8-.32a24.91,24.91,0,0,0-16.35-10"/><path class="cls-4" d="M867.81,182.89c13.34,8.7,12.87,22.13,18.87,33.92,4.27,8.37,11.18,14.42,11.35,25.11.69-11.72-6.74-19.83-10.79-29.84-4.46-11-6.71-18.08-15.12-28.11"/><path class="cls-5" d="M442.58,376.08c3.33-14.65,1.71-32.09,3.23-47.19,1.27-12.59,3-25.16,1.87-37.94-.41-.39-.44-.36-.08.09,5.43,3.1,9.63,7.92,16.39,8.6-1.05,27.91,14.51,62.51,23.78,88.12-13.85,2-32.67-7.68-45.19-12.76"/><path class="cls-6" d="M330.56,113c27.17,8.9,28.95,28.35,60.3,20.47,23.85-6,48.17-17.87,71.64-27.82-24.43,3.15-52.23,11.55-74,9.13-19.83-2.21-46.79-9-62.8.63"/><path class="cls-6" d="M1394.29,361.39c20.84-.08,38-15.65,56.08-23.52,22.13-9.63,43.58-12.57,67-17.42,60.62-12.56,121.8-18.7,184.05-24.72,29.39-2.84,81.72-22.12,105.7-9.12-108.45.13-207.92,35.55-313.24,50.53-35.87,5.1-72.61,11-106.81,24.25"/><path class="cls-15" d="M703.79,203.65a273.31,273.31,0,0,1,39.53-16.26C794.93,171,868,203.14,911.52,230.18,928,240.43,954,259.07,965,275.93c-15.66,4.77-25.54-1.83-40.7-6.36-36.78-11-55.66,12.67-88.21,22.13-31.81,9.23-42.35,11-51.78,47.94-4.68,18.33,0,10.18-14.4,23.54-27.95,25.87-42.68,59.14-41.11,103.26-24.7-27.62-31.17-65-42.54-99-11.61-34.75-26-62.62-25.36-100.79C661.37,239.47,680.39,215.4,703.79,203.65Z"/><path class="cls-8" d="M748.8,191.38c-21.34,1.91-66.79,23.08-78.33,42-13.29,21.79-6.4,53.32,0,76.62,9.08,33.15,26.71,63.5,43.22,93.46,8.1,14.71,20.23,52.5,34.76,58.88-1.4-20.1-20.2-42.28-26.17-63-8.5-29.49-16.89-61.68-20.93-92.21-6.69-50.66,16.6-89.31,55.62-119.82"/><path class="cls-15" d="M293.32,103.18C271.4,94.74,263.05,49.79,248.65,60c11.69,14.94,12.77,42.13,3.34,58.24,35.25,7.58,59.25,37.75,93.22,51.08,23.8,9.34,18.59,7,45.63-8.31,44.12-25,95-25.4,143.68-35.95,10.77-2.34,68.53-23.42,78.71-17.08-50.2-15.14-81.69-13.23-127.66-4.11-97,19.24-182.29,10.08-191.45.52"/><path class="cls-15" d="M1200.77,264.47c-44.66-6.05-90.15-7.73-134.16-18.07-40.88-9.61-77.6-30.61-118.4-40.71,7.92,2,29,27.13,41.77,32.18,20.22,8,46.81,5.53,61.52,23.43-16.34,15.12-32.08,34.57-55.38,43,3.47,8.81,3.53,14.07,6,24.24,29.21-33.42,59.36-4.68,92.32,2.08,38.87,8,84.39-1.06,123.76-1.67,104.26-1.6,207.92-13.54,311.34-26,82.69-9.93,171.57-29.67,255-22.49C1593,288.88,1391,290.25,1200.77,264.47Z"/><path class="cls-16" d="M348.3,231.93c0,32.41-12.51,101.95,12.38,125.93,19.1-51.32,7.07-85.16,59.19-117.06,32.64-20,48.45-30.34,45.09-73.44-35.54,4.06-100.42,37.69-114,73.77-4.2.83-8.15.17-12.45.57"/><path class="cls-16" d="M426.39,449.93c23.82-17.61,15.92-87.05,16.44-116-13.76,40.1-41,89.18-84.77,96.46-24.19,4-43.75-2.69-68.32,0-22.52,2.46-36.79,12.08-58.57,19.52,11.49,1.73,76.71,7.06,96,12.55,29.77,1.53,83.43,5.93,105.78-12.55"/><path class="cls-16" d="M888.42,410.89c3.42-20.19,15-39.31,19.09-58.38-31.86,24.55-62,54.88-96.68,78.72,11.12,17.93,35,42.33,26.82,64.41,41.65,12.44,66.44,65.75,83.46,103C915,548.76,970,592,986.5,596.41c-27.33-11.73-57.31-75.7-78.44-102.55-10.57-13.44-41.63-30.56-46.48-47-7.19-24.43,18.38-30.45,33.34-49"/><path class="cls-6" d="M1060.82,356.57c25.47-13.72,65.25-17.12,93.86-18.5q65.8-3.18,131.74-5.92c67.12-2.76,133.93-11.32,200.61-16.82-26.08-8.69-66.92-.25-95.48-1.76-55.11-2.91-105.33.6-159.67,7.82-45.94,6.1-95.22,8-140.66-1.94-12.75-2.79-31.39-7.73-38.56-19.17-22,24.16-52.33,39-73.21,64,32.58,11.77,59.72,2.19,93.6-3.62"/></g></g></svg>