<svg xmlns="http://www.w3.org/2000/svg" xmlns:xlink="http://www.w3.org/1999/xlink" viewBox="0 0 1790.67 572.02"><defs><style>.cls-1,.cls-16{fill:#1b75bc;}.cls-1{opacity:0.9;}.cls-15,.cls-2,.cls-5{fill:#594a42;}.cls-2{opacity:0.4;}.cls-3{fill:#8dc63f;}.cls-4,.cls-6{opacity:0.6;}.cls-4{fill:url(#linear-gradient);}.cls-5{opacity:0.2;}.cls-6{fill:url(#linear-gradient-2);}.cls-7{fill:#c2b59b;}.cls-8{fill:url(#radial-gradient);}.cls-9{fill:#231f20;}.cls-10{fill:#fff;}.cls-11{fill:#006838;}.cls-12{fill:url(#radial-gradient-2);}.cls-13{fill:url(#radial-gradient-3);}.cls-14{fill:url(#radial-gradient-4);}.cls-16{opacity:0.5;}.cls-17{fill:none;}.cls-18{fill:#fff200;}</style><linearGradient id="linear-gradient" x1="299.11" y1="472.67" x2="348.08" y2="186.37" gradientUnits="userSpaceOnUse"><stop offset="0" stop-color="#fff"/><stop offset="0.11" stop-color="#d5d2d0"/><stop offset="0.24" stop-color="#a9a29d"/><stop offset="0.36" stop-color="#867c76"/><stop offset="0.47" stop-color="#6e6059"/><stop offset="0.57" stop-color="#5e5048"/><stop offset="0.64" stop-color="#594a42"/></linearGradient><linearGradient id="linear-gradient-2" x1="654.62" y1="469.21" x2="447.43" y2="160.3" gradientUnits="userSpaceOnUse"><stop offset="0" stop-color="#fff"/><stop offset="0.02" stop-color="#e8e6e5"/><stop offset="0.06" stop-color="#c7c2bf"/><stop offset="0.1" stop-color="#a9a19d"/><stop offset="0.15" stop-color="#908680"/><stop offset="0.2" stop-color="#7c7069"/><stop offset="0.26" stop-color="#6c5f58"/><stop offset="0.33" stop-color="#61534b"/><stop offset="0.42" stop-color="#5b4c44"/><stop offset="0.64" stop-color="#594a42"/></linearGradient><radialGradient id="radial-gradient" cx="437.99" cy="442.12" r="437.75" gradientTransform="translate(-533.66 720.42) rotate(-80.3) scale(1 2.06)" gradientUnits="userSpaceOnUse"><stop offset="0" stop-color="#27aae1"/><stop offset="0.13" stop-color="#4ba6c6"/><stop offset="0.32" stop-color="#76a2a6"/><stop offset="0.49" stop-color="#989e8d"/><stop offset="0.66" stop-color="#b09c7b"/><stop offset="0.82" stop-color="#bf9b70"/><stop offset="0.94" stop-color="#c49a6c"/></radialGradient><radialGradient id="radial-gradient-2" cx="1788.89" cy="313.18" r="1.28" gradientUnits="userSpaceOnUse"><stop offset="0" stop-color="#27aae1"/><stop offset="0.14" stop-color="#4ba6c6"/><stop offset="0.33" stop-color="#76a2a6"/><stop offset="0.52" stop-color="#989e8d"/><stop offset="0.7" stop-color="#b09c7b"/><stop offset="0.86" stop-color="#bf9b70"/><stop offset="1" stop-color="#c49a6c"/></radialGradient><radialGradient id="radial-gradient-3" cx="627.13" cy="253.66" fx="529.175155792534" fy="262.45794471516643" r="149.98" gradientUnits="userSpaceOnUse"><stop offset="0" stop-color="#27aae1"/><stop offset="0.12" stop-color="#41a7ce"/><stop offset="0.42" stop-color="#79a2a4"/><stop offset="0.68" stop-color="#a29d86"/><stop offset="0.88" stop-color="#bb9b73"/><stop offset="1" stop-color="#c49a6c"/></radialGradient><radialGradient id="radial-gradient-4" cx="242.09" cy="236.17" fx="194.65993801681336" fy="184.4334917838959" r="150.64" gradientTransform="translate(-24.19 246.61) rotate(-26.95) scale(1 0.47)" gradientUnits="userSpaceOnUse"><stop offset="0" stop-color="#27aae1"/><stop offset="0.11" stop-color="#3ea8d0"/><stop offset="0.41" stop-color="#77a2a5"/><stop offset="0.67" stop-color="#a19e86"/><stop offset="0.88" stop-color="#bb9b73"/><stop offset="1" stop-color="#c49a6c"/></radialGradient></defs><title>UUDino_Fruitadens</title><g id="Layer_2" data-name="Layer 2"><g id="Layer_2-2" data-name="Layer 2"><path class="cls-1" d="M319.39,380.92c2.42-1.42-1.78-3.89-3.67-4.23-3.46-.63-9.71,7.51-14,8.75-7.39,2.13-9.79-3.48-4.89-10.84-5.1,2.16-10.88,5-14.54,9.28-3.08,3.59-2,11.56-6.08,14.74-3.15,2.43-11.78-1.72-15.53-2.44-4-5-.37-8.89,2.91-15-2.28.25-.12-4.06-2.4-3.81-1.92.22-5.79-2.61-5.88-3.91-.66-9.13,19.36-17,22.22-18.26,4.22-1.83,6.22,0,4.67-5.61-.81-2.92-5-2.8-3-6.84,2.63-5.46,12.88-4.24,17.83-5.53,8-2.1,14.71-8.28,23.14-8.93,4.88-.37,9.75,1,14.49,1.06,9.65,0,18.36-2.12,27.35-5.6,2.76-1.07,16.54-9.77,19-8-4.38-3.2-6.2-8.47-9.57-12.51-3.9-4.68-8.43-9-12.52-13.49-5.42-6-11-14.38-18-18.66-32.5-19.86-66.32-36.35-90.31-67.81-.51-.43-.54-.41-.09.09,5,5.46,27.17,8.26,34.49,10.13,13.45,3.42,27.82,6.33,41.73,4.12,13.55-2.15,18.27-7.94,31.31-3.17,10.29,3.78,19.32,10.72,29.74,14.37,9.58,3.35,20.86,4.58,31,4.31-6.12,20-3.28,56.49,1.76,76.46,2.63,10.46,5.58,10.8-.63,22.52-10.11,19.08-29.28,21.89-48.86,23.56-9.68.82-19.82,1.2-28.6,5.78C333.42,366.19,328,375.87,319.39,380.92Z"/><path class="cls-2" d="M278,360.37c-5.22-2.9-3-7.34,2.12-9.12,1-.35,2.2-.24,3.18-.74.71-.36,1.34-1.57,1.82-1.83,1-.57,3.42-.19,3.33-2.52,1.72-.68,3.69-.62,5.49-1.08a29,29,0,0,0,7.62-3.57c6.31-3.67,16.37-.39,21.68-5.63-1.85,1.93-5,2.7-7.34,3.65-5.46,2.18-10.63,4.73-16.23,6.59-4.24,1.42-10.21,3.93-12,8.23-1.37,3.27-2.94,3.26-6.1,3.65-1.21.15-4.39.22-3.38,2.19"/><path class="cls-2" d="M272.37,405.32c-2.54,0-8.52-.22-9.12-3.47-.68-3.65,5.94-4.11,5.49-7.47,3.34,0,5.14-3.38,5.83-6.25a12.35,12.35,0,0,0,.22-4.95c-.17-1-.8-1.75-.31-2.61.76-1.31,3.79-1.53,5.08-1.9a40,40,0,0,0,6.82-2.32,28.26,28.26,0,0,0,6.61-4.67,4.75,4.75,0,0,1,2.4-1.48c2.7-.58,5.62-.75,8.4-1.42A39.68,39.68,0,0,0,314,364.83c-4.56,2.41-9.9,5-13.71,8.51-2.43,2.26-3,5.05-1.44,8-1.88,1.67-9.39,6.22-11.6,3.32,1.93.09,5.75-1,6.61-2.73,1.1-2.27,1-4.69,2.58-6.95a5.54,5.54,0,0,0-2.49,1.11c-1.66,1-3.49,1.6-5.17,2.55a24,24,0,0,0-6.08,4.67c-2.18,2.55-2.57,5.94-3.18,9.05s-1.72,5.9-5.12,6.76c-1.65.41-3.18-.42-4.76-.2-.52.07-4,.88-4.29,1.28-1.56,2.24,6,5.27,7.52,4.22-.29.55-.56.32-.66.35"/><path class="cls-2" d="M263.6,388.51c-3.8.18-5.65-4.8-3.93-7.49,1.46-2.27,5.53-3.71,2.5-6.07-1.42-1.12-3.73-.6-4.8-1.6,2.51-5.62,9-7.23,14.73-8.36a23.06,23.06,0,0,0,5.58-1.69c1.39-.69,2.66-2.06,4.08-2.58,1.05-.39,2.56-.2,3.72-.35A41.42,41.42,0,0,0,294.7,358c6.75-2.49,14.36-6,19-11.79-.81,2.52-3.07,4.77-5.06,6.41A64,64,0,0,1,293,361.84c-3.35,1.43-7.18,2.15-10.14,4.19-2.37,1.65-3.35,3.63-4.86,6-2.55,4.07-5.58,7.93-10.59,9-2,.43-5.34-.62-6.22,1.6-1.26,3.17,2,4,3.69,4.94a2.25,2.25,0,0,1-1.86.73"/><path class="cls-2" d="M311.28,381.57a14.35,14.35,0,0,0,7-1.42c2.34-1.24,2-2.65,3.23-4.36.58-.79,1.83-1.24,2.57-1.89a23.09,23.09,0,0,0,3.5-4.42c1.58-2.28,3.12-4.66,4.9-6.78,1.4-1.66,3.26-2.94,4.5-4.72-3.53,1.21-6.8,5.5-9.27,8.17-2.74,3-5,5.32-8.77,6.82a46.72,46.72,0,0,0-9.71,4.81c-2.65,1.85-5.33,4.79-8.36,5.87-3.74,1.35-8.51,3.16-12.25,1.27.51,3.32,6.43.89,8.24.7,2.34-.24,3.51.5,5.84-.81a82.23,82.23,0,0,0,6.76-4.89,25.65,25.65,0,0,1,6.38-3.21c-1.23,1.81-3.64,3.49-5.47,4.68"/><path class="cls-3" d="M284.85,341c-3.68-1.63-10.38,4.29-11.77,7.61-1.51,3.62-.88,14.23,5.56,11.48-6-5.57,3.79-8.29,7.67-8.52.37-3.21-2.73-7.61-.7-10.19"/><path class="cls-3" d="M260.87,371.55c-4.43,1.4-9,6.44-7.55,11.2,1,3.29,8,10.66,10.93,5.21-2.11-.95-4.9-4.53-2.16-6.46,1.62-1.13,6.86,1.59,5.93-3.43-3.52-1.38-6.77-3.11-7.53-6.9"/><path class="cls-3" d="M262.81,390.22c-4.33,2.58-5,9.27-3,13.27s10.22,7.6,12.56,1.92c-1.67-1.87-5.26-.7-6.59-2.94-2.43-4.07,3.48-2.75,5.06-3.88,5.62-4-7-5.36-7.61-8.37"/><path class="cls-3" d="M298.16,380.89c-3.49.56-6.87,2.62-10.49,3.49,2.65,3.7,11.07,2.42,13.58-.84a7,7,0,0,0-4.6-3"/><path class="cls-3" d="M319.42,380.32c3.81-1.27,1.35-6.7-2.95-3.8-2,1.37-4.21,3.93-5.83,4.92,4.63,1.5,8,2.55,10.68-3"/><path class="cls-4" d="M317.59,382.3c1.91-.32-13.69,2.55-3.79-5,3.29-2.5-8.72,6-11.92,7.75a15.34,15.34,0,0,1-7.93,2c-3.16-.12-5.45-2.85-8.07-3.13,6.57.72,6.28-4.58,9-8.66-5.1,2.16-10.87,5-14.54,9.27-3.08,3.6-2,11.57-6.08,14.75-2.13,1.64-7.57-1-8,2.36-.27,2.27,6.14,5.18,7.05,3.68a7.82,7.82,0,0,1-10.78,2.1c-4.92-3.48-3.68-11.27-5.2-16.45-.94-3.19-4.06-5.18-4.69-8.63-.49-2.69,1.24-4.44,1.41-6.95.21-3-.8-4.23,1.23-7.07,3-4.22,8.27-6.73,12.76-9,4.67-2.37,4.08-3.1,5.22-8.12.88-3.85,2.51-7.67,5.86-10,4.59-3.19,10.77-1.93,15.92-3.28,8-2.09,14.71-8.28,23.14-8.92,4.88-.37,9.75,1,14.49,1.05,9.65,0,18.36-2.12,27.35-5.59,2.76-1.07,16.54-9.77,19-8-4.38-3.2-6.2-8.47-9.57-12.51-3.9-4.68-8.42-9-12.52-13.5-5.42-6-11-14.37-18-18.66-32.5-19.86-66.32-36.35-90.31-67.8-.51-.44-.54-.41-.09.08,5,5.47,27.17,8.27,34.5,10.13,13.44,3.42,27.82,6.34,41.72,4.13,13.55-2.15,18.27-7.95,31.31-3.17,10.3,3.77,19.32,10.72,29.74,14.36,9.58,3.36,20.87,4.58,31,4.32-6.12,20-3.28,56.48,1.76,76.46,2.64,10.46,5.58,10.79-.63,22.51-10.1,19.08-29.28,21.9-48.86,23.57-9.68.82-19.82,1.19-28.6,5.77C331.5,366.81,326.21,377.24,317.59,382.3Z"/><path class="cls-1" d="M662.13,115.05C645.58,100.73,623.91,86,610.38,68.87c-9.22-11.64-10.46-18.38-27.55-15.29C557.52,58.15,537.41,79,515.62,91c-19.56,10.82-40.23,20.63-57,35.52-9.67,8.61-25.51,20.68-25.29,34.81.36,22,22.57,40.33,32.54,58.33,16.39,29.61,30.66,59.51,49.83,87.66,10.32,15.15,20.59,30.08,32.52,43.76,7.15,8.19,22.22,19.61,25.71,30,4.21,12.47-2.62,20.57-11.53,28.73-12,11-25.37,21.48-38.15,31.54-4.14,3.26-8.8,4.51-13.57,6.5-6.53,2.73-8.22,6.45-8.93,13-.87,8.09-2.49,12.59-6.89,19.63-5.65,9-11.86,17.71-17.23,26.92-5.14,8.8-7.41,18.29-12.11,27.1,4.5,3.56,10.67,7.4,16.14,6.06,7-1.72,7.59-11.21,15.13-13.35-1.52.43-6-17.46,4.33-16.89,7.31.4,9.35,12.07,17.81,5.32,4.66-3.72,4-8.84,4.92-14.08,1-5.66,3.16-11.09,5.08-16.52s3-13.95,6.91-18.27c7.11-7.88.76,7.09,5.28,10.71s9.1-.68,11.83-4.15c6-7.61,8.58-17.93,16.79-23.73,10-7.05,21.46-12.62,31.69-19.56,25.63-17.41,18.58-38.11,26.83-64-13.53-13.72-13.7-45.22-19-63.36-7.94-27.24-34.1-69.85-21.67-98.72,16.52,5.32,31.64-10.53,46-17.39,9.89-4.74,66.76-10.87,69.31-18.51,1.33-4-9-16.24-10.71-19C683.69,135.08,674.51,125.76,662.13,115.05Z"/><path class="cls-5" d="M540.27,475c7.82,5.48,12.6-7.72,15.49-13.07,4.14-7.65,7.29-12.25,15.09-16.42s14.82-8.2,22-13C606,423.87,610,411.38,610,395.8c0-13.71,4.55-27.63,3.84-40.77,4.65,5.43,7.7,10.88,13.87,14.78-6.54,8.63-6.05,20-7.33,30.25-1.08,8.71-6.9,17.68-13.16,23.95-7.14,7.13-16.86,11.75-25.41,17.08-10.11,6.29-15.51,12.18-22.44,21.88-4,5.54-17,22.6-22.81,11.28"/><path class="cls-5" d="M472.76,527.66c.08,5-4.71,8.18-6.31,12.61-1.67,4.64-.92,9.09-.37,13.87-.42-8.25,4.59-10.95,11.13-12.39,7.56-1.65,9-2.5,13.91-8.94,7-9.27,1.85-20.69,5.72-31.86,2.69-7.76,3.06-11.18,3.22-19.21-5.78,7.36-7.95,20.22-13.93,28.8-4.47,6.41-11.5,12.55-14.86,19.35"/><path class="cls-5" d="M502.43,535.08c-1.74-4.83-3.5-12.19-3-18.2.62-7.43,3.59-8.2,10.3-9.36-1.08-11.61,4.52-32.92,11.56-42.21,3.64-4.8,8.43-8.7,12-13.78,4.84-6.92,10.66-14.89,19.72-15.89-4.72,3-13.22,12.65-17.58,18.22s-5.22,11.52-3.63,18.92c-7.24,9.49-5.6,56.81-25.65,42.2-8.13,4.64-2.74,14.13-2.36,20.75-1.6.32-1.23-.64-2.09-1.39"/><path class="cls-3" d="M535.6,457a4.37,4.37,0,0,0-2.83-1.39c-2.77,7.5.42,35.84,13.4,33.64-4.78-4.52-9.23-13.38-4.61-18.95,2.13-2.57,7-5.18,2.22-9.29-2.58-2.23-8.56.19-9.15-5"/><path class="cls-3" d="M471.3,526.3c-4.2-8.85-9.73,10.54-9.77,13.67-.07,5.87.81,19.16,7.27,21.4-2.57-8.68-.83-14.44,5.92-19.69,2.36-1.84,5.54-5.36,3.19-9-2.23-3.5-7.66-1.36-7.1-7.8"/><path class="cls-3" d="M501.16,500.39c-7.65-1.74-7.28,14.1-6.84,18.56A24.68,24.68,0,0,0,503,535.5c1.17-6.17-3.59-13.43,1.8-18.51,2.32-2.19,6.44-1.77,8.18-4.38,1.55-2.32,1.17-6.88-.2-9.2-6.45,1.24-9.15.34-12.62-5.46"/><path class="cls-6" d="M662.13,115.05C645.58,100.73,623.91,86,610.38,68.87c-9.22-11.64-10.46-18.38-27.55-15.29C557.52,58.15,537.41,79,515.62,91c-19.56,10.82-40.23,20.63-57,35.52-9.67,8.61-25.51,20.68-25.29,34.81.36,22,22.57,40.33,32.54,58.33,16.39,29.61,30.66,59.51,49.83,87.66,10.32,15.15,20.59,30.08,32.52,43.76,7.15,8.19,22.22,19.61,25.71,30,4.21,12.47-2.62,20.57-11.53,28.73-12,11-25.37,21.48-38.15,31.54-4.14,3.26-8.8,4.51-13.57,6.5-6.53,2.73-8.22,6.45-8.93,13-.87,8.09-2.49,12.59-6.89,19.63-5.65,9-11.86,17.71-17.23,26.92-3.27,5.6-5.67,11.22-9.1,16.25-3.84,5.62-5.91,8.43-7.05,15.66-1,6.4-2.84,23.53,6.61,23.84,0-5.57-2-10.19,1.38-15s10.09-5.15,14.41-8.49c3.91-3,6.76-8,10.32-11.52,3.28,2.32,6.34,6.68,9.92,8.17-1-6.88-3.32-16.06,4.33-20.93,3.63,2.6,6.69,3.29,10.48.27,4.66-3.72,4-8.84,4.92-14.08,1-5.66,3.16-11.09,5.08-16.52,1.27-3.58,1.58-7.48,2.09-10.9a20.21,20.21,0,0,0,5.67,12.2c2.77,2.68,9.42,2.87,11.08,4.62-2.88-3-5.09-7.1-7.35-10.54,4.95-1.75,9.22-2.87,12.53-7.09,6-7.62,8.58-17.93,16.79-23.73,10-7.05,21.46-12.62,31.69-19.56,25.63-17.41,18.58-38.11,26.83-64-13.53-13.72-13.7-45.22-19-63.36-7.94-27.24-34.1-69.85-21.67-98.72,16.52,5.32,31.64-10.53,46-17.39,9.89-4.74,66.76-10.87,69.31-18.51,1.33-4-9-16.24-10.71-19C683.69,135.08,674.51,125.76,662.13,115.05Z"/><path class="cls-7" d="M28.18,95.66c.29.13.32.52.9.22a5.83,5.83,0,0,1,0-3.91c2.58,0,2.88,4.18,5.52,2.79A10.91,10.91,0,0,1,39.1,82.42c1.21,1.92.21,4.43.71,6.64a22.42,22.42,0,0,0,2,5.74,4.07,4.07,0,0,0,.5-2.39c2.54,0,1.1,3.53,3.82,3.7-1.11-2.21,0-3.65,1.71-5.07,1.17,1.57,1.18,4.79,2.51,5.6,2.63-1.49.14-2.08.53-4,.24-1.14,2.45-2.84,3.52-3.15a23.3,23.3,0,0,1,2.37,3.61c.24-2.12,1.87-3.57,3.52-5,1.93,1.2,3.61,3.33,3,5.58,1.08.12,3.87-5,5.81-6,.71,1.25,2,1.82,2.69,2.77s.64,1.92,1.32,2.8c0-2.71,3.53-5.33,5.85-6.24,1.18,1.72,2.63,3.61,3.59,5.36C82,89.76,85.06,87.9,87,86.67a31.71,31.71,0,0,1,5,4.74c0-.54.31-.9.36-1.47a6.71,6.71,0,0,1,6.19,3.4,11,11,0,0,1-.29-2.41c1.39.68,2.32,2.09,3.72,2.8-.16-.36-.23-.67-.38-1.07,1.27,7.5-12.21,8.23-17.13,8.93C71,103.51,57.36,104.14,43.75,105c-7.53.47-15.1,1.53-22.64,1,2.83-2.18,7.29-6,5.54-10"/><path class="cls-7" d="M2.92,63.38c1.47,1.26,3.62,1.13,5.38,1.16a5.32,5.32,0,0,0,4.21,5.21c.33-1.67.15-3.44,2-4.22-1.38,2,2.72,5.83,4.61,6.12.83-1.63,1.67-3.55.83-5.42a5.79,5.79,0,0,1,.77-.71c-.79,2.06,2,4.17,3.58,4.74,1-3.06,2.59-5.86,5.72-6.57,5.63-1.29,12-.67,17.6-1.38a4.13,4.13,0,0,1-1,.81,4.23,4.23,0,0,0,.27,4.05,2,2,0,0,0,.82-.81c1.21.62.91.23,1.91-.26a9.82,9.82,0,0,0,1.65-1,.75.75,0,0,0,.22.52,5.82,5.82,0,0,0,.91-1.93,13,13,0,0,0-.33,2.63c.21,0,.6-.11.83-.11.56,3.29,6,2.16,5.88-1,0,0,1.23.11,1.36.14a9.16,9.16,0,0,0-1.47,2.55,6.27,6.27,0,0,1,.69,1.67C63.6,73,63.9,72,68.48,68.6c.75,1.18,1.38,3.6,3.13,4s4.07-1.55,4.2-3.25c-.11,0,1.52-.06,1.59,0a5.55,5.55,0,0,0,2.8,5c2.67,1.19,4.48-1.15,7-2.19a7.57,7.57,0,0,0-.54-1.84,4.35,4.35,0,0,0-.25,1.43c.44.1.91.5,1.39.64-.62,2.72,2.36,2.26,3.88,3,1.36-1.07,1.55-2.59,3.12-3.13,1.31,3,3.24,3.31,4.84.47.34-.62-.61-1.3-.39-1.68.71-1.24,1-.57,2-1.41,1.25-1,2.54-2.24,4.22-1.79C103.1,66,98.74,66,95.91,65.42c-4.38-.84-8.67-1.68-13.11-2.12-12.25-1.21-24.4-3.49-36.67-5a112,112,0,0,0-34.88,1.61c-1.83.38-9.55,1.21-8.68,3.72"/><path class="cls-8" d="M1787.11,313.24c-5.21,1.78-15.27,13.46-49.9,13.46-49.16,0-150.09-6.9-221.21-10.92-108.13-6.11-195.34-29.72-302.47-42.53-97.35-11.64-191.88-25.83-288.11-43.68-56.71-10.53-104.19-8.84-160.11.34-19.9,3.27-56.79,11.2-81.74,16.29q-22.61,4.59-45.32,8.71c-35.6,6.43-70.75,15.26-106.75,19.62-32.47,3.93-65.69,3.86-98.43,3.86A615.87,615.87,0,0,1,332.5,270c-13-2.17-26.33-3.49-38.67-8.2-11.66-4.46-25.77-8-35.72-15.8-9.41-7.41-16.77-21.55-23.4-31.64-2.88-4.4-3.36-12.22-7-15.81-2.89-2.87-9-3.74-12.82-5.24-10.29-4-20.08-8.79-28-16.72S173.29,159.47,166.21,151c-6-7.17-13.52-10.64-21-16-1.85-1.33-1.3-2.15-3.88-3.49-1.91-1-4-.67-6.18-1.19-3.51-.85-8.39-1.57-9-5.71-19.94.89-38.21-4.4-57.86-6.36-13.22-1.31-23.09-1.41-35.58-5.73-5.26-1.82-10.44-3-15.13-6.19a29.47,29.47,0,0,1-7-7.62c-.47-.78-1.73-3.7-1-4.51,1-1,8.43.26,9.94.38,2.41.2,4.87.72,7.28.8,2.06.07,3.73-.74,5.75-1a23.49,23.49,0,0,1,5.75-.24,63.1,63.1,0,0,0,11.09-.2c3.76-.35,7.13-1.56,10.86-1.38,4,.19,8.17.75,12.2.51,1.08-.07,3.79-1.71,4.38-1a29.43,29.43,0,0,0-2.4-7c-1.37-3-3.21-5.92-4.42-9-.68-1.75-2.06-5-1.81-6.89a58.66,58.66,0,0,1-9.94-1.57c-3.58-.89-6.85-2.64-10.51-3.22-2.58-.42-5.17,0-7.73-.32-2-.28-4.79-.48-6.75.24-.91.34-1.44,1.43-2.25,1.91-4.18,2.46-11.41,1.21-15.75-.18a14.87,14.87,0,0,0-8.22-.22c-2.5.5-5,1.65-5.86-1.33a18.74,18.74,0,0,1-.06-5.6A19.34,19.34,0,0,1,4.5,49.68c4.15-6.14,11-10.16,17.52-13.27,15.89-7.53,33.8-9.35,49.65-16.65,17.27-8,30.94-16.69,50-19,18.81-2.31,37.58.77,53.57,11.25,8,5.26,17.17,12.11,21.42,20.94,9.09,18.91,9.88,56.3,25,70.69,7.86,7.48,38.6,15.64,50,17.35,22.66,3.42,43.46-17.94,63.68-25.89C348.87,89.74,358.42,78.77,369.6,70s22.85-11.93,35.45-18.2c15.36-7.64,31.25-10.6,47.89-14.39,16.81-3.82,33.65-5.06,50.73-6.88,11.81-1.25,16.5,2.09,27.64,3.2,9.9,1,20.24-4.48,30.63-4.28,12.54.24,25.25,3.28,37.26,6.71C621.14,42.41,642,52,663.72,58.78c39.21,12.31,80.87,14.63,119.94,27.74,52.81,17.72,104.23,39.31,157.14,56.76,58.14,19.17,118.21,31.83,176.41,50.51,55.54,17.84,108.83,37.7,165.33,53.35C1354.94,267.2,1543.61,296.92,1787.11,313.24Z"/><path class="cls-9" d="M109.42,26.83c-5,.79-8.68,14.41-5.92,18.4,2.58,3.73,9.15,5.17,13.15,5.28a39,39,0,0,0,6.19-.65c2-.27,5.4.14,7.17-.64,2.5-1.1.8-5.41.51-8-.63-5.57-.34-13.92-5.9-16.48-3.09-1.43-7.21-3.31-10.57-3.09-2.89.19-5,2.5-7.7,3.41,1.19.6,2.86.4,3.56,1.69-.23.16-.52.16-.74.3"/><path class="cls-10" d="M103.5,45.23c-2.53-3.66-.61-9.17.91-12.83,1.45-3.49,4.38-6.33,8.4-6.13,3.54.18,9.5-.05,12.15,2.65,1.89,1.92,1.3,6.08,1.45,8.74.18,3.21.89,6.21.73,9.46C119.63,49.12,109.26,53.57,103.5,45.23Z"/><path class="cls-11" d="M105.06,45.1a12.63,12.63,0,0,1-1.27-4c-.92-6.21,1.15-15.19,9-14.8,3.54.18,9.5-.05,12.15,2.65C127,31,126.21,34.34,126.35,37c.18,3.33,1.81,7.7-.91,10.24-2.15,2-6.63,3-9.49,3.25C111.56,50.83,107.17,49.16,105.06,45.1Z"/><path class="cls-9" d="M103.76,45.87a5.56,5.56,0,0,0-3,1.05c3-.38,5.45,1.49,8.06,2.57-1.73-.81-5.13-2.2-5.32-4.39"/><path class="cls-12" d="M1790.67,313.48l-3.56-.24C1788.71,312.7,1789.74,312.71,1790.67,313.48Z"/><path class="cls-2" d="M271.24,251c-5.09.44-9-1.71-13.13-5-9.41-7.41-16.77-21.55-23.4-31.64-2.88-4.4-3.36-12.22-7-15.81-2.89-2.87-9-3.74-12.82-5.24-10.29-4-20.08-8.79-28-16.72S173.29,159.47,166.21,151c-6-7.17-13.52-10.64-21-16-1.85-1.33-1.3-2.15-3.88-3.49-1.91-1-4-.67-6.18-1.19-3.51-.85-8.39-1.57-9-5.71-19.93.89-38.2-4.39-57.84-6.35-20.66-2.07-36.12-3.87-52.89-16.66,26.11,17.22,64.44,13.07,93.25,9.36,12-1.55,22.7-6.38,33.9-10.58-4.69,1.76-15.42,11.24-18.41,15.32,5.13,6,17,1.79,24.12,1.72,10.67-.09,21.66,2.06,29.79,9.4,11,9.9,12.9,29.17,23.61,39.63,5.21,5.08,14.39,8.92,21.68,11.17,14.67,4.52,20.68,4.51,29.51,20.2l0,0C262.41,214.81,258.28,235.35,271.24,251Z"/><path class="cls-2" d="M1265.78,271.8c2.2.39,4.41.79,6.61,1.21,18.47,3.52,36.55,7.79,55.14,10.52,6.21.91,87.32,14,127.08,19.24,96.17,12.59,320.5,16.88,319.64,17.54-26.19,20-314.72-9.31-338.9-12.44-37.8-4.89-201.95-32.15-239.82-36.8q-44.67-5.49-89.23-11.86-90.74-12.94-180.88-29.64c-56.71-10.53-104.19-8.84-160.11.34-19.9,3.27-56.79,11.2-81.74,16.29q-22.61,4.59-45.32,8.71c-35.6,6.43-70.75,15.26-106.75,19.62-32.47,3.93-65.69,3.86-98.43,3.86A615.87,615.87,0,0,1,332.5,270c-23.57-3.95-50.79-13.56-64.4-34.8,10.94-.41,22.77,3.27,34.15,3.81,32.15,1.53,65.41,1.52,97.47-1.14,95.56-7.93,187.22-27.76,281.21-46,45.19-8.75,93-20.58,139-23.7,33.65-2.29,72.31,11.35,104,20.89,58.1,17.47,115.35,37.81,174,53.33,29.74,7.87,59.83,14.53,90.29,18.87C1213.9,265,1240.2,267.34,1265.78,271.8Z"/><path class="cls-13" d="M525,59.17c-16.74,20.44-32.06,41-36.86,67.81-3.24,18.16.1,35.1,2.33,53,3.47,27.82,7.9,55.19,26.93,77,14.93,17.11,37.12,26.58,52,43.7,12.87,14.85,23.59,31.46,37,45.82,14.1,15,29.61,28.59,44.19,43.3,9,9.05,17.94,17.62,28.34,25.25,2.54,1.86,7.85,4.11,9.35,6.79,1.71,3.05.57,8.71.77,12.17.57,9.8,3.32,19.3,5.21,28.75a286,286,0,0,1,4.59,29.57c.67,7.17,1.93,14.29,2.48,21.44.33,4.4,2.69,11.5,0,15.48-1,1.5-5.17,3.64-6.64,5a55.57,55.57,0,0,1-6.26,5.48c-4.88,3.19-9.13,3.16-14.83,3.21-5,0-9.58,2.52-14.57,2.74-.17,3.84-3.37,5.8-4.81,9.12s-.37,7.09-4.69,8.31c-1.15,9.89,17.53,4.79,22.75,4.26,5.17,6.06,9.44,5.26,15.63,3.16,7.55-2.56,24.75-11.58,28.82-18.75,4.28-7.54,7.4-14.05,14.1-20.09a19.87,19.87,0,0,0,6.14-14.31c0-2.94-.7-2.26-1.94-4.9-2.54-5.41-4.88-10.95-4.72-17,.16-6.2,3.53-12.49,2.35-18.74-1-5.13-5.7-7-7.34-11.42-1.75-4.79-1.82-10.93-2.59-16-2.89-19.24-2.22-41.11-5-60-3.21-21.75-25.25-41.61-46.5-50.36-2.44-21.76-17.2-44.54-26.77-64-5.27-10.71-15-23.61-11.94-36.32,2.65-11,14.23-23.15,19.92-33.39,13.27-23.89,30.84-52.42,59.62-58.75,15.45-3.4,60.88,3.09,70.52-6.35-12.37-17-33.77-25.22-52.15-33.84-19.91-9.34-36.44-20.4-57.48-27.19C648,71,623.13,65.69,597.6,60.21c-19.38-4.17-60-19.35-73.94,2.94"/><path class="cls-14" d="M220.83,331.3c-6.38,2.37-17.1,14.6-18.48,11.09-2.63-3.83,2-3.91-3-4.15-5.9-2.13,1.79-10,6.71-12.41-6.37,3.15-13.3,6.26-18.4,11.25-4,3.86-8.24,12.84-14.3,13.84-6.86,1.13-8.21-8.38-14.94-7.91,2.21-4.74,8.62-12.05,13.11-14.6-5.47,2-10.71-1.46-14.28-5.39,5.06-4,8.23-9.7,14.39-13,1.65-.88,18.25-7.38,19.07-5.39-1.46-3.55-2.33-4.31-6.2-6.39,5.81-5.07,15.08-8.38,22.18-8.69,8.62-.36,17.06-1.68,25.72-.82,21.49,2.15,44,.74,65.51,1.1-6.34-13.34-21.53-23.67-29.32-36.93-10.39-17.68-21.83-38.35-19.61-59.71,17.45-20.71,55.38-30.61,72.86-51.44,6.19-7.38,6.41-10.62,15.5-14.61,12.2-5.37,26.47-9,37.42-16.59-1.78,5.36-6.84,7.56-10.51,12.31-4.73,6.12-7.48,15.32-9.18,22.78s-1.49,13.69-.83,21.2c.8,9.07.08,7.71-4,14.44-11.08,18.14-1.43,43.78-1.69,64-.16,13-.33,26.06-1.48,39s-4.26,18.83-12.5,28.77c-6.69,8.08-9.43,11.56-19.41,13.53a40.28,40.28,0,0,1-10.57,1.16c-5.34-.33-10.35-1.54-15.77-1.56-14.14,0-29.46-3.88-43.21.87-7.86,2.71-9.85,10.51-16.17,14.19-4.89,2.85-2.67.16-5.65-.51-.29-.06-2.89-2.76-4.08-1.86-1.1-1.41.43-4.74,1.33-6.68"/><path class="cls-5" d="M507.67,240.82c13.5,5.59,24.47,16.89,39.28,22.23,10.78,3.88,17.38,4.87,25.83,13.66,22.75,23.66,39.51,55.5,57.16,82.6-21.13.94-43.52-37.57-55.14-52.88-14.36-18.93-30.53-26.79-49.07-40.7-4.28-3.21-7.68-8.59-11.38-12.57a49.29,49.29,0,0,1-12.6-22.7"/><path class="cls-2" d="M225,289.65c7,2,7.68,6.21,14.79,7.4,7.38,1.23,17.51-3.06,25.12-3.7,16.56-1.39,34.76-1.25,50.2,2-11.67-10.94-28.86-7-44.19-5.67-17.59,1.49-38.6-1.8-52.49-.7"/><path class="cls-2" d="M331.58,314.8c20.29-37,18.4-83.32,16.35-123.85-11.64,28.56,1.67,63.83-7.66,93.39-3.63,11.54-10.17,26.6-21.25,32.7-11.26,6.2-27.79-.74-36.15,9.31,17.73,1.22,45.31-.75,54.63-18.94"/><path class="cls-2" d="M666,328.12a26.54,26.54,0,0,1,.15,17.46c27.45.69,44.52,31.37,53.2,53.05,2.27-37.19-46.92-50.19-56.31-80.87"/><path class="cls-2" d="M151.05,4.05c6.17,5.22,23.28,11,20.94,20.43,9.62,2.46,28,14.55,7.77,21,18.21,8.77,9.67,35.58,19.4,48.83,13.38,18.23,34,11.41,36.53,35.36,15.43-15.24,28.31,1.26,43.57-8.68-27.63-9.64-55.58-7.32-68.26-37.8-10.06-24.15-6.85-50.39-30.36-67.31C169,7.52,164.31,8.54,152.53,1.09"/><path class="cls-2" d="M346.38,158c4.75-7.47,6.68-15.72,13.13-22.45,8.27-8.62,20.7-13.24,26.88-23-6,12.33-17.21,22.57-23.59,34.67,1.34.82,2.77,1.45,4.15,2.22-3,3.51-5.08,6-10,7.28,1.33,9.64,6.08,20.24,8,30.67-6.17-1.48-11.41-6.6-15.28-11.45A13.7,13.7,0,0,0,347,182c3.65,2.64,4.65,5.62,6.63,8.25-19.46-1.74-2.86-37.68,1.67-45.65"/><path class="cls-2" d="M330.1,121c3.06-2.17,7.9-3.33,11.54-4.21.17,2.75,2.67,6.28,2,9.94,8.7-2.67,15.95-12.18,25.93-13.16-9.15-1.74-20.22,11.55-25,1.77-3.36-.47-7.26-.29-10.1,1.23"/><path class="cls-2" d="M637.89,226c-2.34,9.73-5.93,19.33-4.18,29.4,21.78-3.42,41.65-6.17,65.68-12,24.19-5.86,58.83-12.87,88.24-17.46-8.7-11.48-34.76-23.85-47-33.37-8.81-6.89-21-12.66-27.79-21.37-4.75-6.09,1.6-12.68-9.63-15,.35-2.49.22-6.2.64-8.67-14.61,20.75-57.38,62.74-70.45,91.8-3.79.36,3.23,15.6,0,17.75,10.78,13.86,23.16,37.7,28.12,54.76-11.9-12.29-31.39-39-38.84-54.71-8.17-17.19,1.89-25.29,10.15-41.42,9.35-18.27,8.65-34.8,24.93-46.66,15.54-11.31,28.22-15.76,46.67-21.47"/><path class="cls-2" d="M469.2,231.94c15.05-10.74,19.94-11.3,23.28-30.19,6.72,13.29,6.31,33.46,18,46.92,8,9.21,11.08,12.57,25.14,25.14-29.53,1.56-49.67,4.19-77,2.52,14.47-5.89,13.51-40.5,10.58-54.75"/><path class="cls-2" d="M344.9,273.37c4.48-13.65,8.83-35.36,4.37-49.83,8.19,21.57,26,35.81,40,52.79-16.64-2.3-35-.75-51.79-5.92"/><path class="cls-2" d="M84.33,14C80.05,17.94,70.57,20.26,65,22.36c-5,1.89-10.88,4.66-16.45,5.16,5.24,1.77,19.69,1.73,25.16-1C69.26,21,85.47,15.61,88.56,13.3"/><path class="cls-2" d="M68.15,69.58c3.5,1.26,7.63.37,11.15,1.51C78.09,80.32,81.2,82,86.22,89.94a15.66,15.66,0,0,0-6.71-2c-.26.63,0,1.26-.2,1.91-.84.49-2.47.77-3.45,1.24-1.26-7.35-5.51-16.55-9.11-23"/><path class="cls-2" d="M109,24.55c-4.68,5.56-15,27.37,1.86,26-2.91,3.47-8.08.41-9.51,4.13,5,0,33.44.89,35.12-2.32.42-.79-1.91-5.22-2-6.55-.13-2.34,1.67-5.29,1.19-8.24A16.55,16.55,0,0,0,127.39,26c-.18,7.33,3.58,14.78,2.55,22.32-7.67,2.29-15.53,4.82-22.21-.05-5.68-4.14-7.68-10.83-4.4-17.42"/><path class="cls-15" d="M46.34,33c-4.81,4.38-34.94,4.38-31.53,16.77C17,50.7,22.49,53.4,24.91,52c3.37-1.93.61-5.24-2.38-6.49,3.53-7.15,20.28-9.19,26.63-11.82"/><path class="cls-16" d="M161,23.85c6.63,20,11.19,36.72-2.76,54.64,7.43-3.45,6.7-11.17,10.5-17.28,1.82,1.92,2.2,1.66,1.41,4.64.41-6.74,3.67-10.74,1.59-18.07-2.91-10.27-10.88-18-12.15-28.86"/><path class="cls-16" d="M184.94,66.06c0,12.3-2,21-10,30.72,3.89-1.46,6.55-5,9.32-8,.51,4.15,1.94,9.29-1.22,12.79,1-2.76,2.61-5.34,5.27-6.42.88,3.87,1.24,8.36,2.26,12.17.13-3.43,3.88-4.6,4.38-7.46s-2.78-5.48-4.43-8.28c-6.46-11-4-21.67-5.61-34"/><path class="cls-16" d="M115.29,2C106.5,8.32,97.2,14.35,94.87,25.76c-1.61-4.75,0-12.49-7.39-11.08C80.56,16,79.53,26,79.25,31.55,73.5,17,63.6,25.72,57,34.34c.06-4.53-2.82-7.93-7.67-7.13,22.21-5.83,42.32-18,63.91-25.7.83-.36-.51-.24-.8-.88"/><path class="cls-16" d="M529.64,261.72c9.05,5.84,31.41,9.32,42.09,5.09a162,162,0,0,1-17.22,5.25c11.57-.09,21.22-1.65,30.36-5.6-8,5.18-20.53,9.77-26.79,15.62,9.27,1.08,13.51,3.55,22.93-.87-1.85,2.9-4.52,6.82-6.47,7.56,4.51-.2,8.51,1.53,10.72,4.93,9.68,1.28,17.1-5.12,26.38-5-6.26,5-12.22,10.79-18.77,14a21.57,21.57,0,0,0,15.07-3.13c6.22,6.27,13.21.85,20.85-.35-3.25,11.11-28,6.13-28.09,17.72,3.93-.26,8.38.69,12.29.38-2.48,1.6-4.37,4.68-6.85,6.28,4.81.12,8.77,1.68,11,6.12-2.59.83-5.64,3.33-7.5,3.87,8.67,1.34,16.29-2.54,24-6.28-9.14,4.9-19.32,13.23-29.6,13.79-15.06-11.72-24.11-30.56-37.59-43.94-13.18-13.08-30.22-23.94-45.78-37.1"/><path class="cls-16" d="M655.9,299.08c.7,7.78.36,15.95-5.6,21.73,2-1.92,7-6,10.52-7.39.44,7.33-1.82,16.7-8.4,20.56a81.32,81.32,0,0,1,9.66-6.42,35.39,35.39,0,0,1-9.6,29.62c9.24-3.49,12-12.48,18.87-18.93,3,6-1.09,12.58-3.67,18.48,1.3-6,6.56-9.84,10.12-14,5.36,6.21,9.21,12.26,10.38,20.32.53-4.67,2.38-5.18,4.79-8.41a56,56,0,0,1,2.86,14.2c.22-1,3.29-4.28,4.83-6.43,3.58,5.37,3.2,11.92,2.84,18.68,1.89-4.1,4.71-6.26,7.92-8.64,1,.05,1,.09,0,.13-6-4.22-9.25-12.19-14.26-16.84-5.52-5.12-14.81-7.8-19.75-13.79-10-12.09-13.95-30.87-24.09-42.87"/><path class="cls-16" d="M1151.91,208.9a20.59,20.59,0,0,1,8.77,10c2-12.12,15.65-.13,15.9,7.88,5.79-.91,9.89-5.59,14.89-8.53-11.31-4.51-27.19-3.89-37-10.63"/><path class="cls-16" d="M1207.31,223.07c11.71,5.42,26.71,12.46,39.84,14.39-2.42,3.09-6.92,4.9-11.3,4.77-1.38-12.23-15.62-5.34-23.19-5.18.82-6.42-.82-13.55-7.92-14"/><path class="cls-16" d="M1269.15,245c1.54,2.68,4.19,2.1,4.16,6.35,6.87-8.31,16.44,7.07,19.07,13.87a22.46,22.46,0,0,1,5.37-12.29c3,2.16,6,3.26,7.73,7.33,2-1.8,6.91-3.09,8.83-4.79,3.45,5.64,10.14,6.54,14,1.38-18.76-6.7-47-2.19-64.29-14.43"/><path class="cls-16" d="M1369.65,265.58c10.11,3.89,21.61,2.29,32.3,4.84,11.15,2.66,22.86,6.77,34.24,9.3a17.25,17.25,0,0,1-9.63,5c.51-3.33-1.63-5.7-1.74-8.62-8.07.79-14.3-4.75-22.21-4.09-7.36.61-10.66,6-17.31,6.24,2.21-14.18-5.6-6.25-10.43-7.47-6.56-1.65-11.56-7.11-17.72-6.5,6-.58,12.22-.05,17.65,2.57"/><path class="cls-5" d="M194.93,30.85c12.1,21.32-4,42.2-10.4,61.07.74.35,1.88.7,2.63,1.1.52,5.81-5.8,8.92-5.42,14.93,10.8,1.43,12.78,20.53,16.24,28.66,7.57-2.19,7.15-2.75,13.38,1.13,5.43,3.38,9.71,13.29,14.53,15.61,6,2.89,5.56-.34,11-4.43,4.68-3.52,7.68-4.44,13.23-5.47-1.76-6.13-12.52-21.66.79-22.94-14.79-5.21-31.84-20.27-39.56-34.36-4.6-8.38-5.27-16.56-7.11-25.73-2.07-10.37-7-18.19-10.28-28.61"/><path class="cls-5" d="M347.54,267.4c-.37-21.58,4.15-42.8,2.86-64.38-.74-12.34-4.17-25.36,8.45-32.6-.43,8.51,5.08,18.84,13.75,9.35,10.87,6.78,14.23,14.61,23.35,23.77,4.61,4.63,10.3,6.5,16.8,8.19,8.83,2.31,12.4-1,21.09-1.69,12.42-1,21,11.38,33.69,13.27,9.09,1.35,26.18,3.22,32.76,2.32,8.68,25.74,22.14,39.2,35.31,47.88-9.58,1.2-23.64,1.5-31.72,2.7-19.36,2.86-41.29.73-60.91.73-21.82,0-43.84-.77-65.63-1.88-9.27-.48-24.76.49-32.51-4.09,2.13-3.82,4.6-8.66,2.71-13.1"/><path class="cls-5" d="M532.58,55.65c-19.57,10.06-32,35.32-38.82,56-9.19,27.86-2.76,57,5.46,84-6.82-27.15-.09-57.05,6.39-83.84,3.79-15.67,7.81-51.39,27.93-53.22"/><path class="cls-5" d="M625.82,190.12c-9.67,5.75-13.8,15.17-19.8,24.16-3.35,5-6.86,11.1-10.45,15.73-1.41,1.82-8.6,7.43-9.18,9.17-2.58,7.88,20.4,27.2,26.4,34.9,8.1,10.4,24,34.13,39.41,33.16,12.66-.79,4-13.24-.35-20.92-5.9-10.47-14-19.82-17.92-31.34C627.56,236.16,648,212,657.8,195.84c6.32-10.49,16.28-18.1,23.52-27.87C665.78,182.64,643.6,179.56,625.82,190.12Z"/><path class="cls-5" d="M272,258.1C259.4,243.93,248,223.24,247.11,204c-.37-7.66,3.41-21.78-12-22.46,18.91,5.66,32.48-28.87,43.3-39.69-4.81,10.82-11.57,31.62-12.28,40.92-1.42,18.45,2.85,36.58,10.1,53.47a170.28,170.28,0,0,0,19.11,33.49c2.83,3.85,16.54,25.29,18.64,26-4.93-1.59-10.15-1.06-15-2.64C298.62,282.71,279,266.05,272,258.1Z"/><path class="cls-5" d="M201.6,77.19c0,10.54.9,20.61-9.47,26.38-6.62,3.69-13.9,1.72-21,3.18-6.64,1.36-12.28,5.24-18.36,7.92-15.24,6.71-32,8-48.48,6.32-13.85-1.38-30.94.48-44.06-4.25,4.53.05,8.57-1.6,12.65-3.16l-2.22.66c-8.54,2.6-7.39-.27-16.12-1.47-6.61-.9-13.36-.34-20.08-1C28.25,111.2,21.31,108,16,104.47c-2.36-1.55-5.66-3.94-6.39-7-1-4,.68-5.48,3.88-3.57,7.77,4.66,29.78,2.7,44.46.75,11.22-1.5,9.78,0,21.52-2.45-4.09,2.54,10.92,2,6.37.5C80.21,90.9,77.37,89,75.33,84.14c-2.75-6.55,0-12.47-6.61-15.39-6.81-3-24.36-4.49-31.8-4.89-6.75-.36-6.79,2.78-12.72,3.8-4.17.72-7.77-.85-11.74-1.47-3.62-.57-7.1.59-10.69,0a28.59,28.59,0,0,1-.56-6.78v3.92a19.86,19.86,0,0,1,1-7.82c1.41-3,7.62-13.38,7.34-10.27C9,50.65,1.21,69.73,26.16,61.9c12-3.75,19.89-1.5,32.09.72,11.66,2.13,26.51-.6,34.8,9.17,4.1,4.83,17.13,19.86,23,8.22,4.83-1.53,9.55.56,14.4,1.23,3.9-6.49,17.42-1.58,23.89-4.47,7.19-3.21,10.49-8.74,11.39-16.3a38.4,38.4,0,0,1,4.72,6.61,10.74,10.74,0,0,1-1.11,2.67c4.12,2.21,2.84,5.94-.83,10l1.24-1.21c3.43-3.47,2.76-7.57.7-11.43,1.45-5.17-.29-11.76-6.81-11.57-.37-5.24.1-9.59-4.42-13.22-2-1.61-7-1.75-8.35-3.53-4.49-5.89,2.39-11.75-3.48-18.45-4-4.54-14.33-6.7-19.85-7.58,17.43-.9,30.76.48,35,17.37,6.28,24.85,38.42,14.13,24.92-4.62C202.77,39.81,201.61,57.1,201.6,77.19Z"/><path class="cls-5" d="M169.7,78.51l-1.24,1.21c3.67-4,4.95-7.76.83-10a10.74,10.74,0,0,0,1.11-2.67C172.46,70.94,173.13,75,169.7,78.51Z"/><path class="cls-5" d="M1.3,64.24c11.22-3,21.88,3,31.28-4.67C37,75.47,6.71,63.35.51,65.07a13,13,0,0,1-.16-3.69"/><path class="cls-5" d="M61.39,66.15c6.74.76,12.45-1.31,18.94.14.46,5.57,18.52,16.32,23.65,19.94-5-.11-10.18.16-14.78-.88-.35,3.42,1.2,6.52,2.59,9.24-4,.1-7.86-1.88-11.73-1.67-5.14.27-9.23,3-15.1,2.94s-13.62-2.65-19.49-1.08C52.25,93,71.75,97.75,75.3,90c3.8-8.3-10.93-23.09-18.68-22.9"/><path class="cls-5" d="M100.5,8c-5,8.57-10.54,32.58-4.89,40.85-5.68.06-7.9,4.41-12.47,5.7-5,1.41-10.89-.59-16,.19-7.91,1.2-22.08.78-29.21,3.89,9.39-1.8,27.16-3.86,33.9-10.4-2.26.35-5.15-.57-7.43-.33,2.8-5.57,14-12.75,8.61-19.68,4.85-2.82,7.37-7.48,3.07-11.7,7.12-.39,17-5.85,23.34-9.38a28.54,28.54,0,0,1-1.76,4.68"/><path class="cls-5" d="M110,12.73c12.43.88,52.93-5.9,52.31,16.1-9.19-4-14-10.61-25.6-12.3-8.84-1.3-22.52-5.28-30.53-2.84"/><path class="cls-5" d="M102.41,46.12c-1.52,7.15,5.41,10.61,11.11,11.48l-3.41-2.68c5.44.46,10,2.86,15.83.71-8.44-1.77-19-4.62-25.44-10.47"/><path class="cls-2" d="M73.79,69c5.61,1.39,11.58.36,15.12,5.58-8-4.46-18.68-4.9-27.52-6.54"/><path class="cls-5" d="M247.39,194c.9,7.37-1.49,21.16,3.8,27.12,3.95,4.44,8.6,2.26,13.06,5.1a30.07,30.07,0,0,0-4.55,1.64c4.54,2.5,9.56,3.74,14.48,2.76-2.68,4.13-8.08,6-13.29,5.49.43,8.83,8.2,16.61,17.69,15.31a25.92,25.92,0,0,1-2.23,1.46c.22.81,1.1,2,.75,3,2.47-.46,5.39,1,7.39,1-1.38,8.3,5.6,12,13.33,12.61-1.05,3-2.83,4.45-6.46,4.82,4,3.18,7.65,11.21,12.93,12.16a22.5,22.5,0,0,1-5.39,4.93c-4.71-6.52-7.84-13.88-13.1-20.38-5-6.17-11-11-16.73-16.67-12.4-12.28-15.29-31.74-22.64-47.95"/><path class="cls-5" d="M655.63,203.5c-3.32,7.37-12.91,16.26-21.82,16.38,2.87,10.47-3.48,17.6-15,16,3.4,2.35,7.22,4.58,10.3,6.67-1.52,1.94-18.11.3-22.77.06,8.55,1.32,24.17,4.61,26.3,15.07-1.48.29-2.29.93-3.79,1.16,6.39.48,18.56,23.37,22.1,30.17-4.26-14.09-18.46-27.3-18.17-42.59.28-14.53,14.44-27.32,21.94-39.11"/><path class="cls-5" d="M546.89,32.32c-8.41-.19-15.18,8.37-22.83,8.52-2.82,0-6.91-3.06-10.73-3.08-5.92,0-11.54,2.17-17.5,1.55,9.26.24,18.3-2.7,27.62-2.44-1-1.69-.53-3-2.71-4.59,8.66-.09,16.45,3.7,24.59-.74"/><path class="cls-5" d="M313.72,106.93c-4.16,4.49-8.23,9.24-11.33,15.22-2.23,4.3-4.54,14.15-10.29,13.42-1.78-19.55-32,19.11-35.79,21,1.91-5.53,26.94-31.09,11-31.59,15.21-7.11,31.88-3.2,44.06-18.07"/><path class="cls-5" d="M632.38,47.86a7.37,7.37,0,0,1,5.55,3.91c-1.09.46-2.21,1.94-3.76,2.33,6.77,6.06,18.83,6.72,27.26,10,18,7,36.63,14.46,54.05,22.57-1.85-5.65-9.15-6.37-11.67-11.59,3.46-3.42,11.19-3.62,16.12-3.85-14.49-2.37-32-6.39-46.59-10.36-8.2-2.23-16.41-4.64-24.61-6.78-5.62-1.46-12.56-5.91-17.9-6.22"/><path class="cls-5" d="M354,95.91c-2.13-12.08,22.14-15,28.78-22.59-.67.76-2.9-8.34-2.85-9.27-7.52,5.7-16.23,10-23.94,15.59-7.43,5.41-13.45,11.84-22,15C335.84,95.32,354.21,97.06,354,95.91Z"/><path class="cls-5" d="M100.06,122.09c17.19-.11,42.75-3.44,55.44-14.59-3.65,6.83-13,13-19.25,17.38,6.49,2.92,12,1,18.61-1a48.94,48.94,0,0,0-8.48,6.5c4,3.4,12,7.64,12.37,12.73,0,.08-16.85-11.88-18.14-12.45-5-2.2-13.94-4.29-19.84-5.85-8.18-2.15-18.39,1.7-25.31-4.54"/><path class="cls-16" d="M40.31,29.25C21.85,38,1.05,40.67,0,65.89c-.12,3,11.6.35,12.64-.07C-9.67,48.65,32.08,35.41,40.31,30.17"/><path class="cls-3" d="M730.78,477.94c1.46,2.95-2,5.62,1.24,8.56,2.24,2,7.1,2.46,9.41,1.05-1.57,1-2.22,2.47-4.21,3.1a13.21,13.21,0,0,1-6,.24c-5.27-.86-3.41-4.05-3.43-8.24,0-1.75-.12-3.52-.19-5.3C727.44,473.83,729.71,475.78,730.78,477.94Z"/><path class="cls-3" d="M664.86,549.33c-4.8-4.19-17-1.08-22,1.6-7.11,3.79-9.43,8.91-11.14,15.91,3.84-5.08,14.15-9.19,19.95-6.52,3,1.4,6.7,5.1,10.85,1.74,4.49-3.65-2.14-10.12,2.82-12.73"/><path class="cls-3" d="M680.53,562.69c-.76-2.44-.69-4.77.9-6.71-4.94-2.43-22.14,1.78-20.92,9.22,2-4.24,8-4,11.35-1.64,3.51,2.48,5.51,6.25,10.06,1.94-.71-1-.71-2.35-1.44-3.3.19-.7.65-.57,1-1"/><path class="cls-17" d="M672.54,565.36c1.17,8.87,26.67-.72,31.38-3.07,3.63-1.81,8.46-4.5,11.22-7.86"/><path class="cls-2" d="M721.24,535.94c0-.25-.1-.49-.16-.73"/><path class="cls-2" d="M661.76,563.1a6.5,6.5,0,0,0-.54.52"/><path class="cls-2" d="M731.34,492.37c.22,8.63,3.08,14,5.6,22.41,1.36,4.56-.24,7.36-2.57,11.44-2.7,4.7-6.57,8.82-9.72,13.12-4.17,5.69-7.29,11.47-11.93,16.62a24.07,24.07,0,0,1-4.16,3.78c-7.85,5.34-26.21,15.39-34.49,9.19-3-2.26-.79-4.66-4.59-6.62a6.41,6.41,0,0,0-7.72.79c3.93-3.66,7.14-1.62,11.52-1.81,2.1-.09,3.91-.92,5.53-1.18s4.35.09,6.5-.37c5.63-1.22,7-3.77,11.39-6.52,3.88-2.41,8.37-2.17,12.38-5.49,8.32-6.88,16.67-18.1,19.68-28.6,1.55-5.36,0-10.91-1-16.07-1.12-5.67-.58-11.52-1.45-17.25-1.06-7-4.9-16.18-1.24-23.12-1.41,2.67,5.89,9.9,7,12.31,1.75,3.73-.32,7.78-.3,11.51,3.61,1.69,6.25,2.31,10.16.77a20,20,0,0,1-5.25,3.39,9.52,9.52,0,0,1-3.15.81,9.7,9.7,0,0,0-2.21-.11C731.33,491.71,731.33,492,731.34,492.37Z"/><path class="cls-2" d="M671.52,563.83a5.52,5.52,0,0,0,.44,1.53c-3.77,4-11.62,2.89-16.8,2.56-8-.53-6.82-4.42-4.16-10.15-2.55,1.43-6.19.88-9.15,2-3.16,1.14-5.64,4.16-8.6,5,1.87-4.52,9.2-9.2,14-10.61s8.76.76,13.29,1c4,.18,6.72-2.14,11-2.54,6-.58,7.64-.58,12.5-4.14s9.79-7.18,15.45-9.18c-8.63,2.93-11.67,12.5-19.27,16.43-7.86-6.94-18,2.69-20.89,9.45,1.9-1.94,5.38-4,8.38-3.37,2.39.51,5.55,2.57,2.29,4.6"/><path class="cls-3" d="M222.57,335.73c-.76,2.66-4.74,4.62-6.64,2.35-.94,6.5,11.37,6.81,11.73.69-1.88.06-4.55-1.31-5.09-3.16"/><path class="cls-3" d="M193.06,294.05c-4.44.07-9.21,2.68-12.05,6a10.3,10.3,0,0,0-2.1,3.62c-.36,1.17,0,2.51-.38,3.59.65-.37,4.44-1.15,5.32-1.84s1.54-1.74,2.82-2c1.53-.36,2.32.94,3.78.77,1.77-.2,3.27-1.32,5-1.56-1-2.64-3.51-5.41-2.17-8.36"/><path class="cls-3" d="M164.31,318.78c-5.31-.44-10.22,7.28-9.49,12a13.47,13.47,0,0,0,2.77,6c.6.76,2,2.61,3,2.61.33,0,.08.06.72-.7.38-.44,1.49-1.59,1.49-2.17,0-.33-.5-.46-.9-1.47a3.51,3.51,0,0,1,.9-4.11c2.16-1.91,8,1.73,6.78-3.93-3,0-6.39-5.48-5.26-8"/><path class="cls-3" d="M161,341.12c-10.8,4.24-6.2,23.39,6.09,18.47-1.15-.86-4.15-5.48-2.88-7.63,1.78-3,7.74,1.77,8.07-3.65-3.48,1.1-9.37-4-10.94-7"/><path class="cls-3" d="M202.6,335.61c-2.45-.18-2.5,2.87-4.55,3.53a27.23,27.23,0,0,1-7.75.83c1.51,2.62,7.63,3.08,10.77,2.59,6.31-1,1.62-3.26,1.71-6.83"/><path class="cls-2" d="M195.45,302.64c1.55-.21,3-1,4.53-1.32s3.19-.44,4.8-.78c7-1.48,14.8-2.8,21.58-2.83-8.32,0-16.6,2.13-24.84,1.83a40.08,40.08,0,0,1-4.1-.41c-1.08-.15-2.93-.94-3.9-.86-1.47.13-1.16.8-2.22,1.64s-2.51.66-3.9,1.08c-2.11.64-6,2.84-6.18,5.28a5.76,5.76,0,0,1,2-.55,4.67,4.67,0,0,1,5.33-2.26c1.53.42,1.55.69,3.15.13a20.52,20.52,0,0,1,3.24-.95"/><path class="cls-2" d="M171,328.77c3.66-2.86,7-6.86,11.5-8.63,4.08-1.6,8.4-2.74,12.56-4.16a45.93,45.93,0,0,1,6.62-1.8c1.74-.3,3.77-.2,5.41-.91-2.62-.29-5.51.72-8.1,1.1-2.9.44-5.72,1.44-8.58,2-3.19.66-7.16.72-10.09,1.92-1.28.53-1.24,1-2.19,2.18a19.94,19.94,0,0,1-5.13,4.08c-3,1.85-5.55,2.21-8.91,2.4-.12,2.36-3.82,3.08-4.27,5.64-.36,2,.74,3.25,2.05,4.67a5,5,0,0,0,.89-1.17c-2.67-.54-1.53-5.69.75-6.26,1.4-.34,2.6.65,4,.33a19.33,19.33,0,0,0,3.65-1.78"/><path class="cls-2" d="M166.77,359.64a6,6,0,0,1-5.48-6.33c.4-4.82,8.31-1.41,7.7-5.33,2.35.07,1.81-2.39,2.8-3.68s2.73-1.76,3.93-2.78c1.46-1.23,2-2.78,2.95-4.12,2.37-3.3,8.63-5.3,12.22-6.7s7-3.06,10.53-4.64,7-2.42,10.23-4.25c-2.16.92-3.3,4.45-5,6.1s-4.79,3.77-4.34,6.39c.05.34.81,1,1,1.41a9.86,9.86,0,0,1,.2,2.43c-2,.24-3,1.67-4.77,2.32a8.91,8.91,0,0,1-7.44-.51c2.46-.61,6.14-.24,8.15-1.65-6.57-.69,3.34-10,5.42-11.32a3.12,3.12,0,0,0-1.79.09c-5.72,1.47-10.13,5.55-14.31,9.44-3.88,3.61-6.72,8.2-10.69,11.67-1.47,1.28-3.46,2.88-5.44,3.28-1,.21-1.48-.32-2.4-.41a18.9,18.9,0,0,0-2.84.37c-2.74.16-4.12.46-3.15,3.47.53,1.64,1.36,3.75,2.87,4.75"/><path class="cls-2" d="M216.28,340.64a12.85,12.85,0,0,0,6.22,1.29,5.34,5.34,0,0,0,2.73-.92c.77-.69.69-1.77,1.46-2.39s2-.56,2.81-1.35c1.2-1.12,1.25-2.54,2-3.84,1-1.85,3.11-2.81,4.75-4s3.11-2.93,4.68-3.83c1.82-1,5.24-.69,7.35-.68s4.34-.18,6.54-.18c-4.12,1-8.76,2-12.72,3.84-2.85,1.32-3.74,3.26-5.4,5.81-2.12,3.25-5.17,5.12-8.36,7.15a5.74,5.74,0,0,1-1.59.92c-.58.13-1.38-.21-1.7-.15-.94.18-1.65,1-2.88,1.06-1.61.1-5.74-.76-6.22-2.55"/><path class="cls-2" d="M190.7,340.64a12.88,12.88,0,0,0,6.81,2c2,0,5.11.64,6.9.1s3.81-2.46,5.29-3.52c2-1.38,4-2.9,5.78-4.42,1.56-1.29,3.18-3.59,5.47-3.22-.25,2.36-3.27,4.92-1,7.33,1.38-.67,2.77-2.38,4.37-2.33-1.59-2.43.08-5.65,1.18-7.92,1.25-2.58,3.13-6.49-1.06-3.1-5.51,4.47-10.53,9.63-16.69,13.25-3.85,2.27-8.64,2.74-13,2.74a9.24,9.24,0,0,1-4.57-1.1"/><path class="cls-18" d="M121.68,29.18c2.18,1.26,1.74,2.57.1,3.34,1.56-.55,2-.92,3,.8s-.61,2-2.43,3.64c2.63.61,3.58.48,3.84,2.23.3,2-1.41,2.83-4.24,2.63,2.83,1.21,2.86,3,2,3.94-1.17,1.29-1.81,2.73-4.5.44,1.68,3.1-3.89,5.23-6.48,2.22,1,.66-.73,1.69-1.73,1.57a3,3,0,0,1-2.18-2c-1.38.72-2.4-.41-2.21-1.82-2.2.19-2.7-2.19-2.1-4-1.55.07-1.6-4.95.49-5.81-2.64-1.3-1.29-4,1-4.56-1.48-2.13,2.14-5.45,3-3.29-.23-2.85,5.28-2.8,5.13-.61,1.27-.83,3.14-2,4.52-.89,1,.82.65,1.91.25,2.9-.08.07-.09.07,0,0,.68-.69,1.8-1.32,2.5-.57"/><ellipse class="cls-9" cx="113.02" cy="38.34" rx="6.78" ry="7.85"/><path class="cls-10" d="M120.16,34.94c-.89,3.72-8.67.62-5.12-3.89,2.93-3.71,7.76,1.92,5.12,3.89"/><path class="cls-10" d="M108,40.2c.28,5.19,8.32,9.36,12.46,6-4,.07-11.41-.36-12.26-5.65"/><path class="cls-5" d="M169.7,78.51l-1.24,1.21c3.67-4,4.95-7.76.83-10a10.74,10.74,0,0,0,1.11-2.67C172.46,70.94,173.13,75,169.7,78.51Z"/><path class="cls-9" d="M80,115.36c8.51,3.73,18.09-4.45,24.17-10.41-6.65,11.21-15.94,14.92-27.77,12.81"/><path class="cls-9" d="M125.3,124.53c5.76-1.31,9.71-3.73,14.06-7.48,3.52-3,10.34-4.84,12.84-8.41-8.25,5.06-17.41,14.85-27.84,15.89"/><path class="cls-9" d="M140.78,131.09q8.76-4.12,17.57-8.13c.46-.77,3.36-3.41,4.79-5.32-3.25,2.7-21.19,16.64-23.3,13"/><path class="cls-9" d="M73.23,93.1c1.52-2.5,4.3-3.23,7.37-2.82-4-.43-5.09-4.64-6.8-7.46.46,2.76,3.09,8.48-.57,9.81"/><path class="cls-9" d="M132.33,49.48a5.11,5.11,0,0,0,4.19,1.31A4.5,4.5,0,0,0,131.87,49"/><path class="cls-9" d="M129.52,31.65c1.47-2.7-1-7-4.07-8.25a10.58,10.58,0,0,1,4.07,7.78"/><path class="cls-9" d="M101.84,48.54c.36,3.69,4.79,4.31,7.84,4.22-3.15.35-6.53-.63-8.3-3.28,4.9,1.39,14.56,7.44,19.56,6.09-4.65,0-11.86,1.26-15.81-.94"/><path class="cls-9" d="M200.82,47.13c.13,7-1.14,14.83-5.94,20.25,5.76-6.42,7.61-12.79,5.94-21.66"/><path class="cls-9" d="M205,63.55c1.62,3.32-1.38,14.25-2.37,18.15,2-4.6,3.49-12.19,3.78-17.21"/><path class="cls-9" d="M212.55,88.88c1.14,2.29,2.24,10.78.91,13.44,1.8-5.2-.22-9.06.49-14.38"/><path class="cls-9" d="M222.4,103.89c.34,2.5,1,5-.3,7.36,2.2-3.24,1.49-5.36-.17-8.3"/><path class="cls-9" d="M280.56,121.71c-6.6,2.78-16.51,5.59-24.25,5.63,7.48-.89,14.94-5.38,22.37-5.16"/><path class="cls-9" d="M234.59,211.77c-6.46-6.4-1-17.14-7-22.94,1.46,6,2.32,11.72,4.16,17.78"/><path class="cls-9" d="M245.38,231c-4-2.8-3.23-11.37-4.71-15.81A50.66,50.66,0,0,0,243,229.13"/><path class="cls-9" d="M61.5,67.3c3.49-.41,7.68.32,11.23.57-1.84,3.57-9.27-.45-13.1-.1"/><path class="cls-9" d="M349,186.91c2-7.93,1.07-20.1,6.38-26.21-2.9,4.82-5.12,15.38-5.44,21.05"/><path class="cls-9" d="M348.11,274.16c1.63-12.9-.39-28.5,8.95-38.78-1.63,4.69-3.38,9.64-5,14.44-1.76,5.32-1.43,11.29-3,16.37"/><path class="cls-9" d="M266.49,249.77c-5.7-7.44-9.49-19.25-16.24-25.28,3,6.43,9.62,21.94,16.24,25.28"/><path class="cls-9" d="M348.11,268.06c0-11.14-1.82-27.85,3.32-37.83-1.39,5.57-1.81,11.58-2.39,17.19"/><path class="cls-9" d="M297.45,288.23c3.85-.07,2.7-4.73,2.92-7.47,1.9,3,0,5.28-1,7.88,3.95-1.08,9.52,2.07,13-.35-2.87,5.68-10.51.12-14.48-.06"/><path class="cls-5" d="M172.21,25.62c4.23,1.62,17.63,6.56,15.57,13.41-1,3.22-6.84,4.33-9.8,4.14-3.43-.23-7.84-1.69-10.4-4-2.88-2.64-2.92-6.3-3.52-9.87,1.4-.6,9.3-.54,7.67-3.41"/><path class="cls-9" d="M521.5,254.76c5.89,13.87,28,18.17,40.56,12.28-8.76,3.6-35-1.27-40.56-9.68"/><path class="cls-9" d="M504.13,234.79c0-7.7-1.58-15.6-.86-23.17-1.11,6.39-2.11,15.1,0,21.44"/><path class="cls-9" d="M550.15,283.41c9.54.56,33.67-3.88,34.07-16.45,4.3,10.91-25.27,17.28-31.47,19.05"/><path class="cls-9" d="M632.62,247.81c-5.33-4-8.15-11.52-12.89-15.55.51,6.13,5.23,12,10.28,15.55"/><path class="cls-9" d="M564,227c2.54,4.61,8,15.11,3.61,19.05-1.53-4.64-.32-9.9-1.88-14.71"/><path class="cls-9" d="M515.42,232.19c3.35-4.89,10.3-7,12.24-12.77-2.82,6.94-6.42,6.54-12.24,10.16"/><path class="cls-9" d="M543.2,219.17c.68,5,8.33,7.4,12,10.28-2.86-4.48-8.08-6-11.15-10.28"/><path class="cls-9" d="M564.9,295.56c3.31,1.83,9,.58,12-1.58a15.11,15.11,0,0,1-12,.71"/><path class="cls-9" d="M593.55,266.91c1,5.58-2.85,9.12-5.94,12.89,6.3-1.74,8.31-5.93,6.81-12"/><path class="cls-9" d="M542.33,260c7.15,1,16.58-6.09,15.63-13.63,2.32,10.06-8,12.23-15.63,11.89"/><path class="cls-9" d="M683.84,414.49c3.64,0,6.47-2.06,9.39-3.36.31,2.65.93,5.18,1,7.83-.5-2.83-4.32-6.76-8.68-4.47"/><path class="cls-9" d="M670.81,181c5.21-7,5-16.76,2.54-24.89,3.39,5.53,4.06,14.23.07,19.68"/><path class="cls-9" d="M656.92,197.46c4.75-3.51,4.84-13.87,1.65-18.74,3.75,3.47,3.39,9.13,1.83,13.53"/><path class="cls-9" d="M686.44,162.74c2.23-4.76,1.75-11.1-.93-16.19,3.85,3.89,2.87,9.48,1.8,14.45"/><path class="cls-9" d="M529.54,227.78c-12,1.08-10.27,22.19.86,24.54-6.4-4.87-13.56-18.34-2.84-23.55"/><path class="cls-9" d="M534.48,247.55c7.61,1.51,16.8-5.46,9.79-12.45,8.78,9.9-2,13.61-10.78,10.47"/><path class="cls-9" d="M504.82,191.2c-11.46-12.85-15.2-39.71-9.86-56-.2,10.48-3.39,19-2,29.85,1.23,9.56,4.69,15.68,8.89,24.22"/><path class="cls-9" d="M259.66,231.73c-.79-4.4-.46-8.66,3-11.52-.77,5.2-2.23,9.88-2,15.48"/><path class="cls-16" d="M1121.61,198.86c-6.54.35-14.89.34-13.18-2-1.77,2.42-4.51,4.65-6.45,7.06-1.4-2.74-.66-5.91-1.71-8.53-1.21-3-4-3.43-4.33-7-3.48,2-4.29,5.68-7.86,6.91a40,40,0,0,0-6.56-9c-5.55,4.49-8.58,10.86-14.08,15.26-.47-4.76-.23-9.33-.27-14-.83.84-2.67,1.37-3.48,2-1.76-2.44-1.59-5.55-1.51-8.46-6.23.35-8-2.16-12.48,2.79-4.83,5.4-7.49,11.87-13.37,17,3.88-8.25,10.37-15.45,5.89-24.15-4.8,4-7.45-1.15-11.55,1.49-3.11,2-4.89,12.27-7.61,15.68,1.91-6,4.68-15.32,1.68-21.49-6,5.26-10.27-3.32-15.64,5-3,4.61-2.81,14.47-10,14.28.83-6.82,5.46-15.55,0-21.41-.94,6.11-8.86,7-10.7,12.13-2.29-4.94-2.33-12.79-3.76-18.38-4.24.16-6.28,3.19-9.41,5.58-2.34-2.54-2.58-6.52-4.49-9.28-3.81,2.86-4.7,10.4-5.57,15.11,1-5.57-3.22-15.67-4.42-22.39-4.78,2.91-11.78-1.44-15.3-.12-5.29,2-7.7,13.55-10.26,18-.79-7,.84-14.19.45-21.23-7.67,2.47-14.65-3.45-19.29-8.28-4.38,3.68-6.4,11.56-9.2,16.46-2-6.92.6-13.64-.25-20.56a33.14,33.14,0,0,1-13.53-5.22c-11.28,8.85-23.33,18.42-27.25,33.05,5.41-11,8.38-24.15,6.25-35.76-5.05,4.73-8.84,11.74-12.53,17.68a32.37,32.37,0,0,0,5.4-22c-8.77-1.84-20.79-2.89-28-8.49-.14,7.48-8.06,11.23-9.32,17.54.85-6.47,1.66-12.6,1.34-19.11a5.64,5.64,0,0,0-5.53,0c.37,8.4,1.9,17.28,2.1,26.29-4.55-12.48-9.06-22.45-18.47-31.81,2.31,11.95.91,32.22-5.35,42.63,2.28-18.72-1.86-32.19-8-49.23-2.3,5.93-7.23,11.37-8.45,17.56-2.19-6.24-5.6-10.17-9.91-14.71-3.93,12.35-5,29.72-4.42,42.73-5.61-12.31-6.5-27.3-9.09-40.4-1-5.09-2.17-10.8-6.07-14.49-1.93,7.1-5.08,15.77-10.19,21.24-3.74-5.11-3.09-13.79-8.31-18.38-2.48,8.66-4.36,17.54-10.91,24.16-5.1-7.52-13-17.22-20.79-21.72-2.71,6.27-5.08,18.55-2.18,25.17-3.92-8.95-10.87-13.73-18.73-18.91-3.46-2.28-20.47-13.57-20.74-16.62.8,9,7.39,18.67,4.39,27.75-3.59-16.82-27-37-43.8-38.76,4.48,7.63-.75,25-2.38,33.58,1.85-14.88-9.43-33.16-15-46.25-5.92,2.47-10.85,13.83-15.14,18.88-7.48,8.77-18.13,20.45-22,31.52,1.63-9.07-.31-18.94-.3-28.15,0-4.32.52-10.07-.51-13.88-5,10.08-10.17,20.43-14.56,30.73a6.48,6.48,0,0,1-5.14-5.58c-9.69,9.62-16.15,24.35-15.7,38.46-1.16-16.08-4.33-29.36-2.68-45.68.91-9,.33-18,.56-27C520.2,80.52,519,97,514.8,116.08c-4.42-6-5.73-20-6.63-27.53-7.51,5.23-10.11,10.38-12.54,19-3.25-8.61-3.42-16.45-4.06-25.61-6,1.06-11.79,5.45-13.41,11.35-1.67-8.56-2.11-17.11-3.23-25.66-6.85,5-9.45,16.87-13.83,24.25-2.7-5.85-2.26-15.68-9.36-18.51-8.63,13.89-8.34,35.74-11.68,51.4-.26-11.37,5.67-26.45-3.45-35.47-1,4.92-3.19,10.29-3,15.35-.66-7.23-.47-14.21-4.47-20.36C418,96.57,413.51,111.11,405,124.78c-.56-8.07-2.26-17.53-1.57-25.47-.74,3.43-5.18,8.67-8,10.61-5.16,3.55-10.83.44-14.27,3-5.12,3.82-4.17,16.54-5.89,22-4.32-6.7-8.07-14.24-11.94-21.19-1.93,16.45-5.91,34.77-5.88,51.28,0-12.69,2.11-25.91.2-38.46-1.11-7.36-5.31-13.28-7.36-20-2.9,5.33-8.57,4.3-13.58,3.43-.19,3.57.37,7.22-1,10.52-.52,1.29-3.66,1.34-4.21,3-.69,2,.66,4.54.7,6.48.29,12.91.14,27.1-2.81,38.28,1.55-14.57-3.91-29.91-8.76-43.19-6.72,2.42-9.67,17.37-9.95,23.8-.59,13.25,3.49,26.75,4.39,39.8-8.49-6.86-8.93-28.28-10.14-38.5-.36-3,1-22.28-3.18-23.07-5.72-1.08-4.62,11.3-4.83,14.35-3.75-3.11-1.86-10.19-2.12-14.92-14.18.08-17.61,24.91-15.83,35-5.4-1.92-2.84-23.55-4.33-29.87-4.29,6.71-9.11,16.09-9.14,24-4.36-7.37,0-34.72-11.14-35.69-8.14-.72-18,16.29-19.11,24.48,1.39-3,1.83-13.72.08-18.42-2.26-6.07-2.73-3.78-9.15-3.21,6.89-3.71,13.05-9.15,20.9-8.54,8.46.66,16.19,5.41,24.55,6.66,22.66,3.42,43.46-17.94,63.68-25.89C348.87,89.74,358.42,78.77,369.6,70s22.85-11.93,35.45-18.2c15.36-7.64,31.25-10.6,47.89-14.39,16.81-3.82,33.65-5.06,50.73-6.88,11.81-1.25,16.5,2.09,27.64,3.2,9.9,1,20.24-4.48,30.63-4.28,12.54.24,25.25,3.28,37.26,6.71C621.14,42.41,642,52,663.72,58.78c39.21,12.31,80.87,14.63,119.94,27.74,52.81,17.72,104.23,39.31,157.14,56.76,27.66,9.12,55.77,16.75,83.88,24.27,19.07,5.1,38.43,9.18,57.18,15.37,7.85,2.59,15.43,6.29,23.37,8.5,7.76,2.16,17,1.7,23.62,6.87C1128.58,198.34,1125.4,198.66,1121.61,198.86Z"/><path class="cls-16" d="M1121.61,198.86c-6.54.35-14.89.34-13.18-2-1.77,2.42-4.51,4.65-6.45,7.06-1.4-2.74-.66-5.91-1.71-8.53-1.21-3-4-3.43-4.33-7-3.48,2-4.29,5.68-7.86,6.91a40,40,0,0,0-6.56-9c-5.55,4.49-8.58,10.86-14.08,15.26-.47-4.76-.23-9.33-.27-14-.83.84-2.67,1.37-3.48,2-1.76-2.44-1.59-5.55-1.51-8.46-6.23.35-8-2.16-12.48,2.79-4.83,5.4-7.49,11.87-13.37,17,3.88-8.25,10.37-15.45,5.89-24.15-4.8,4-7.45-1.15-11.55,1.49-3.11,2-4.89,12.27-7.61,15.68,1.91-6,4.68-15.32,1.68-21.49-6,5.26-10.27-3.32-15.64,5-3,4.61-2.81,14.47-10,14.28.83-6.82,5.46-15.55,0-21.41-.94,6.11-8.86,7-10.7,12.13-2.29-4.94-2.33-12.79-3.76-18.38-4.24.16-6.28,3.19-9.41,5.58-2.34-2.54-2.58-6.52-4.49-9.28-3.81,2.86-4.7,10.4-5.57,15.11,1-5.57-3.22-15.67-4.42-22.39-4.78,2.91-11.78-1.44-15.3-.12-5.29,2-7.7,13.55-10.26,18-.79-7,.84-14.19.45-21.23-7.67,2.47-14.65-3.45-19.29-8.28-4.38,3.68-6.4,11.56-9.2,16.46-2-6.92.6-13.64-.25-20.56a33.14,33.14,0,0,1-13.53-5.22c-11.28,8.85-23.33,18.42-27.25,33.05,5.41-11,8.38-24.15,6.25-35.76-5.05,4.73-8.84,11.74-12.53,17.68a32.37,32.37,0,0,0,5.4-22c-8.77-1.84-20.79-2.89-28-8.49-.14,7.48-8.06,11.23-9.32,17.54.85-6.47,1.66-12.6,1.34-19.11a5.64,5.64,0,0,0-5.53,0c.37,8.4,1.9,17.28,2.1,26.29-4.55-12.48-9.06-22.45-18.47-31.81,2.31,11.95.91,32.22-5.35,42.63,2.28-18.72-1.86-32.19-8-49.23-2.3,5.93-7.23,11.37-8.45,17.56-2.19-6.24-5.6-10.17-9.91-14.71-3.93,12.35-5,29.72-4.42,42.73-5.61-12.31-6.5-27.3-9.09-40.4-1-5.09-2.17-10.8-6.07-14.49-1.93,7.1-5.08,15.77-10.19,21.24-3.74-5.11-3.09-13.79-8.31-18.38-2.48,8.66-4.36,17.54-10.91,24.16-11.58-17.08-23-21.92-40.28-31.21-7.63-4.11-16.08-3.23-23.76-6.3C656.42,80.6,651.84,75.5,646,71.66A156.14,156.14,0,0,0,590.44,49.2c-46.08-8.81-82.65,15.51-94.47,57.32-3.26-8.61-3.76-15.45-4.4-24.61-6,1.06-11.79,5.45-13.41,11.35-1.67-8.56-2.11-17.11-3.23-25.66-6.85,5-9.45,16.87-13.83,24.25-2.7-5.85-2.26-15.68-9.36-18.51-8.63,13.89-8.34,35.74-11.68,51.4-.26-11.37,5.67-26.45-3.45-35.47-1,4.92-3.19,10.29-3,15.35-.66-7.23-.47-14.21-4.47-20.36C418,96.57,413.51,111.11,405,124.78c5.36-8.61-3.27-19.32-2.24-27-.28,2.09-2.1,4.79-2.44,7.26-5-1.28-6.92-8.23-9.67-12.13a27,27,0,0,1-4.75,16.63c-1.06-1.09-4.27-2.05-5.39-3.09-4,5.44-5.24,12.08-5,18.87-3.07-5.8-4.09-14.41-9.89-19.15-.77,1.17-2.61,2.53-3.31,3.65-7.71-11.48-26.93-5.39-38.62-1.29-19.88,7-58.1,21.87-58.2,47.17-4.36-7.37,0-34.72-11.14-35.69-8.14-.72-18,16.29-19.11,24.48,1.39-3,1.83-13.72.08-18.42-2.26-6.07-2.73-3.78-9.15-3.21,6.89-3.71,13.05-9.15,20.9-8.54,8.46.66,16.19,5.41,24.55,6.66,22.66,3.42,43.46-17.94,63.68-25.89C348.87,89.74,358.42,78.77,369.6,70s22.85-11.93,35.45-18.2c15.36-7.64,31.25-10.6,47.89-14.39,16.81-3.82,33.65-5.06,50.73-6.88,11.81-1.25,16.5,2.09,27.64,3.2,9.9,1,20.24-4.48,30.63-4.28,12.54.24,25.25,3.28,37.26,6.71C621.14,42.41,642,52,663.72,58.78c39.21,12.31,80.87,14.63,119.94,27.74,52.81,17.72,104.23,39.31,157.14,56.76,27.66,9.12,55.77,16.75,83.88,24.27,19.07,5.1,38.43,9.18,57.18,15.37,7.85,2.59,15.43,6.29,23.37,8.5,7.76,2.16,17,1.7,23.62,6.87C1128.58,198.34,1125.4,198.66,1121.61,198.86Z"/></g></g></svg>