<svg xmlns="http://www.w3.org/2000/svg" xmlns:xlink="http://www.w3.org/1999/xlink" viewBox="0 0 1383.82 466.37"><defs><style>.cls-1{fill:none;}.cls-2,.cls-7{fill:#262262;}.cls-3{fill:#710f12;}.cls-4{fill:#c2b59b;}.cls-5{fill:#726658;}.cls-6{fill:#27aae1;}.cls-10,.cls-7{opacity:0.3;}.cls-8{fill:#2b3990;}.cls-11,.cls-15,.cls-17,.cls-8{opacity:0.2;}.cls-9{opacity:0.6;fill:url(#New_Pattern_Swatch_8);}.cls-10,.cls-15{fill:#662d91;}.cls-11{fill:#fff;}.cls-12{fill:#00aeef;}.cls-13{fill:#231f20;}.cls-14{fill:#8dc63f;}.cls-16{opacity:0.5;fill:url(#New_Pattern_Swatch_8-3);}.cls-17{fill:url(#New_Pattern_Swatch_8-7);}</style><pattern id="New_Pattern_Swatch_8" data-name="New Pattern Swatch 8" width="266.25" height="176.45" patternTransform="translate(191.28 241.92) scale(0.53)" patternUnits="userSpaceOnUse" viewBox="0 0 266.25 176.45"><rect class="cls-1" width="266.25" height="176.45"/><rect class="cls-2" x="218.36" y="120.98" width="14.79" height="15.5" rx="7.4"/><rect class="cls-2" x="245.83" y="105.48" width="10.57" height="34.51" rx="5.28"/><rect class="cls-2" x="197.23" y="163.94" width="9.16" height="7.75" rx="3.87"/><rect class="cls-2" x="228.92" y="163.94" width="14.79" height="45.78" rx="7.4"/><rect class="cls-2" x="265.55" y="99.14" width="12.68" height="25.36" rx="6.34"/><rect class="cls-2" x="221.17" y="88.22" width="7.04" height="14.79" rx="3.52"/><rect class="cls-2" x="197.93" y="134.36" width="14.79" height="12.68" rx="6.34"/><rect class="cls-2" x="238.78" y="141.4" width="12.68" height="19.02" rx="6.34"/><rect class="cls-2" x="260.62" y="151.97" width="8.45" height="38.74" rx="4.23"/><rect class="cls-2" x="177.5" y="154.79" width="15.5" height="33.81" rx="7.75"/><rect class="cls-2" x="215.54" y="142.11" width="9.16" height="47.19" rx="4.58"/><rect class="cls-2" x="262.03" y="127.32" width="9.86" height="19.72" rx="4.93"/><rect class="cls-2" x="247.24" y="165.35" width="10.57" height="50.72" rx="5.28"/><rect class="cls-2" x="207.09" y="99.85" width="9.16" height="33.11" rx="4.58"/><rect class="cls-2" x="230.33" y="91.39" width="12.68" height="31.7" rx="6.34"/><rect class="cls-2" x="207.79" y="152.67" width="3.52" height="30.29" rx="1.76"/><rect class="cls-2" x="228.22" y="142.81" width="5.64" height="16.2" rx="2.82"/><rect class="cls-2" x="249.35" y="89.28" width="4.93" height="11.97" rx="2.47"/><rect class="cls-2" x="186.66" y="136.47" width="7.04" height="14.09" rx="3.52"/><rect class="cls-2" x="197.93" y="122.39" width="3.52" height="7.04" rx="1.76"/><rect class="cls-2" x="196.52" y="149.15" width="6.34" height="10.57" rx="3.17"/><rect class="cls-2" x="258.78" y="89.41" width="4.45" height="38.24" rx="2.23"/><rect class="cls-2" x="5.64" y="149.86" width="7.04" height="28.88" rx="3.52"/><rect class="cls-2" x="27.47" y="121.68" width="29.58" height="33.11" rx="12"/><rect class="cls-2" x="38.04" y="175.21" width="30.29" height="23.24" rx="11.62"/><rect class="cls-2" x="21.13" y="158.31" width="6.34" height="28.18" rx="3.17"/><rect class="cls-2" x="-0.7" y="99.14" width="12.68" height="25.36" rx="6.34"/><rect class="cls-2" x="28.18" y="93.51" width="8.45" height="14.79" rx="4.23"/><rect class="cls-2" x="-5.64" y="151.97" width="8.45" height="38.74" rx="4.23"/><rect class="cls-2" x="66.21" y="131.54" width="11.97" height="37.33" rx="5.99"/><rect class="cls-2" x="-4.23" y="127.32" width="9.86" height="19.72" rx="4.93"/><rect class="cls-2" x="16.91" y="121.68" width="5.64" height="29.58" rx="2.82"/><rect class="cls-2" x="15.5" y="92.8" width="7.04" height="20.43" rx="3.52"/><rect class="cls-2" x="44.38" y="92.1" width="9.86" height="25.36" rx="4.93"/><rect class="cls-2" x="34.51" y="156.9" width="11.27" height="13.38" rx="5.64"/><rect class="cls-2" x="74.66" y="176.27" width="14.09" height="27.47" rx="7.04"/><rect class="cls-2" x="51.42" y="157.6" width="4.23" height="13.38" rx="2.11"/><rect class="cls-2" x="59.17" y="132.25" width="4.93" height="40.15" rx="2.47"/><rect class="cls-2" x="83.12" y="151.26" width="4.23" height="21.84" rx="2.11"/><rect class="cls-2" x="28.88" y="111.12" width="7.04" height="8.45" rx="3.52"/><rect class="cls-2" x="59.17" y="110.41" width="4.93" height="16.91" rx="2.47"/><rect class="cls-2" x="30.39" y="154" width="2.97" height="33.78" rx="1.48"/><rect class="cls-2" x="228.92" y="-12.5" width="14.79" height="45.78" rx="7.4"/><rect class="cls-2" x="260.62" y="-24.48" width="8.45" height="38.74" rx="4.23"/><rect class="cls-2" x="190.89" y="12.15" width="33.11" height="41.56" rx="12"/><rect class="cls-2" x="238.08" y="43.14" width="20.43" height="26.77" rx="10.21"/><rect class="cls-2" x="177.5" y="-21.66" width="15.5" height="33.81" rx="7.75"/><rect class="cls-2" x="215.54" y="-34.34" width="9.16" height="47.19" rx="4.58"/><rect class="cls-2" x="247.24" y="-11.09" width="10.57" height="50.72" rx="5.28"/><rect class="cls-2" x="226.81" y="35.39" width="9.86" height="52.83" rx="4.93"/><rect class="cls-2" x="259.92" y="66.39" width="11.27" height="21.84" rx="5.64"/><rect class="cls-2" x="211.31" y="61.46" width="9.16" height="21.84" rx="4.58"/><rect class="cls-2" x="197.93" y="0.88" width="3.52" height="8.45" rx="1.76"/><rect class="cls-2" x="207.79" y="-23.77" width="3.52" height="30.29" rx="1.76"/><rect class="cls-2" x="244.42" y="72.73" width="4.93" height="7.75" rx="2.47"/><rect class="cls-2" x="180.32" y="14.97" width="5.64" height="12.68" rx="2.82"/><rect class="cls-2" x="85.23" y="32.75" width="14.79" height="15.5" rx="7.4"/><rect class="cls-2" x="112.7" y="17.26" width="10.57" height="34.51" rx="5.28"/><rect class="cls-2" x="64.1" y="75.72" width="9.16" height="7.75" rx="3.87"/><rect class="cls-2" x="95.8" y="75.72" width="14.79" height="45.78" rx="7.4"/><rect class="cls-2" x="138.76" y="61.63" width="7.04" height="28.88" rx="3.52"/><rect class="cls-2" x="160.6" y="33.46" width="29.58" height="33.11" rx="12"/><rect class="cls-2" x="171.16" y="86.99" width="30.29" height="23.24" rx="11.62"/><rect class="cls-2" x="133.83" y="108.12" width="16.2" height="36.63" rx="8.1"/><rect class="cls-2" x="162.71" y="113.05" width="11.27" height="35.22" rx="5.64"/><rect class="cls-2" x="154.26" y="70.09" width="6.34" height="28.18" rx="3.17"/><rect class="cls-2" x="132.42" y="10.92" width="12.68" height="25.36" rx="6.34"/><rect class="cls-2" x="161.3" y="5.28" width="8.45" height="14.79" rx="4.23"/><rect class="cls-2" x="88.05" width="7.04" height="14.79" rx="3.52"/><rect class="cls-2" x="64.8" y="46.14" width="14.79" height="12.68" rx="6.34"/><rect class="cls-2" x="105.66" y="53.18" width="12.68" height="19.02" rx="6.34"/><rect class="cls-2" x="127.49" y="63.75" width="8.45" height="38.74" rx="4.23"/><rect class="cls-2" x="57.76" y="100.37" width="33.11" height="41.56" rx="12"/><rect class="cls-2" x="104.95" y="131.37" width="20.43" height="26.77" rx="10.21"/><rect class="cls-2" x="142.28" y="151.79" width="17.61" height="18.31" rx="8.8"/><rect class="cls-2" x="181.73" y="119.39" width="11.97" height="25.36" rx="5.99"/><rect class="cls-2" x="199.34" y="43.32" width="11.97" height="37.33" rx="5.99"/><rect class="cls-2" x="44.38" y="66.56" width="15.5" height="33.81" rx="7.75"/><rect class="cls-2" x="82.41" y="53.88" width="9.16" height="47.19" rx="4.58"/><rect class="cls-2" x="128.9" y="39.09" width="9.86" height="19.72" rx="4.93"/><rect class="cls-2" x="150.03" y="33.46" width="5.64" height="29.58" rx="2.82"/><rect class="cls-2" x="148.62" y="4.58" width="7.04" height="20.43" rx="3.52"/><rect class="cls-2" x="177.5" y="3.87" width="9.86" height="25.36" rx="4.93"/><rect class="cls-2" x="167.64" y="68.68" width="11.27" height="13.38" rx="5.64"/><rect class="cls-2" x="207.79" y="88.05" width="14.09" height="27.47" rx="7.04"/><rect class="cls-2" x="174.69" y="144.05" width="9.86" height="28.88" rx="4.93"/><rect class="cls-2" x="114.11" y="77.13" width="10.57" height="50.72" rx="5.28"/><rect class="cls-2" x="93.68" y="123.62" width="9.86" height="52.83" rx="4.93"/><rect class="cls-2" x="126.79" y="154.61" width="11.27" height="21.84" rx="5.64"/><rect class="cls-2" x="78.19" y="149.68" width="9.16" height="21.84" rx="4.58"/><rect class="cls-2" x="73.96" y="11.62" width="9.16" height="33.11" rx="4.58"/><rect class="cls-2" x="97.2" y="3.17" width="12.68" height="31.7" rx="6.34"/><rect class="cls-2" x="142.99" y="94.74" width="5.64" height="9.16" rx="2.82"/><rect class="cls-2" x="198.63" y="113.76" width="8.45" height="22.54" rx="4.23"/><rect class="cls-2" x="184.55" y="69.38" width="4.23" height="13.38" rx="2.11"/><rect class="cls-2" x="192.29" y="44.02" width="4.93" height="40.15" rx="2.47"/><rect class="cls-2" x="216.24" y="63.04" width="4.23" height="21.84" rx="2.11"/><rect class="cls-2" x="64.8" y="89.1" width="3.52" height="8.45" rx="1.76"/><rect class="cls-2" x="74.66" y="64.45" width="3.52" height="30.29" rx="1.76"/><rect class="cls-2" x="95.09" y="54.59" width="5.64" height="16.2" rx="2.82"/><rect class="cls-2" x="116.22" y="1.06" width="4.93" height="11.97" rx="2.47"/><rect class="cls-2" x="111.29" y="160.95" width="4.93" height="7.75" rx="2.47"/><rect class="cls-2" x="157.08" y="102.49" width="9.86" height="7.75" rx="3.87"/><rect class="cls-2" x="164.12" y="151.09" width="7.04" height="6.34" rx="3.17"/><rect class="cls-2" x="155.67" y="132.78" width="4.23" height="16.2" rx="2.11"/><rect class="cls-2" x="162.71" y="162.36" width="9.86" height="12.68" rx="4.93"/><rect class="cls-2" x="189.48" y="147.57" width="3.52" height="8.45" rx="1.76"/><rect class="cls-2" x="53.53" y="48.25" width="7.04" height="14.09" rx="3.52"/><rect class="cls-2" x="64.8" y="34.16" width="3.52" height="7.04" rx="1.76"/><rect class="cls-2" x="162.01" y="22.89" width="7.04" height="8.45" rx="3.52"/><rect class="cls-2" x="192.29" y="22.19" width="4.93" height="16.91" rx="2.47"/><rect class="cls-2" x="47.19" y="103.19" width="5.64" height="12.68" rx="2.82"/><rect class="cls-2" x="63.39" y="60.93" width="6.34" height="10.57" rx="3.17"/><rect class="cls-2" x="125.65" y="1.18" width="4.45" height="38.24" rx="2.23"/><rect class="cls-2" x="151.64" y="99.56" width="3.71" height="30.81" rx="1.86"/><rect class="cls-2" x="163.52" y="65.78" width="2.97" height="33.78" rx="1.48"/><rect class="cls-2" x="5.64" y="-26.59" width="7.04" height="28.88" rx="3.52"/><rect class="cls-2" x="38.04" y="-1.23" width="30.29" height="23.24" rx="11.62"/><rect class="cls-2" x="0.7" y="19.9" width="16.2" height="36.63" rx="8.1"/><rect class="cls-2" x="29.58" y="24.83" width="11.27" height="35.22" rx="5.64"/><rect class="cls-2" x="21.13" y="-18.14" width="6.34" height="28.18" rx="3.17"/><rect class="cls-2" x="-5.64" y="-24.48" width="8.45" height="38.74" rx="4.23"/><rect class="cls-2" x="9.16" y="63.57" width="17.61" height="18.31" rx="8.8"/><rect class="cls-2" x="48.6" y="31.17" width="11.97" height="25.36" rx="5.99"/><rect class="cls-2" x="74.66" y="-0.18" width="14.09" height="27.47" rx="7.04"/><rect class="cls-2" x="41.56" y="55.82" width="9.86" height="28.88" rx="4.93"/><rect class="cls-2" x="-6.34" y="66.39" width="11.27" height="21.84" rx="5.64"/><rect class="cls-2" x="9.86" y="6.52" width="5.64" height="9.16" rx="2.82"/><rect class="cls-2" x="65.51" y="25.53" width="8.45" height="22.54" rx="4.23"/><rect class="cls-2" x="23.95" y="14.26" width="9.86" height="7.75" rx="3.87"/><rect class="cls-2" x="30.99" y="62.87" width="7.04" height="6.34" rx="3.17"/><rect class="cls-2" x="22.54" y="44.55" width="4.23" height="16.2" rx="2.11"/><rect class="cls-2" x="29.58" y="74.14" width="9.86" height="12.68" rx="4.93"/><rect class="cls-2" x="56.35" y="59.34" width="3.52" height="8.45" rx="1.76"/><rect class="cls-2" x="18.51" y="11.34" width="3.71" height="30.81" rx="1.86"/><rect class="cls-2" x="30.39" y="-22.44" width="2.97" height="33.78" rx="1.48"/></pattern><pattern id="New_Pattern_Swatch_8-3" data-name="New Pattern Swatch 8" width="266.25" height="176.45" patternTransform="translate(145.09 208.38) scale(0.38)" patternUnits="userSpaceOnUse" viewBox="0 0 266.25 176.45"><rect class="cls-1" width="266.25" height="176.45"/><rect class="cls-2" x="218.36" y="120.98" width="14.79" height="15.5" rx="7.4"/><rect class="cls-2" x="245.83" y="105.48" width="10.57" height="34.51" rx="5.28"/><rect class="cls-2" x="197.23" y="163.94" width="9.16" height="7.75" rx="3.87"/><rect class="cls-2" x="228.92" y="163.94" width="14.79" height="45.78" rx="7.4"/><rect class="cls-2" x="265.55" y="99.14" width="12.68" height="25.36" rx="6.34"/><rect class="cls-2" x="221.17" y="88.22" width="7.04" height="14.79" rx="3.52"/><rect class="cls-2" x="197.93" y="134.36" width="14.79" height="12.68" rx="6.34"/><rect class="cls-2" x="238.78" y="141.4" width="12.68" height="19.02" rx="6.34"/><rect class="cls-2" x="260.62" y="151.97" width="8.45" height="38.74" rx="4.23"/><rect class="cls-2" x="177.5" y="154.79" width="15.5" height="33.81" rx="7.75"/><rect class="cls-2" x="215.54" y="142.11" width="9.16" height="47.19" rx="4.58"/><rect class="cls-2" x="262.03" y="127.32" width="9.86" height="19.72" rx="4.93"/><rect class="cls-2" x="247.24" y="165.35" width="10.57" height="50.72" rx="5.28"/><rect class="cls-2" x="207.09" y="99.85" width="9.16" height="33.11" rx="4.58"/><rect class="cls-2" x="230.33" y="91.39" width="12.68" height="31.7" rx="6.34"/><rect class="cls-2" x="207.79" y="152.67" width="3.52" height="30.29" rx="1.76"/><rect class="cls-2" x="228.22" y="142.81" width="5.64" height="16.2" rx="2.82"/><rect class="cls-2" x="249.35" y="89.28" width="4.93" height="11.97" rx="2.47"/><rect class="cls-2" x="186.66" y="136.47" width="7.04" height="14.09" rx="3.52"/><rect class="cls-2" x="197.93" y="122.39" width="3.52" height="7.04" rx="1.76"/><rect class="cls-2" x="196.52" y="149.15" width="6.34" height="10.57" rx="3.17"/><rect class="cls-2" x="258.78" y="89.41" width="4.45" height="38.24" rx="2.23"/><rect class="cls-2" x="5.64" y="149.86" width="7.04" height="28.88" rx="3.52"/><rect class="cls-2" x="27.47" y="121.68" width="29.58" height="33.11" rx="12"/><rect class="cls-2" x="38.04" y="175.21" width="30.29" height="23.24" rx="11.62"/><rect class="cls-2" x="21.13" y="158.31" width="6.34" height="28.18" rx="3.17"/><rect class="cls-2" x="-0.7" y="99.14" width="12.68" height="25.36" rx="6.34"/><rect class="cls-2" x="28.18" y="93.51" width="8.45" height="14.79" rx="4.23"/><rect class="cls-2" x="-5.64" y="151.97" width="8.45" height="38.74" rx="4.23"/><rect class="cls-2" x="66.21" y="131.54" width="11.97" height="37.33" rx="5.99"/><rect class="cls-2" x="-4.23" y="127.32" width="9.86" height="19.72" rx="4.93"/><rect class="cls-2" x="16.91" y="121.68" width="5.64" height="29.58" rx="2.82"/><rect class="cls-2" x="15.5" y="92.8" width="7.04" height="20.43" rx="3.52"/><rect class="cls-2" x="44.38" y="92.1" width="9.86" height="25.36" rx="4.93"/><rect class="cls-2" x="34.51" y="156.9" width="11.27" height="13.38" rx="5.64"/><rect class="cls-2" x="74.66" y="176.27" width="14.09" height="27.47" rx="7.04"/><rect class="cls-2" x="51.42" y="157.6" width="4.23" height="13.38" rx="2.11"/><rect class="cls-2" x="59.17" y="132.25" width="4.93" height="40.15" rx="2.47"/><rect class="cls-2" x="83.12" y="151.26" width="4.23" height="21.84" rx="2.11"/><rect class="cls-2" x="28.88" y="111.12" width="7.04" height="8.45" rx="3.52"/><rect class="cls-2" x="59.17" y="110.41" width="4.93" height="16.91" rx="2.47"/><rect class="cls-2" x="30.39" y="154" width="2.97" height="33.78" rx="1.48"/><rect class="cls-2" x="228.92" y="-12.5" width="14.79" height="45.78" rx="7.4"/><rect class="cls-2" x="260.62" y="-24.48" width="8.45" height="38.74" rx="4.23"/><rect class="cls-2" x="190.89" y="12.15" width="33.11" height="41.56" rx="12"/><rect class="cls-2" x="238.08" y="43.14" width="20.43" height="26.77" rx="10.21"/><rect class="cls-2" x="177.5" y="-21.66" width="15.5" height="33.81" rx="7.75"/><rect class="cls-2" x="215.54" y="-34.34" width="9.16" height="47.19" rx="4.58"/><rect class="cls-2" x="247.24" y="-11.09" width="10.57" height="50.72" rx="5.28"/><rect class="cls-2" x="226.81" y="35.39" width="9.86" height="52.83" rx="4.93"/><rect class="cls-2" x="259.92" y="66.39" width="11.27" height="21.84" rx="5.64"/><rect class="cls-2" x="211.31" y="61.46" width="9.16" height="21.84" rx="4.58"/><rect class="cls-2" x="197.93" y="0.88" width="3.52" height="8.45" rx="1.76"/><rect class="cls-2" x="207.79" y="-23.77" width="3.52" height="30.29" rx="1.76"/><rect class="cls-2" x="244.42" y="72.73" width="4.93" height="7.75" rx="2.47"/><rect class="cls-2" x="180.32" y="14.97" width="5.64" height="12.68" rx="2.82"/><rect class="cls-2" x="85.23" y="32.75" width="14.79" height="15.5" rx="7.4"/><rect class="cls-2" x="112.7" y="17.26" width="10.57" height="34.51" rx="5.28"/><rect class="cls-2" x="64.1" y="75.72" width="9.16" height="7.75" rx="3.87"/><rect class="cls-2" x="95.8" y="75.72" width="14.79" height="45.78" rx="7.4"/><rect class="cls-2" x="138.76" y="61.63" width="7.04" height="28.88" rx="3.52"/><rect class="cls-2" x="160.6" y="33.46" width="29.58" height="33.11" rx="12"/><rect class="cls-2" x="171.16" y="86.99" width="30.29" height="23.24" rx="11.62"/><rect class="cls-2" x="133.83" y="108.12" width="16.2" height="36.63" rx="8.1"/><rect class="cls-2" x="162.71" y="113.05" width="11.27" height="35.22" rx="5.64"/><rect class="cls-2" x="154.26" y="70.09" width="6.34" height="28.18" rx="3.17"/><rect class="cls-2" x="132.42" y="10.92" width="12.68" height="25.36" rx="6.34"/><rect class="cls-2" x="161.3" y="5.28" width="8.45" height="14.79" rx="4.23"/><rect class="cls-2" x="88.05" width="7.04" height="14.79" rx="3.52"/><rect class="cls-2" x="64.8" y="46.14" width="14.79" height="12.68" rx="6.34"/><rect class="cls-2" x="105.66" y="53.18" width="12.68" height="19.02" rx="6.34"/><rect class="cls-2" x="127.49" y="63.75" width="8.45" height="38.74" rx="4.23"/><rect class="cls-2" x="57.76" y="100.37" width="33.11" height="41.56" rx="12"/><rect class="cls-2" x="104.95" y="131.37" width="20.43" height="26.77" rx="10.21"/><rect class="cls-2" x="142.28" y="151.79" width="17.61" height="18.31" rx="8.8"/><rect class="cls-2" x="181.73" y="119.39" width="11.97" height="25.36" rx="5.99"/><rect class="cls-2" x="199.34" y="43.32" width="11.97" height="37.33" rx="5.99"/><rect class="cls-2" x="44.38" y="66.56" width="15.5" height="33.81" rx="7.75"/><rect class="cls-2" x="82.41" y="53.88" width="9.16" height="47.19" rx="4.58"/><rect class="cls-2" x="128.9" y="39.09" width="9.86" height="19.72" rx="4.93"/><rect class="cls-2" x="150.03" y="33.46" width="5.64" height="29.58" rx="2.82"/><rect class="cls-2" x="148.62" y="4.58" width="7.04" height="20.43" rx="3.52"/><rect class="cls-2" x="177.5" y="3.87" width="9.86" height="25.36" rx="4.93"/><rect class="cls-2" x="167.64" y="68.68" width="11.27" height="13.38" rx="5.64"/><rect class="cls-2" x="207.79" y="88.05" width="14.09" height="27.47" rx="7.04"/><rect class="cls-2" x="174.69" y="144.05" width="9.86" height="28.88" rx="4.93"/><rect class="cls-2" x="114.11" y="77.13" width="10.57" height="50.72" rx="5.28"/><rect class="cls-2" x="93.68" y="123.62" width="9.86" height="52.83" rx="4.93"/><rect class="cls-2" x="126.79" y="154.61" width="11.27" height="21.84" rx="5.64"/><rect class="cls-2" x="78.19" y="149.68" width="9.16" height="21.84" rx="4.58"/><rect class="cls-2" x="73.96" y="11.62" width="9.16" height="33.11" rx="4.58"/><rect class="cls-2" x="97.2" y="3.17" width="12.68" height="31.7" rx="6.34"/><rect class="cls-2" x="142.99" y="94.74" width="5.64" height="9.16" rx="2.82"/><rect class="cls-2" x="198.63" y="113.76" width="8.45" height="22.54" rx="4.23"/><rect class="cls-2" x="184.55" y="69.38" width="4.23" height="13.38" rx="2.11"/><rect class="cls-2" x="192.29" y="44.02" width="4.93" height="40.15" rx="2.47"/><rect class="cls-2" x="216.24" y="63.04" width="4.23" height="21.84" rx="2.11"/><rect class="cls-2" x="64.8" y="89.1" width="3.52" height="8.45" rx="1.76"/><rect class="cls-2" x="74.66" y="64.45" width="3.52" height="30.29" rx="1.76"/><rect class="cls-2" x="95.09" y="54.59" width="5.64" height="16.2" rx="2.82"/><rect class="cls-2" x="116.22" y="1.06" width="4.93" height="11.97" rx="2.47"/><rect class="cls-2" x="111.29" y="160.95" width="4.93" height="7.75" rx="2.47"/><rect class="cls-2" x="157.08" y="102.49" width="9.86" height="7.75" rx="3.87"/><rect class="cls-2" x="164.12" y="151.09" width="7.04" height="6.34" rx="3.17"/><rect class="cls-2" x="155.67" y="132.78" width="4.23" height="16.2" rx="2.11"/><rect class="cls-2" x="162.71" y="162.36" width="9.86" height="12.68" rx="4.93"/><rect class="cls-2" x="189.48" y="147.57" width="3.52" height="8.45" rx="1.76"/><rect class="cls-2" x="53.53" y="48.25" width="7.04" height="14.09" rx="3.52"/><rect class="cls-2" x="64.8" y="34.16" width="3.52" height="7.04" rx="1.76"/><rect class="cls-2" x="162.01" y="22.89" width="7.04" height="8.45" rx="3.52"/><rect class="cls-2" x="192.29" y="22.19" width="4.93" height="16.91" rx="2.47"/><rect class="cls-2" x="47.19" y="103.19" width="5.64" height="12.68" rx="2.82"/><rect class="cls-2" x="63.39" y="60.93" width="6.34" height="10.57" rx="3.17"/><rect class="cls-2" x="125.65" y="1.18" width="4.45" height="38.24" rx="2.23"/><rect class="cls-2" x="151.64" y="99.56" width="3.71" height="30.81" rx="1.86"/><rect class="cls-2" x="163.52" y="65.78" width="2.97" height="33.78" rx="1.48"/><rect class="cls-2" x="5.64" y="-26.59" width="7.04" height="28.88" rx="3.52"/><rect class="cls-2" x="38.04" y="-1.23" width="30.29" height="23.24" rx="11.62"/><rect class="cls-2" x="0.7" y="19.9" width="16.2" height="36.63" rx="8.1"/><rect class="cls-2" x="29.58" y="24.83" width="11.27" height="35.22" rx="5.64"/><rect class="cls-2" x="21.13" y="-18.14" width="6.34" height="28.18" rx="3.17"/><rect class="cls-2" x="-5.64" y="-24.48" width="8.45" height="38.74" rx="4.23"/><rect class="cls-2" x="9.16" y="63.57" width="17.61" height="18.31" rx="8.8"/><rect class="cls-2" x="48.6" y="31.17" width="11.97" height="25.36" rx="5.99"/><rect class="cls-2" x="74.66" y="-0.18" width="14.09" height="27.47" rx="7.04"/><rect class="cls-2" x="41.56" y="55.82" width="9.86" height="28.88" rx="4.93"/><rect class="cls-2" x="-6.34" y="66.39" width="11.27" height="21.84" rx="5.64"/><rect class="cls-2" x="9.86" y="6.52" width="5.64" height="9.16" rx="2.82"/><rect class="cls-2" x="65.51" y="25.53" width="8.45" height="22.54" rx="4.23"/><rect class="cls-2" x="23.95" y="14.26" width="9.86" height="7.75" rx="3.87"/><rect class="cls-2" x="30.99" y="62.87" width="7.04" height="6.34" rx="3.17"/><rect class="cls-2" x="22.54" y="44.55" width="4.23" height="16.2" rx="2.11"/><rect class="cls-2" x="29.58" y="74.14" width="9.86" height="12.68" rx="4.93"/><rect class="cls-2" x="56.35" y="59.34" width="3.52" height="8.45" rx="1.76"/><rect class="cls-2" x="18.51" y="11.34" width="3.71" height="30.81" rx="1.86"/><rect class="cls-2" x="30.39" y="-22.44" width="2.97" height="33.78" rx="1.48"/></pattern><pattern id="New_Pattern_Swatch_8-7" data-name="New Pattern Swatch 8" width="266.25" height="176.45" patternTransform="matrix(0.24, -0.47, 0.47, 0.24, 524.47, -102.32)" patternUnits="userSpaceOnUse" viewBox="0 0 266.25 176.45"><rect class="cls-1" width="266.25" height="176.45"/><rect class="cls-2" x="218.36" y="120.98" width="14.79" height="15.5" rx="7.4"/><rect class="cls-2" x="245.83" y="105.48" width="10.57" height="34.51" rx="5.28"/><rect class="cls-2" x="197.23" y="163.94" width="9.16" height="7.75" rx="3.87"/><rect class="cls-2" x="228.92" y="163.94" width="14.79" height="45.78" rx="7.4"/><rect class="cls-2" x="265.55" y="99.14" width="12.68" height="25.36" rx="6.34"/><rect class="cls-2" x="221.17" y="88.22" width="7.04" height="14.79" rx="3.52"/><rect class="cls-2" x="197.93" y="134.36" width="14.79" height="12.68" rx="6.34"/><rect class="cls-2" x="238.78" y="141.4" width="12.68" height="19.02" rx="6.34"/><rect class="cls-2" x="260.62" y="151.97" width="8.45" height="38.74" rx="4.23"/><rect class="cls-2" x="177.5" y="154.79" width="15.5" height="33.81" rx="7.75"/><rect class="cls-2" x="215.54" y="142.11" width="9.16" height="47.19" rx="4.58"/><rect class="cls-2" x="262.03" y="127.32" width="9.86" height="19.72" rx="4.93"/><rect class="cls-2" x="247.24" y="165.35" width="10.57" height="50.72" rx="5.28"/><rect class="cls-2" x="207.09" y="99.85" width="9.16" height="33.11" rx="4.58"/><rect class="cls-2" x="230.33" y="91.39" width="12.68" height="31.7" rx="6.34"/><rect class="cls-2" x="207.79" y="152.67" width="3.52" height="30.29" rx="1.76"/><rect class="cls-2" x="228.22" y="142.81" width="5.64" height="16.2" rx="2.82"/><rect class="cls-2" x="249.35" y="89.28" width="4.93" height="11.97" rx="2.47"/><rect class="cls-2" x="186.66" y="136.47" width="7.04" height="14.09" rx="3.52"/><rect class="cls-2" x="197.93" y="122.39" width="3.52" height="7.04" rx="1.76"/><rect class="cls-2" x="196.52" y="149.15" width="6.34" height="10.57" rx="3.17"/><rect class="cls-2" x="258.78" y="89.41" width="4.45" height="38.24" rx="2.23"/><rect class="cls-2" x="5.64" y="149.86" width="7.04" height="28.88" rx="3.52"/><rect class="cls-2" x="27.47" y="121.68" width="29.58" height="33.11" rx="12"/><rect class="cls-2" x="38.04" y="175.21" width="30.29" height="23.24" rx="11.62"/><rect class="cls-2" x="21.13" y="158.31" width="6.34" height="28.18" rx="3.17"/><rect class="cls-2" x="-0.7" y="99.14" width="12.68" height="25.36" rx="6.34"/><rect class="cls-2" x="28.18" y="93.51" width="8.45" height="14.79" rx="4.23"/><rect class="cls-2" x="-5.64" y="151.97" width="8.45" height="38.74" rx="4.23"/><rect class="cls-2" x="66.21" y="131.54" width="11.97" height="37.33" rx="5.99"/><rect class="cls-2" x="-4.23" y="127.32" width="9.86" height="19.72" rx="4.93"/><rect class="cls-2" x="16.91" y="121.68" width="5.64" height="29.58" rx="2.82"/><rect class="cls-2" x="15.5" y="92.8" width="7.04" height="20.43" rx="3.52"/><rect class="cls-2" x="44.38" y="92.1" width="9.86" height="25.36" rx="4.93"/><rect class="cls-2" x="34.51" y="156.9" width="11.27" height="13.38" rx="5.64"/><rect class="cls-2" x="74.66" y="176.27" width="14.09" height="27.47" rx="7.04"/><rect class="cls-2" x="51.42" y="157.6" width="4.23" height="13.38" rx="2.11"/><rect class="cls-2" x="59.17" y="132.25" width="4.93" height="40.15" rx="2.47"/><rect class="cls-2" x="83.12" y="151.26" width="4.23" height="21.84" rx="2.11"/><rect class="cls-2" x="28.88" y="111.12" width="7.04" height="8.45" rx="3.52"/><rect class="cls-2" x="59.17" y="110.41" width="4.93" height="16.91" rx="2.47"/><rect class="cls-2" x="30.39" y="154" width="2.97" height="33.78" rx="1.48"/><rect class="cls-2" x="228.92" y="-12.5" width="14.79" height="45.78" rx="7.4"/><rect class="cls-2" x="260.62" y="-24.48" width="8.45" height="38.74" rx="4.23"/><rect class="cls-2" x="190.89" y="12.15" width="33.11" height="41.56" rx="12"/><rect class="cls-2" x="238.08" y="43.14" width="20.43" height="26.77" rx="10.21"/><rect class="cls-2" x="177.5" y="-21.66" width="15.5" height="33.81" rx="7.75"/><rect class="cls-2" x="215.54" y="-34.34" width="9.16" height="47.19" rx="4.58"/><rect class="cls-2" x="247.24" y="-11.09" width="10.57" height="50.72" rx="5.28"/><rect class="cls-2" x="226.81" y="35.39" width="9.86" height="52.83" rx="4.93"/><rect class="cls-2" x="259.92" y="66.39" width="11.27" height="21.84" rx="5.64"/><rect class="cls-2" x="211.31" y="61.46" width="9.16" height="21.84" rx="4.58"/><rect class="cls-2" x="197.93" y="0.88" width="3.52" height="8.45" rx="1.76"/><rect class="cls-2" x="207.79" y="-23.77" width="3.52" height="30.29" rx="1.76"/><rect class="cls-2" x="244.42" y="72.73" width="4.93" height="7.75" rx="2.47"/><rect class="cls-2" x="180.32" y="14.97" width="5.64" height="12.68" rx="2.82"/><rect class="cls-2" x="85.23" y="32.75" width="14.79" height="15.5" rx="7.4"/><rect class="cls-2" x="112.7" y="17.26" width="10.57" height="34.51" rx="5.28"/><rect class="cls-2" x="64.1" y="75.72" width="9.16" height="7.75" rx="3.87"/><rect class="cls-2" x="95.8" y="75.72" width="14.79" height="45.78" rx="7.4"/><rect class="cls-2" x="138.76" y="61.63" width="7.04" height="28.88" rx="3.52"/><rect class="cls-2" x="160.6" y="33.46" width="29.58" height="33.11" rx="12"/><rect class="cls-2" x="171.16" y="86.99" width="30.29" height="23.24" rx="11.62"/><rect class="cls-2" x="133.83" y="108.12" width="16.2" height="36.63" rx="8.1"/><rect class="cls-2" x="162.71" y="113.05" width="11.27" height="35.22" rx="5.64"/><rect class="cls-2" x="154.26" y="70.09" width="6.34" height="28.18" rx="3.17"/><rect class="cls-2" x="132.42" y="10.92" width="12.68" height="25.36" rx="6.34"/><rect class="cls-2" x="161.3" y="5.28" width="8.45" height="14.79" rx="4.23"/><rect class="cls-2" x="88.05" width="7.04" height="14.79" rx="3.52"/><rect class="cls-2" x="64.8" y="46.14" width="14.79" height="12.68" rx="6.34"/><rect class="cls-2" x="105.66" y="53.18" width="12.68" height="19.02" rx="6.34"/><rect class="cls-2" x="127.49" y="63.75" width="8.45" height="38.74" rx="4.23"/><rect class="cls-2" x="57.76" y="100.37" width="33.11" height="41.56" rx="12"/><rect class="cls-2" x="104.95" y="131.37" width="20.43" height="26.77" rx="10.21"/><rect class="cls-2" x="142.28" y="151.79" width="17.61" height="18.31" rx="8.8"/><rect class="cls-2" x="181.73" y="119.39" width="11.97" height="25.36" rx="5.99"/><rect class="cls-2" x="199.34" y="43.32" width="11.97" height="37.33" rx="5.99"/><rect class="cls-2" x="44.38" y="66.56" width="15.5" height="33.81" rx="7.75"/><rect class="cls-2" x="82.41" y="53.88" width="9.16" height="47.19" rx="4.58"/><rect class="cls-2" x="128.9" y="39.09" width="9.86" height="19.72" rx="4.93"/><rect class="cls-2" x="150.03" y="33.46" width="5.64" height="29.58" rx="2.82"/><rect class="cls-2" x="148.62" y="4.58" width="7.04" height="20.43" rx="3.52"/><rect class="cls-2" x="177.5" y="3.87" width="9.86" height="25.36" rx="4.93"/><rect class="cls-2" x="167.64" y="68.68" width="11.27" height="13.38" rx="5.64"/><rect class="cls-2" x="207.79" y="88.05" width="14.09" height="27.47" rx="7.04"/><rect class="cls-2" x="174.69" y="144.05" width="9.86" height="28.88" rx="4.93"/><rect class="cls-2" x="114.11" y="77.13" width="10.57" height="50.72" rx="5.28"/><rect class="cls-2" x="93.68" y="123.62" width="9.86" height="52.83" rx="4.93"/><rect class="cls-2" x="126.79" y="154.61" width="11.27" height="21.84" rx="5.64"/><rect class="cls-2" x="78.19" y="149.68" width="9.16" height="21.84" rx="4.58"/><rect class="cls-2" x="73.96" y="11.62" width="9.16" height="33.11" rx="4.58"/><rect class="cls-2" x="97.2" y="3.17" width="12.68" height="31.7" rx="6.34"/><rect class="cls-2" x="142.99" y="94.74" width="5.64" height="9.16" rx="2.82"/><rect class="cls-2" x="198.63" y="113.76" width="8.45" height="22.54" rx="4.23"/><rect class="cls-2" x="184.55" y="69.38" width="4.23" height="13.38" rx="2.11"/><rect class="cls-2" x="192.29" y="44.02" width="4.93" height="40.15" rx="2.47"/><rect class="cls-2" x="216.24" y="63.04" width="4.23" height="21.84" rx="2.11"/><rect class="cls-2" x="64.8" y="89.1" width="3.52" height="8.45" rx="1.76"/><rect class="cls-2" x="74.66" y="64.45" width="3.52" height="30.29" rx="1.76"/><rect class="cls-2" x="95.09" y="54.59" width="5.64" height="16.2" rx="2.82"/><rect class="cls-2" x="116.22" y="1.06" width="4.93" height="11.97" rx="2.47"/><rect class="cls-2" x="111.29" y="160.95" width="4.93" height="7.75" rx="2.47"/><rect class="cls-2" x="157.08" y="102.49" width="9.86" height="7.75" rx="3.87"/><rect class="cls-2" x="164.12" y="151.09" width="7.04" height="6.34" rx="3.17"/><rect class="cls-2" x="155.67" y="132.78" width="4.23" height="16.2" rx="2.11"/><rect class="cls-2" x="162.71" y="162.36" width="9.86" height="12.68" rx="4.93"/><rect class="cls-2" x="189.48" y="147.57" width="3.52" height="8.45" rx="1.76"/><rect class="cls-2" x="53.53" y="48.25" width="7.04" height="14.09" rx="3.52"/><rect class="cls-2" x="64.8" y="34.16" width="3.52" height="7.04" rx="1.76"/><rect class="cls-2" x="162.01" y="22.89" width="7.04" height="8.45" rx="3.52"/><rect class="cls-2" x="192.29" y="22.19" width="4.93" height="16.91" rx="2.47"/><rect class="cls-2" x="47.19" y="103.19" width="5.64" height="12.68" rx="2.82"/><rect class="cls-2" x="63.39" y="60.93" width="6.34" height="10.57" rx="3.17"/><rect class="cls-2" x="125.65" y="1.18" width="4.45" height="38.24" rx="2.23"/><rect class="cls-2" x="151.64" y="99.56" width="3.71" height="30.81" rx="1.86"/><rect class="cls-2" x="163.52" y="65.78" width="2.97" height="33.78" rx="1.48"/><rect class="cls-2" x="5.64" y="-26.59" width="7.04" height="28.88" rx="3.52"/><rect class="cls-2" x="38.04" y="-1.23" width="30.29" height="23.24" rx="11.62"/><rect class="cls-2" x="0.7" y="19.9" width="16.2" height="36.63" rx="8.1"/><rect class="cls-2" x="29.58" y="24.83" width="11.27" height="35.22" rx="5.64"/><rect class="cls-2" x="21.13" y="-18.14" width="6.34" height="28.18" rx="3.17"/><rect class="cls-2" x="-5.64" y="-24.48" width="8.45" height="38.74" rx="4.23"/><rect class="cls-2" x="9.16" y="63.57" width="17.61" height="18.31" rx="8.8"/><rect class="cls-2" x="48.6" y="31.17" width="11.97" height="25.36" rx="5.99"/><rect class="cls-2" x="74.66" y="-0.18" width="14.09" height="27.47" rx="7.04"/><rect class="cls-2" x="41.56" y="55.82" width="9.86" height="28.88" rx="4.93"/><rect class="cls-2" x="-6.34" y="66.39" width="11.27" height="21.84" rx="5.64"/><rect class="cls-2" x="9.86" y="6.52" width="5.64" height="9.16" rx="2.82"/><rect class="cls-2" x="65.51" y="25.53" width="8.45" height="22.54" rx="4.23"/><rect class="cls-2" x="23.95" y="14.26" width="9.86" height="7.75" rx="3.87"/><rect class="cls-2" x="30.99" y="62.87" width="7.04" height="6.34" rx="3.17"/><rect class="cls-2" x="22.54" y="44.55" width="4.23" height="16.2" rx="2.11"/><rect class="cls-2" x="29.58" y="74.14" width="9.86" height="12.68" rx="4.93"/><rect class="cls-2" x="56.35" y="59.34" width="3.52" height="8.45" rx="1.76"/><rect class="cls-2" x="18.51" y="11.34" width="3.71" height="30.81" rx="1.86"/><rect class="cls-2" x="30.39" y="-22.44" width="2.97" height="33.78" rx="1.48"/></pattern></defs><title>UUDino_Spinosaurus</title><g id="Layer_2" data-name="Layer 2"><g id="Spinosaurus"><path class="cls-3" d="M99.92,245.13c-8.86,2.38-10,14.68-15.14,21.09-7.68,9.67-20.06,10.48-31,13.18a32.29,32.29,0,0,0-12.87,6.1c-.92.74-4.61,3.28-4.57,4.53.05,2.14,2.55,1.8,3.82.74s1.85-2.65,3.1-3.7c1.65-1.4,4.33-2.12,6.32-2.79,5.22-1.73,10.89-2.77,16.29-1.28,3.93,1.09,7.42,3,11.89,1.66,7.17-2.14,12.77-5.85,20.71-5.89,14-.06,29.54,1.88,35.65-13.68-10-8.71-21.46-18.94-35.28-20"/><path class="cls-4" d="M11.34,283.75c1.7,2.08,5.81,10.29,10.18,9.54a99.12,99.12,0,0,1-6.9-14.12c2.79,2.74,4,6.66,7.42,8.7.31-2.63-2.12-5.28-2.73-7.85-.53-2.23-.24-3.8-.28-6.09-3.85.35-10.14,6.43-7.34,10.47"/><path class="cls-4" d="M34.56,267.6c.9,1.32,1.39,2.93,3,3.65a22.64,22.64,0,0,0,1.72-3.45c.61,3.58.3,8.28,4,10.27-.45-3.73,1.33-8.28.93-11.57,2.66,4.59,1.85,10.32,6.66,13.51,1.85-5-.45-11.12-.12-16.45,2.68,1.74,1.19,6.49,4.32,8.06,0-3.58.83-7.21,1.1-10.77,1.72,2.55,2.11,5.27,5,7-.17-2.41-1.21-8.2.4-10.17,1.2,2.43,2.1,4.95,3.92,6.94,2.78-2.9,1-5.92,1.79-9.41,1.41,2.85,2.21,5.95,3.95,8.66,1.62-2.89.5-7,1.47-10.14,1.63,1.3,2.33,3.67,3.39,5.45.87-2,1-7.14,2.38-8a8.06,8.06,0,0,0,2.16,6.71,28.45,28.45,0,0,0,.76-7.38,19.45,19.45,0,0,1,4.52,3.79c.6-1.33-.06-2.86.3-4.15.61-2.22,1.59-2.18,2.93-4-13.49-1.8-25.52-1.55-37.72,5.59a52.39,52.39,0,0,0-16.89,16.56c.51.45.54-.07,1-.42"/><path class="cls-4" d="M33.62,319.66c-2.52-1.75-4.85-4.83-4.1-8,2.2,1.31,6.55,5,8.28,2.57-2.21-1.53-6.93-6.43-7.83-9.18,6-1.39,6.9,4.38,11,6.75,1.5-2.31-2-7.38-2.13-10.19,3.12,1.63,3.14,5.62,6,6.85a5.08,5.08,0,0,0,.87-1.28c-.73-1.44-.59-3.36-.8-5,2.08,1,1.53,3.14,3,4.33,1.77,1.42,1.24.4,3.3-.28,5.25-1.73,9.92-1.88,13-7.23-1.36-1.05-2.87-2-4.22-3.05,1.93-1.57,4.28,1.65,6.18.79-.47-2.07-3.08-2.64-3.82-4.8,1.48-.61,4.58,1.4,6,2.17,3-2.6-3-5.76-2.67-8.64,2,.2,6.76,3,7.31,4.93,5.93-3.56-1.5-5-2.2-9.45,2,1.21,7.86,4.89,10,3.72a15.79,15.79,0,0,0-1.41-3.34c-.84-1.16-2.18-.75-2.83-2.49,2.76-.29,8,5,8.57.84-2.14-1.62-3.77-2.62-3.81-5.42a21.24,21.24,0,0,1,6.73,4.1c2.1-2.9-3.14-3.9-2.74-7,3,.09,4.5,2.8,7.07,3.62A73.67,73.67,0,0,1,81,289.48c-7.93,7.77-16.23,15.86-24.81,23-3,2.45-21.18,17.15-23.63,6.47"/><path class="cls-5" d="M656.48,368.77c-2.46,1.05-4.39,3.94-5.59,6.21a17.16,17.16,0,0,0-2,6.3c-.23,2.08-.42,5.13.19,7,.35-2.63,3-5.06,4.54-7a70.49,70.49,0,0,1,7.62-7.93c-1.61-.55-5.19-2.71-4.5-4.84"/><path class="cls-5" d="M648.94,359.11a8.43,8.43,0,0,0-1.92,1.2,44.26,44.26,0,0,0-4.12,2.91,39.66,39.66,0,0,0-6.42,6.4c-.84,1.17-1.49,2.47-2.2,3.7-.5.85-1.52,1.64-1.58,2.67a19,19,0,0,1,4.47-2.11c2.33-1,4.71-1.9,7-2.92a61.82,61.82,0,0,0,6-3.34,14.15,14.15,0,0,0,2.8-1.81,7.7,7.7,0,0,1-2.5-3.32,8.87,8.87,0,0,1-.83-1.83c-.2-.83.31-1.89.05-2.52"/><path class="cls-5" d="M677.74,363.46c1.51,1.58,4.28,1.25,5.9,2.69-1.76,0-3.31,1.81-4.5,2.91a72.14,72.14,0,0,1-6.62,5.46,36.29,36.29,0,0,0-5.51,4.56c-.56-1.28.58-3.82,1-5.09a14.38,14.38,0,0,1,3.31-5.22c1.21-1.3,2.42-2.6,3.65-3.87.6-.62,1.5-1,2-1.72a7.3,7.3,0,0,0,1,.76"/><path class="cls-6" d="M703.13,201.15c-17.65,5.83-32.81,18.07-46.23,30.76-9.72,9.2-19.27,15.16-19,29.53.32,16.64,13.66,33.6,26.31,43.19a186.1,186.1,0,0,1,19.88,16.92c2.8,2.82,6,5.26,8.86,8,1.86,1.76,4.29,3.48,4.33,6.13,0,1.94-.58,5.1,1.1,6.58-1.74-.19-3,2.43-4.29,3.15-1.65.9-4.15.95-6,1.35-5.29,1.16-10.58,2.35-15.93,3.19-8.44,1.34-18.41,3.11-25.32,8.58.93,1.22,2.15,2.3,3,3.68.63,1,1.08,3.16,2,3.82s2,0,3-.45c1.43-.62,3.12-.84,4.43-1.61-1.14,1.4-4.51,3.57-4.15,5.15s4.11,4.73,5.64,4.83c1.11.08,2.78-1.56,3.57-2.17,1.65-1.27,3.22-2.53,4.77-3.92,1.82-1.63,4.07-3.53,6.42-4.18-.28,1.76,5.21,3.46,6.68,3.44s2.42-1.26,3.53-1.87a14.21,14.21,0,0,1,3.65-1.2c5.43-1.35,10.14-4.64,15.1-7.07,2.22-1.1,4.88-1.35,7.34-1.7s5.37-.27,6.75-2.28c2.28-3.33,4.32-7,6.73-10.33,1.48-2.06,3.71-4.37,2.93-6.94a45.32,45.32,0,0,0-3.47-7.4c-2.46-4.75-5.21-9.37-7.27-14.31-3.44-8.21-8.12-16-12.52-23.9,11.63-3,26.54-8.88,36.83-15.52,13-8.41,45.19-26.37,60.56-18.09-11.18-13.37-30.69-23.07-45.91-31.16-10.23-5.45-21.88-8.41-32.81-12.42-10.34-3.78-15.18-8.85-24.19-14.49"/><path class="cls-7" d="M703.13,201.15c-17.65,5.83-32.81,18.07-46.23,30.76-9.72,9.2-19.27,15.16-19,29.53.32,16.64,13.66,33.6,26.31,43.19a186.1,186.1,0,0,1,19.88,16.92c2.8,2.82,6,5.26,8.86,8,1.86,1.76,4.29,3.48,4.33,6.13,0,1.94-.58,5.1,1.1,6.58-1.74-.19-3,2.43-4.29,3.15-1.65.9-4.15.95-6,1.35-5.29,1.16-10.58,2.35-15.93,3.19-8.44,1.34-18.41,3.11-25.32,8.58.93,1.22,2.15,2.3,3,3.68.63,1,1.08,3.16,2,3.82s2,0,3-.45c1.43-.62,3.12-.84,4.43-1.61-1.14,1.4-4.51,3.57-4.15,5.15s4.11,4.73,5.64,4.83c1.11.08,2.78-1.56,3.57-2.17,1.65-1.27,3.22-2.53,4.77-3.92,1.82-1.63,4.07-3.53,6.42-4.18-.28,1.76,5.21,3.46,6.68,3.44s2.42-1.26,3.53-1.87a14.21,14.21,0,0,1,3.65-1.2c5.43-1.35,10.14-4.64,15.1-7.07,2.22-1.1,4.88-1.35,7.34-1.7s5.37-.27,6.75-2.28c2.28-3.33,4.32-7,6.73-10.33,1.48-2.06,3.71-4.37,2.93-6.94a45.32,45.32,0,0,0-3.47-7.4c-2.46-4.75-5.21-9.37-7.27-14.31-3.44-8.21-8.12-16-12.52-23.9,11.63-3,26.54-8.88,36.83-15.52,13-8.41,45.19-26.37,60.56-18.09-11.18-13.37-30.69-23.07-45.91-31.16-10.23-5.45-21.88-8.41-32.81-12.42-10.34-3.78-15.18-8.85-24.19-14.49"/><path class="cls-5" d="M520.79,367.45c.67,2.16,1,4.4,2.46,6.37,1.54,2.12,3.47,3.8,4.29,6.43.59,1.93.28,3.34-2,3.35-3,0-5.28-2.56-6.71-4.84-.31,3.29,3.82,7.07,6.08,9,2.58,2.2,9.08,2.8,11.6,0,3.65-4.12.36-10.42-.77-14.76-.82-3.13-2.44-10.06-5.49-11.77-3.81-2.15-8.78,4.11-9.49,7.14.11.4.21,0,.46.2"/><path class="cls-5" d="M545.63,375.66c1.08-1.37,3-3.47,4.76-3.89,3.07-.72,7.56,6,8.51,8.51,1.41,3.81,1.89,11.37-3.13,12.82-4.46,1.29-5.73-2.2-8-4.4,5.25,3.59,7.74,0,5.56-5-1.56-3.62-5.08-5.3-7-8.46"/><path class="cls-5" d="M546.71,356.87c1.5-.88,3-1.84,4.53-2.65.49-.25,2.25-1.65,2.54-1.69,3-.43,6.45,6.48,7.07,9.07,1.93,8-4.8,7-10.19,5.41,2.3,0,3.69.17,5.3-1.34-3.59-3.39-7.44-4.72-9.25-9.67"/><path class="cls-6" d="M323.54,232.86c.73,6.38,11.16,16.73,15.61,23.44,9.72,14.69,17.51,28.47,31.28,40,8.56,7.16,17.49,14.07,27.49,19.12,4.63,2.34,8.6,3.7,12.26,6.93s7.61,5.38,11.59,8.09,7.5,5.86,11.62,8A78.2,78.2,0,0,0,446.15,344c-1,3.38-.28,7-.8,10.45-.5,3.29-1.77,6-1.32,9.58.78,6.16,5,11.21,5.4,17.43,1,13.84-7.6,27-4.61,40.84,1.4-1.42,5.14-.91,7-.63.92.14,2.13.83,3.14.45,2.82-1.08,3.93-5.29,4.08-7.88.17-3.14-.61-7,.93-9.88-.85,1.6.11,6.1.18,7.94.09,2.39.16,4.75.08,7.12a46,46,0,0,0,.35,7.13c.5,4.23.07,9.86,4.53,12.32.69-.34,1.68-1.36,2.47-1.86a17.57,17.57,0,0,1,3.45-1.3c1.32-.46,1.46.3,2.33-1.5,3.86-7.93-2-16.54-1.47-24.6a23.58,23.58,0,0,0,1.77,11.09c1.19,3.05,2.73,8.18,5.69,9.85a11.89,11.89,0,0,1,7.46-4.33c2.42-2.69,2.72-8.5,2-11.86a72.94,72.94,0,0,1-1.39-13.1,274.75,274.75,0,0,0-3.12-33.53c-1.5-9.41-2.33-18.85-5.21-28-1.62-5.13-2.34-14.78-5.68-18.77-4.05-4.85-13.12-7.71-18.17-11.9-12.77-10.57-21.52-29.67-38.83-33.61-9.93-2.26-39.72,6.63-44.17-5.36-2.77,3.32-1.91,9,2.94,8.08"/><path class="cls-8" d="M323.54,232.86c.91,7.88,10.6,18.1,15.83,23.69,8.9,9.53,18.44,18.78,27.45,28.33,2.51-.95,18.12,15,22,18.27,8.48,7.05,17.77,14.53,27.46,19.84,9.17,5,19.23,8.74,27.57,15.17,9.68,7.48,6,16.44,7.56,27.53.66,4.57,2.87,9,3.25,13.57.39,4.84-2,9.06-2.4,13.94-.42,4.66-1.27,9.27-1,14a76.58,76.58,0,0,0,2.65,14.72,5.86,5.86,0,0,0,3.14-.18c.53-2.56,1.82-4.86,2-7.53.17-3.14-.61-7,.93-9.88-.85,1.6.11,6.1.18,7.94.09,2.39.16,4.75.08,7.12a46,46,0,0,0,.35,7.13c.5,4.23.07,9.86,4.53,12.32.69-.34,1.68-1.36,2.47-1.86a17.57,17.57,0,0,1,3.45-1.3c1.32-.46,1.46.3,2.33-1.5,3.86-7.93-2-16.54-1.47-24.6a23.58,23.58,0,0,0,1.77,11.09c1.19,3.05,2.73,8.18,5.69,9.85a11.89,11.89,0,0,1,7.46-4.33c2.42-2.69,2.72-8.5,2-11.86a72.94,72.94,0,0,1-1.39-13.1,274.75,274.75,0,0,0-3.12-33.53c-1.5-9.41-2.33-18.85-5.21-28-1.62-5.13-2.34-14.78-5.68-18.77-4.05-4.85-13.12-7.71-18.17-11.9-12.77-10.57-21.52-29.67-38.83-33.61-9.93-2.26-39.72,6.63-44.17-5.36-2.77,3.32-1.91,9,2.94,8.08"/><path class="cls-5" d="M456.26,436.76c-3-1.86-2.71-5.65-2.27-8.69.11-.69,1.77-10.17,1.33-10.26-2-.43-3.79-1.49-5.88-1.75-5.53-.69-3.89,9.12-3.6,12a26.42,26.42,0,0,0,2.44,8.44c3.41,7.35,10.8,5.52,11.08-2.22C458.37,435.18,457.35,436,456.26,436.76Z"/><path class="cls-5" d="M472.5,434.18c.57,1.11-1,3.42,1.37,3.53,1.34.07,2.57-4.22,2.52-4.81.29,3.07,1.16,8.4-2.63,10.43-5.14,2.75-7.4-2-8.1-5.22-.35-1.59-1-4.11.53-5.38A4.1,4.1,0,0,1,472.5,434.18Z"/><path class="cls-5" d="M484.06,423.38a4.86,4.86,0,0,0,1.69-.48c0,2.24,1,6,3.95,5.77,2.57-.21,5.2-3.39,5.62-5.87,0,4.8-.5,14.7-8,13-3.23-.73-6.6-3.8-8-6.74-.51-1.08-1.46-3.77-.31-4.8C480,423.39,482.24,423.61,484.06,423.38Z"/><path class="cls-6" d="M149.6,232c-7.54-16.67,16.89-34,29-41.87,17.09-11.18,37.35-14.77,57.08-17,21.1-2.42,43-2.52,63.89,1,7.35,1.23,17,3.17,22.9,8.12,6.27,5.26,7.9,11,16,14.07,15.84,6,39.7,24,57.37,10.48,1.35,13.9,11.13,30.39,18.34,42.37,4.41,7.32,16,30.22,23.25,32.79-8.38-3.34-21.64-.78-31-2.32-11.42-1.88-18.85-6.95-29.32-11.7-16.82-7.64-36.3-11.09-53.73-17.52-19.5-7.19-37.45-16-57.77-21.29-14.12-3.71-34.42-2.44-48.95.43-15.84,3.12-25.67,8.31-30,25-9.14-.9-15.54-1.62-23.4-7.16-5-3.56-19.67-13.21-11.78-19.88"/><path class="cls-6" d="M382.43,144.08c-.51-6.36,8.75-19.58,12.24-25.82,4.77-8.55,10.07-16,12.22-25.12s3.52-19,8.84-27.19c6.82-10.47,19.94-18.26,29-27.66,14.92-15.4,28.27-22.79,50-27.16,19.2-3.86,34.81.34,53.91,4.1,18.71,3.69,35.19,11.91,54.57,12,19.61.07,39.73-6.78,57.06-15.37C666.87,8.6,677-.62,684.56,0s7.5,7.41,10.62,13.78c7.7,15.69,20,27.85,27.66,43.31,17.22,34.72,24.34,75.15,44.61,108.69a92.1,92.1,0,0,0,24.67,27c3.13,2.37,9.78,4.2,11.34,8.61,2.76,7.75-7.14,21.94-10.13,30.05-4,10.85-4.37,20.42-3.23,31.7.57,5.66,5.48,21.35,3.64,25.92-2.42,6-17,4.75-23.39,6.3-13.38,3.26-26.23,7.59-40,10-17.13,3-37.93,9.61-55.13,8-3.67-.35-6.57-1.94-10.75-1.82-10.44.3-20.56,5.11-31.09,6.11-22.17,2.11-42.58-6.08-65.2-2.24-23.69,4-48,18.16-72.53,14.26-13.26-2.1-30.29-10.68-42.13-17.54-14-8.09-30.72-19.53-41.25-32.13-4.53-5.42-5.61-9.93-7.88-17.09-7.53-23.78-14.4-48.78-23.27-72-3.5-9.16-5.65-14.47-3.63-24.59C378.91,159.24,383,151.3,382.43,144.08Z"/><path class="cls-6" d="M794.75,284.61l4.41,4.42C797.18,288.63,795.77,287,794.75,284.61Z"/><path class="cls-6" d="M1158,291.11c-85.21,13.45-182.71,18.13-259.42-27.17C864,243.52,828.35,224,799.11,196c0,.23,0,.45-.07.68-2.42-1.5-5.2-2.64-6.93-3.94a92.2,92.2,0,0,1-24.66-27c-20.27-33.54-27.39-74-44.61-108.69-7.67-15.46-20-27.62-27.66-43.31C692.06,7.45,692.16.69,684.56,0s-17.69,8.56-24.23,11.8C643,20.42,622.88,27.28,603.27,27.21c-19.38-.07-35.87-8.29-54.57-12-19.1-3.76-34.71-8-53.91-4.1-21.74,4.37-35.09,11.76-50,27.16-9.11,9.4-22.23,17.18-29,27.65-5.32,8.16-6.66,18-8.84,27.2s-7.45,16.57-12.22,25.12-8.16,20.77-14.1,28c-5.25,6.44-15.38,9.27-21.92,14.25-4.3,3.28-6.67,5.67-11.33,7.26-4.26,1.45-11.46,1.72-16.48,2.84-31.19,7-63.4-1.27-95.2,2.39-18.77,2.16-35.58,8.4-53.8,12.3-17.28,3.7-35.24,2.6-52.48,6.67-23.25,5.49-41.64,15.5-60.64,30.13C53.32,234,36.25,244.56,18.05,251.88c-12.7,5.11-22,10.25-16.38,24.83,1.13,3,2.83,8.05,4.71,10.28,4.15,4.93,6,1.42,8.9-3.28,5.3-8.6,11.24-12.67,21.13-15.67,9-2.72,16.49-6.69,24.71-11C71.4,251.71,79.66,248.7,91,246.9c5.24-.84,8.32-2.82,13.48-.5,5,2.21,8.15,6.93,12.17,10-6.4,5.41-15.94,9.32-23.14,14.55-6.57,4.77-12.23,10.19-18.67,15.15C68.63,290.91,63,296.62,56,300.89c-6.14,3.7-14.6,4.46-20.25,8.73-4.46,3.37-9,15.47-2.18,19.21,7.16,3.9,17.56-8.63,22.16-12.06,9.37-7,21.82-11.65,32.49-16.84,17-8.26,34.38-14.87,51.75-22.36C159.79,269,179.2,260.16,198.8,251c5.12-2.39,13.77-8.58,19-9.72,6.76-1.46,12.83,1.14,20.09-1.13,6.89-2.16,10.54-5,17.78-4.78,9.15.29,18.57,4.14,27.65,5,29.25,2.79,48.55,13,73.54,26.7,7.44,4.09,14.62,4.9,19.08,9.57,10.77,11.29,21.32,23.87,35.22,31.44,14.07,7.66,33.05,7,48.74,10.05,12.72,2.45,23.48,9.51,35.76,11.46,24.57,3.9,48.84-10.25,72.53-14.27,22.62-3.83,43,4.36,65.2,2.25,10.53-1,20.64-5.82,31.09-6.11,4.18-.12,7.08,1.47,10.75,1.82,17.2,1.64,38-5,55.13-8,19.06-3.31,31.87-7.48,51.28-3.54C817.08,309,848.33,325,881.1,338.64l.37.16,3.38,1.4c.87.36,1.75.71,2.63,1.05l2.14.84a343.58,343.58,0,0,0,35.13,11.22c32.62,8.66,71.9,17.76,106.86,15.4,33.17-2.24,67.27-15.1,99-24.51l3.34-1c79.23-23.36,164.94-68.35,249.88-60.89C1323.31,247.05,1223.27,280.81,1158,291.11ZM149.6,232c-.15-.33-.29-.66-.41-1a6,6,0,0,1,2.22-3.54ZM799.16,289c-2-.4-3.39-2-4.41-4.42Z"/><path class="cls-9" d="M885.73,260.63c-12-11.18-27.34-20.25-41-29.19-6.62-4.33-46.34-27.39-45.64-35.41,0,.23,0,.45-.07.68-2.42-1.5-5.2-2.64-6.93-3.94-5.93-4.47-12.39-9.65-16.76-15.74-2.82-3.93-4.18-12.29-8.91-14.35-8.44-3.69-15.85,8.44-24,9.71-9,1.4-21.5-3.51-30.64-4.66-13.13-1.65-26.63-3.1-39.84-3.72-24.14-1.12-49.07-3.11-73.18-2.83-24.76.3-48.52,6.54-72.79,10s-46.62-3.72-68.72-12.7c-42.15-17.14-62.44,35.16-90.71,54.81,5.14,2.71,16.22-5,20.76-8.51,11.3-8.66,18-11.45,33.45-9.14,11.78,1.76,21.3-2.21,33.07-.67,13.49,1.77,20.83,7.84,30.9,16,3.59,2.89,9.13,7.12,13.74,7.92,2.63.45,3.51-.63,5.27-.6,13.3.19,24,.09,36.6,7.18,9.84,5.54,22.06,22.07,34.26,20.93,6.35-.6,7.53-4.83,14.23-2.92,2.69.77,5.37,4.83,8.5,6,3.85,1.43,7.24.8,11.15.59,10-.53,27-7.38,35.36-1.19,12.32,9.1,8.79,16.58,26.9,15.4,17.58-1.15,35-4.49,52.12-8.69,25.38-6.22,49.25-1.72,74.63,2,20.7,3,40,5.3,60.81,3C867.21,259.53,877.52,256.28,885.73,260.63ZM149.6,232c-.15-.33-.29-.66-.41-1a6,6,0,0,1,2.22-3.54ZM799.16,289c-2-.4-3.39-2-4.41-4.42Z"/><path class="cls-10" d="M795.15,194c-7.32-7.61-16.16-12.22-22.71-20.74-8.36-10.88-14.12-24-19.28-36.61-10.75-26.27-17.67-54.05-30.32-79.55-7.67-15.46-20-27.62-27.66-43.31C692.06,7.45,692.16.69,684.56,0s-17.69,8.56-24.23,11.8C643,20.42,622.88,27.28,603.27,27.21c-19.38-.07-35.87-8.29-54.57-12-19.1-3.76-34.71-8-53.91-4.1-21.74,4.37-35.09,11.76-50,27.16-9.11,9.4-22.23,17.18-29,27.65-5.32,8.16-6.66,18-8.84,27.2-3.9,16.57-18,43.86-31,55,16.84,2.49,13.27,10.87,18.5,24.27,18.22-7,32.54-11.54,53.4-11.49,35.56.07,66.46,13.13,100.38,19.58,13.9,2.65,28.16,2.84,42.18,5.06,15.77,2.5,31.84,4.72,47.75,6.3,7.58.76,20.55-2.33,25.91,3.92.45.53,24.5-13.48,27.35-14.55,10.79-4.06,19.24-3.2,30.21-2C746.7,181.84,772.08,182.2,795.15,194ZM149.6,232c-.15-.33-.29-.66-.41-1a6,6,0,0,1,2.22-3.54ZM799.16,289c-2-.4-3.39-2-4.41-4.42Z"/><path class="cls-7" d="M794.75,284.61c1,2.37,2.43,4,4.41,4.42ZM149.19,231c.12.33.26.66.41,1l1.81-4.53A6,6,0,0,0,149.19,231Zm1209.14,43.62q7.88,2.58,15.74,6A89.4,89.4,0,0,0,1358.33,274.58Zm-952-86.88a4.69,4.69,0,0,0-1.08.18Zm-2.14.61a4.29,4.29,0,0,1,1.06-.43l-.32.05A5.72,5.72,0,0,0,404.22,188.31Z"/><path class="cls-10" d="M1382.9,281.56c-32.4-9.24-100-9.67-129.92-2.44-22.25,5.36-43,9.41-65.78,13.8-15.07,2.91-30.49,7-45.59,9.43-16.91,2.73-29-.61-45.76,6.3-16.17,6.65-17.45,3.32-34.17,3.79-14.84.42-28.13,8.36-43.62,6.86-18.28-1.75-35.3-12.15-54.48-14.44-13.3-1.59-26.59-6-39.45-9.53-11.32-3.14-17.25-8.82-26.72-15.28-6.27-4.28-8.3-3.22-16-2.85-16.23.78-31.23-4.9-44.9-13.22-13.18-8-23.91-17.72-40.27-18.5-8.64-.41-16.15,1.9-24,5.36-14.19,6.27-28.62,12.52-44,15.34-14.75,2.72-25.08-2-39.51-3.53-9.41-1-19-2-27.9-5.29-11.31-4.17-11.76-17.89-24.15-21.6-8.84-2.65-11.54,6.22-19.58,6.84-9.69.74-15.37-7.42-25.25-3.78-5.24,1.93-6.16,4.05-12.83,2.65-4.87-1-9.65-2.95-12.44-7.32-4.38-6.82-1.4-13.92-11.86-15.38-12.37-1.74-21.79.54-31.47-8.36-3.22-2.95-3.83-4.88-8.44-5.86-5.36-1.13-10.28,2-15.66-.89-6.25-3.35-7.84-10.9-15.12-12.69-8.64-2.11-20,.42-29-.31-7-.56-13.46-2.87-20.34-3.64-5.83-.65-23.16-2.06-29.71.91q-15.84,2.55-31.66,5.22c-9.25,1.56-22.07,6.37-31.34,5.34-7.37-.81-15.36-6.05-22.53-8.23a107.92,107.92,0,0,0-25.27-4.43c-24.63-1.41-49.09,1.73-73.65,2.89-17.36.81-51.64-5.53-67.78.35,21.45-2.5,46.67-10.32,65.4-14.07a199.69,199.69,0,0,1,55.32-3.39c8.31.59,18,.43,26,2,8.93,1.72,16.14-.83,24.9-1.47,8.13-.59,16.28-2.85,24.21-5.47,6.52-2.15,9.34-5.69,15.2-9,4.47-2.52,10.29-4.75,14.15-8.31,4.31-4,5.2-10.44,7.79-15.51,7.64-15,19.85-29.87,22.92-46.71,1.61-8.79,3.33-16.92,9.52-24,5.35-6.13,12.47-13.73,19.76-17.66-1.53,3.55-4.14,7-6.09,10.41-3.23,5.68-4.84,12.28-7.21,18.33-4.6,11.77-9.74,24.47-9.66,37.33.18,27.63,25.87,46.62,51.76,45.17,11.13-.62,21.69-7.36,32-5.19,6.8,1.44,12.36,8.16,19.41,9.75,6.83,1.55,13.57-.47,20.4-.43,8.88.05,13.49.58,23.41-5.42,10.78-6.52,16.67-11.14,25.86-2.86,5.74,5.17,6.28,17.46,15.53,19.4,6.57,1.38,12.15-5,17.81-6,2.09,7.68,6.29,5.34,12.12,5,4.08-.21,6.41-4.75,11.31-4,3.6.51,4.23,5.53,6.5,5.95,26.19,4.85,39-28.35,44.11-49.62,6.3,5.36,13.94,12.75,17.53,20.53s1.58,16.93,8,23.12c2.31-2.13,6.29-3.89,8.09-7.41.88-1.73,10.06,12.79,10.73,13.37,7.06,6.1,12.41,5,21.36,6.18,15.39,1.95,31.89,14.38,43.75,23.86,16.05,12.82,32.44,23.75,50.05,34.81,24.84,15.6,51.34,33.49,78.94,44.76q4.4,1.78,8.81,3.34c29.39,10.31,84.51,21.75,196.15,9.54C1190.45,289.68,1322,244.2,1382.9,281.56Z"/><path class="cls-11" d="M1058.87,340.9l-1.74.37c-40.76,8.42-80.07,4.13-116-13.6-62.67-30.93-115.58-56.73-185.44-65.45-32.89-4.11-62.67,7.69-94.85,14-45.2,8.86-99.05,21.25-144.94,17.44-18.15-1.5-38.19-7.85-56-6.51A338.4,338.4,0,0,0,418.85,293c-6.93,1.38-10.67,2.92-17.07,0-5.31-2.4-10.28-6.63-16.34-7,6.87,11.17,26.82,21.84,38.56,26.3,11.26,4.28,24.17,3.52,35.92,5.78,12.72,2.45,23.48,9.51,35.76,11.46,24.57,3.9,48.84-10.25,72.53-14.27,22.62-3.83,43,4.36,65.2,2.25,10.53-1,20.64-5.82,31.09-6.11,4.18-.12,7.08,1.47,10.75,1.82,17.2,1.64,38-5,55.13-8,19.06-3.31,31.87-7.48,51.28-3.54C817.08,309,848.33,325,881.1,338.64l.37.16,3.38,1.4c.87.36,1.75.71,2.63,1.05l2.14.84a343.58,343.58,0,0,0,35.13,11.22c26.58,7.06,52.78,16.3,80.58,16.61,70.4.77,134.66-29.2,200.32-50.43,24.72-8,49.52-21,75-26.15,16.77-3.37,32.72-7.94,52.35-10.76-52.47-10.82-114.64,16.47-165.53,28.73C1131.47,320,1095.15,333.06,1058.87,340.9ZM149.6,232c-.15-.33-.29-.66-.41-1a6,6,0,0,1,2.22-3.54ZM799.16,289c-2-.4-3.39-2-4.41-4.42Z"/><path class="cls-6" d="M180.29,193.23l-1.86-.3c-1.08-.17-2.18-.36-3.3-.56l2.7-1.81h0c.25.57.7.57,1.29,1.14Z"/><path class="cls-6" d="M794.14,286.41a12.85,12.85,0,0,1-1.32-3.73l1.21,1.21A20.5,20.5,0,0,1,794.14,286.41Z"/><path class="cls-6" d="M794,283.89a20.5,20.5,0,0,1,.11,2.52,12.85,12.85,0,0,1-1.32-3.73Z"/><path class="cls-6" d="M799.16,289c-2-.4-3.39-2-4.41-4.42Z"/><path class="cls-6" d="M151.41,227.42,149.6,232c-.15-.33-.29-.66-.41-1A6,6,0,0,1,151.41,227.42Z"/><path class="cls-6" d="M180.29,193.23l-1.86-.3q-.33-1.19-.6-2.37l-.06-.26a1.47,1.47,0,0,0,.08.25c.25.57.7.57,1.29,1.14Z"/><path class="cls-7" d="M706.66,31.7c12.68,20.27,17.91,46.45,24.73,69.13a262.06,262.06,0,0,1,8.88,44.69c.87,7.34-3.84,29.27-1,33.75,2.71,4.31,16.85,6.14,21,7.9,10.72,4.5,18.92,11.13,28.52,17.69,29.75,20.33,58.2,41,91.13,56.62,36.64,17.36,69.84,33.54,110.85,37.41,7.15.67,58.12,9.38,58.58,1.6-5.92,1.73-16.21-.05-22.44-.7-8.33-.88-16.82-1.82-25.11-3.1-15.67-2.43-31-5.08-46.11-8.7-20.66-5-37.65-14.71-56.06-25.21-19.11-10.9-40.15-21-57.95-33.54-26.25-18.55-59.49-41.18-78.51-67.27-10-13.64-13.91-30.27-18.77-46.27-7.8-25.63-17.13-65.16-35.89-82.14"/><path class="cls-7" d="M341.58,234.25c.94,1.68.16,3.35,3,9.78,5.67,12.67,16.05,18.53,26.61,27.39,4.6,3.86,9.34,8.83,14.65,11.8,12.14,6.77,22.49,12.1,34.26,20.1a97.8,97.8,0,0,0,18.78,10.4c1.76.69,15.06,3.15,15.44,3.89a23,23,0,0,1,1.86,12.51c-20.15,1.62-44.16-18.86-59.32-31.21-16.7-13.61-34.33-25.06-51.48-37.65-3.85-2.83-8.55-3.91-12.87-5.92-7.81-3.64-15.18-7.54-23.69-9.36-6.12-1.31-12.21-3.41-18.24-4.37-2.86-.45-6.19-.35-9-1-8-1.8-16-4.68-24.4-5.48-7.64-.73-15,4.29-22.45,5.39-7.31,1.07-14.77-.78-22.12.65-11.33,2.2-21.13,9.14-32.41,11.72,15.55-10.25,30-22.66,47-30.56,16.81-7.8,40.08-1,58.12-2.41,17.59-1.38,34.19-1.56,49.51,8.82C339.33,231.8,340.9,233,341.58,234.25Z"/><path class="cls-7" d="M141.26,191.56c41.4-.5,21.55,21.28,44.9,6.49,16.07-10.19,36.1-18.08,54.67-22.65-17.56.87-36.67,3.94-54.37,7.64-14.8,3.09-33.23,5.53-49.69,8"/><path class="cls-7" d="M134.88,279.39c-11.28,5.28-22.31,10.06-33.8,14.73a238.69,238.69,0,0,0-22,10c-4.46,2.36-8.57,5.55-13.08,7.63-4.24,2-8.73,2.9-12.74,5.5-3.67,2.39-5.08,6.84-8.45,9.51C39.18,331.17,30,331.93,31,322.58c.73-6.87,6.37-12.78,12.39-15,6.48-2.39,15.12-5.22,20.46-9.21,5.6-4.19,9.86-9.62,15-14.32,5-4.54,11-7.84,16.37-11.93,3.91-3,18.33-11.46,18.69-15.75.39-4.5-9.17-11.1-12.79-12.26,10.72,4.19,35.92,13.94,24.57,28.71,11.92-5.76,23.91-7.76,35.46-14.74,5.62-3.4,8.62-9.1,13.83-12.43,4.49-2.87,10.89-.69,15.93-1.31,7.29-.89,12.36-5.29,19.16-7.57,11.89-4,27.23,3.5,39.35-1.91-5.48,2.44-11.73,5.33-17.7,6.24-5.41.82-11-2.59-16.29-1.07-3.8,1.11-7.8,5.66-11.38,7.7a130,130,0,0,1-16,8c-4.73,1.88-9.86,3.11-14.39,5.44-7.3,3.74-14.78,6.87-22.37,10.49Q143.13,275.54,134.88,279.39Z"/><path class="cls-12" d="M60.32,230.68C49.51,241,34.94,246.61,21.64,253c-5.22,2.51-23,8.14-18.49,16.72.49-7,12.26-11.1,17.58-13.32,9.85-4.12,19.93-8.32,29-14,8.91-5.62,17.94-11,25.84-18C81,219.59,85,212.84,90.65,208.57c-14,4.11-22.46,22.15-36.33,25.38"/><path class="cls-7" d="M151,220.19c-5.16-2.15-12.14-7.88-17.32-2.74-3.9,3.87-4.93,10.36-.67,13.36,5.68,4,7.45-.57,12.28-2.51,1.92-.78,5.75-.49,6.84-2.09,1.53-2.23-4.29-5.54,1.6-5.47"/><path class="cls-13" d="M78,230c-4,3.3-8.3,4.46-10.27,9.67,2.72,3.1,5.65,1.87,7-1,.55-1.15-.85-3.24-.43-4.78s2.44-3.11,3.16-4.48"/><path class="cls-7" d="M118.32,207.12c-11.31,2.2-4.63,23.58-.72,29.32-5.07,2.26-12.83,1.72-18.49,2.95-4.49,1-9.36,2.4-13.93,2.51-.22-5.58-.69-10.59-3.3-15.61,7.81-3.7,12.73-10,21.08-13A147.44,147.44,0,0,0,119.41,206"/><path class="cls-7" d="M10.47,286.1c2.95-15,15.79-20.55,29.25-23.18-12,3.63-25.78,10.18-30.34,23.18"/><path class="cls-7" d="M169,264.86c3.46-7.44,5.57-14.29,5.42-22.71,1,3.66,2,8,5.21,10.17,5.46,3.63,8.81-1.07,12.81-3.77,1.91,5.16,8.62-2.14,11.42-4,5.72-3.79,10.69-7.81,12.42-14.83.25,3.83-.49,7.19,3.64,8.44,3.65,1.11,5.11-2.1,8.18-2.73,4.75-1,9,1,14.37-.55,3.89-1.13,8-2.67,11.85-1-15.9-.68-35.39,6.12-49.88,12.18-12,5-24.08,11-34.4,18.76-1.14-.07,0-.41,0-1"/><path class="cls-7" d="M161.35,189.15c7.2-.85,17.3,4.62,20.5,10.85-1.64-2.2-5.49-7.86-5.52-10.61-.05-3.66,4.54-4.79,8.82-2.6.07-.53.23-1.28.25-1.92,2.15,0,2.78,1.65,4.81,2.17,2.58.65,5.23.09,7.69,1s5.7,3.85,7.93,5.43c-1.58-2.14-7.48-7.51-7.87-9.75-.76-4.33,4.18-4.28,8.07-5.45,9-2.71,18-3.38,27.45-3.81,23.18-1.05,50.27-7.54,70.93,6.9-6.31-9.7,21.88-11.16,21.45,3.2.19-1.58.7-8.35,1.59-9.58,1.54-2.15,8-3.19,10.47-3.91,5.88-1.75,16.23-8,20.74-2.12s.28,18.2-.13,25c-.37-4.19,4.64-8.39,5.46-13,1.05-5.91.6-12.73,3.58-18.17,2.59-4.73,4.11-5.24,8.26-2.05,7.15,5.53,7.83,17,7.09,25.19-1.64-4.08.59-10.29.68-14.93.1-5.11-3.08-10.21-2.75-14.88.55-7.86,7.06-6,12.07-3-4.3-6.3-2.78-9-3.46-16.11-18.87,24.78-50,35.61-80.47,37-14.69.66-29-2.16-43.48-2.73-19.48-.76-39.59,3.08-58.93,6.11-16.58,2.6-33.41,7.59-49.42,10.78a19.52,19.52,0,0,0,5.83.54"/><path class="cls-6" d="M478.66,334.1c6.4,4.61,14.24,6.12,20.41,11.3,4.15,3.48,6.17,8.6,9.68,12.6,2.66,3,5.11,5.82,7.63,8.94,1.36,1.67,2.27,4,4.76,3.32,3.14-.89,6.59-9,10.4-7.16a3.42,3.42,0,0,0-.58-3.33c1.77.31,3.11,4.28,4,5.75a33.56,33.56,0,0,0,5.39,6.72c1.44,1.34,5.79,5.69,8,5.54-.12-2.71,5.5-3,6.3-5.15s-.54-5.29-1.53-6.93c-2.72-4.52-7.3-7.44-11.09-11,3.37,1.8,4.93,4.49,9.39,3,1.27-.42,5.71-1.6,6.24-2.72.62-1.35-1.57-4.75-2.36-5.82-5.84-7.93-14-11.62-22.68-15.61C522.08,328.74,513,319,503.41,312.13c-8.11-5.8-10.71-15.71-19.06-21.67a37.52,37.52,0,0,0-16.77-6.3c-4.91-.69-11.22.89-15.68-.28,2-3.41,6.07-5.15,8.58-8.18,3.73-4.5,5.72-9.75,8.33-14.91,7.3-14.47,16.79-26.36,26.78-38.84-3-3.28-9.61-4-13.69-5.56-4.69-1.74-11.82-6.51-17-6-3.41.32-7.32,4.1-9.63,6.34-4.47,4.34-8.53,9.05-13.12,13.36-8.27,7.75-18,16.83-28.77,21-9.74,3.69-20.91,3.39-30.54,6.3-7.77,2.35,19.59,35.29,21.87,37.79,18.85,20.65,30.67,23.31,57,27.21C469.73,323.52,472.47,329.65,478.66,334.1Z"/><path class="cls-7" d="M469,263.37c4.45-15.7,16.77-28.91,26.61-41.42,1.07-1.37-15.45-5.3-17.45-5.18,6-.37-1,19-1.87,20.74C471.22,248,467.81,250.55,469,263.37Z"/><path class="cls-7" d="M503.4,312.13c-8-5.71-11.81-20.35-21.58-23.31-12.38-3.75,4.22,9.67,8.86,17.69,11.11,19.19,24,25.94,42.42,33.33,2.62,1.05,4.74,2.74,7.45,3.7,3.12,1.1,6.47,1.72,8.94,4.1,2.24,2.16,2.94,5.22,4.3,7.76,1,1.93,2.9,2.14,4,4.23s2,5.69.89,7.8a4.79,4.79,0,0,0,2.52-5.22c-.24-1.86-1.38-6.55-3.21-7.32a41.94,41.94,0,0,0-1.2-4.44,14.87,14.87,0,0,0-3.58-3.92c-2.48-2-4.38-4.6-6.9-6.47-5.68-4.21-12.82-5.65-18.81-9.27C518.77,325.53,511.66,318,503.4,312.13Z"/><path class="cls-7" d="M517.55,347.15c2.51,1.85,4.39,4.48,6.88,6.34a36.82,36.82,0,0,1,4.66,3.82c1.87,1.92,2.3,3.28,2.32,6,1.86,1.1,1.85,3.45,2.5,5.28.92,2.58,2.29,5.1,3.08,7.71a23,23,0,0,1,1.08,7.35c-.23,2.83-3,4.27-4.66,6.28,3.2-2.77,1.81-9.29.78-12.88a41.19,41.19,0,0,0-6.72-12.84c1.91-2.16-3-6.35-4.24-7.78-3.34-3.73-7.49-7.26-10.4-11.19,1.19.4,3.52.85,4.29,1.69"/><path class="cls-7" d="M532.67,345.42c3.06,3.88,7.34,6.7,10.37,10.58,3.2,4.11,9.33,6.53,11.23,11.34a7.34,7.34,0,0,1-.2,6.54c2.25.36,4.06,5.84,4.54,7.72,1,3.84,1.79,7-1.52,10,3.4-2.78.41-8.22-.57-11.6a13.39,13.39,0,0,0-1.5-3.77c-.53-.78-1.6-1.16-2-1.83-.84-1.23-.16-1.89-.42-3.45-.7-4.19-5.74-7.67-8.2-10.75-1.71-2.15-3.28-4.77-5.2-7.12-2.29-2.8-5.69-5-7.48-7.85a1.7,1.7,0,0,1,1.22.66"/><path class="cls-7" d="M483,373.87c-1.63-4.16-5.52-7.61-9-10.23-5.58-4.2-10.25-9.8-16.25-13.14-2.82,4.44-2.34,11.09-1.61,16.08.48,3.23,2.89,7,2.31,10.28-.66,3.75-3.58,5.41-5,9-3.65,9.17-2.64,19.65-.8,29.13.83,4.32-3,5.55-2.88,10.83.08,2.73,1.77,11,5.39,9.73-2.31-1.47-2.71-5.65-2.44-8.46.41-4.22,2.24-4.15,4-6.27,3.39-4.14.65-12,5.45-12.8,4-.66,3.44,3.3,7-.74,1.9-2.19,1.21-5.63,3.87-7.51,2.14-1.51,3.8,0,5.7,1.24,1.73-3.55.17-7.56,1.19-11.31C481.4,384.09,485.47,380.15,483,373.87Z"/><path class="cls-7" d="M465.08,389.69c.24,12.09-1.52,24,1.34,35.91a58,58,0,0,1,1,7.93c.18,1.63.54,4.52,1.94,5.73,1.81,1.58,4.91.7,5.16-1.81-.2.14-.59.27-.83.42-1.78-1.95-1.34-2.77-.38-5a18.93,18.93,0,0,0,1.46-7.68c-.07-1.41-.84-2.52-1.25-3.77A15.75,15.75,0,0,1,473,418c-.64-5.87-2.24-11.72-3.41-17.47a29.06,29.06,0,0,0-4.53-11"/><path class="cls-7" d="M490.13,428.35c-.94,1.47-4.39.5-5.6-.21a5.36,5.36,0,0,1-2.64-4.72c-.2-.07-.38,0-.58-.07.05-1.17,1.47-2.43,1.92-3.65a13.46,13.46,0,0,0,.59-5.37c-.27-5-1.69-10.08-3.09-14.89-.88-3.05-2.5-6.38-1.54-9.41,1.32-4.12,4.52-7.18,5.37-11.55,1.49,2.26,1,6.88,1.41,9.56.78,4.82,1.76,9.59,2.37,14.43.4,3.18,1.09,6.08.9,9.33-.31,5.43-1.71,10.78-2.56,16a9.83,9.83,0,0,1-.8-1.46,14.17,14.17,0,0,0,3.82,2"/><path class="cls-12" d="M465.06,313c-.49,6.83,6.5,18.45,12.27,22.13,7.29,4.65,17.21,6.39,25.62,8.07-5.26-7.51-18.76-9.18-25.6-15.49-4.83-4.46-8.94-13.1-11.32-19a11.28,11.28,0,0,0,.51,7.71"/><path class="cls-7" d="M238.34,222.87c9.23-3.79,22.64.09,32.45.95,13.48,1.19,26.9,3.05,40.34,4.37,6.9.68,32.05,8.39,35.89,4.17-3.7-4.88-14.26-5.77-20.34-7.21a260.62,260.62,0,0,0-34-5.39c-21.5-2.14-46.15-3.91-66.6,2.11,4.79-.09,9.59-.06,14.39-.06"/><path class="cls-7" d="M634.43,375.08c1.89-1.17,3.88-2.24,5.83-3.3s3.29-2.25,5-3.33c2-1.24,4.09-3.06,4.63-5.41a18.23,18.23,0,0,0,3.52-.38c2.19-.52,3.9-2.65,6-2.92a25.23,25.23,0,0,1,2.74.12,28.69,28.69,0,0,0,5.13-.73c2.31-.5,4.5-1.48,6.82-2,1.55-.32,3.89-.12,5.22-.7A88.12,88.12,0,0,0,667,360.35a19.61,19.61,0,0,0-4.36,1.82,10.6,10.6,0,0,1-2.54,1.53c-2.55.86-5.44,2.68-8.26,2.63-.55,1.15-2.64,1.17-3.69,1.74s-1.95,1.31-3,1.9-2.39,1.21-3.54,1.85c-1.37.76-3.59,1.45-4.65,2.53"/><path class="cls-7" d="M667.07,378.73c.67-1.91,2.93-3.32,4.23-4.81a16.16,16.16,0,0,1,3.92-3.22,8.45,8.45,0,0,0,2.94-2.79c.31-.6.31-1.23.62-1.83a3.06,3.06,0,0,0,3.65-1.94,17,17,0,0,0,7.93-2.67,35.33,35.33,0,0,0,5.23-3.37,26.59,26.59,0,0,1,4.47-3.37c3.65-1.92,7.61-1.3,11.52-2.11a24.85,24.85,0,0,0,10-4.54,13.78,13.78,0,0,1-3.14,5.09c-1.34,1.42-3.38,1.22-5.23,1.43-5,.57-9.47,3.12-13.92,5.41s-8.91,3.47-13.38,5.23a34.14,34.14,0,0,0-9.26,5.82c-1.51,1.23-2.83,2.43-4.49,3.54s-4.28,3-5.25,4.86"/><path class="cls-7" d="M657.93,372.28a11.55,11.55,0,0,0-5.27,5,27.47,27.47,0,0,0-2.2,4.45c-.3.9-.32,1.7-.56,2.57s-.88,1.61-.71,2.55a40.11,40.11,0,0,1,5.29-6.42c1.12-1.18,1.85-2.66,3-3.77a18.76,18.76,0,0,1,2.63-2.43c1.05-.59,2.1-.53,3.16-1.49.74-.67,1.41-1.39,2.13-2.07,1.84-1.75,4.35-2.24,6.12-4,1.17-1.17,1.73-2,3.32-2.7.94-.39,1.81-.76,2.74-1.22-.1,0-.22.06-.32.09-.57-.6-2.43.42-3.13.67-2.71,1-5.48,2.12-8.09,3.36-1.73.82-3,2.33-4.61,3.3a15.26,15.26,0,0,1-3.43,1.72"/><path class="cls-5" d="M773.34,443.11c-.26,2.07,1.7,5,2.57,6.76,1.09,2.22,2.23,4.6,3.53,6.68a30.82,30.82,0,0,0,10.37,9.82,21.69,21.69,0,0,0-1.54-4c-.8-2.16-1.18-4.54-1.92-6.74-1.29-3.8-2.88-7.65-3.87-11.51-.19-.77,0-1.33-.59-1.84-.84-.76-3.11-.93-4.16-1.12-.85-.15-3.31-.77-4,.07-.42.49-.13,1.49-.35,2"/><path class="cls-5" d="M790.24,433c-.86-1.56,3.44-3.15,4.58-3.68,2,3.1,3.94,6.49,6.62,9.14a100.76,100.76,0,0,1,7.11,7.23c-1.91.57-4-.45-5.78-1.05-3.18-1.06-5.4-3.28-7.66-5.48a54.64,54.64,0,0,1-5.58-6.8"/><path class="cls-5" d="M783,437.5c4.72,3.64,8.89,9.93,14.44,12.32-4.38.76-10.56-.86-14.15-3.37-1.55-1.09-3.35-2-2.86-3.82.36-1.33,1.1-4,2.25-4.81"/><path class="cls-6" d="M674.14,199.34c-11.52,11.51-14.23,40.95-13.59,56.63a58.71,58.71,0,0,0,10.85,32.56,201.86,201.86,0,0,0,41.65,43.61A399.91,399.91,0,0,1,757.83,372c5.54,5.77,8.46,14,10.77,21.51,1.26,4.1.79,8.34,1.09,12.63.36,5,.87,10,.93,15,0,4.09.29,8.1.6,12.17.19,2.58.29,5.73,1.31,8.16.92,2.2,2.5,1.84,4.73,1.76,2-.07,3,.39,4.49-.87,1.17-1,2.23-3.85,3.88-2.44.7-1,.08-3.4-.08-4.56-.22-1.55-.76-2.89-2.39-3.39.05,0,.44-3.45,1.11-3.59,2.08-.44,3.41,5.64,6,5.56,1,0,.79-.78,1.42-1.24a10.65,10.65,0,0,1,2.93-1.23c.77-.23,1.53-.12,1.89-.75s-.08-2.79-.2-3.47c-.66-4-2.9-7.6-5.42-10.66-2.35-2.85-2.29-6-3.73-9.43-.93-2.23-3.6-4-3.81-6.3-.25-2.67,1.6-5,1.6-7.69,0-3.22-.63-6.57-.87-9.79-.55-7.25-.92-14.5-1.33-21.76C775,358.21,768,348.58,762.06,342.5c-9.46-9.62-22.94-18.94-30.49-29.92-7-10.14,3.61-19.59,9.15-30,7.14-13.35,5.51-23.5,22.4-23.48,14.8,0,29.62,2.4,44.13-1.06-7-9.41-19.93-18.09-29.63-25-8.57-6.12-17.31-14.28-26.92-18.77-12.61-5.89-28.88-8-42.56-10.19-10.25-1.66-26.66-2-34.9-7.48"/><path class="cls-7" d="M770.17,360.85c.41.47.81.95,1.21,1.44,6.62,8.1,6.73,19,12.15,27.58,2.38-8-.34-19.55-.83-28.21C775,358.21,768,348.58,762.06,342.5c-9.46-9.62-22.94-18.94-30.49-29.92-7-10.14,3.61-19.59,9.15-30,7.14-13.35,5.51-23.5,22.4-23.48,14.8,0,29.62,2.4,44.13-1.06-7-9.41-19.93-18.09-29.63-25-9.09-6.5-23.43-27.14-33.5-16.52-10.88,11.48-8.44,39.33-13.9,53.87-3.5,9.31-9.33,18.3-9.37,28.17C720.69,333.4,751.76,339.71,770.17,360.85Z"/><path class="cls-7" d="M789.43,465.91c-.73-1.69-2.14-3.26-3-4.91a71.93,71.93,0,0,1-3.54-7.15c-.88-2.13-1.9-4.12-2.58-6.32a13.66,13.66,0,0,1-.7-3c0-.57.14-1.07-.22-1.52,1.1-1.55.66-3.16-.12-4.81a18.51,18.51,0,0,0-1.92-3.49,4.17,4.17,0,0,1-1-2,4.71,4.71,0,0,1,.36-2.29,22,22,0,0,0,1.1-5.66,44.4,44.4,0,0,0,0-8.07c-.16-1.69-1-3.36-.92-5.06,0,.91.86,2.73,1.16,3.66a11.55,11.55,0,0,0,1.82,3.79c2.28,2.81,2.18,6.83,5,9.28a1.53,1.53,0,0,0-1.24,1.1,9.39,9.39,0,0,0-.12,4.12,17.41,17.41,0,0,1-.22,6.06c-.23,1.46-1.46,2.58-1.33,3.89a16,16,0,0,0,1,3.55c.95,2.57,2.09,5.2,3.06,7.77A68,68,0,0,1,789.43,466"/><path class="cls-7" d="M783.26,431.93c2.33,1.13,2.82,5.67,2.2,7.71a9.46,9.46,0,0,1,1.73,1.88c.9,1.06,1.93,1.86,2.87,2.88a19.19,19.19,0,0,0,3.06,3.05c.94.67,2.8,1.22,3.39,2.22a25,25,0,0,1-6-2.62,24.53,24.53,0,0,1-5-3.36,6.23,6.23,0,0,1-1.63-1.81c-.27-.7.1-1.28.12-2,1.12-.21,1.15-3.24,1-4.21a20.49,20.49,0,0,0-1.41-3.43"/><path class="cls-7" d="M784.68,390.43a8.79,8.79,0,0,1-.78,3.2c-.59,2-.8,4-1.36,6-.68,2.46-1.13,3.78.39,6,1.31,1.92,3.07,3.41,4.19,5.49A64.12,64.12,0,0,1,789.8,418c.7,1.77,1.89,3.33,2.31,5.21s.39,4.05.68,6.05c.54,3.6,2.64,4.82,5.17,7.34,1.54,1.54,2.74,3.45,4.4,4.84a48,48,0,0,0,5.31,3.42c0-.75-1.1-1.39-1.59-1.88-.72-.73-1.33-1.55-2.07-2.28a69.14,69.14,0,0,1-6.18-6.5,12,12,0,0,1-1.59-3.23c1.51-1.07-.37-5-1-6.16-.67-1.36-1.23-2.77-2-4.09-.87-1.5-2-2.74-2.81-4.25a58.68,58.68,0,0,1-3.29-7.72c-1.07-3-3.07-5.35-3.93-8.36-.49-1.73.53-2.93,1-4.54.39-1.32,1.11-4.19.3-5.42"/><path class="cls-12" d="M660.55,256a58.71,58.71,0,0,0,10.85,32.56c7.52,10.86,26.46,45,43,42.53,10.69-1.59.52-11.4-3.65-17.67-6.62-10-14-19.49-17.31-31.19-4.13-14.53-6.26-29.81-4.31-44.87.84-6.48,2-11.59,5.11-17.3,5.23-9.52,6.79-10.44,1.34-18.72-3.78-5.75-3.31-12.83,6.78-12.13-10.21.08-23.54,2-30,11.26C661.94,215.36,659.84,238.41,660.55,256Z"/><path class="cls-7" d="M429,84.44c12.12-19.32,18.59-36,39.94-47.09,31.56-16.35,54.38.53,86-2-10.68,6.2-28,.75-40.29,1.36a162.11,162.11,0,0,0-36.57,6.41c-17.89,5.14-41.64,20.62-46.55,40"/><path class="cls-7" d="M569.68,23.8c14.88,7.6,27.91,21.52,43.61,25.68,1.29-7.72,8.81-11.81,13.35-17.43-16.15,1.6-45.87-6-58.25-12.12"/><path class="cls-7" d="M447.11,80.57c-5.6,15.51-12.76,32.59-7.39,49.05,4.37,13.38,14.22,15.7,26.28,20.75-27.74-19.83-23.89-30.68-24.05-62.06"/><path class="cls-7" d="M398.08,174.76c18.23-13.13,38.24-10,59.46-9,14.78.7,40.41-3.23,53.56,2.7-26.45-10.89-91-4.53-95.18-43.83-15.83,6-12.3,48-23,50.15"/><path class="cls-7" d="M543.12,172.3c22.64.09,45.07,1.82,67.36,3.95,27,2.58,56.86-.08,83,4.32-13.5.69-26.12,13.12-35.59,21.19-14.35-17.07-41.51-10.83-61.61-13.72-27.46-3.95-55.19-8.67-82-14.84,5.28-2.73,24.67-1.64,31.56,0"/><ellipse class="cls-14" cx="122.46" cy="218.98" rx="4.74" ry="7.36"/><ellipse class="cls-13" cx="121.64" cy="218.73" rx="2.78" ry="6.13"/><path class="cls-2" d="M117.72,215.06c1-1.28,4.24-1.38,5.69-1.15s2.48,1.26,3.76,1.84c-1.22,2,1.19,6-.33,7.94-1.73,2.18-6.87.05-8.47-1.29-1.11,1-2.45,1.21-3.53,2.28,3.06-2.23,3.63.36,5.1,2.31a14.11,14.11,0,0,0,1.58,1.6c1.23.69.62.31,1.83-.35a8.62,8.62,0,0,1,4.31-1c.27-3.21,1.69-5.89,2.64-9a33.93,33.93,0,0,1,2.64-6.34c.3-.56,1.22-2.4.76-3.1-1.09-1.7-5.82.17-7.31.38-2.52.35-5.41.49-7.16,2.4a5.27,5.27,0,0,1-2.69,1.79c-1,.37-2.66,1-2.39,2.24a2.52,2.52,0,0,1,1.75-.6c-.32.56-.79,1.17-.43,1.87a6.11,6.11,0,0,1,2.41-1.74"/><path class="cls-13" d="M128.34,213.91c-2.28-1.92-5.15-1.4-7.84-1-1.56.24-3.07,1-4.58,1.14a25.46,25.46,0,0,1-4.36-.33,19.12,19.12,0,0,0,4,1c1.32,0,2.92-.87,4.25-1.19,1.93-.45,7-1.05,8.34.2"/><path class="cls-13" d="M127.36,224.86c-1,1.41-5.94.9-7.76.82-2.25-.09-3.24-.07-5,1.41,1.25-4.51,8.83-.79,11.91-2.06"/><path class="cls-15" d="M365.5,200.79c19-2,48.59-11,66.84-6.21,15.24,4,28-.28,43.59,2.65-17.16,12.84-11.12,34.59-29.47,45.67-13,7.85-28.17,9.57-42.91,11.37s-20.64,3.52-8.62,17.36c-8.56-5-17.64-9.49-25.73-14.81-7.29-4.8-12.87-13.08-20.07-16.78,1.68-5.16,7.46-8.24,12.21-9.56-5.26-9.31-16.87-15.69-26.82-19.35-20.22-7.43-42.27-6.22-62.91-11.68,13.54,2.35,30.62-3.23,42.93,1.34,21.34,7.93,29.35,3.19,52.23,0"/><path class="cls-10" d="M386.08,247.46c-26.59-25.18,39-44.84,53.83-52.21-35.17-14.3-114.37,35.87-56.57,52.21"/><path class="cls-10" d="M336.22,238.82a132.86,132.86,0,0,0,.89,14c4.86-4.15,7.94-9,10.31-15.67-1.14,5.8-6.52,26.23,6.63,16.54-4.92,3.63,4.62,11.36,6.79,12.94,5.58,4,9.68,6.7,12,13.75-16.89-12.28-28.82-25.5-49.8-30.57C326.92,247.89,336.38,245.28,336.22,238.82Z"/><path class="cls-16" d="M385,137.91c-7.91,8.56-17.57,16-26.35,22.65-4.29,3.28-6.66,5.66-11.32,7.25-4.26,1.45-11.46,1.72-16.48,2.84-31.19,7-63.4-1.27-95.2,2.39-13.59,1.57-26.61,5.54-39.81,8.9-11.14,2.83-25,8.06-36.51,7.77,10.77,4.17,14.53,7.16,22.11,15.65,6,6.67,10.63,7.81,19.31,7.43,18.38-.82,34.92-3.58,53-7.85,20.65-4.89,42.31-2.39,63.12.25,22.17,2.82,40.06,12.57,60.69-1.75,18-12.49,29.85-33.63,49.28-46.34-10.19-12.21-32.51-56.3-12.89-70.31-12.41,8.86-11.77,25-18.82,37.55A72.79,72.79,0,0,1,385,137.91ZM149.6,232c-.15-.33-.29-.66-.41-1a6,6,0,0,1,2.22-3.54ZM799.16,289c-2-.4-3.39-2-4.41-4.42Z"/><path class="cls-16" d="M885.35,260a49.76,49.76,0,0,0-9.32-1.93c-9.34-1.09-15.95,3.49-24,3.34,30.94.57,49.28,22.26,76.39,34.09,22.89,10,44.73,15.53,69.24,15,25.54-.54,49.47,4,75.21,1.79,26.48-2.3,52.64-7.22,78.67-12.5,37.77-7.66,75.54-16.31,114.05-19.41,16.89-1.36,34-1.78,50.75-2.73,15.8-.89,43.24-3.84,57.94,1.91C1322.18,259.13,1262,271,1208.85,283c-25.68,5.76-53.38,9.28-79.55,12.49-29.88,3.67-62.54,8-92.64,8C990,303.5,944,290.9,903.45,268.73,896.45,264.91,891.48,261.91,885.35,260ZM149.6,232c-.15-.33-.29-.66-.41-1a6,6,0,0,1,2.22-3.54ZM799.16,289c-2-.4-3.39-2-4.41-4.42Z"/><path class="cls-17" d="M427.72,143.84c-6.27-9-14.39-40.49-1.64-48.53,9.39-5.9,23.62,6,31.94,11.1,17.87,11,46.09,41.31,69.62,34.5C557,132.41,505.43,91,505.33,72c24.28-12.9,55.4,15.25,73.71,27.54,26.37,17.69,60.06,35.92,92,38.71,1.81-29.45-46.84-42.5-51.18-70.89-4.37-28.57,33.83.42,51,1.57,1.79.12-20.83-34.68-20.07-37.68,3.76-15,26.22-3.69,39.71-8.52a37.8,37.8,0,0,0-12,3c25.48-4.81,39.27,36.3,45.26,53.89,2.64,7.79,18.14,89.43,12.79,87.29-31.84-12.74-67.76-1.35-100.6-.41-18.29.52-31.63-6.28-48.4-8.71s-31.4,8.48-48.57,10.91c-18.59,2.63-40.92-4.88-59.75-5.88-21.18-1.11-49.9-8.38-63-26.61"/><path class="cls-17" d="M690,191.81c-32,2.78-32.66,57.09-26.89,78.18,14.1-1.82,9.91,23.41,23.65,28.76.13-8.75,1.77-16.63,3.5-25.26,3,1.39,5.92.13,8.83,2.64,7.35-19.52-7.77-56.22,16-68.07-6-4.89-9.78-11.87-14.74-17.71.25-3.17,1.6-1.59,3.2-3.06"/><path class="cls-17" d="M451.92,198.6c-28.36-16.74-75.29-9.23-90.63,22.45-14.64,30.26,41.41,71,67.18,83.52-5.77-17-48.71-67.35-2.3-60.14,3.47-31.66-10.41-31.51,25.45-41.68A24.18,24.18,0,0,0,449.21,192c-2.12-.54-4.53.23-6.53-.35"/><path class="cls-17" d="M427.72,143.84C399.4,103.06,456.06,45,498.18,39.06c18.25-2.55,39.61-4.8,57.29,2.19,24.85,9.81,31.12,13.4,54.49,3.87,26-10.6,54.64-15.74,82-22.59a38.64,38.64,0,0,0-13.4,3.2c25.48-4.81,39.27,36.3,45.26,53.89,2.64,7.79,18.14,89.43,12.79,87.29-31.84-12.74-67.76-1.35-100.6-.41-18.29.52-31.63-6.28-48.4-8.71s-31.4,8.48-48.57,10.91c-18.59,2.63-40.92-4.88-59.75-5.88-21.18-1.11-49.9-8.38-63-26.61"/></g></g></svg>