<svg xmlns="http://www.w3.org/2000/svg" viewBox="0 0 15 15"><defs><style>.cls-1{fill:#231f20;}.cls-2{fill:#2b388f;}.cls-3{fill:#00adee;}.cls-4{fill:#29b473;}.cls-5{fill:#006838;}.cls-6{fill:#00a69c;}.cls-7{fill:#009345;}.cls-8{fill:#2e3191;}.cls-9{fill:#1b75bb;}.cls-10{fill:#c1b49a;}</style></defs><title>UUDinoFaviconB</title><g id="Layer_2" data-name="Layer 2"><g id="Layer_1-2" data-name="Layer 1"><rect class="cls-1" x="14" width="1" height="1"/><rect class="cls-1" y="8" width="1" height="1"/><rect class="cls-1" y="9" width="1" height="1"/><rect class="cls-1" y="10" width="1" height="1"/><rect class="cls-1" y="11" width="1" height="1"/><rect class="cls-1" y="12" width="1" height="1"/><rect class="cls-1" y="13" width="1" height="1"/><rect class="cls-1" y="14" width="1" height="1"/><rect class="cls-2" x="1" y="8" width="1" height="1"/><rect class="cls-1" x="1" y="9" width="1" height="1"/><rect class="cls-1" x="1" y="10" width="1" height="1"/><rect class="cls-1" x="1" y="11" width="1" height="1"/><rect class="cls-1" x="1" y="12" width="1" height="1"/><rect class="cls-1" x="1" y="13" width="1" height="1"/><rect class="cls-1" x="1" y="14" width="1" height="1"/><rect class="cls-3" x="2" y="8" width="1" height="1"/><rect class="cls-4" x="2" y="9" width="1" height="1"/><rect class="cls-5" x="2" y="10" width="1" height="1"/><rect class="cls-1" x="2" y="11" width="1" height="1"/><rect class="cls-1" x="2" y="12" width="1" height="1"/><rect class="cls-1" x="2" y="13" width="1" height="1"/><rect class="cls-1" x="2" y="14" width="1" height="1"/><rect class="cls-6" x="3" y="8" width="1" height="1"/><rect class="cls-3" x="3" y="9" width="1" height="1"/><rect class="cls-7" x="3" y="10" width="1" height="1"/><rect class="cls-1" x="3" y="11" width="1" height="1"/><rect class="cls-1" x="3" y="12" width="1" height="1"/><rect class="cls-1" x="3" y="13" width="1" height="1"/><rect class="cls-1" x="3" y="14" width="1" height="1"/><rect class="cls-6" x="4" y="8" width="1" height="1"/><rect class="cls-6" x="4" y="9" width="1" height="1"/><rect class="cls-4" x="4" y="10" width="1" height="1"/><rect class="cls-1" x="4" y="11" width="1" height="1"/><rect class="cls-6" x="4" y="12" width="1" height="1"/><rect class="cls-1" x="4" y="13" width="1" height="1"/><rect class="cls-1" x="4" y="14" width="1" height="1"/><rect class="cls-6" x="5" y="8" width="1" height="1"/><rect class="cls-6" x="5" y="9" width="1" height="1"/><rect class="cls-5" x="5" y="10" width="1" height="1"/><rect class="cls-1" x="5" y="11" width="1" height="1"/><rect class="cls-6" x="5" y="12" width="1" height="1"/><rect class="cls-1" x="5" y="13" width="1" height="1"/><rect class="cls-1" x="5" y="14" width="1" height="1"/><rect class="cls-6" x="6" y="8" width="1" height="1"/><rect class="cls-6" x="6" y="9" width="1" height="1"/><rect class="cls-6" x="6" y="10" width="1" height="1"/><rect class="cls-6" x="6" y="11" width="1" height="1"/><rect class="cls-6" x="6" y="12" width="1" height="1"/><rect class="cls-1" x="6" y="13" width="1" height="1"/><rect class="cls-1" x="6" y="14" width="1" height="1"/><rect class="cls-1" width="1" height="1"/><rect class="cls-1" y="1" width="1" height="1"/><rect class="cls-1" y="2" width="1" height="1"/><rect class="cls-1" y="3" width="1" height="1"/><rect class="cls-1" y="4" width="1" height="1"/><rect class="cls-1" y="5" width="1" height="1"/><rect class="cls-1" y="6" width="1" height="1"/><rect class="cls-1" y="7" width="1" height="1"/><rect class="cls-1" x="1" width="1" height="1"/><rect class="cls-1" x="1" y="1" width="1" height="1"/><rect class="cls-1" x="1" y="2" width="1" height="1"/><rect class="cls-1" x="1" y="3" width="1" height="1"/><rect class="cls-1" x="1" y="4" width="1" height="1"/><rect class="cls-1" x="1" y="5" width="1" height="1"/><rect class="cls-3" x="1" y="6" width="1" height="1"/><rect class="cls-3" x="1" y="7" width="1" height="1"/><rect class="cls-1" x="2" width="1" height="1"/><rect class="cls-3" x="2" y="1" width="1" height="1"/><rect class="cls-3" x="2" y="2" width="1" height="1"/><rect class="cls-8" x="2" y="3" width="1" height="1"/><rect class="cls-1" x="2" y="4" width="1" height="1"/><rect class="cls-1" x="2" y="5" width="1" height="1"/><rect class="cls-1" x="2" y="6" width="1" height="1"/><rect class="cls-3" x="2" y="7" width="1" height="1"/><rect class="cls-1" x="3" width="1" height="1"/><rect class="cls-1" x="3" y="1" width="1" height="1"/><rect class="cls-9" x="3" y="2" width="1" height="1"/><rect class="cls-9" x="3" y="3" width="1" height="1"/><rect class="cls-8" x="3" y="4" width="1" height="1"/><rect class="cls-1" x="3" y="5" width="1" height="1"/><rect class="cls-1" x="3" y="6" width="1" height="1"/><rect class="cls-2" x="3" y="7" width="1" height="1"/><rect class="cls-1" x="4" width="1" height="1"/><rect class="cls-1" x="4" y="1" width="1" height="1"/><rect class="cls-1" x="4" y="2" width="1" height="1"/><rect class="cls-6" x="4" y="3" width="1" height="1"/><rect class="cls-9" x="4" y="4" width="1" height="1"/><rect class="cls-8" x="4" y="5" width="1" height="1"/><rect class="cls-6" x="4" y="6" width="1" height="1"/><rect class="cls-6" x="4" y="7" width="1" height="1"/><rect class="cls-1" x="5" width="1" height="1"/><rect class="cls-3" x="5" y="1" width="1" height="2"/><rect class="cls-9" x="5" y="2" width="1" height="1"/><rect class="cls-9" x="5" y="3" width="1" height="1"/><rect class="cls-6" x="5" y="4" width="1" height="1"/><rect class="cls-6" x="5" y="5" width="1" height="1"/><rect class="cls-6" x="5" y="6" width="1" height="1"/><rect class="cls-6" x="5" y="7" width="1" height="1"/><rect class="cls-1" x="6" width="1" height="1"/><rect class="cls-1" x="6" y="1" width="1" height="1"/><rect class="cls-3" x="6" y="2" width="1" height="1"/><rect class="cls-9" x="6" y="3" width="1" height="1"/><rect class="cls-8" x="6" y="4" width="1" height="1"/><rect class="cls-6" x="6" y="5" width="1" height="1"/><rect class="cls-6" x="6" y="6" width="1" height="1"/><rect class="cls-6" x="6" y="7" width="1" height="1"/><rect class="cls-6" x="7" y="8" width="1" height="1"/><rect class="cls-6" x="7" y="9" width="1" height="1"/><rect class="cls-6" x="7" y="10" width="1" height="1"/><rect class="cls-6" x="7" y="11" width="1" height="1"/><rect class="cls-6" x="7" y="12" width="1" height="1"/><rect class="cls-1" x="7" y="13" width="1" height="1"/><rect class="cls-1" x="7" y="14" width="1" height="1"/><rect class="cls-6" x="8" y="8" width="1" height="1"/><rect class="cls-5" x="8" y="9" width="1" height="1"/><rect class="cls-6" x="8" y="10" width="1" height="1"/><rect class="cls-6" x="8" y="11" width="1" height="1"/><rect class="cls-6" x="8" y="12" width="1" height="1"/><rect class="cls-1" x="8" y="13" width="1" height="1"/><rect class="cls-1" x="8" y="14" width="1" height="1"/><rect class="cls-5" x="9" y="8" width="1" height="1"/><rect class="cls-10" x="9" y="9" width="1" height="1"/><rect class="cls-6" x="9" y="10" width="1" height="1"/><rect class="cls-6" x="9" y="11" width="1" height="1"/><rect class="cls-1" x="9" y="12" width="1" height="1"/><rect class="cls-1" x="9" y="13" width="1" height="1"/><rect class="cls-1" x="9" y="14" width="1" height="1"/><rect class="cls-5" x="10" y="8" width="1" height="1"/><rect class="cls-10" x="10" y="9" width="1" height="1"/><rect class="cls-1" x="10" y="10" width="1" height="1"/><rect class="cls-1" x="10" y="11" width="1" height="1"/><rect class="cls-1" x="10" y="12" width="1" height="1"/><rect class="cls-1" x="10" y="13" width="1" height="1"/><rect class="cls-1" x="10" y="14" width="1" height="1"/><rect class="cls-5" x="11" y="8" width="1" height="1"/><rect class="cls-5" x="11" y="9" width="1" height="1"/><rect class="cls-1" x="11" y="10" width="1" height="1"/><rect class="cls-1" x="11" y="11" width="1" height="1"/><rect class="cls-1" x="11" y="12" width="1" height="1"/><rect class="cls-1" x="11" y="13" width="1" height="1"/><rect class="cls-1" x="11" y="14" width="1" height="1"/><rect class="cls-5" x="12" y="8" width="1" height="1"/><rect class="cls-1" x="12" y="9" width="1" height="1"/><rect class="cls-1" x="12" y="10" width="1" height="1"/><rect class="cls-1" x="12" y="11" width="1" height="1"/><rect class="cls-1" x="12" y="12" width="1" height="1"/><rect class="cls-1" x="12" y="13" width="1" height="1"/><rect class="cls-1" x="12" y="14" width="1" height="1"/><rect class="cls-1" x="13" y="8" width="1" height="1"/><rect class="cls-1" x="13" y="9" width="1" height="1"/><rect class="cls-1" x="13" y="10" width="1" height="1"/><rect class="cls-1" x="13" y="11" width="1" height="1"/><rect class="cls-1" x="13" y="12" width="1" height="1"/><rect class="cls-1" x="13" y="13" width="1" height="1"/><rect class="cls-1" x="13" y="14" width="1" height="1"/><rect class="cls-1" x="14" y="8" width="1" height="1"/><rect class="cls-1" x="14" y="9" width="1" height="1"/><rect class="cls-1" x="14" y="10" width="1" height="1"/><rect class="cls-1" x="14" y="11" width="1" height="1"/><rect class="cls-1" x="14" y="12" width="1" height="1"/><rect class="cls-1" x="14" y="13" width="1" height="1"/><rect class="cls-1" x="14" y="14" width="1" height="1"/><rect class="cls-1" x="7" width="1" height="1"/><rect class="cls-1" x="7" y="1" width="1" height="1"/><rect class="cls-10" x="7" y="2" width="1" height="1"/><rect class="cls-3" x="7" y="3" width="1" height="1"/><rect class="cls-9" x="7" y="4" width="1" height="1"/><rect class="cls-2" x="7" y="5" width="1" height="1"/><rect class="cls-4" x="7" y="7" width="1" height="1"/><rect class="cls-1" x="7" y="6" width="1" height="1"/><rect class="cls-1" x="8" width="1" height="1"/><rect class="cls-1" x="8" y="1" width="1" height="1"/><rect class="cls-1" x="8" y="2" width="1" height="1"/><rect class="cls-6" x="8" y="3" width="1" height="1"/><rect class="cls-6" x="8" y="4" width="1" height="1"/><rect class="cls-9" x="8" y="5" width="1" height="1"/><rect class="cls-4" x="8" y="7" width="1" height="1"/><rect class="cls-4" x="8" y="6" width="1" height="1"/><rect class="cls-1" x="9" width="1" height="1"/><rect class="cls-1" x="9" y="1" width="1" height="1"/><rect class="cls-10" x="9" y="2" width="1" height="1"/><rect class="cls-6" x="9" y="3" width="1" height="1"/><rect class="cls-6" x="9" y="4" width="1" height="1"/><rect class="cls-6" x="9" y="5" width="1" height="1"/><rect class="cls-6" x="9" y="6" width="1" height="1"/><rect class="cls-6" x="9" y="7" width="1" height="1"/><rect class="cls-1" x="10" width="1" height="1"/><rect class="cls-1" x="10" y="1" width="1" height="1"/><rect class="cls-1" x="10" y="2" width="1" height="1"/><rect class="cls-6" x="10" y="3" width="1" height="1"/><rect class="cls-6" x="10" y="4" width="1" height="1"/><rect class="cls-6" x="10" y="5" width="1" height="1"/><rect class="cls-6" x="10" y="6" width="1" height="1"/><rect class="cls-6" x="10" y="7" width="1" height="1"/><rect class="cls-1" x="11" width="1" height="1"/><rect class="cls-1" x="11" y="1" width="1" height="1"/><rect class="cls-1" x="11" y="2" width="1" height="1"/><rect class="cls-10" x="11" y="3" width="1" height="1"/><rect class="cls-6" x="11" y="4" width="1" height="1"/><rect class="cls-6" x="11" y="5" width="1" height="1"/><rect class="cls-6" x="11" y="6" width="1" height="1"/><rect class="cls-6" x="11" y="7" width="1" height="1"/><rect class="cls-1" x="12" width="1" height="1"/><rect class="cls-1" x="12" y="1" width="1" height="1"/><rect class="cls-1" x="12" y="2" width="1" height="1"/><rect class="cls-1" x="12" y="3" width="1" height="1"/><rect class="cls-1" x="12" y="4" width="1" height="1"/><rect class="cls-10" x="12" y="5" width="1" height="1"/><rect class="cls-6" x="12" y="6" width="1" height="1"/><rect class="cls-5" x="12" y="7" width="1" height="1"/><rect class="cls-1" x="13" width="1" height="1"/><rect class="cls-1" x="13" y="1" width="1" height="1"/><rect class="cls-1" x="13" y="2" width="1" height="1"/><rect class="cls-1" x="13" y="3" width="1" height="1"/><rect class="cls-1" x="13" y="4" width="1" height="1"/><rect class="cls-1" x="13" y="5" width="1" height="1"/><rect class="cls-1" x="13" y="6" width="1" height="1"/><rect class="cls-10" x="13" y="7" width="1" height="1"/><rect class="cls-1" x="14" width="1" height="1"/><rect class="cls-1" x="14" y="1" width="1" height="1"/><rect class="cls-1" x="14" y="2" width="1" height="1"/><rect class="cls-1" x="14" y="3" width="1" height="1"/><rect class="cls-1" x="14" y="4" width="1" height="1"/><rect class="cls-1" x="14" y="5" width="1" height="1"/><rect class="cls-1" x="14" y="6" width="1" height="1"/><rect class="cls-1" x="14" y="7" width="1" height="1"/></g></g></svg>